<?xml version="1.0" encoding="utf-8" standalone="no"?>
<!DOCTYPE svg PUBLIC "-//W3C//DTD SVG 1.1//EN"
  "http://www.w3.org/Graphics/SVG/1.1/DTD/svg11.dtd">
<!-- Created with matplotlib (https://matplotlib.org/) -->
<svg height="201.197344pt" version="1.1" viewBox="0 0 542.684375 201.197344" width="542.684375pt" xmlns="http://www.w3.org/2000/svg" xmlns:xlink="http://www.w3.org/1999/xlink">
 <defs>
  <style type="text/css">
*{stroke-linecap:butt;stroke-linejoin:round;white-space:pre;}
  </style>
 </defs>
 <g id="figure_1">
  <g id="patch_1">
   <path d="M 0 201.197344 
L 542.684375 201.197344 
L 542.684375 0 
L 0 0 
z
" style="fill:#ffffff;"/>
  </g>
  <g id="axes_1">
   <g id="patch_2">
    <path d="M 30.103125 177.319219 
L 532.303125 177.319219 
L 532.303125 10.999219 
L 30.103125 10.999219 
z
" style="fill:#ffffff;"/>
   </g>
   <g id="matplotlib.axis_1">
    <g id="xtick_1">
     <g id="line2d_1">
      <defs>
       <path d="M 0 0 
L 0 3.5 
" id="m396f69a553" style="stroke:#000000;stroke-width:0.8;"/>
      </defs>
      <g>
       <use style="stroke:#000000;stroke-width:0.8;" x="30.103125" xlink:href="#m396f69a553" y="177.319219"/>
      </g>
     </g>
     <g id="text_1">
      <!-- −6 -->
      <defs>
       <path d="M 10.59375 35.5 
L 73.1875 35.5 
L 73.1875 27.203125 
L 10.59375 27.203125 
z
" id="DejaVuSans-8722"/>
       <path d="M 33.015625 40.375 
Q 26.375 40.375 22.484375 35.828125 
Q 18.609375 31.296875 18.609375 23.390625 
Q 18.609375 15.53125 22.484375 10.953125 
Q 26.375 6.390625 33.015625 6.390625 
Q 39.65625 6.390625 43.53125 10.953125 
Q 47.40625 15.53125 47.40625 23.390625 
Q 47.40625 31.296875 43.53125 35.828125 
Q 39.65625 40.375 33.015625 40.375 
z
M 52.59375 71.296875 
L 52.59375 62.3125 
Q 48.875 64.0625 45.09375 64.984375 
Q 41.3125 65.921875 37.59375 65.921875 
Q 27.828125 65.921875 22.671875 59.328125 
Q 17.53125 52.734375 16.796875 39.40625 
Q 19.671875 43.65625 24.015625 45.921875 
Q 28.375 48.1875 33.59375 48.1875 
Q 44.578125 48.1875 50.953125 41.515625 
Q 57.328125 34.859375 57.328125 23.390625 
Q 57.328125 12.15625 50.6875 5.359375 
Q 44.046875 -1.421875 33.015625 -1.421875 
Q 20.359375 -1.421875 13.671875 8.265625 
Q 6.984375 17.96875 6.984375 36.375 
Q 6.984375 53.65625 15.1875 63.9375 
Q 23.390625 74.21875 37.203125 74.21875 
Q 40.921875 74.21875 44.703125 73.484375 
Q 48.484375 72.75 52.59375 71.296875 
z
" id="DejaVuSans-54"/>
      </defs>
      <g transform="translate(22.732031 191.917656)scale(0.1 -0.1)">
       <use xlink:href="#DejaVuSans-8722"/>
       <use x="83.789062" xlink:href="#DejaVuSans-54"/>
      </g>
     </g>
    </g>
    <g id="xtick_2">
     <g id="line2d_2">
      <g>
       <use style="stroke:#000000;stroke-width:0.8;" x="85.903125" xlink:href="#m396f69a553" y="177.319219"/>
      </g>
     </g>
     <g id="text_2">
      <!-- −5 -->
      <defs>
       <path d="M 10.796875 72.90625 
L 49.515625 72.90625 
L 49.515625 64.59375 
L 19.828125 64.59375 
L 19.828125 46.734375 
Q 21.96875 47.46875 24.109375 47.828125 
Q 26.265625 48.1875 28.421875 48.1875 
Q 40.625 48.1875 47.75 41.5 
Q 54.890625 34.8125 54.890625 23.390625 
Q 54.890625 11.625 47.5625 5.09375 
Q 40.234375 -1.421875 26.90625 -1.421875 
Q 22.3125 -1.421875 17.546875 -0.640625 
Q 12.796875 0.140625 7.71875 1.703125 
L 7.71875 11.625 
Q 12.109375 9.234375 16.796875 8.0625 
Q 21.484375 6.890625 26.703125 6.890625 
Q 35.15625 6.890625 40.078125 11.328125 
Q 45.015625 15.765625 45.015625 23.390625 
Q 45.015625 31 40.078125 35.4375 
Q 35.15625 39.890625 26.703125 39.890625 
Q 22.75 39.890625 18.8125 39.015625 
Q 14.890625 38.140625 10.796875 36.28125 
z
" id="DejaVuSans-53"/>
      </defs>
      <g transform="translate(78.532031 191.917656)scale(0.1 -0.1)">
       <use xlink:href="#DejaVuSans-8722"/>
       <use x="83.789062" xlink:href="#DejaVuSans-53"/>
      </g>
     </g>
    </g>
    <g id="xtick_3">
     <g id="line2d_3">
      <g>
       <use style="stroke:#000000;stroke-width:0.8;" x="141.703125" xlink:href="#m396f69a553" y="177.319219"/>
      </g>
     </g>
     <g id="text_3">
      <!-- −4 -->
      <defs>
       <path d="M 37.796875 64.3125 
L 12.890625 25.390625 
L 37.796875 25.390625 
z
M 35.203125 72.90625 
L 47.609375 72.90625 
L 47.609375 25.390625 
L 58.015625 25.390625 
L 58.015625 17.1875 
L 47.609375 17.1875 
L 47.609375 0 
L 37.796875 0 
L 37.796875 17.1875 
L 4.890625 17.1875 
L 4.890625 26.703125 
z
" id="DejaVuSans-52"/>
      </defs>
      <g transform="translate(134.332031 191.917656)scale(0.1 -0.1)">
       <use xlink:href="#DejaVuSans-8722"/>
       <use x="83.789062" xlink:href="#DejaVuSans-52"/>
      </g>
     </g>
    </g>
    <g id="xtick_4">
     <g id="line2d_4">
      <g>
       <use style="stroke:#000000;stroke-width:0.8;" x="197.503125" xlink:href="#m396f69a553" y="177.319219"/>
      </g>
     </g>
     <g id="text_4">
      <!-- −3 -->
      <defs>
       <path d="M 40.578125 39.3125 
Q 47.65625 37.796875 51.625 33 
Q 55.609375 28.21875 55.609375 21.1875 
Q 55.609375 10.40625 48.1875 4.484375 
Q 40.765625 -1.421875 27.09375 -1.421875 
Q 22.515625 -1.421875 17.65625 -0.515625 
Q 12.796875 0.390625 7.625 2.203125 
L 7.625 11.71875 
Q 11.71875 9.328125 16.59375 8.109375 
Q 21.484375 6.890625 26.8125 6.890625 
Q 36.078125 6.890625 40.9375 10.546875 
Q 45.796875 14.203125 45.796875 21.1875 
Q 45.796875 27.640625 41.28125 31.265625 
Q 36.765625 34.90625 28.71875 34.90625 
L 20.21875 34.90625 
L 20.21875 43.015625 
L 29.109375 43.015625 
Q 36.375 43.015625 40.234375 45.921875 
Q 44.09375 48.828125 44.09375 54.296875 
Q 44.09375 59.90625 40.109375 62.90625 
Q 36.140625 65.921875 28.71875 65.921875 
Q 24.65625 65.921875 20.015625 65.03125 
Q 15.375 64.15625 9.8125 62.3125 
L 9.8125 71.09375 
Q 15.4375 72.65625 20.34375 73.4375 
Q 25.25 74.21875 29.59375 74.21875 
Q 40.828125 74.21875 47.359375 69.109375 
Q 53.90625 64.015625 53.90625 55.328125 
Q 53.90625 49.265625 50.4375 45.09375 
Q 46.96875 40.921875 40.578125 39.3125 
z
" id="DejaVuSans-51"/>
      </defs>
      <g transform="translate(190.132031 191.917656)scale(0.1 -0.1)">
       <use xlink:href="#DejaVuSans-8722"/>
       <use x="83.789062" xlink:href="#DejaVuSans-51"/>
      </g>
     </g>
    </g>
    <g id="xtick_5">
     <g id="line2d_5">
      <g>
       <use style="stroke:#000000;stroke-width:0.8;" x="253.303125" xlink:href="#m396f69a553" y="177.319219"/>
      </g>
     </g>
     <g id="text_5">
      <!-- −2 -->
      <defs>
       <path d="M 19.1875 8.296875 
L 53.609375 8.296875 
L 53.609375 0 
L 7.328125 0 
L 7.328125 8.296875 
Q 12.9375 14.109375 22.625 23.890625 
Q 32.328125 33.6875 34.8125 36.53125 
Q 39.546875 41.84375 41.421875 45.53125 
Q 43.3125 49.21875 43.3125 52.78125 
Q 43.3125 58.59375 39.234375 62.25 
Q 35.15625 65.921875 28.609375 65.921875 
Q 23.96875 65.921875 18.8125 64.3125 
Q 13.671875 62.703125 7.8125 59.421875 
L 7.8125 69.390625 
Q 13.765625 71.78125 18.9375 73 
Q 24.125 74.21875 28.421875 74.21875 
Q 39.75 74.21875 46.484375 68.546875 
Q 53.21875 62.890625 53.21875 53.421875 
Q 53.21875 48.921875 51.53125 44.890625 
Q 49.859375 40.875 45.40625 35.40625 
Q 44.1875 33.984375 37.640625 27.21875 
Q 31.109375 20.453125 19.1875 8.296875 
z
" id="DejaVuSans-50"/>
      </defs>
      <g transform="translate(245.932031 191.917656)scale(0.1 -0.1)">
       <use xlink:href="#DejaVuSans-8722"/>
       <use x="83.789062" xlink:href="#DejaVuSans-50"/>
      </g>
     </g>
    </g>
    <g id="xtick_6">
     <g id="line2d_6">
      <g>
       <use style="stroke:#000000;stroke-width:0.8;" x="309.103125" xlink:href="#m396f69a553" y="177.319219"/>
      </g>
     </g>
     <g id="text_6">
      <!-- −1 -->
      <defs>
       <path d="M 12.40625 8.296875 
L 28.515625 8.296875 
L 28.515625 63.921875 
L 10.984375 60.40625 
L 10.984375 69.390625 
L 28.421875 72.90625 
L 38.28125 72.90625 
L 38.28125 8.296875 
L 54.390625 8.296875 
L 54.390625 0 
L 12.40625 0 
z
" id="DejaVuSans-49"/>
      </defs>
      <g transform="translate(301.732031 191.917656)scale(0.1 -0.1)">
       <use xlink:href="#DejaVuSans-8722"/>
       <use x="83.789062" xlink:href="#DejaVuSans-49"/>
      </g>
     </g>
    </g>
    <g id="xtick_7">
     <g id="line2d_7">
      <g>
       <use style="stroke:#000000;stroke-width:0.8;" x="364.903125" xlink:href="#m396f69a553" y="177.319219"/>
      </g>
     </g>
     <g id="text_7">
      <!-- 0 -->
      <defs>
       <path d="M 31.78125 66.40625 
Q 24.171875 66.40625 20.328125 58.90625 
Q 16.5 51.421875 16.5 36.375 
Q 16.5 21.390625 20.328125 13.890625 
Q 24.171875 6.390625 31.78125 6.390625 
Q 39.453125 6.390625 43.28125 13.890625 
Q 47.125 21.390625 47.125 36.375 
Q 47.125 51.421875 43.28125 58.90625 
Q 39.453125 66.40625 31.78125 66.40625 
z
M 31.78125 74.21875 
Q 44.046875 74.21875 50.515625 64.515625 
Q 56.984375 54.828125 56.984375 36.375 
Q 56.984375 17.96875 50.515625 8.265625 
Q 44.046875 -1.421875 31.78125 -1.421875 
Q 19.53125 -1.421875 13.0625 8.265625 
Q 6.59375 17.96875 6.59375 36.375 
Q 6.59375 54.828125 13.0625 64.515625 
Q 19.53125 74.21875 31.78125 74.21875 
z
" id="DejaVuSans-48"/>
      </defs>
      <g transform="translate(361.721875 191.917656)scale(0.1 -0.1)">
       <use xlink:href="#DejaVuSans-48"/>
      </g>
     </g>
    </g>
    <g id="xtick_8">
     <g id="line2d_8">
      <g>
       <use style="stroke:#000000;stroke-width:0.8;" x="420.703125" xlink:href="#m396f69a553" y="177.319219"/>
      </g>
     </g>
     <g id="text_8">
      <!-- 1 -->
      <g transform="translate(417.521875 191.917656)scale(0.1 -0.1)">
       <use xlink:href="#DejaVuSans-49"/>
      </g>
     </g>
    </g>
    <g id="xtick_9">
     <g id="line2d_9">
      <g>
       <use style="stroke:#000000;stroke-width:0.8;" x="476.503125" xlink:href="#m396f69a553" y="177.319219"/>
      </g>
     </g>
     <g id="text_9">
      <!-- 2 -->
      <g transform="translate(473.321875 191.917656)scale(0.1 -0.1)">
       <use xlink:href="#DejaVuSans-50"/>
      </g>
     </g>
    </g>
    <g id="xtick_10">
     <g id="line2d_10">
      <g>
       <use style="stroke:#000000;stroke-width:0.8;" x="532.303125" xlink:href="#m396f69a553" y="177.319219"/>
      </g>
     </g>
     <g id="text_10">
      <!-- 3 -->
      <g transform="translate(529.121875 191.917656)scale(0.1 -0.1)">
       <use xlink:href="#DejaVuSans-51"/>
      </g>
     </g>
    </g>
   </g>
   <g id="matplotlib.axis_2">
    <g id="ytick_1">
     <g id="line2d_11">
      <defs>
       <path d="M 0 0 
L -3.5 0 
" id="m77ef269c79" style="stroke:#000000;stroke-width:0.8;"/>
      </defs>
      <g>
       <use style="stroke:#000000;stroke-width:0.8;" x="30.103125" xlink:href="#m77ef269c79" y="177.319219"/>
      </g>
     </g>
     <g id="text_11">
      <!-- 0.0 -->
      <defs>
       <path d="M 10.6875 12.40625 
L 21 12.40625 
L 21 0 
L 10.6875 0 
z
" id="DejaVuSans-46"/>
      </defs>
      <g transform="translate(7.2 181.118438)scale(0.1 -0.1)">
       <use xlink:href="#DejaVuSans-48"/>
       <use x="63.623047" xlink:href="#DejaVuSans-46"/>
       <use x="95.410156" xlink:href="#DejaVuSans-48"/>
      </g>
     </g>
    </g>
    <g id="ytick_2">
     <g id="line2d_12">
      <g>
       <use style="stroke:#000000;stroke-width:0.8;" x="30.103125" xlink:href="#m77ef269c79" y="144.055219"/>
      </g>
     </g>
     <g id="text_12">
      <!-- 0.2 -->
      <g transform="translate(7.2 147.854438)scale(0.1 -0.1)">
       <use xlink:href="#DejaVuSans-48"/>
       <use x="63.623047" xlink:href="#DejaVuSans-46"/>
       <use x="95.410156" xlink:href="#DejaVuSans-50"/>
      </g>
     </g>
    </g>
    <g id="ytick_3">
     <g id="line2d_13">
      <g>
       <use style="stroke:#000000;stroke-width:0.8;" x="30.103125" xlink:href="#m77ef269c79" y="110.791219"/>
      </g>
     </g>
     <g id="text_13">
      <!-- 0.4 -->
      <g transform="translate(7.2 114.590438)scale(0.1 -0.1)">
       <use xlink:href="#DejaVuSans-48"/>
       <use x="63.623047" xlink:href="#DejaVuSans-46"/>
       <use x="95.410156" xlink:href="#DejaVuSans-52"/>
      </g>
     </g>
    </g>
    <g id="ytick_4">
     <g id="line2d_14">
      <g>
       <use style="stroke:#000000;stroke-width:0.8;" x="30.103125" xlink:href="#m77ef269c79" y="77.527219"/>
      </g>
     </g>
     <g id="text_14">
      <!-- 0.6 -->
      <g transform="translate(7.2 81.326437)scale(0.1 -0.1)">
       <use xlink:href="#DejaVuSans-48"/>
       <use x="63.623047" xlink:href="#DejaVuSans-46"/>
       <use x="95.410156" xlink:href="#DejaVuSans-54"/>
      </g>
     </g>
    </g>
    <g id="ytick_5">
     <g id="line2d_15">
      <g>
       <use style="stroke:#000000;stroke-width:0.8;" x="30.103125" xlink:href="#m77ef269c79" y="44.263219"/>
      </g>
     </g>
     <g id="text_15">
      <!-- 0.8 -->
      <defs>
       <path d="M 31.78125 34.625 
Q 24.75 34.625 20.71875 30.859375 
Q 16.703125 27.09375 16.703125 20.515625 
Q 16.703125 13.921875 20.71875 10.15625 
Q 24.75 6.390625 31.78125 6.390625 
Q 38.8125 6.390625 42.859375 10.171875 
Q 46.921875 13.96875 46.921875 20.515625 
Q 46.921875 27.09375 42.890625 30.859375 
Q 38.875 34.625 31.78125 34.625 
z
M 21.921875 38.8125 
Q 15.578125 40.375 12.03125 44.71875 
Q 8.5 49.078125 8.5 55.328125 
Q 8.5 64.0625 14.71875 69.140625 
Q 20.953125 74.21875 31.78125 74.21875 
Q 42.671875 74.21875 48.875 69.140625 
Q 55.078125 64.0625 55.078125 55.328125 
Q 55.078125 49.078125 51.53125 44.71875 
Q 48 40.375 41.703125 38.8125 
Q 48.828125 37.15625 52.796875 32.3125 
Q 56.78125 27.484375 56.78125 20.515625 
Q 56.78125 9.90625 50.3125 4.234375 
Q 43.84375 -1.421875 31.78125 -1.421875 
Q 19.734375 -1.421875 13.25 4.234375 
Q 6.78125 9.90625 6.78125 20.515625 
Q 6.78125 27.484375 10.78125 32.3125 
Q 14.796875 37.15625 21.921875 38.8125 
z
M 18.3125 54.390625 
Q 18.3125 48.734375 21.84375 45.5625 
Q 25.390625 42.390625 31.78125 42.390625 
Q 38.140625 42.390625 41.71875 45.5625 
Q 45.3125 48.734375 45.3125 54.390625 
Q 45.3125 60.0625 41.71875 63.234375 
Q 38.140625 66.40625 31.78125 66.40625 
Q 25.390625 66.40625 21.84375 63.234375 
Q 18.3125 60.0625 18.3125 54.390625 
z
" id="DejaVuSans-56"/>
      </defs>
      <g transform="translate(7.2 48.062437)scale(0.1 -0.1)">
       <use xlink:href="#DejaVuSans-48"/>
       <use x="63.623047" xlink:href="#DejaVuSans-46"/>
       <use x="95.410156" xlink:href="#DejaVuSans-56"/>
      </g>
     </g>
    </g>
    <g id="ytick_6">
     <g id="line2d_16">
      <g>
       <use style="stroke:#000000;stroke-width:0.8;" x="30.103125" xlink:href="#m77ef269c79" y="10.999219"/>
      </g>
     </g>
     <g id="text_16">
      <!-- 1.0 -->
      <g transform="translate(7.2 14.798438)scale(0.1 -0.1)">
       <use xlink:href="#DejaVuSans-49"/>
       <use x="63.623047" xlink:href="#DejaVuSans-46"/>
       <use x="95.410156" xlink:href="#DejaVuSans-48"/>
      </g>
     </g>
    </g>
   </g>
   <g id="line2d_17">
    <path clip-path="url(#p6f8ef09518)" d="M 30.103125 168.565535 
L 51.766654 167.387266 
L 71.460772 166.102308 
L 89.185478 164.726481 
L 104.940772 163.286521 
L 118.726654 161.821402 
L 132.512537 160.123878 
L 144.329007 158.446824 
L 156.145478 156.524542 
L 165.992537 154.701615 
L 175.839596 152.642914 
L 183.717243 150.800074 
L 191.59489 148.757861 
L 199.472537 146.489191 
L 207.350184 143.962883 
L 215.227831 141.143104 
L 221.136066 138.811199 
L 227.044301 136.27184 
L 232.952537 133.503719 
L 238.860772 130.483579 
L 244.769007 127.186258 
L 250.677243 123.584836 
L 256.585478 119.650976 
L 262.493713 115.355521 
L 268.401949 110.66945 
L 274.310184 105.565352 
L 280.218419 100.01955 
L 286.126654 94.015094 
L 292.03489 87.545807 
L 297.943125 80.621544 
L 303.85136 73.274715 
L 309.759596 65.567894 
L 317.637243 54.912985 
L 329.453713 38.926728 
L 333.392537 33.871445 
L 337.33136 29.093981 
L 341.270184 24.688455 
L 345.209007 20.75088 
L 347.178419 18.987049 
L 349.147831 17.374856 
L 351.117243 15.924819 
L 353.086654 14.646686 
L 355.056066 13.54927 
L 357.025478 12.64031 
L 358.99489 11.926335 
L 360.964301 11.41255 
L 362.933713 11.102745 
L 364.903125 10.999219 
L 366.872537 11.102745 
L 368.841949 11.41255 
L 370.81136 11.926335 
L 372.780772 12.64031 
L 374.750184 13.54927 
L 376.719596 14.646686 
L 378.689007 15.924819 
L 380.658419 17.374856 
L 382.627831 18.987049 
L 386.566654 22.655212 
L 390.505478 26.838723 
L 394.444301 31.442193 
L 398.383125 36.370066 
L 404.29136 44.171075 
L 423.985478 70.741658 
L 429.893713 78.217161 
L 435.801949 85.287205 
L 441.710184 91.910213 
L 447.618419 98.069598 
L 453.526654 103.766839 
L 459.43489 109.015803 
L 465.343125 113.838303 
L 471.25136 118.260783 
L 477.159596 122.311917 
L 483.067831 126.020948 
L 488.976066 129.416566 
L 494.884301 132.526212 
L 500.792537 135.37566 
L 506.700772 137.988809 
L 512.609007 140.387617 
L 518.517243 142.592114 
L 526.39489 145.260365 
L 532.303125 147.079219 
L 532.303125 147.079219 
" style="fill:none;stroke:#1f77b4;stroke-dasharray:3.7,1.6;stroke-dashoffset:0;"/>
   </g>
   <g id="line2d_18">
    <path clip-path="url(#p6f8ef09518)" d="M 30.103125 176.494692 
L 55.705478 176.014655 
L 77.369007 175.395835 
L 95.093713 174.676776 
L 110.849007 173.814856 
L 124.63489 172.833061 
L 136.45136 171.775501 
L 146.298419 170.706345 
L 156.145478 169.431385 
L 165.992537 167.911278 
L 173.870184 166.487601 
L 181.747831 164.849545 
L 189.625478 162.965385 
L 197.503125 160.798998 
L 203.41136 158.964541 
L 209.319596 156.929174 
L 215.227831 154.671934 
L 221.136066 152.170058 
L 227.044301 149.39898 
L 232.952537 146.332396 
L 238.860772 142.942424 
L 244.769007 139.199914 
L 250.677243 135.074938 
L 254.616066 132.097655 
L 258.55489 128.928395 
L 262.493713 125.558892 
L 266.432537 121.981516 
L 270.37136 118.189563 
L 274.310184 114.177601 
L 278.249007 109.941894 
L 282.187831 105.480884 
L 288.096066 98.370451 
L 294.004301 90.775675 
L 299.912537 82.738463 
L 305.820772 74.329626 
L 315.667831 59.794662 
L 325.51489 45.282857 
L 331.423125 37.019868 
L 335.361949 31.86369 
L 339.300772 27.091481 
L 343.239596 22.791922 
L 347.178419 19.051177 
L 349.147831 17.415687 
L 351.117243 15.949177 
L 353.086654 14.660037 
L 355.056066 13.555793 
L 357.025478 12.64301 
L 358.99489 11.927196 
L 360.964301 11.412721 
L 362.933713 11.102755 
L 364.903125 10.999219 
L 366.872537 11.102755 
L 368.841949 11.412721 
L 370.81136 11.927196 
L 372.780772 12.64301 
L 374.750184 13.555793 
L 376.719596 14.660037 
L 378.689007 15.949177 
L 380.658419 17.415687 
L 382.627831 19.051177 
L 386.566654 22.791922 
L 390.505478 27.091481 
L 394.444301 31.86369 
L 398.383125 37.019868 
L 404.29136 45.282857 
L 412.169007 56.860744 
L 423.985478 74.329626 
L 429.893713 82.738463 
L 435.801949 90.775675 
L 441.710184 98.370451 
L 447.618419 105.480884 
L 453.526654 112.08787 
L 457.465478 116.211362 
L 461.404301 120.112736 
L 465.343125 123.796633 
L 469.281949 127.269169 
L 473.220772 130.537551 
L 477.159596 133.609759 
L 483.067831 137.868906 
L 488.976066 141.73556 
L 494.884301 145.239754 
L 500.792537 148.410966 
L 506.700772 151.277541 
L 512.609007 153.866334 
L 518.517243 156.2025 
L 524.425478 158.309407 
L 530.333713 160.208614 
L 532.303125 160.798998 
L 532.303125 160.798998 
" style="fill:none;stroke:#ff7f0e;stroke-dasharray:6.4,1.6,1,1.6;stroke-dashoffset:0;"/>
   </g>
   <g id="line2d_19">
    <path clip-path="url(#p6f8ef09518)" d="M 30.103125 177.181905 
L 71.460772 176.927836 
L 97.063125 176.571157 
L 116.757243 176.088735 
L 132.512537 175.488155 
L 146.298419 174.728375 
L 158.11489 173.833285 
L 167.961949 172.85846 
L 175.839596 171.888935 
L 183.717243 170.713004 
L 191.59489 169.288802 
L 197.503125 168.028345 
L 203.41136 166.576786 
L 209.319596 164.907449 
L 215.227831 162.990716 
L 221.136066 160.793978 
L 227.044301 158.281705 
L 230.983125 156.412781 
L 234.921949 154.374768 
L 238.860772 152.155398 
L 242.799596 149.742165 
L 246.738419 147.122473 
L 250.677243 144.28384 
L 254.616066 141.214134 
L 258.55489 137.901869 
L 262.493713 134.336552 
L 266.432537 130.509097 
L 270.37136 126.412296 
L 274.310184 122.04135 
L 278.249007 117.39447 
L 282.187831 112.473518 
L 286.126654 107.284698 
L 292.03489 99.02538 
L 297.943125 90.252985 
L 303.85136 81.064484 
L 313.698419 65.209601 
L 323.545478 49.455378 
L 329.453713 40.514122 
L 333.392537 34.934512 
L 337.33136 29.757974 
L 341.270184 25.067603 
L 345.209007 20.94282 
L 347.178419 19.115685 
L 349.147831 17.456715 
L 351.117243 15.973627 
L 353.086654 14.673425 
L 355.056066 13.562329 
L 357.025478 12.645714 
L 358.99489 11.928059 
L 360.964301 11.412893 
L 362.933713 11.102766 
L 364.903125 10.999219 
L 366.872537 11.102766 
L 368.841949 11.412893 
L 370.81136 11.928059 
L 372.780772 12.645714 
L 374.750184 13.562329 
L 376.719596 14.673425 
L 378.689007 15.973627 
L 380.658419 17.456715 
L 382.627831 19.115685 
L 384.597243 20.94282 
L 388.536066 25.067603 
L 392.47489 29.757974 
L 396.413713 34.934512 
L 400.352537 40.514122 
L 406.260772 49.455378 
L 414.138419 62.017831 
L 427.924301 84.166041 
L 433.832537 93.228887 
L 439.740772 101.839259 
L 445.649007 109.912015 
L 449.587831 114.967976 
L 453.526654 119.752379 
L 457.465478 124.261281 
L 461.404301 128.494728 
L 465.343125 132.456092 
L 469.281949 136.151448 
L 473.220772 139.589005 
L 477.159596 142.778608 
L 481.098419 145.731294 
L 485.037243 148.458912 
L 488.976066 150.973802 
L 492.91489 153.28853 
L 496.853713 155.41567 
L 500.792537 157.367625 
L 506.700772 159.993449 
L 512.609007 162.291277 
L 518.517243 164.297575 
L 524.425478 166.045939 
L 530.333713 167.566983 
L 532.303125 168.028345 
L 532.303125 168.028345 
" style="fill:none;stroke:#2ca02c;stroke-dasharray:1,1.65;stroke-dashoffset:0;"/>
   </g>
   <g id="line2d_20">
    <path clip-path="url(#p6f8ef09518)" d="M 30.103125 177.319216 
L 150.237243 177.217548 
L 167.961949 176.991126 
L 179.778419 176.641808 
L 189.625478 176.1215 
L 197.503125 175.47157 
L 203.41136 174.794941 
L 209.319596 173.908969 
L 215.227831 172.763401 
L 219.166654 171.827418 
L 223.105478 170.732043 
L 227.044301 169.457459 
L 230.983125 167.982885 
L 234.921949 166.286845 
L 238.860772 164.347497 
L 242.799596 162.143043 
L 246.738419 159.652208 
L 250.677243 156.854779 
L 254.616066 153.73222 
L 258.55489 150.26833 
L 262.493713 146.449942 
L 266.432537 142.267655 
L 270.37136 137.716557 
L 274.310184 132.796937 
L 278.249007 127.51496 
L 282.187831 121.883256 
L 286.126654 115.921428 
L 290.065478 109.656423 
L 295.973713 99.768057 
L 301.881949 89.425515 
L 323.545478 50.945649 
L 327.484301 44.48932 
L 331.423125 38.397077 
L 335.361949 32.747568 
L 339.300772 27.616099 
L 343.239596 23.072973 
L 345.209007 21.042245 
L 347.178419 19.181891 
L 349.147831 17.4986 
L 351.117243 15.99847 
L 353.086654 14.686972 
L 355.056066 13.568918 
L 357.025478 12.648433 
L 358.99489 11.928923 
L 360.964301 11.413064 
L 362.933713 11.102777 
L 364.903125 10.999219 
L 366.872537 11.102777 
L 368.841949 11.413064 
L 370.81136 11.928923 
L 372.780772 12.648433 
L 374.750184 13.568918 
L 376.719596 14.686972 
L 378.689007 15.99847 
L 380.658419 17.4986 
L 382.627831 19.181891 
L 384.597243 21.042245 
L 386.566654 23.072973 
L 390.505478 27.616099 
L 394.444301 32.747568 
L 398.383125 38.397077 
L 402.321949 44.48932 
L 406.260772 50.945649 
L 412.169007 61.137057 
L 422.016066 78.814208 
L 431.863125 96.362584 
L 437.77136 106.420718 
L 443.679596 115.921428 
L 447.618419 121.883256 
L 451.557243 127.51496 
L 455.496066 132.796937 
L 459.43489 137.716557 
L 463.373713 142.267655 
L 467.312537 146.449942 
L 471.25136 150.26833 
L 475.190184 153.73222 
L 479.129007 156.854779 
L 483.067831 159.652208 
L 487.006654 162.143043 
L 490.945478 164.347497 
L 494.884301 166.286845 
L 498.823125 167.982885 
L 502.761949 169.457459 
L 506.700772 170.732043 
L 510.639596 171.827418 
L 516.547831 173.1775 
L 522.456066 174.230506 
L 528.364301 175.041471 
L 532.303125 175.47157 
L 532.303125 175.47157 
" style="fill:none;stroke:#d62728;stroke-dasharray:3.7,1.6;stroke-dashoffset:0;"/>
   </g>
   <g id="line2d_21">
    <path clip-path="url(#p6f8ef09518)" d="M 30.103125 177.319219 
L 254.616066 177.262425 
L 256.585478 176.964473 
L 258.55489 176.412077 
L 260.524301 175.606935 
L 262.493713 174.551521 
L 264.463125 173.249079 
L 266.432537 171.703609 
L 268.401949 169.919862 
L 270.37136 167.903318 
L 272.340772 165.660174 
L 274.310184 163.197323 
L 276.279596 160.522331 
L 280.218419 154.569435 
L 284.157243 147.874596 
L 288.096066 140.520041 
L 292.03489 132.596094 
L 295.973713 124.200076 
L 301.881949 110.94776 
L 311.729007 88.017643 
L 319.606654 69.927247 
L 323.545478 61.273496 
L 327.484301 53.023639 
L 331.423125 45.278997 
L 335.361949 38.134689 
L 339.300772 31.678459 
L 341.270184 28.73351 
L 343.239596 25.9896 
L 345.209007 23.455162 
L 347.178419 21.137982 
L 349.147831 19.045182 
L 351.117243 17.183191 
L 353.086654 15.557732 
L 355.056066 14.173798 
L 357.025478 13.035643 
L 358.99489 12.146765 
L 360.964301 11.509893 
L 362.933713 11.126985 
L 364.903125 10.999219 
L 366.872537 11.126985 
L 368.841949 11.509893 
L 370.81136 12.146765 
L 372.780772 13.035643 
L 374.750184 14.173798 
L 376.719596 15.557732 
L 378.689007 17.183191 
L 380.658419 19.045182 
L 382.627831 21.137982 
L 384.597243 23.455162 
L 386.566654 25.9896 
L 388.536066 28.73351 
L 392.47489 34.815398 
L 396.413713 41.626131 
L 400.352537 49.082062 
L 404.29136 57.091617 
L 408.230184 65.556427 
L 414.138419 78.878609 
L 433.832537 124.200076 
L 437.77136 132.596094 
L 441.710184 140.520041 
L 445.649007 147.874596 
L 449.587831 154.569435 
L 453.526654 160.522331 
L 455.496066 163.197323 
L 457.465478 165.660174 
L 459.43489 167.903318 
L 461.404301 169.919862 
L 463.373713 171.703609 
L 465.343125 173.249079 
L 467.312537 174.551521 
L 469.281949 175.606935 
L 471.25136 176.412077 
L 473.220772 176.964473 
L 475.190184 177.262425 
L 479.129007 177.319219 
L 532.303125 177.319219 
L 532.303125 177.319219 
" style="fill:none;stroke:#9467bd;stroke-dasharray:6.4,1.6,1,1.6;stroke-dashoffset:0;"/>
   </g>
   <g id="patch_3">
    <path d="M 30.103125 177.319219 
L 30.103125 10.999219 
" style="fill:none;stroke:#000000;stroke-linecap:square;stroke-linejoin:miter;stroke-width:0.8;"/>
   </g>
   <g id="patch_4">
    <path d="M 532.303125 177.319219 
L 532.303125 10.999219 
" style="fill:none;stroke:#000000;stroke-linecap:square;stroke-linejoin:miter;stroke-width:0.8;"/>
   </g>
   <g id="patch_5">
    <path d="M 30.103125 177.319219 
L 532.303125 177.319219 
" style="fill:none;stroke:#000000;stroke-linecap:square;stroke-linejoin:miter;stroke-width:0.8;"/>
   </g>
   <g id="patch_6">
    <path d="M 30.103125 10.999219 
L 532.303125 10.999219 
" style="fill:none;stroke:#000000;stroke-linecap:square;stroke-linejoin:miter;stroke-width:0.8;"/>
   </g>
   <g id="legend_1">
    <g id="patch_7">
     <path d="M 486.940625 92.389844 
L 525.303125 92.389844 
Q 527.303125 92.389844 527.303125 90.389844 
L 527.303125 17.999219 
Q 527.303125 15.999219 525.303125 15.999219 
L 486.940625 15.999219 
Q 484.940625 15.999219 484.940625 17.999219 
L 484.940625 90.389844 
Q 484.940625 92.389844 486.940625 92.389844 
z
" style="fill:#ffffff;opacity:0.8;stroke:#cccccc;stroke-linejoin:miter;"/>
    </g>
    <g id="line2d_22">
     <path d="M 488.940625 24.097656 
L 508.940625 24.097656 
" style="fill:none;stroke:#1f77b4;stroke-dasharray:3.7,1.6;stroke-dashoffset:0;"/>
    </g>
    <g id="line2d_23"/>
    <g id="text_17">
     <!-- 0 -->
     <g transform="translate(516.940625 27.597656)scale(0.1 -0.1)">
      <use xlink:href="#DejaVuSans-48"/>
     </g>
    </g>
    <g id="line2d_24">
     <path d="M 488.940625 38.775781 
L 508.940625 38.775781 
" style="fill:none;stroke:#ff7f0e;stroke-dasharray:6.4,1.6,1,1.6;stroke-dashoffset:0;"/>
    </g>
    <g id="line2d_25"/>
    <g id="text_18">
     <!-- 1 -->
     <g transform="translate(516.940625 42.275781)scale(0.1 -0.1)">
      <use xlink:href="#DejaVuSans-49"/>
     </g>
    </g>
    <g id="line2d_26">
     <path d="M 488.940625 53.453906 
L 508.940625 53.453906 
" style="fill:none;stroke:#2ca02c;stroke-dasharray:1,1.65;stroke-dashoffset:0;"/>
    </g>
    <g id="line2d_27"/>
    <g id="text_19">
     <!-- 2 -->
     <g transform="translate(516.940625 56.953906)scale(0.1 -0.1)">
      <use xlink:href="#DejaVuSans-50"/>
     </g>
    </g>
    <g id="line2d_28">
     <path d="M 488.940625 68.132031 
L 508.940625 68.132031 
" style="fill:none;stroke:#d62728;stroke-dasharray:3.7,1.6;stroke-dashoffset:0;"/>
    </g>
    <g id="line2d_29"/>
    <g id="text_20">
     <!-- 3 -->
     <g transform="translate(516.940625 71.632031)scale(0.1 -0.1)">
      <use xlink:href="#DejaVuSans-51"/>
     </g>
    </g>
    <g id="line2d_30">
     <path d="M 488.940625 82.810156 
L 508.940625 82.810156 
" style="fill:none;stroke:#9467bd;stroke-dasharray:6.4,1.6,1,1.6;stroke-dashoffset:0;"/>
    </g>
    <g id="line2d_31"/>
    <g id="text_21">
     <!-- 4 -->
     <g transform="translate(516.940625 86.310156)scale(0.1 -0.1)">
      <use xlink:href="#DejaVuSans-52"/>
     </g>
    </g>
   </g>
  </g>
 </g>
 <defs>
  <clipPath id="p6f8ef09518">
   <rect height="166.32" width="502.2" x="30.103125" y="10.999219"/>
  </clipPath>
 </defs>
</svg>
