<?xml version="1.0" encoding="utf-8" standalone="no"?>
<!DOCTYPE svg PUBLIC "-//W3C//DTD SVG 1.1//EN"
  "http://www.w3.org/Graphics/SVG/1.1/DTD/svg11.dtd">
<!-- Created with matplotlib (https://matplotlib.org/) -->
<svg height="367.517344pt" version="1.1" viewBox="0 0 542.684375 367.517344" width="542.684375pt" xmlns="http://www.w3.org/2000/svg" xmlns:xlink="http://www.w3.org/1999/xlink">
 <defs>
  <style type="text/css">
*{stroke-linecap:butt;stroke-linejoin:round;white-space:pre;}
  </style>
 </defs>
 <g id="figure_1">
  <g id="patch_1">
   <path d="M 0 367.517344 
L 542.684375 367.517344 
L 542.684375 0 
L 0 0 
z
" style="fill:#ffffff;"/>
  </g>
  <g id="axes_1">
   <g id="patch_2">
    <path d="M 30.103125 343.639219 
L 532.303125 343.639219 
L 532.303125 10.999219 
L 30.103125 10.999219 
z
" style="fill:#ffffff;"/>
   </g>
   <g id="matplotlib.axis_1">
    <g id="xtick_1">
     <g id="line2d_1">
      <defs>
       <path d="M 0 0 
L 0 3.5 
" id="mf62329a672" style="stroke:#000000;stroke-width:0.8;"/>
      </defs>
      <g>
       <use style="stroke:#000000;stroke-width:0.8;" x="30.103125" xlink:href="#mf62329a672" y="343.639219"/>
      </g>
     </g>
     <g id="text_1">
      <!-- −8 -->
      <defs>
       <path d="M 10.59375 35.5 
L 73.1875 35.5 
L 73.1875 27.203125 
L 10.59375 27.203125 
z
" id="DejaVuSans-8722"/>
       <path d="M 31.78125 34.625 
Q 24.75 34.625 20.71875 30.859375 
Q 16.703125 27.09375 16.703125 20.515625 
Q 16.703125 13.921875 20.71875 10.15625 
Q 24.75 6.390625 31.78125 6.390625 
Q 38.8125 6.390625 42.859375 10.171875 
Q 46.921875 13.96875 46.921875 20.515625 
Q 46.921875 27.09375 42.890625 30.859375 
Q 38.875 34.625 31.78125 34.625 
z
M 21.921875 38.8125 
Q 15.578125 40.375 12.03125 44.71875 
Q 8.5 49.078125 8.5 55.328125 
Q 8.5 64.0625 14.71875 69.140625 
Q 20.953125 74.21875 31.78125 74.21875 
Q 42.671875 74.21875 48.875 69.140625 
Q 55.078125 64.0625 55.078125 55.328125 
Q 55.078125 49.078125 51.53125 44.71875 
Q 48 40.375 41.703125 38.8125 
Q 48.828125 37.15625 52.796875 32.3125 
Q 56.78125 27.484375 56.78125 20.515625 
Q 56.78125 9.90625 50.3125 4.234375 
Q 43.84375 -1.421875 31.78125 -1.421875 
Q 19.734375 -1.421875 13.25 4.234375 
Q 6.78125 9.90625 6.78125 20.515625 
Q 6.78125 27.484375 10.78125 32.3125 
Q 14.796875 37.15625 21.921875 38.8125 
z
M 18.3125 54.390625 
Q 18.3125 48.734375 21.84375 45.5625 
Q 25.390625 42.390625 31.78125 42.390625 
Q 38.140625 42.390625 41.71875 45.5625 
Q 45.3125 48.734375 45.3125 54.390625 
Q 45.3125 60.0625 41.71875 63.234375 
Q 38.140625 66.40625 31.78125 66.40625 
Q 25.390625 66.40625 21.84375 63.234375 
Q 18.3125 60.0625 18.3125 54.390625 
z
" id="DejaVuSans-56"/>
      </defs>
      <g transform="translate(22.732031 358.237656)scale(0.1 -0.1)">
       <use xlink:href="#DejaVuSans-8722"/>
       <use x="83.789062" xlink:href="#DejaVuSans-56"/>
      </g>
     </g>
    </g>
    <g id="xtick_2">
     <g id="line2d_2">
      <g>
       <use style="stroke:#000000;stroke-width:0.8;" x="113.803125" xlink:href="#mf62329a672" y="343.639219"/>
      </g>
     </g>
     <g id="text_2">
      <!-- −6 -->
      <defs>
       <path d="M 33.015625 40.375 
Q 26.375 40.375 22.484375 35.828125 
Q 18.609375 31.296875 18.609375 23.390625 
Q 18.609375 15.53125 22.484375 10.953125 
Q 26.375 6.390625 33.015625 6.390625 
Q 39.65625 6.390625 43.53125 10.953125 
Q 47.40625 15.53125 47.40625 23.390625 
Q 47.40625 31.296875 43.53125 35.828125 
Q 39.65625 40.375 33.015625 40.375 
z
M 52.59375 71.296875 
L 52.59375 62.3125 
Q 48.875 64.0625 45.09375 64.984375 
Q 41.3125 65.921875 37.59375 65.921875 
Q 27.828125 65.921875 22.671875 59.328125 
Q 17.53125 52.734375 16.796875 39.40625 
Q 19.671875 43.65625 24.015625 45.921875 
Q 28.375 48.1875 33.59375 48.1875 
Q 44.578125 48.1875 50.953125 41.515625 
Q 57.328125 34.859375 57.328125 23.390625 
Q 57.328125 12.15625 50.6875 5.359375 
Q 44.046875 -1.421875 33.015625 -1.421875 
Q 20.359375 -1.421875 13.671875 8.265625 
Q 6.984375 17.96875 6.984375 36.375 
Q 6.984375 53.65625 15.1875 63.9375 
Q 23.390625 74.21875 37.203125 74.21875 
Q 40.921875 74.21875 44.703125 73.484375 
Q 48.484375 72.75 52.59375 71.296875 
z
" id="DejaVuSans-54"/>
      </defs>
      <g transform="translate(106.432031 358.237656)scale(0.1 -0.1)">
       <use xlink:href="#DejaVuSans-8722"/>
       <use x="83.789062" xlink:href="#DejaVuSans-54"/>
      </g>
     </g>
    </g>
    <g id="xtick_3">
     <g id="line2d_3">
      <g>
       <use style="stroke:#000000;stroke-width:0.8;" x="197.503125" xlink:href="#mf62329a672" y="343.639219"/>
      </g>
     </g>
     <g id="text_3">
      <!-- −4 -->
      <defs>
       <path d="M 37.796875 64.3125 
L 12.890625 25.390625 
L 37.796875 25.390625 
z
M 35.203125 72.90625 
L 47.609375 72.90625 
L 47.609375 25.390625 
L 58.015625 25.390625 
L 58.015625 17.1875 
L 47.609375 17.1875 
L 47.609375 0 
L 37.796875 0 
L 37.796875 17.1875 
L 4.890625 17.1875 
L 4.890625 26.703125 
z
" id="DejaVuSans-52"/>
      </defs>
      <g transform="translate(190.132031 358.237656)scale(0.1 -0.1)">
       <use xlink:href="#DejaVuSans-8722"/>
       <use x="83.789062" xlink:href="#DejaVuSans-52"/>
      </g>
     </g>
    </g>
    <g id="xtick_4">
     <g id="line2d_4">
      <g>
       <use style="stroke:#000000;stroke-width:0.8;" x="281.203125" xlink:href="#mf62329a672" y="343.639219"/>
      </g>
     </g>
     <g id="text_4">
      <!-- −2 -->
      <defs>
       <path d="M 19.1875 8.296875 
L 53.609375 8.296875 
L 53.609375 0 
L 7.328125 0 
L 7.328125 8.296875 
Q 12.9375 14.109375 22.625 23.890625 
Q 32.328125 33.6875 34.8125 36.53125 
Q 39.546875 41.84375 41.421875 45.53125 
Q 43.3125 49.21875 43.3125 52.78125 
Q 43.3125 58.59375 39.234375 62.25 
Q 35.15625 65.921875 28.609375 65.921875 
Q 23.96875 65.921875 18.8125 64.3125 
Q 13.671875 62.703125 7.8125 59.421875 
L 7.8125 69.390625 
Q 13.765625 71.78125 18.9375 73 
Q 24.125 74.21875 28.421875 74.21875 
Q 39.75 74.21875 46.484375 68.546875 
Q 53.21875 62.890625 53.21875 53.421875 
Q 53.21875 48.921875 51.53125 44.890625 
Q 49.859375 40.875 45.40625 35.40625 
Q 44.1875 33.984375 37.640625 27.21875 
Q 31.109375 20.453125 19.1875 8.296875 
z
" id="DejaVuSans-50"/>
      </defs>
      <g transform="translate(273.832031 358.237656)scale(0.1 -0.1)">
       <use xlink:href="#DejaVuSans-8722"/>
       <use x="83.789062" xlink:href="#DejaVuSans-50"/>
      </g>
     </g>
    </g>
    <g id="xtick_5">
     <g id="line2d_5">
      <g>
       <use style="stroke:#000000;stroke-width:0.8;" x="364.903125" xlink:href="#mf62329a672" y="343.639219"/>
      </g>
     </g>
     <g id="text_5">
      <!-- 0 -->
      <defs>
       <path d="M 31.78125 66.40625 
Q 24.171875 66.40625 20.328125 58.90625 
Q 16.5 51.421875 16.5 36.375 
Q 16.5 21.390625 20.328125 13.890625 
Q 24.171875 6.390625 31.78125 6.390625 
Q 39.453125 6.390625 43.28125 13.890625 
Q 47.125 21.390625 47.125 36.375 
Q 47.125 51.421875 43.28125 58.90625 
Q 39.453125 66.40625 31.78125 66.40625 
z
M 31.78125 74.21875 
Q 44.046875 74.21875 50.515625 64.515625 
Q 56.984375 54.828125 56.984375 36.375 
Q 56.984375 17.96875 50.515625 8.265625 
Q 44.046875 -1.421875 31.78125 -1.421875 
Q 19.53125 -1.421875 13.0625 8.265625 
Q 6.59375 17.96875 6.59375 36.375 
Q 6.59375 54.828125 13.0625 64.515625 
Q 19.53125 74.21875 31.78125 74.21875 
z
" id="DejaVuSans-48"/>
      </defs>
      <g transform="translate(361.721875 358.237656)scale(0.1 -0.1)">
       <use xlink:href="#DejaVuSans-48"/>
      </g>
     </g>
    </g>
    <g id="xtick_6">
     <g id="line2d_6">
      <g>
       <use style="stroke:#000000;stroke-width:0.8;" x="448.603125" xlink:href="#mf62329a672" y="343.639219"/>
      </g>
     </g>
     <g id="text_6">
      <!-- 2 -->
      <g transform="translate(445.421875 358.237656)scale(0.1 -0.1)">
       <use xlink:href="#DejaVuSans-50"/>
      </g>
     </g>
    </g>
    <g id="xtick_7">
     <g id="line2d_7">
      <g>
       <use style="stroke:#000000;stroke-width:0.8;" x="532.303125" xlink:href="#mf62329a672" y="343.639219"/>
      </g>
     </g>
     <g id="text_7">
      <!-- 4 -->
      <g transform="translate(529.121875 358.237656)scale(0.1 -0.1)">
       <use xlink:href="#DejaVuSans-52"/>
      </g>
     </g>
    </g>
   </g>
   <g id="matplotlib.axis_2">
    <g id="ytick_1">
     <g id="line2d_8">
      <defs>
       <path d="M 0 0 
L -3.5 0 
" id="m1840602e04" style="stroke:#000000;stroke-width:0.8;"/>
      </defs>
      <g>
       <use style="stroke:#000000;stroke-width:0.8;" x="30.103125" xlink:href="#m1840602e04" y="343.639219"/>
      </g>
     </g>
     <g id="text_8">
      <!-- 0.0 -->
      <defs>
       <path d="M 10.6875 12.40625 
L 21 12.40625 
L 21 0 
L 10.6875 0 
z
" id="DejaVuSans-46"/>
      </defs>
      <g transform="translate(7.2 347.438438)scale(0.1 -0.1)">
       <use xlink:href="#DejaVuSans-48"/>
       <use x="63.623047" xlink:href="#DejaVuSans-46"/>
       <use x="95.410156" xlink:href="#DejaVuSans-48"/>
      </g>
     </g>
    </g>
    <g id="ytick_2">
     <g id="line2d_9">
      <g>
       <use style="stroke:#000000;stroke-width:0.8;" x="30.103125" xlink:href="#m1840602e04" y="277.111219"/>
      </g>
     </g>
     <g id="text_9">
      <!-- 0.2 -->
      <g transform="translate(7.2 280.910438)scale(0.1 -0.1)">
       <use xlink:href="#DejaVuSans-48"/>
       <use x="63.623047" xlink:href="#DejaVuSans-46"/>
       <use x="95.410156" xlink:href="#DejaVuSans-50"/>
      </g>
     </g>
    </g>
    <g id="ytick_3">
     <g id="line2d_10">
      <g>
       <use style="stroke:#000000;stroke-width:0.8;" x="30.103125" xlink:href="#m1840602e04" y="210.583219"/>
      </g>
     </g>
     <g id="text_10">
      <!-- 0.4 -->
      <g transform="translate(7.2 214.382437)scale(0.1 -0.1)">
       <use xlink:href="#DejaVuSans-48"/>
       <use x="63.623047" xlink:href="#DejaVuSans-46"/>
       <use x="95.410156" xlink:href="#DejaVuSans-52"/>
      </g>
     </g>
    </g>
    <g id="ytick_4">
     <g id="line2d_11">
      <g>
       <use style="stroke:#000000;stroke-width:0.8;" x="30.103125" xlink:href="#m1840602e04" y="144.055219"/>
      </g>
     </g>
     <g id="text_11">
      <!-- 0.6 -->
      <g transform="translate(7.2 147.854437)scale(0.1 -0.1)">
       <use xlink:href="#DejaVuSans-48"/>
       <use x="63.623047" xlink:href="#DejaVuSans-46"/>
       <use x="95.410156" xlink:href="#DejaVuSans-54"/>
      </g>
     </g>
    </g>
    <g id="ytick_5">
     <g id="line2d_12">
      <g>
       <use style="stroke:#000000;stroke-width:0.8;" x="30.103125" xlink:href="#m1840602e04" y="77.527219"/>
      </g>
     </g>
     <g id="text_12">
      <!-- 0.8 -->
      <g transform="translate(7.2 81.326437)scale(0.1 -0.1)">
       <use xlink:href="#DejaVuSans-48"/>
       <use x="63.623047" xlink:href="#DejaVuSans-46"/>
       <use x="95.410156" xlink:href="#DejaVuSans-56"/>
      </g>
     </g>
    </g>
    <g id="ytick_6">
     <g id="line2d_13">
      <g>
       <use style="stroke:#000000;stroke-width:0.8;" x="30.103125" xlink:href="#m1840602e04" y="10.999219"/>
      </g>
     </g>
     <g id="text_13">
      <!-- 1.0 -->
      <defs>
       <path d="M 12.40625 8.296875 
L 28.515625 8.296875 
L 28.515625 63.921875 
L 10.984375 60.40625 
L 10.984375 69.390625 
L 28.421875 72.90625 
L 38.28125 72.90625 
L 38.28125 8.296875 
L 54.390625 8.296875 
L 54.390625 0 
L 12.40625 0 
z
" id="DejaVuSans-49"/>
      </defs>
      <g transform="translate(7.2 14.798437)scale(0.1 -0.1)">
       <use xlink:href="#DejaVuSans-49"/>
       <use x="63.623047" xlink:href="#DejaVuSans-46"/>
       <use x="95.410156" xlink:href="#DejaVuSans-48"/>
      </g>
     </g>
    </g>
   </g>
   <g id="line2d_14">
    <path clip-path="url(#p3d0e2496a1)" d="M 30.103125 333.559219 
L 49.797243 332.304121 
L 67.521949 330.965665 
L 83.277243 329.569636 
L 97.063125 328.153185 
L 110.849007 326.515794 
L 122.665478 324.900873 
L 134.481949 323.05171 
L 144.329007 321.298718 
L 154.176066 319.318262 
L 162.053713 317.543646 
L 169.93136 315.573823 
L 177.809007 313.380182 
L 185.686654 310.928917 
L 191.59489 308.897556 
L 197.503125 306.679219 
L 203.41136 304.251442 
L 209.319596 301.588513 
L 215.227831 298.660947 
L 221.136066 295.434874 
L 227.044301 291.871335 
L 230.983125 289.286278 
L 234.921949 286.516503 
L 238.860772 283.545602 
L 242.799596 280.355547 
L 246.738419 276.926547 
L 250.677243 273.236899 
L 254.616066 269.262838 
L 258.55489 264.9784 
L 262.493713 260.355302 
L 266.432537 255.362855 
L 270.37136 249.96794 
L 274.310184 244.135058 
L 278.249007 237.826512 
L 282.187831 231.002766 
L 286.126654 223.623039 
L 290.065478 215.646249 
L 294.004301 207.032386 
L 297.943125 197.744482 
L 301.881949 187.751303 
L 305.820772 177.030969 
L 309.759596 165.575649 
L 313.698419 153.397471 
L 317.637243 140.535695 
L 321.576066 127.06501 
L 327.484301 105.99223 
L 337.33136 70.316803 
L 341.270184 56.743671 
L 345.209007 44.159593 
L 347.178419 38.377692 
L 349.147831 33.011844 
L 351.117243 28.118147 
L 353.086654 23.750493 
L 355.056066 19.959219 
L 357.025478 16.78977 
L 358.99489 14.2814 
L 360.964301 12.466007 
L 362.933713 11.367132 
L 364.903125 10.999219 
L 366.872537 11.367132 
L 368.841949 12.466007 
L 370.81136 14.2814 
L 372.780772 16.78977 
L 374.750184 19.959219 
L 376.719596 23.750493 
L 378.689007 28.118147 
L 380.658419 33.011844 
L 382.627831 38.377692 
L 384.597243 44.159593 
L 388.536066 56.743671 
L 392.47489 70.316803 
L 400.352537 98.826751 
L 406.260772 120.136568 
L 412.169007 140.535695 
L 416.107831 153.397471 
L 420.046654 165.575649 
L 423.985478 177.030969 
L 427.924301 187.751303 
L 431.863125 197.744482 
L 435.801949 207.032386 
L 439.740772 215.646249 
L 443.679596 223.623039 
L 447.618419 231.002766 
L 451.557243 237.826512 
L 455.496066 244.135058 
L 459.43489 249.96794 
L 463.373713 255.362855 
L 467.312537 260.355302 
L 471.25136 264.9784 
L 475.190184 269.262838 
L 479.129007 273.236899 
L 483.067831 276.926547 
L 487.006654 280.355547 
L 490.945478 283.545602 
L 494.884301 286.516503 
L 498.823125 289.286278 
L 504.73136 293.099316 
L 510.639596 296.545691 
L 516.547831 299.668199 
L 522.456066 302.50402 
L 528.364301 305.085487 
L 532.303125 306.679219 
L 532.303125 306.679219 
" style="fill:none;stroke:#1f77b4;stroke-dasharray:3.7,1.6;stroke-dashoffset:0;"/>
   </g>
   <g id="line2d_15">
    <path clip-path="url(#p3d0e2496a1)" d="M 30.103125 343.416042 
L 65.552537 343.118598 
L 89.185478 342.723485 
L 108.879596 342.173192 
L 124.63489 341.503034 
L 136.45136 340.806133 
L 148.267831 339.8819 
L 158.11489 338.885247 
L 165.992537 337.90075 
L 173.870184 336.712448 
L 181.747831 335.278207 
L 187.656066 334.010941 
L 193.564301 332.551784 
L 199.472537 330.871777 
L 205.380772 328.937644 
L 211.289007 326.711174 
L 217.197243 324.148531 
L 221.136066 322.228824 
L 225.07489 320.120903 
L 229.013713 317.806599 
L 232.952537 315.266078 
L 236.89136 312.477722 
L 240.830184 309.418009 
L 244.769007 306.061401 
L 248.707831 302.380235 
L 252.646654 298.34465 
L 256.585478 293.922529 
L 260.524301 289.079503 
L 264.463125 283.779013 
L 268.401949 277.98247 
L 272.340772 271.649537 
L 276.279596 264.738593 
L 280.218419 257.207406 
L 284.157243 249.014114 
L 288.096066 240.118565 
L 292.03489 230.484125 
L 295.973713 220.080057 
L 299.912537 208.884568 
L 303.85136 196.88864 
L 307.790184 184.100696 
L 311.729007 170.552131 
L 315.667831 156.30361 
L 321.576066 133.841616 
L 339.300772 64.821489 
L 343.239596 51.079293 
L 345.209007 44.7136 
L 347.178419 38.755049 
L 349.147831 33.255585 
L 351.117243 28.265445 
L 353.086654 23.832155 
L 355.056066 19.999513 
L 357.025478 16.806589 
L 358.99489 14.286802 
L 360.964301 12.467085 
L 362.933713 11.3672 
L 364.903125 10.999219 
L 366.872537 11.3672 
L 368.841949 12.467085 
L 370.81136 14.286802 
L 372.780772 16.806589 
L 374.750184 19.999513 
L 376.719596 23.832155 
L 378.689007 28.265445 
L 380.658419 33.255585 
L 382.627831 38.755049 
L 384.597243 44.7136 
L 388.536066 57.799439 
L 392.47489 72.093834 
L 398.383125 94.924318 
L 410.199596 141.451882 
L 416.107831 163.510246 
L 420.046654 177.418464 
L 423.985478 190.592317 
L 427.924301 202.986602 
L 431.863125 214.582154 
L 435.801949 225.379907 
L 439.740772 235.395798 
L 443.679596 244.656519 
L 447.618419 253.196092 
L 451.557243 261.053168 
L 455.496066 268.268951 
L 459.43489 274.88563 
L 463.373713 280.945233 
L 467.312537 286.488808 
L 471.25136 291.555864 
L 475.190184 296.184002 
L 479.129007 300.408699 
L 483.067831 304.263202 
L 487.006654 307.778495 
L 490.945478 310.983333 
L 494.884301 313.904303 
L 498.823125 316.565924 
L 502.761949 318.990749 
L 506.700772 321.199488 
L 510.639596 323.21113 
L 514.578419 325.043058 
L 520.486654 327.488395 
L 526.39489 329.612841 
L 532.303125 331.458277 
L 532.303125 331.458277 
" style="fill:none;stroke:#ff7f0e;stroke-dasharray:6.4,1.6,1,1.6;stroke-dashoffset:0;"/>
   </g>
   <g id="line2d_16">
    <path clip-path="url(#p3d0e2496a1)" d="M 30.103125 343.62298 
L 97.063125 343.48321 
L 126.604301 343.216048 
L 146.298419 342.816441 
L 160.084301 342.329182 
L 171.900772 341.688114 
L 181.747831 340.920957 
L 189.625478 340.096306 
L 197.503125 339.02323 
L 203.41136 338.011851 
L 209.319596 336.781196 
L 215.227831 335.284852 
L 219.166654 334.112613 
L 223.105478 332.778652 
L 227.044301 331.261488 
L 230.983125 329.537041 
L 234.921949 327.578386 
L 238.860772 325.355526 
L 242.799596 322.835162 
L 246.738419 319.980499 
L 250.677243 316.751098 
L 254.616066 313.102786 
L 258.55489 308.987679 
L 262.493713 304.35433 
L 266.432537 299.148069 
L 270.37136 293.311578 
L 274.310184 286.785771 
L 278.249007 279.511056 
L 282.187831 271.42905 
L 286.126654 262.484838 
L 290.065478 252.629844 
L 294.004301 241.825373 
L 297.943125 230.04686 
L 301.881949 217.288786 
L 305.820772 203.570176 
L 309.759596 188.940477 
L 313.698419 173.485482 
L 319.606654 149.047437 
L 337.33136 73.898771 
L 341.270184 58.869805 
L 345.209007 45.273732 
L 347.178419 39.135987 
L 349.147831 33.501248 
L 351.117243 28.413672 
L 353.086654 23.914211 
L 355.056066 20.039945 
L 357.025478 16.823446 
L 358.99489 14.29221 
L 360.964301 12.468164 
L 362.933713 11.367268 
L 364.903125 10.999219 
L 366.872537 11.367268 
L 368.841949 12.468164 
L 370.81136 14.29221 
L 372.780772 16.823446 
L 374.750184 20.039945 
L 376.719596 23.914211 
L 378.689007 28.413672 
L 380.658419 33.501248 
L 382.627831 39.135987 
L 384.597243 45.273732 
L 386.566654 51.867823 
L 390.505478 66.230117 
L 394.444301 81.825979 
L 400.352537 106.675882 
L 412.169007 157.332864 
L 416.107831 173.485482 
L 420.046654 188.940477 
L 423.985478 203.570176 
L 427.924301 217.288786 
L 431.863125 230.04686 
L 435.801949 241.825373 
L 439.740772 252.629844 
L 443.679596 262.484838 
L 447.618419 271.42905 
L 451.557243 279.511056 
L 455.496066 286.785771 
L 459.43489 293.311578 
L 463.373713 299.148069 
L 467.312537 304.35433 
L 471.25136 308.987679 
L 475.190184 313.102786 
L 479.129007 316.751098 
L 483.067831 319.980499 
L 487.006654 322.835162 
L 490.945478 325.355526 
L 494.884301 327.578386 
L 498.823125 329.537041 
L 502.761949 331.261488 
L 506.700772 332.778652 
L 510.639596 334.112613 
L 516.547831 335.816384 
L 522.456066 337.218467 
L 528.364301 338.371288 
L 532.303125 339.02323 
L 532.303125 339.02323 
" style="fill:none;stroke:#2ca02c;stroke-dasharray:1,1.65;stroke-dashoffset:0;"/>
   </g>
   <g id="line2d_17">
    <path clip-path="url(#p3d0e2496a1)" d="M 30.103125 343.639219 
L 195.533713 343.546879 
L 209.319596 343.307474 
L 217.197243 342.983034 
L 223.105478 342.569932 
L 229.013713 341.931147 
L 232.952537 341.330848 
L 236.89136 340.547089 
L 240.830184 339.533748 
L 244.769007 338.236391 
L 248.707831 336.591765 
L 252.646654 334.527584 
L 254.616066 333.313133 
L 256.585478 331.9627 
L 258.55489 330.464867 
L 260.524301 328.807776 
L 262.493713 326.97919 
L 264.463125 324.966551 
L 266.432537 322.757069 
L 268.401949 320.337803 
L 270.37136 317.695774 
L 272.340772 314.818075 
L 274.310184 311.692003 
L 276.279596 308.305197 
L 278.249007 304.645795 
L 280.218419 300.702594 
L 282.187831 296.465222 
L 284.157243 291.924319 
L 286.126654 287.071724 
L 288.096066 281.900666 
L 292.03489 270.584183 
L 295.973713 257.95579 
L 299.912537 244.030702 
L 303.85136 228.863749 
L 307.790184 212.553723 
L 311.729007 195.246303 
L 317.637243 167.851811 
L 333.392537 93.103721 
L 337.33136 75.893799 
L 341.270184 60.025134 
L 343.239596 52.70954 
L 345.209007 45.865406 
L 347.178419 39.53446 
L 349.147831 33.75592 
L 351.117243 28.566089 
L 353.086654 23.997982 
L 355.056066 20.080968 
L 357.025478 16.840461 
L 358.99489 14.297646 
L 360.964301 12.469245 
L 362.933713 11.367336 
L 364.903125 10.999219 
L 366.872537 11.367336 
L 368.841949 12.469245 
L 370.81136 14.297646 
L 372.780772 16.840461 
L 374.750184 20.080968 
L 376.719596 23.997982 
L 378.689007 28.566089 
L 380.658419 33.75592 
L 382.627831 39.53446 
L 384.597243 45.865406 
L 386.566654 52.70954 
L 388.536066 60.025134 
L 392.47489 75.893799 
L 396.413713 93.103721 
L 400.352537 111.274895 
L 408.230184 149.000743 
L 414.138419 177.135224 
L 418.077243 195.246303 
L 422.016066 212.553723 
L 425.95489 228.863749 
L 429.893713 244.030702 
L 433.832537 257.95579 
L 437.77136 270.584183 
L 441.710184 281.900666 
L 443.679596 287.071724 
L 445.649007 291.924319 
L 447.618419 296.465222 
L 449.587831 300.702594 
L 451.557243 304.645795 
L 453.526654 308.305197 
L 455.496066 311.692003 
L 457.465478 314.818075 
L 459.43489 317.695774 
L 461.404301 320.337803 
L 463.373713 322.757069 
L 465.343125 324.966551 
L 467.312537 326.97919 
L 469.281949 328.807776 
L 471.25136 330.464867 
L 473.220772 331.9627 
L 475.190184 333.313133 
L 479.129007 335.616988 
L 483.067831 337.461793 
L 487.006654 338.924314 
L 490.945478 340.072316 
L 494.884301 340.964596 
L 498.823125 341.651354 
L 504.73136 342.386482 
L 510.639596 342.865332 
L 518.517243 343.244487 
L 528.364301 343.477338 
L 532.303125 343.52763 
L 532.303125 343.52763 
" style="fill:none;stroke:#d62728;stroke-dasharray:3.7,1.6;stroke-dashoffset:0;"/>
   </g>
   <g id="line2d_18">
    <path clip-path="url(#p3d0e2496a1)" d="M 30.103125 343.639219 
L 280.218419 343.639219 
L 282.187831 343.525632 
L 284.157243 342.61787 
L 286.126654 340.807305 
L 288.096066 338.103824 
L 290.065478 334.522193 
L 292.03489 330.081974 
L 294.004301 324.807418 
L 295.973713 318.727333 
L 297.943125 311.874925 
L 299.912537 304.287621 
L 301.881949 296.00686 
L 303.85136 287.077867 
L 307.790184 267.473533 
L 311.729007 245.902321 
L 315.667831 222.834847 
L 321.576066 186.535255 
L 329.453713 137.745837 
L 333.392537 114.381893 
L 337.33136 92.391039 
L 341.270184 72.253044 
L 343.239596 63.018013 
L 345.209007 54.407256 
L 347.178419 46.467801 
L 349.147831 39.243011 
L 351.117243 32.772345 
L 353.086654 27.091145 
L 355.056066 22.230438 
L 357.025478 18.216772 
L 358.99489 15.072068 
L 360.964301 12.813502 
L 362.933713 11.45341 
L 364.903125 10.999219 
L 366.872537 11.45341 
L 368.841949 12.813502 
L 370.81136 15.072068 
L 372.780772 18.216772 
L 374.750184 22.230438 
L 376.719596 27.091145 
L 378.689007 32.772345 
L 380.658419 39.243011 
L 382.627831 46.467801 
L 384.597243 54.407256 
L 386.566654 63.018013 
L 388.536066 72.253044 
L 392.47489 92.391039 
L 396.413713 114.381893 
L 400.352537 137.745837 
L 408.230184 186.535255 
L 414.138419 222.834847 
L 418.077243 245.902321 
L 422.016066 267.473533 
L 425.95489 287.077867 
L 427.924301 296.00686 
L 429.893713 304.287621 
L 431.863125 311.874925 
L 433.832537 318.727333 
L 435.801949 324.807418 
L 437.77136 330.081974 
L 439.740772 334.522193 
L 441.710184 338.103824 
L 443.679596 340.807305 
L 445.649007 342.61787 
L 447.618419 343.525632 
L 449.587831 343.639219 
L 532.303125 343.639219 
L 532.303125 343.639219 
" style="fill:none;stroke:#9467bd;stroke-dasharray:6.4,1.6,1,1.6;stroke-dashoffset:0;"/>
   </g>
   <g id="patch_3">
    <path d="M 30.103125 343.639219 
L 30.103125 10.999219 
" style="fill:none;stroke:#000000;stroke-linecap:square;stroke-linejoin:miter;stroke-width:0.8;"/>
   </g>
   <g id="patch_4">
    <path d="M 532.303125 343.639219 
L 532.303125 10.999219 
" style="fill:none;stroke:#000000;stroke-linecap:square;stroke-linejoin:miter;stroke-width:0.8;"/>
   </g>
   <g id="patch_5">
    <path d="M 30.103125 343.639219 
L 532.303125 343.639219 
" style="fill:none;stroke:#000000;stroke-linecap:square;stroke-linejoin:miter;stroke-width:0.8;"/>
   </g>
   <g id="patch_6">
    <path d="M 30.103125 10.999219 
L 532.303125 10.999219 
" style="fill:none;stroke:#000000;stroke-linecap:square;stroke-linejoin:miter;stroke-width:0.8;"/>
   </g>
   <g id="legend_1">
    <g id="patch_7">
     <path d="M 486.940625 92.389844 
L 525.303125 92.389844 
Q 527.303125 92.389844 527.303125 90.389844 
L 527.303125 17.999219 
Q 527.303125 15.999219 525.303125 15.999219 
L 486.940625 15.999219 
Q 484.940625 15.999219 484.940625 17.999219 
L 484.940625 90.389844 
Q 484.940625 92.389844 486.940625 92.389844 
z
" style="fill:#ffffff;opacity:0.8;stroke:#cccccc;stroke-linejoin:miter;"/>
    </g>
    <g id="line2d_19">
     <path d="M 488.940625 24.097656 
L 508.940625 24.097656 
" style="fill:none;stroke:#1f77b4;stroke-dasharray:3.7,1.6;stroke-dashoffset:0;"/>
    </g>
    <g id="line2d_20"/>
    <g id="text_14">
     <!-- 0 -->
     <g transform="translate(516.940625 27.597656)scale(0.1 -0.1)">
      <use xlink:href="#DejaVuSans-48"/>
     </g>
    </g>
    <g id="line2d_21">
     <path d="M 488.940625 38.775781 
L 508.940625 38.775781 
" style="fill:none;stroke:#ff7f0e;stroke-dasharray:6.4,1.6,1,1.6;stroke-dashoffset:0;"/>
    </g>
    <g id="line2d_22"/>
    <g id="text_15">
     <!-- 1 -->
     <g transform="translate(516.940625 42.275781)scale(0.1 -0.1)">
      <use xlink:href="#DejaVuSans-49"/>
     </g>
    </g>
    <g id="line2d_23">
     <path d="M 488.940625 53.453906 
L 508.940625 53.453906 
" style="fill:none;stroke:#2ca02c;stroke-dasharray:1,1.65;stroke-dashoffset:0;"/>
    </g>
    <g id="line2d_24"/>
    <g id="text_16">
     <!-- 2 -->
     <g transform="translate(516.940625 56.953906)scale(0.1 -0.1)">
      <use xlink:href="#DejaVuSans-50"/>
     </g>
    </g>
    <g id="line2d_25">
     <path d="M 488.940625 68.132031 
L 508.940625 68.132031 
" style="fill:none;stroke:#d62728;stroke-dasharray:3.7,1.6;stroke-dashoffset:0;"/>
    </g>
    <g id="line2d_26"/>
    <g id="text_17">
     <!-- 3 -->
     <defs>
      <path d="M 40.578125 39.3125 
Q 47.65625 37.796875 51.625 33 
Q 55.609375 28.21875 55.609375 21.1875 
Q 55.609375 10.40625 48.1875 4.484375 
Q 40.765625 -1.421875 27.09375 -1.421875 
Q 22.515625 -1.421875 17.65625 -0.515625 
Q 12.796875 0.390625 7.625 2.203125 
L 7.625 11.71875 
Q 11.71875 9.328125 16.59375 8.109375 
Q 21.484375 6.890625 26.8125 6.890625 
Q 36.078125 6.890625 40.9375 10.546875 
Q 45.796875 14.203125 45.796875 21.1875 
Q 45.796875 27.640625 41.28125 31.265625 
Q 36.765625 34.90625 28.71875 34.90625 
L 20.21875 34.90625 
L 20.21875 43.015625 
L 29.109375 43.015625 
Q 36.375 43.015625 40.234375 45.921875 
Q 44.09375 48.828125 44.09375 54.296875 
Q 44.09375 59.90625 40.109375 62.90625 
Q 36.140625 65.921875 28.71875 65.921875 
Q 24.65625 65.921875 20.015625 65.03125 
Q 15.375 64.15625 9.8125 62.3125 
L 9.8125 71.09375 
Q 15.4375 72.65625 20.34375 73.4375 
Q 25.25 74.21875 29.59375 74.21875 
Q 40.828125 74.21875 47.359375 69.109375 
Q 53.90625 64.015625 53.90625 55.328125 
Q 53.90625 49.265625 50.4375 45.09375 
Q 46.96875 40.921875 40.578125 39.3125 
z
" id="DejaVuSans-51"/>
     </defs>
     <g transform="translate(516.940625 71.632031)scale(0.1 -0.1)">
      <use xlink:href="#DejaVuSans-51"/>
     </g>
    </g>
    <g id="line2d_27">
     <path d="M 488.940625 82.810156 
L 508.940625 82.810156 
" style="fill:none;stroke:#9467bd;stroke-dasharray:6.4,1.6,1,1.6;stroke-dashoffset:0;"/>
    </g>
    <g id="line2d_28"/>
    <g id="text_18">
     <!-- 4 -->
     <g transform="translate(516.940625 86.310156)scale(0.1 -0.1)">
      <use xlink:href="#DejaVuSans-52"/>
     </g>
    </g>
   </g>
  </g>
 </g>
 <defs>
  <clipPath id="p3d0e2496a1">
   <rect height="332.64" width="502.2" x="30.103125" y="10.999219"/>
  </clipPath>
 </defs>
</svg>
