<?xml version="1.0" encoding="utf-8" standalone="no"?>
<!DOCTYPE svg PUBLIC "-//W3C//DTD SVG 1.1//EN"
  "http://www.w3.org/Graphics/SVG/1.1/DTD/svg11.dtd">
<!-- Created with matplotlib (https://matplotlib.org/) -->
<svg height="284.357344pt" version="1.1" viewBox="0 0 542.684375 284.357344" width="542.684375pt" xmlns="http://www.w3.org/2000/svg" xmlns:xlink="http://www.w3.org/1999/xlink">
 <defs>
  <style type="text/css">
*{stroke-linecap:butt;stroke-linejoin:round;white-space:pre;}
  </style>
 </defs>
 <g id="figure_1">
  <g id="patch_1">
   <path d="M 0 284.357344 
L 542.684375 284.357344 
L 542.684375 0 
L 0 0 
z
" style="fill:#ffffff;"/>
  </g>
  <g id="axes_1">
   <g id="patch_2">
    <path d="M 30.103125 260.479219 
L 532.303125 260.479219 
L 532.303125 10.999219 
L 30.103125 10.999219 
z
" style="fill:#ffffff;"/>
   </g>
   <g id="matplotlib.axis_1">
    <g id="xtick_1">
     <g id="line2d_1">
      <defs>
       <path d="M 0 0 
L 0 3.5 
" id="me46e36ac95" style="stroke:#000000;stroke-width:0.8;"/>
      </defs>
      <g>
       <use style="stroke:#000000;stroke-width:0.8;" x="30.103125" xlink:href="#me46e36ac95" y="260.479219"/>
      </g>
     </g>
     <g id="text_1">
      <!-- −6 -->
      <defs>
       <path d="M 10.59375 35.5 
L 73.1875 35.5 
L 73.1875 27.203125 
L 10.59375 27.203125 
z
" id="DejaVuSans-8722"/>
       <path d="M 33.015625 40.375 
Q 26.375 40.375 22.484375 35.828125 
Q 18.609375 31.296875 18.609375 23.390625 
Q 18.609375 15.53125 22.484375 10.953125 
Q 26.375 6.390625 33.015625 6.390625 
Q 39.65625 6.390625 43.53125 10.953125 
Q 47.40625 15.53125 47.40625 23.390625 
Q 47.40625 31.296875 43.53125 35.828125 
Q 39.65625 40.375 33.015625 40.375 
z
M 52.59375 71.296875 
L 52.59375 62.3125 
Q 48.875 64.0625 45.09375 64.984375 
Q 41.3125 65.921875 37.59375 65.921875 
Q 27.828125 65.921875 22.671875 59.328125 
Q 17.53125 52.734375 16.796875 39.40625 
Q 19.671875 43.65625 24.015625 45.921875 
Q 28.375 48.1875 33.59375 48.1875 
Q 44.578125 48.1875 50.953125 41.515625 
Q 57.328125 34.859375 57.328125 23.390625 
Q 57.328125 12.15625 50.6875 5.359375 
Q 44.046875 -1.421875 33.015625 -1.421875 
Q 20.359375 -1.421875 13.671875 8.265625 
Q 6.984375 17.96875 6.984375 36.375 
Q 6.984375 53.65625 15.1875 63.9375 
Q 23.390625 74.21875 37.203125 74.21875 
Q 40.921875 74.21875 44.703125 73.484375 
Q 48.484375 72.75 52.59375 71.296875 
z
" id="DejaVuSans-54"/>
      </defs>
      <g transform="translate(22.732031 275.077656)scale(0.1 -0.1)">
       <use xlink:href="#DejaVuSans-8722"/>
       <use x="83.789062" xlink:href="#DejaVuSans-54"/>
      </g>
     </g>
    </g>
    <g id="xtick_2">
     <g id="line2d_2">
      <g>
       <use style="stroke:#000000;stroke-width:0.8;" x="85.903125" xlink:href="#me46e36ac95" y="260.479219"/>
      </g>
     </g>
     <g id="text_2">
      <!-- −5 -->
      <defs>
       <path d="M 10.796875 72.90625 
L 49.515625 72.90625 
L 49.515625 64.59375 
L 19.828125 64.59375 
L 19.828125 46.734375 
Q 21.96875 47.46875 24.109375 47.828125 
Q 26.265625 48.1875 28.421875 48.1875 
Q 40.625 48.1875 47.75 41.5 
Q 54.890625 34.8125 54.890625 23.390625 
Q 54.890625 11.625 47.5625 5.09375 
Q 40.234375 -1.421875 26.90625 -1.421875 
Q 22.3125 -1.421875 17.546875 -0.640625 
Q 12.796875 0.140625 7.71875 1.703125 
L 7.71875 11.625 
Q 12.109375 9.234375 16.796875 8.0625 
Q 21.484375 6.890625 26.703125 6.890625 
Q 35.15625 6.890625 40.078125 11.328125 
Q 45.015625 15.765625 45.015625 23.390625 
Q 45.015625 31 40.078125 35.4375 
Q 35.15625 39.890625 26.703125 39.890625 
Q 22.75 39.890625 18.8125 39.015625 
Q 14.890625 38.140625 10.796875 36.28125 
z
" id="DejaVuSans-53"/>
      </defs>
      <g transform="translate(78.532031 275.077656)scale(0.1 -0.1)">
       <use xlink:href="#DejaVuSans-8722"/>
       <use x="83.789062" xlink:href="#DejaVuSans-53"/>
      </g>
     </g>
    </g>
    <g id="xtick_3">
     <g id="line2d_3">
      <g>
       <use style="stroke:#000000;stroke-width:0.8;" x="141.703125" xlink:href="#me46e36ac95" y="260.479219"/>
      </g>
     </g>
     <g id="text_3">
      <!-- −4 -->
      <defs>
       <path d="M 37.796875 64.3125 
L 12.890625 25.390625 
L 37.796875 25.390625 
z
M 35.203125 72.90625 
L 47.609375 72.90625 
L 47.609375 25.390625 
L 58.015625 25.390625 
L 58.015625 17.1875 
L 47.609375 17.1875 
L 47.609375 0 
L 37.796875 0 
L 37.796875 17.1875 
L 4.890625 17.1875 
L 4.890625 26.703125 
z
" id="DejaVuSans-52"/>
      </defs>
      <g transform="translate(134.332031 275.077656)scale(0.1 -0.1)">
       <use xlink:href="#DejaVuSans-8722"/>
       <use x="83.789062" xlink:href="#DejaVuSans-52"/>
      </g>
     </g>
    </g>
    <g id="xtick_4">
     <g id="line2d_4">
      <g>
       <use style="stroke:#000000;stroke-width:0.8;" x="197.503125" xlink:href="#me46e36ac95" y="260.479219"/>
      </g>
     </g>
     <g id="text_4">
      <!-- −3 -->
      <defs>
       <path d="M 40.578125 39.3125 
Q 47.65625 37.796875 51.625 33 
Q 55.609375 28.21875 55.609375 21.1875 
Q 55.609375 10.40625 48.1875 4.484375 
Q 40.765625 -1.421875 27.09375 -1.421875 
Q 22.515625 -1.421875 17.65625 -0.515625 
Q 12.796875 0.390625 7.625 2.203125 
L 7.625 11.71875 
Q 11.71875 9.328125 16.59375 8.109375 
Q 21.484375 6.890625 26.8125 6.890625 
Q 36.078125 6.890625 40.9375 10.546875 
Q 45.796875 14.203125 45.796875 21.1875 
Q 45.796875 27.640625 41.28125 31.265625 
Q 36.765625 34.90625 28.71875 34.90625 
L 20.21875 34.90625 
L 20.21875 43.015625 
L 29.109375 43.015625 
Q 36.375 43.015625 40.234375 45.921875 
Q 44.09375 48.828125 44.09375 54.296875 
Q 44.09375 59.90625 40.109375 62.90625 
Q 36.140625 65.921875 28.71875 65.921875 
Q 24.65625 65.921875 20.015625 65.03125 
Q 15.375 64.15625 9.8125 62.3125 
L 9.8125 71.09375 
Q 15.4375 72.65625 20.34375 73.4375 
Q 25.25 74.21875 29.59375 74.21875 
Q 40.828125 74.21875 47.359375 69.109375 
Q 53.90625 64.015625 53.90625 55.328125 
Q 53.90625 49.265625 50.4375 45.09375 
Q 46.96875 40.921875 40.578125 39.3125 
z
" id="DejaVuSans-51"/>
      </defs>
      <g transform="translate(190.132031 275.077656)scale(0.1 -0.1)">
       <use xlink:href="#DejaVuSans-8722"/>
       <use x="83.789062" xlink:href="#DejaVuSans-51"/>
      </g>
     </g>
    </g>
    <g id="xtick_5">
     <g id="line2d_5">
      <g>
       <use style="stroke:#000000;stroke-width:0.8;" x="253.303125" xlink:href="#me46e36ac95" y="260.479219"/>
      </g>
     </g>
     <g id="text_5">
      <!-- −2 -->
      <defs>
       <path d="M 19.1875 8.296875 
L 53.609375 8.296875 
L 53.609375 0 
L 7.328125 0 
L 7.328125 8.296875 
Q 12.9375 14.109375 22.625 23.890625 
Q 32.328125 33.6875 34.8125 36.53125 
Q 39.546875 41.84375 41.421875 45.53125 
Q 43.3125 49.21875 43.3125 52.78125 
Q 43.3125 58.59375 39.234375 62.25 
Q 35.15625 65.921875 28.609375 65.921875 
Q 23.96875 65.921875 18.8125 64.3125 
Q 13.671875 62.703125 7.8125 59.421875 
L 7.8125 69.390625 
Q 13.765625 71.78125 18.9375 73 
Q 24.125 74.21875 28.421875 74.21875 
Q 39.75 74.21875 46.484375 68.546875 
Q 53.21875 62.890625 53.21875 53.421875 
Q 53.21875 48.921875 51.53125 44.890625 
Q 49.859375 40.875 45.40625 35.40625 
Q 44.1875 33.984375 37.640625 27.21875 
Q 31.109375 20.453125 19.1875 8.296875 
z
" id="DejaVuSans-50"/>
      </defs>
      <g transform="translate(245.932031 275.077656)scale(0.1 -0.1)">
       <use xlink:href="#DejaVuSans-8722"/>
       <use x="83.789062" xlink:href="#DejaVuSans-50"/>
      </g>
     </g>
    </g>
    <g id="xtick_6">
     <g id="line2d_6">
      <g>
       <use style="stroke:#000000;stroke-width:0.8;" x="309.103125" xlink:href="#me46e36ac95" y="260.479219"/>
      </g>
     </g>
     <g id="text_6">
      <!-- −1 -->
      <defs>
       <path d="M 12.40625 8.296875 
L 28.515625 8.296875 
L 28.515625 63.921875 
L 10.984375 60.40625 
L 10.984375 69.390625 
L 28.421875 72.90625 
L 38.28125 72.90625 
L 38.28125 8.296875 
L 54.390625 8.296875 
L 54.390625 0 
L 12.40625 0 
z
" id="DejaVuSans-49"/>
      </defs>
      <g transform="translate(301.732031 275.077656)scale(0.1 -0.1)">
       <use xlink:href="#DejaVuSans-8722"/>
       <use x="83.789062" xlink:href="#DejaVuSans-49"/>
      </g>
     </g>
    </g>
    <g id="xtick_7">
     <g id="line2d_7">
      <g>
       <use style="stroke:#000000;stroke-width:0.8;" x="364.903125" xlink:href="#me46e36ac95" y="260.479219"/>
      </g>
     </g>
     <g id="text_7">
      <!-- 0 -->
      <defs>
       <path d="M 31.78125 66.40625 
Q 24.171875 66.40625 20.328125 58.90625 
Q 16.5 51.421875 16.5 36.375 
Q 16.5 21.390625 20.328125 13.890625 
Q 24.171875 6.390625 31.78125 6.390625 
Q 39.453125 6.390625 43.28125 13.890625 
Q 47.125 21.390625 47.125 36.375 
Q 47.125 51.421875 43.28125 58.90625 
Q 39.453125 66.40625 31.78125 66.40625 
z
M 31.78125 74.21875 
Q 44.046875 74.21875 50.515625 64.515625 
Q 56.984375 54.828125 56.984375 36.375 
Q 56.984375 17.96875 50.515625 8.265625 
Q 44.046875 -1.421875 31.78125 -1.421875 
Q 19.53125 -1.421875 13.0625 8.265625 
Q 6.59375 17.96875 6.59375 36.375 
Q 6.59375 54.828125 13.0625 64.515625 
Q 19.53125 74.21875 31.78125 74.21875 
z
" id="DejaVuSans-48"/>
      </defs>
      <g transform="translate(361.721875 275.077656)scale(0.1 -0.1)">
       <use xlink:href="#DejaVuSans-48"/>
      </g>
     </g>
    </g>
    <g id="xtick_8">
     <g id="line2d_8">
      <g>
       <use style="stroke:#000000;stroke-width:0.8;" x="420.703125" xlink:href="#me46e36ac95" y="260.479219"/>
      </g>
     </g>
     <g id="text_8">
      <!-- 1 -->
      <g transform="translate(417.521875 275.077656)scale(0.1 -0.1)">
       <use xlink:href="#DejaVuSans-49"/>
      </g>
     </g>
    </g>
    <g id="xtick_9">
     <g id="line2d_9">
      <g>
       <use style="stroke:#000000;stroke-width:0.8;" x="476.503125" xlink:href="#me46e36ac95" y="260.479219"/>
      </g>
     </g>
     <g id="text_9">
      <!-- 2 -->
      <g transform="translate(473.321875 275.077656)scale(0.1 -0.1)">
       <use xlink:href="#DejaVuSans-50"/>
      </g>
     </g>
    </g>
    <g id="xtick_10">
     <g id="line2d_10">
      <g>
       <use style="stroke:#000000;stroke-width:0.8;" x="532.303125" xlink:href="#me46e36ac95" y="260.479219"/>
      </g>
     </g>
     <g id="text_10">
      <!-- 3 -->
      <g transform="translate(529.121875 275.077656)scale(0.1 -0.1)">
       <use xlink:href="#DejaVuSans-51"/>
      </g>
     </g>
    </g>
   </g>
   <g id="matplotlib.axis_2">
    <g id="ytick_1">
     <g id="line2d_11">
      <defs>
       <path d="M 0 0 
L -3.5 0 
" id="m35dfa12b60" style="stroke:#000000;stroke-width:0.8;"/>
      </defs>
      <g>
       <use style="stroke:#000000;stroke-width:0.8;" x="30.103125" xlink:href="#m35dfa12b60" y="260.479219"/>
      </g>
     </g>
     <g id="text_11">
      <!-- 0.0 -->
      <defs>
       <path d="M 10.6875 12.40625 
L 21 12.40625 
L 21 0 
L 10.6875 0 
z
" id="DejaVuSans-46"/>
      </defs>
      <g transform="translate(7.2 264.278438)scale(0.1 -0.1)">
       <use xlink:href="#DejaVuSans-48"/>
       <use x="63.623047" xlink:href="#DejaVuSans-46"/>
       <use x="95.410156" xlink:href="#DejaVuSans-48"/>
      </g>
     </g>
    </g>
    <g id="ytick_2">
     <g id="line2d_12">
      <g>
       <use style="stroke:#000000;stroke-width:0.8;" x="30.103125" xlink:href="#m35dfa12b60" y="210.583219"/>
      </g>
     </g>
     <g id="text_12">
      <!-- 0.2 -->
      <g transform="translate(7.2 214.382438)scale(0.1 -0.1)">
       <use xlink:href="#DejaVuSans-48"/>
       <use x="63.623047" xlink:href="#DejaVuSans-46"/>
       <use x="95.410156" xlink:href="#DejaVuSans-50"/>
      </g>
     </g>
    </g>
    <g id="ytick_3">
     <g id="line2d_13">
      <g>
       <use style="stroke:#000000;stroke-width:0.8;" x="30.103125" xlink:href="#m35dfa12b60" y="160.687219"/>
      </g>
     </g>
     <g id="text_13">
      <!-- 0.4 -->
      <g transform="translate(7.2 164.486438)scale(0.1 -0.1)">
       <use xlink:href="#DejaVuSans-48"/>
       <use x="63.623047" xlink:href="#DejaVuSans-46"/>
       <use x="95.410156" xlink:href="#DejaVuSans-52"/>
      </g>
     </g>
    </g>
    <g id="ytick_4">
     <g id="line2d_14">
      <g>
       <use style="stroke:#000000;stroke-width:0.8;" x="30.103125" xlink:href="#m35dfa12b60" y="110.791219"/>
      </g>
     </g>
     <g id="text_14">
      <!-- 0.6 -->
      <g transform="translate(7.2 114.590437)scale(0.1 -0.1)">
       <use xlink:href="#DejaVuSans-48"/>
       <use x="63.623047" xlink:href="#DejaVuSans-46"/>
       <use x="95.410156" xlink:href="#DejaVuSans-54"/>
      </g>
     </g>
    </g>
    <g id="ytick_5">
     <g id="line2d_15">
      <g>
       <use style="stroke:#000000;stroke-width:0.8;" x="30.103125" xlink:href="#m35dfa12b60" y="60.895219"/>
      </g>
     </g>
     <g id="text_15">
      <!-- 0.8 -->
      <defs>
       <path d="M 31.78125 34.625 
Q 24.75 34.625 20.71875 30.859375 
Q 16.703125 27.09375 16.703125 20.515625 
Q 16.703125 13.921875 20.71875 10.15625 
Q 24.75 6.390625 31.78125 6.390625 
Q 38.8125 6.390625 42.859375 10.171875 
Q 46.921875 13.96875 46.921875 20.515625 
Q 46.921875 27.09375 42.890625 30.859375 
Q 38.875 34.625 31.78125 34.625 
z
M 21.921875 38.8125 
Q 15.578125 40.375 12.03125 44.71875 
Q 8.5 49.078125 8.5 55.328125 
Q 8.5 64.0625 14.71875 69.140625 
Q 20.953125 74.21875 31.78125 74.21875 
Q 42.671875 74.21875 48.875 69.140625 
Q 55.078125 64.0625 55.078125 55.328125 
Q 55.078125 49.078125 51.53125 44.71875 
Q 48 40.375 41.703125 38.8125 
Q 48.828125 37.15625 52.796875 32.3125 
Q 56.78125 27.484375 56.78125 20.515625 
Q 56.78125 9.90625 50.3125 4.234375 
Q 43.84375 -1.421875 31.78125 -1.421875 
Q 19.734375 -1.421875 13.25 4.234375 
Q 6.78125 9.90625 6.78125 20.515625 
Q 6.78125 27.484375 10.78125 32.3125 
Q 14.796875 37.15625 21.921875 38.8125 
z
M 18.3125 54.390625 
Q 18.3125 48.734375 21.84375 45.5625 
Q 25.390625 42.390625 31.78125 42.390625 
Q 38.140625 42.390625 41.71875 45.5625 
Q 45.3125 48.734375 45.3125 54.390625 
Q 45.3125 60.0625 41.71875 63.234375 
Q 38.140625 66.40625 31.78125 66.40625 
Q 25.390625 66.40625 21.84375 63.234375 
Q 18.3125 60.0625 18.3125 54.390625 
z
" id="DejaVuSans-56"/>
      </defs>
      <g transform="translate(7.2 64.694437)scale(0.1 -0.1)">
       <use xlink:href="#DejaVuSans-48"/>
       <use x="63.623047" xlink:href="#DejaVuSans-46"/>
       <use x="95.410156" xlink:href="#DejaVuSans-56"/>
      </g>
     </g>
    </g>
    <g id="ytick_6">
     <g id="line2d_16">
      <g>
       <use style="stroke:#000000;stroke-width:0.8;" x="30.103125" xlink:href="#m35dfa12b60" y="10.999219"/>
      </g>
     </g>
     <g id="text_16">
      <!-- 1.0 -->
      <g transform="translate(7.2 14.798438)scale(0.1 -0.1)">
       <use xlink:href="#DejaVuSans-49"/>
       <use x="63.623047" xlink:href="#DejaVuSans-46"/>
       <use x="95.410156" xlink:href="#DejaVuSans-48"/>
      </g>
     </g>
    </g>
   </g>
   <g id="line2d_17">
    <path clip-path="url(#p776357a985)" d="M 30.103125 247.348692 
L 47.827831 245.927671 
L 63.583125 244.466382 
L 79.338419 242.779521 
L 93.124301 241.081513 
L 104.940772 239.430172 
L 116.757243 237.566269 
L 128.573713 235.453283 
L 138.420772 233.47052 
L 148.267831 231.253552 
L 156.145478 229.287203 
L 164.023125 227.126278 
L 171.900772 224.745955 
L 179.778419 222.117693 
L 187.656066 219.208629 
L 193.564301 216.819992 
L 199.472537 214.234177 
L 205.380772 211.431123 
L 211.289007 208.388562 
L 217.197243 205.081816 
L 223.105478 201.483605 
L 229.013713 197.56388 
L 234.921949 193.289708 
L 240.830184 188.625239 
L 244.769007 185.279778 
L 248.707831 181.731627 
L 252.646654 177.968267 
L 256.585478 173.976855 
L 260.524301 169.744377 
L 264.463125 165.257845 
L 268.401949 160.504566 
L 272.340772 155.47249 
L 276.279596 150.15065 
L 280.218419 144.529716 
L 284.157243 138.602685 
L 288.096066 132.365711 
L 292.03489 125.819101 
L 295.973713 118.968483 
L 301.881949 108.151576 
L 307.790184 96.757615 
L 315.667831 80.903328 
L 329.453713 52.890482 
L 333.392537 45.307558 
L 337.33136 38.141363 
L 341.270184 31.533074 
L 345.209007 25.626711 
L 347.178419 22.980965 
L 349.147831 20.562674 
L 351.117243 18.38762 
L 353.086654 16.47042 
L 355.056066 14.824295 
L 357.025478 13.460855 
L 358.99489 12.389892 
L 360.964301 11.619216 
L 362.933713 11.154507 
L 364.903125 10.999219 
L 366.872537 11.154507 
L 368.841949 11.619216 
L 370.81136 12.389892 
L 372.780772 13.460855 
L 374.750184 14.824295 
L 376.719596 16.47042 
L 378.689007 18.38762 
L 380.658419 20.562674 
L 382.627831 22.980965 
L 384.597243 25.626711 
L 388.536066 31.533074 
L 392.47489 38.141363 
L 396.413713 45.307558 
L 400.352537 52.890482 
L 406.260772 64.75817 
L 422.016066 96.757615 
L 427.924301 108.151576 
L 433.832537 118.968483 
L 437.77136 125.819101 
L 441.710184 132.365711 
L 445.649007 138.602685 
L 449.587831 144.529716 
L 453.526654 150.15065 
L 457.465478 155.47249 
L 461.404301 160.504566 
L 465.343125 165.257845 
L 469.281949 169.744377 
L 473.220772 173.976855 
L 477.159596 177.968267 
L 481.098419 181.731627 
L 485.037243 185.279778 
L 490.945478 190.22576 
L 496.853713 194.755968 
L 502.761949 198.908151 
L 508.670184 202.71719 
L 514.578419 206.215047 
L 520.486654 209.430832 
L 526.39489 212.390939 
L 532.303125 215.119219 
L 532.303125 215.119219 
" style="fill:none;stroke:#1f77b4;stroke-dasharray:3.7,1.6;stroke-dashoffset:0;"/>
   </g>
   <g id="line2d_18">
    <path clip-path="url(#p776357a985)" d="M 30.103125 259.242428 
L 51.766654 258.655737 
L 69.49136 257.973982 
L 85.246654 257.156721 
L 99.032537 256.225697 
L 110.849007 255.222675 
L 122.665478 253.983262 
L 132.512537 252.730103 
L 142.359596 251.235472 
L 150.237243 249.835055 
L 158.11489 248.222924 
L 165.992537 246.367308 
L 173.870184 244.231793 
L 179.778419 242.421621 
L 185.686654 240.410956 
L 191.59489 238.178032 
L 197.503125 235.698887 
L 203.41136 232.947202 
L 209.319596 229.894152 
L 215.227831 226.508292 
L 221.136066 222.755478 
L 225.07489 220.031651 
L 229.013713 217.11684 
L 232.952537 213.998984 
L 236.89136 210.665577 
L 240.830184 207.10373 
L 244.769007 203.300262 
L 248.707831 199.241818 
L 252.646654 194.91503 
L 256.585478 190.306717 
L 260.524301 185.404144 
L 264.463125 180.19534 
L 268.401949 174.669494 
L 272.340772 168.817433 
L 276.279596 162.632196 
L 280.218419 156.109714 
L 284.157243 149.249601 
L 288.096066 142.056068 
L 294.004301 130.663903 
L 299.912537 118.608085 
L 305.820772 105.994829 
L 313.698419 88.593026 
L 325.51489 62.424676 
L 331.423125 50.030193 
L 335.361949 42.295926 
L 339.300772 35.137613 
L 343.239596 28.688274 
L 345.209007 25.770157 
L 347.178419 23.077156 
L 349.147831 20.623921 
L 351.117243 18.424157 
L 353.086654 16.490445 
L 355.056066 14.83408 
L 357.025478 13.464906 
L 358.99489 12.391185 
L 360.964301 11.619473 
L 362.933713 11.154524 
L 364.903125 10.999219 
L 366.872537 11.154524 
L 368.841949 11.619473 
L 370.81136 12.391185 
L 372.780772 13.464906 
L 374.750184 14.83408 
L 376.719596 16.490445 
L 378.689007 18.424157 
L 380.658419 20.623921 
L 382.627831 23.077156 
L 384.597243 25.770157 
L 386.566654 28.688274 
L 390.505478 35.137613 
L 394.444301 42.295926 
L 398.383125 50.030193 
L 402.321949 58.208651 
L 408.230184 71.035267 
L 427.924301 114.45893 
L 433.832537 126.714773 
L 439.740772 138.337088 
L 443.679596 145.694042 
L 447.618419 152.721717 
L 451.557243 159.413231 
L 455.496066 165.766793 
L 459.43489 171.784735 
L 463.373713 177.472665 
L 467.312537 182.838729 
L 471.25136 187.892983 
L 475.190184 192.646873 
L 479.129007 197.112798 
L 483.067831 201.303749 
L 487.006654 205.233031 
L 490.945478 208.914027 
L 494.884301 212.360022 
L 498.823125 215.584065 
L 502.761949 218.598861 
L 506.700772 221.416702 
L 512.609007 225.299891 
L 518.517243 228.804141 
L 524.425478 231.964501 
L 530.333713 234.813312 
L 532.303125 235.698887 
L 532.303125 235.698887 
" style="fill:none;stroke:#ff7f0e;stroke-dasharray:6.4,1.6,1,1.6;stroke-dashoffset:0;"/>
   </g>
   <g id="line2d_19">
    <path clip-path="url(#p776357a985)" d="M 30.103125 260.273248 
L 65.552537 259.973705 
L 89.185478 259.559834 
L 106.910184 259.039966 
L 120.696066 258.440522 
L 132.512537 257.732623 
L 142.359596 256.959556 
L 152.206654 255.97089 
L 160.084301 254.985665 
L 167.961949 253.78808 
L 175.839596 252.333794 
L 181.747831 251.043149 
L 187.656066 249.552643 
L 193.564301 247.832922 
L 199.472537 245.850865 
L 205.380772 243.569299 
L 211.289007 240.946753 
L 215.227831 238.986464 
L 219.166654 236.839596 
L 223.105478 234.490564 
L 227.044301 231.922948 
L 230.983125 229.119562 
L 234.921949 226.062542 
L 238.860772 222.733488 
L 242.799596 219.113638 
L 246.738419 215.184101 
L 250.677243 210.926151 
L 254.616066 206.321592 
L 258.55489 201.353194 
L 262.493713 196.005219 
L 266.432537 190.264037 
L 270.37136 184.118834 
L 274.310184 177.562416 
L 278.249007 170.592096 
L 282.187831 163.210668 
L 286.126654 155.427437 
L 290.065478 147.25928 
L 295.973713 134.343722 
L 301.881949 120.749453 
L 309.759596 101.892353 
L 323.545478 68.683457 
L 327.484301 59.643504 
L 331.423125 51.019188 
L 335.361949 42.936306 
L 339.300772 35.520795 
L 343.239596 28.895039 
L 345.209007 25.914621 
L 347.178419 23.173918 
L 349.147831 20.685463 
L 351.117243 18.460831 
L 353.086654 16.510528 
L 355.056066 14.843883 
L 357.025478 13.468962 
L 358.99489 12.392478 
L 360.964301 11.61973 
L 362.933713 11.15454 
L 364.903125 10.999219 
L 366.872537 11.15454 
L 368.841949 11.61973 
L 370.81136 12.392478 
L 372.780772 13.468962 
L 374.750184 14.843883 
L 376.719596 16.510528 
L 378.689007 18.460831 
L 380.658419 20.685463 
L 382.627831 23.173918 
L 384.597243 25.914621 
L 386.566654 28.895039 
L 390.505478 35.520795 
L 394.444301 42.936306 
L 398.383125 51.019188 
L 402.321949 59.643504 
L 408.230184 73.320849 
L 416.107831 92.314792 
L 425.95489 116.097117 
L 431.863125 129.879869 
L 437.77136 143.03846 
L 441.710184 151.390094 
L 445.649007 159.368413 
L 449.587831 166.952354 
L 453.526654 174.128959 
L 457.465478 180.892312 
L 461.404301 187.242483 
L 465.343125 193.184529 
L 469.281949 198.727562 
L 473.220772 203.883898 
L 477.159596 208.668303 
L 481.098419 213.097332 
L 485.037243 217.188758 
L 488.976066 220.961093 
L 492.91489 224.433186 
L 496.853713 227.623895 
L 500.792537 230.551828 
L 504.73136 233.235136 
L 508.670184 235.691358 
L 512.609007 237.937307 
L 516.547831 239.988991 
L 520.486654 241.861564 
L 526.39489 244.365569 
L 532.303125 246.542907 
L 532.303125 246.542907 
" style="fill:none;stroke:#2ca02c;stroke-dasharray:1,1.65;stroke-dashoffset:0;"/>
   </g>
   <g id="line2d_20">
    <path clip-path="url(#p776357a985)" d="M 30.103125 260.479215 
L 144.329007 260.378305 
L 162.053713 260.142431 
L 173.870184 259.768087 
L 181.747831 259.337587 
L 189.625478 258.68264 
L 195.533713 257.987747 
L 201.441949 257.062598 
L 207.350184 255.846149 
L 211.289007 254.838361 
L 215.227831 253.645492 
L 219.166654 252.241518 
L 223.105478 250.598455 
L 227.044301 248.686578 
L 230.983125 246.474718 
L 234.921949 243.930657 
L 238.860772 241.021635 
L 242.799596 237.714956 
L 246.738419 233.978702 
L 250.677243 229.782559 
L 254.616066 225.098721 
L 258.55489 219.902885 
L 262.493713 214.175304 
L 266.432537 207.901874 
L 270.37136 201.075225 
L 274.310184 193.695797 
L 278.249007 185.772831 
L 282.187831 177.325275 
L 286.126654 168.382533 
L 290.065478 158.985025 
L 295.973713 144.152477 
L 301.881949 128.638663 
L 323.545478 70.918863 
L 327.484301 61.234371 
L 331.423125 52.096006 
L 335.361949 43.621743 
L 339.300772 35.92454 
L 341.270184 32.40065 
L 343.239596 29.109851 
L 345.209007 26.063758 
L 347.178419 23.273228 
L 349.147831 20.748291 
L 351.117243 18.498095 
L 353.086654 16.530848 
L 355.056066 14.853768 
L 357.025478 13.473039 
L 358.99489 12.393776 
L 360.964301 11.619987 
L 362.933713 11.154556 
L 364.903125 10.999219 
L 366.872537 11.154556 
L 368.841949 11.619987 
L 370.81136 12.393776 
L 372.780772 13.473039 
L 374.750184 14.853768 
L 376.719596 16.530848 
L 378.689007 18.498095 
L 380.658419 20.748291 
L 382.627831 23.273228 
L 384.597243 26.063758 
L 386.566654 29.109851 
L 388.536066 32.40065 
L 392.47489 39.669213 
L 396.413713 47.768655 
L 400.352537 56.589461 
L 404.29136 66.015851 
L 408.230184 75.92829 
L 414.138419 91.444286 
L 433.832537 144.152477 
L 439.740772 158.985025 
L 443.679596 168.382533 
L 447.618419 177.325275 
L 451.557243 185.772831 
L 455.496066 193.695797 
L 459.43489 201.075225 
L 463.373713 207.901874 
L 467.312537 214.175304 
L 471.25136 219.902885 
L 475.190184 225.098721 
L 479.129007 229.782559 
L 483.067831 233.978702 
L 487.006654 237.714956 
L 490.945478 241.021635 
L 494.884301 243.930657 
L 498.823125 246.474718 
L 502.761949 248.686578 
L 506.700772 250.598455 
L 510.639596 252.241518 
L 514.578419 253.645492 
L 518.517243 254.838361 
L 522.456066 255.846149 
L 528.364301 257.062598 
L 532.303125 257.707746 
L 532.303125 257.707746 
" style="fill:none;stroke:#d62728;stroke-dasharray:3.7,1.6;stroke-dashoffset:0;"/>
   </g>
   <g id="line2d_21">
    <path clip-path="url(#p776357a985)" d="M 30.103125 260.479219 
L 254.616066 260.394029 
L 256.585478 259.9471 
L 258.55489 259.118506 
L 260.524301 257.910793 
L 262.493713 256.327672 
L 264.463125 254.374009 
L 266.432537 252.055805 
L 268.401949 249.380184 
L 270.37136 246.355368 
L 272.340772 242.990652 
L 274.310184 239.296375 
L 276.279596 235.283888 
L 278.249007 230.965521 
L 282.187831 221.465123 
L 286.126654 210.911863 
L 290.065478 199.435354 
L 294.004301 187.176546 
L 297.943125 174.285999 
L 303.85136 154.113633 
L 319.606654 99.391262 
L 323.545478 86.410635 
L 327.484301 74.035849 
L 331.423125 62.418886 
L 335.361949 51.702424 
L 339.300772 42.018079 
L 341.270184 37.600655 
L 343.239596 33.484791 
L 345.209007 29.683133 
L 347.178419 26.207364 
L 349.147831 23.068163 
L 351.117243 20.275177 
L 353.086654 17.836988 
L 355.056066 15.761088 
L 357.025478 14.053856 
L 358.99489 12.720538 
L 360.964301 11.76523 
L 362.933713 11.190869 
L 364.903125 10.999219 
L 366.872537 11.190869 
L 368.841949 11.76523 
L 370.81136 12.720538 
L 372.780772 14.053856 
L 374.750184 15.761088 
L 376.719596 17.836988 
L 378.689007 20.275177 
L 380.658419 23.068163 
L 382.627831 26.207364 
L 384.597243 29.683133 
L 386.566654 33.484791 
L 388.536066 37.600655 
L 390.505478 42.018079 
L 394.444301 51.702424 
L 398.383125 62.418886 
L 402.321949 74.035849 
L 406.260772 86.410635 
L 412.169007 106.059183 
L 420.046654 133.43416 
L 429.893713 167.653047 
L 435.801949 187.176546 
L 439.740772 199.435354 
L 443.679596 210.911863 
L 447.618419 221.465123 
L 451.557243 230.965521 
L 453.526654 235.283888 
L 455.496066 239.296375 
L 457.465478 242.990652 
L 459.43489 246.355368 
L 461.404301 249.380184 
L 463.373713 252.055805 
L 465.343125 254.374009 
L 467.312537 256.327672 
L 469.281949 257.910793 
L 471.25136 259.118506 
L 473.220772 259.9471 
L 475.190184 260.394029 
L 479.129007 260.479219 
L 532.303125 260.479219 
L 532.303125 260.479219 
" style="fill:none;stroke:#9467bd;stroke-dasharray:6.4,1.6,1,1.6;stroke-dashoffset:0;"/>
   </g>
   <g id="patch_3">
    <path d="M 30.103125 260.479219 
L 30.103125 10.999219 
" style="fill:none;stroke:#000000;stroke-linecap:square;stroke-linejoin:miter;stroke-width:0.8;"/>
   </g>
   <g id="patch_4">
    <path d="M 532.303125 260.479219 
L 532.303125 10.999219 
" style="fill:none;stroke:#000000;stroke-linecap:square;stroke-linejoin:miter;stroke-width:0.8;"/>
   </g>
   <g id="patch_5">
    <path d="M 30.103125 260.479219 
L 532.303125 260.479219 
" style="fill:none;stroke:#000000;stroke-linecap:square;stroke-linejoin:miter;stroke-width:0.8;"/>
   </g>
   <g id="patch_6">
    <path d="M 30.103125 10.999219 
L 532.303125 10.999219 
" style="fill:none;stroke:#000000;stroke-linecap:square;stroke-linejoin:miter;stroke-width:0.8;"/>
   </g>
   <g id="legend_1">
    <g id="patch_7">
     <path d="M 486.940625 92.389844 
L 525.303125 92.389844 
Q 527.303125 92.389844 527.303125 90.389844 
L 527.303125 17.999219 
Q 527.303125 15.999219 525.303125 15.999219 
L 486.940625 15.999219 
Q 484.940625 15.999219 484.940625 17.999219 
L 484.940625 90.389844 
Q 484.940625 92.389844 486.940625 92.389844 
z
" style="fill:#ffffff;opacity:0.8;stroke:#cccccc;stroke-linejoin:miter;"/>
    </g>
    <g id="line2d_22">
     <path d="M 488.940625 24.097656 
L 508.940625 24.097656 
" style="fill:none;stroke:#1f77b4;stroke-dasharray:3.7,1.6;stroke-dashoffset:0;"/>
    </g>
    <g id="line2d_23"/>
    <g id="text_17">
     <!-- 0 -->
     <g transform="translate(516.940625 27.597656)scale(0.1 -0.1)">
      <use xlink:href="#DejaVuSans-48"/>
     </g>
    </g>
    <g id="line2d_24">
     <path d="M 488.940625 38.775781 
L 508.940625 38.775781 
" style="fill:none;stroke:#ff7f0e;stroke-dasharray:6.4,1.6,1,1.6;stroke-dashoffset:0;"/>
    </g>
    <g id="line2d_25"/>
    <g id="text_18">
     <!-- 1 -->
     <g transform="translate(516.940625 42.275781)scale(0.1 -0.1)">
      <use xlink:href="#DejaVuSans-49"/>
     </g>
    </g>
    <g id="line2d_26">
     <path d="M 488.940625 53.453906 
L 508.940625 53.453906 
" style="fill:none;stroke:#2ca02c;stroke-dasharray:1,1.65;stroke-dashoffset:0;"/>
    </g>
    <g id="line2d_27"/>
    <g id="text_19">
     <!-- 2 -->
     <g transform="translate(516.940625 56.953906)scale(0.1 -0.1)">
      <use xlink:href="#DejaVuSans-50"/>
     </g>
    </g>
    <g id="line2d_28">
     <path d="M 488.940625 68.132031 
L 508.940625 68.132031 
" style="fill:none;stroke:#d62728;stroke-dasharray:3.7,1.6;stroke-dashoffset:0;"/>
    </g>
    <g id="line2d_29"/>
    <g id="text_20">
     <!-- 3 -->
     <g transform="translate(516.940625 71.632031)scale(0.1 -0.1)">
      <use xlink:href="#DejaVuSans-51"/>
     </g>
    </g>
    <g id="line2d_30">
     <path d="M 488.940625 82.810156 
L 508.940625 82.810156 
" style="fill:none;stroke:#9467bd;stroke-dasharray:6.4,1.6,1,1.6;stroke-dashoffset:0;"/>
    </g>
    <g id="line2d_31"/>
    <g id="text_21">
     <!-- 4 -->
     <g transform="translate(516.940625 86.310156)scale(0.1 -0.1)">
      <use xlink:href="#DejaVuSans-52"/>
     </g>
    </g>
   </g>
  </g>
 </g>
 <defs>
  <clipPath id="p776357a985">
   <rect height="249.48" width="502.2" x="30.103125" y="10.999219"/>
  </clipPath>
 </defs>
</svg>
