<?xml version="1.0" encoding="utf-8" standalone="no"?>
<!DOCTYPE svg PUBLIC "-//W3C//DTD SVG 1.1//EN"
  "http://www.w3.org/Graphics/SVG/1.1/DTD/svg11.dtd">
<!-- Created with matplotlib (https://matplotlib.org/) -->
<svg height="242.237344pt" version="1.1" viewBox="0 0 472.484375 242.237344" width="472.484375pt" xmlns="http://www.w3.org/2000/svg" xmlns:xlink="http://www.w3.org/1999/xlink">
 <defs>
  <style type="text/css">
*{stroke-linecap:butt;stroke-linejoin:round;white-space:pre;}
  </style>
 </defs>
 <g id="figure_1">
  <g id="patch_1">
   <path d="M 0 242.237344 
L 472.484375 242.237344 
L 472.484375 0 
L 0 0 
z
" style="fill:#ffffff;"/>
  </g>
  <g id="axes_1">
   <g id="patch_2">
    <path d="M 22.903125 225.559219 
L 469.303125 225.559219 
L 469.303125 3.799219 
L 22.903125 3.799219 
z
" style="fill:#ffffff;"/>
   </g>
   <g id="matplotlib.axis_1">
    <g id="xtick_1">
     <g id="line2d_1">
      <defs>
       <path d="M 0 0 
L 0 3.5 
" id="mba1324f34c" style="stroke:#000000;stroke-width:0.8;"/>
      </defs>
      <g>
       <use style="stroke:#000000;stroke-width:0.8;" x="22.903125" xlink:href="#mba1324f34c" y="225.559219"/>
      </g>
     </g>
     <g id="text_1">
      <!-- −8 -->
      <defs>
       <path d="M 10.59375 35.5 
L 73.1875 35.5 
L 73.1875 27.203125 
L 10.59375 27.203125 
z
" id="DejaVuSans-8722"/>
       <path d="M 31.78125 34.625 
Q 24.75 34.625 20.71875 30.859375 
Q 16.703125 27.09375 16.703125 20.515625 
Q 16.703125 13.921875 20.71875 10.15625 
Q 24.75 6.390625 31.78125 6.390625 
Q 38.8125 6.390625 42.859375 10.171875 
Q 46.921875 13.96875 46.921875 20.515625 
Q 46.921875 27.09375 42.890625 30.859375 
Q 38.875 34.625 31.78125 34.625 
z
M 21.921875 38.8125 
Q 15.578125 40.375 12.03125 44.71875 
Q 8.5 49.078125 8.5 55.328125 
Q 8.5 64.0625 14.71875 69.140625 
Q 20.953125 74.21875 31.78125 74.21875 
Q 42.671875 74.21875 48.875 69.140625 
Q 55.078125 64.0625 55.078125 55.328125 
Q 55.078125 49.078125 51.53125 44.71875 
Q 48 40.375 41.703125 38.8125 
Q 48.828125 37.15625 52.796875 32.3125 
Q 56.78125 27.484375 56.78125 20.515625 
Q 56.78125 9.90625 50.3125 4.234375 
Q 43.84375 -1.421875 31.78125 -1.421875 
Q 19.734375 -1.421875 13.25 4.234375 
Q 6.78125 9.90625 6.78125 20.515625 
Q 6.78125 27.484375 10.78125 32.3125 
Q 14.796875 37.15625 21.921875 38.8125 
z
M 18.3125 54.390625 
Q 18.3125 48.734375 21.84375 45.5625 
Q 25.390625 42.390625 31.78125 42.390625 
Q 38.140625 42.390625 41.71875 45.5625 
Q 45.3125 48.734375 45.3125 54.390625 
Q 45.3125 60.0625 41.71875 63.234375 
Q 38.140625 66.40625 31.78125 66.40625 
Q 25.390625 66.40625 21.84375 63.234375 
Q 18.3125 60.0625 18.3125 54.390625 
z
" id="DejaVuSans-56"/>
      </defs>
      <g transform="translate(15.532031 240.157656)scale(0.1 -0.1)">
       <use xlink:href="#DejaVuSans-8722"/>
       <use x="83.789062" xlink:href="#DejaVuSans-56"/>
      </g>
     </g>
    </g>
    <g id="xtick_2">
     <g id="line2d_2">
      <g>
       <use style="stroke:#000000;stroke-width:0.8;" x="97.303125" xlink:href="#mba1324f34c" y="225.559219"/>
      </g>
     </g>
     <g id="text_2">
      <!-- −6 -->
      <defs>
       <path d="M 33.015625 40.375 
Q 26.375 40.375 22.484375 35.828125 
Q 18.609375 31.296875 18.609375 23.390625 
Q 18.609375 15.53125 22.484375 10.953125 
Q 26.375 6.390625 33.015625 6.390625 
Q 39.65625 6.390625 43.53125 10.953125 
Q 47.40625 15.53125 47.40625 23.390625 
Q 47.40625 31.296875 43.53125 35.828125 
Q 39.65625 40.375 33.015625 40.375 
z
M 52.59375 71.296875 
L 52.59375 62.3125 
Q 48.875 64.0625 45.09375 64.984375 
Q 41.3125 65.921875 37.59375 65.921875 
Q 27.828125 65.921875 22.671875 59.328125 
Q 17.53125 52.734375 16.796875 39.40625 
Q 19.671875 43.65625 24.015625 45.921875 
Q 28.375 48.1875 33.59375 48.1875 
Q 44.578125 48.1875 50.953125 41.515625 
Q 57.328125 34.859375 57.328125 23.390625 
Q 57.328125 12.15625 50.6875 5.359375 
Q 44.046875 -1.421875 33.015625 -1.421875 
Q 20.359375 -1.421875 13.671875 8.265625 
Q 6.984375 17.96875 6.984375 36.375 
Q 6.984375 53.65625 15.1875 63.9375 
Q 23.390625 74.21875 37.203125 74.21875 
Q 40.921875 74.21875 44.703125 73.484375 
Q 48.484375 72.75 52.59375 71.296875 
z
" id="DejaVuSans-54"/>
      </defs>
      <g transform="translate(89.932031 240.157656)scale(0.1 -0.1)">
       <use xlink:href="#DejaVuSans-8722"/>
       <use x="83.789062" xlink:href="#DejaVuSans-54"/>
      </g>
     </g>
    </g>
    <g id="xtick_3">
     <g id="line2d_3">
      <g>
       <use style="stroke:#000000;stroke-width:0.8;" x="171.703125" xlink:href="#mba1324f34c" y="225.559219"/>
      </g>
     </g>
     <g id="text_3">
      <!-- −4 -->
      <defs>
       <path d="M 37.796875 64.3125 
L 12.890625 25.390625 
L 37.796875 25.390625 
z
M 35.203125 72.90625 
L 47.609375 72.90625 
L 47.609375 25.390625 
L 58.015625 25.390625 
L 58.015625 17.1875 
L 47.609375 17.1875 
L 47.609375 0 
L 37.796875 0 
L 37.796875 17.1875 
L 4.890625 17.1875 
L 4.890625 26.703125 
z
" id="DejaVuSans-52"/>
      </defs>
      <g transform="translate(164.332031 240.157656)scale(0.1 -0.1)">
       <use xlink:href="#DejaVuSans-8722"/>
       <use x="83.789062" xlink:href="#DejaVuSans-52"/>
      </g>
     </g>
    </g>
    <g id="xtick_4">
     <g id="line2d_4">
      <g>
       <use style="stroke:#000000;stroke-width:0.8;" x="246.103125" xlink:href="#mba1324f34c" y="225.559219"/>
      </g>
     </g>
     <g id="text_4">
      <!-- −2 -->
      <defs>
       <path d="M 19.1875 8.296875 
L 53.609375 8.296875 
L 53.609375 0 
L 7.328125 0 
L 7.328125 8.296875 
Q 12.9375 14.109375 22.625 23.890625 
Q 32.328125 33.6875 34.8125 36.53125 
Q 39.546875 41.84375 41.421875 45.53125 
Q 43.3125 49.21875 43.3125 52.78125 
Q 43.3125 58.59375 39.234375 62.25 
Q 35.15625 65.921875 28.609375 65.921875 
Q 23.96875 65.921875 18.8125 64.3125 
Q 13.671875 62.703125 7.8125 59.421875 
L 7.8125 69.390625 
Q 13.765625 71.78125 18.9375 73 
Q 24.125 74.21875 28.421875 74.21875 
Q 39.75 74.21875 46.484375 68.546875 
Q 53.21875 62.890625 53.21875 53.421875 
Q 53.21875 48.921875 51.53125 44.890625 
Q 49.859375 40.875 45.40625 35.40625 
Q 44.1875 33.984375 37.640625 27.21875 
Q 31.109375 20.453125 19.1875 8.296875 
z
" id="DejaVuSans-50"/>
      </defs>
      <g transform="translate(238.732031 240.157656)scale(0.1 -0.1)">
       <use xlink:href="#DejaVuSans-8722"/>
       <use x="83.789062" xlink:href="#DejaVuSans-50"/>
      </g>
     </g>
    </g>
    <g id="xtick_5">
     <g id="line2d_5">
      <g>
       <use style="stroke:#000000;stroke-width:0.8;" x="320.503125" xlink:href="#mba1324f34c" y="225.559219"/>
      </g>
     </g>
     <g id="text_5">
      <!-- 0 -->
      <defs>
       <path d="M 31.78125 66.40625 
Q 24.171875 66.40625 20.328125 58.90625 
Q 16.5 51.421875 16.5 36.375 
Q 16.5 21.390625 20.328125 13.890625 
Q 24.171875 6.390625 31.78125 6.390625 
Q 39.453125 6.390625 43.28125 13.890625 
Q 47.125 21.390625 47.125 36.375 
Q 47.125 51.421875 43.28125 58.90625 
Q 39.453125 66.40625 31.78125 66.40625 
z
M 31.78125 74.21875 
Q 44.046875 74.21875 50.515625 64.515625 
Q 56.984375 54.828125 56.984375 36.375 
Q 56.984375 17.96875 50.515625 8.265625 
Q 44.046875 -1.421875 31.78125 -1.421875 
Q 19.53125 -1.421875 13.0625 8.265625 
Q 6.59375 17.96875 6.59375 36.375 
Q 6.59375 54.828125 13.0625 64.515625 
Q 19.53125 74.21875 31.78125 74.21875 
z
" id="DejaVuSans-48"/>
      </defs>
      <g transform="translate(317.321875 240.157656)scale(0.1 -0.1)">
       <use xlink:href="#DejaVuSans-48"/>
      </g>
     </g>
    </g>
    <g id="xtick_6">
     <g id="line2d_6">
      <g>
       <use style="stroke:#000000;stroke-width:0.8;" x="394.903125" xlink:href="#mba1324f34c" y="225.559219"/>
      </g>
     </g>
     <g id="text_6">
      <!-- 2 -->
      <g transform="translate(391.721875 240.157656)scale(0.1 -0.1)">
       <use xlink:href="#DejaVuSans-50"/>
      </g>
     </g>
    </g>
    <g id="xtick_7">
     <g id="line2d_7">
      <g>
       <use style="stroke:#000000;stroke-width:0.8;" x="469.303125" xlink:href="#mba1324f34c" y="225.559219"/>
      </g>
     </g>
     <g id="text_7">
      <!-- 4 -->
      <g transform="translate(466.121875 240.157656)scale(0.1 -0.1)">
       <use xlink:href="#DejaVuSans-52"/>
      </g>
     </g>
    </g>
   </g>
   <g id="matplotlib.axis_2">
    <g id="ytick_1">
     <g id="line2d_8">
      <defs>
       <path d="M 0 0 
L -3.5 0 
" id="m3846e409cb" style="stroke:#000000;stroke-width:0.8;"/>
      </defs>
      <g>
       <use style="stroke:#000000;stroke-width:0.8;" x="22.903125" xlink:href="#m3846e409cb" y="225.559219"/>
      </g>
     </g>
     <g id="text_8">
      <!-- 0.0 -->
      <defs>
       <path d="M 10.6875 12.40625 
L 21 12.40625 
L 21 0 
L 10.6875 0 
z
" id="DejaVuSans-46"/>
      </defs>
      <g transform="translate(0 229.358438)scale(0.1 -0.1)">
       <use xlink:href="#DejaVuSans-48"/>
       <use x="63.623047" xlink:href="#DejaVuSans-46"/>
       <use x="95.410156" xlink:href="#DejaVuSans-48"/>
      </g>
     </g>
    </g>
    <g id="ytick_2">
     <g id="line2d_9">
      <g>
       <use style="stroke:#000000;stroke-width:0.8;" x="22.903125" xlink:href="#m3846e409cb" y="181.207219"/>
      </g>
     </g>
     <g id="text_9">
      <!-- 0.2 -->
      <g transform="translate(0 185.006438)scale(0.1 -0.1)">
       <use xlink:href="#DejaVuSans-48"/>
       <use x="63.623047" xlink:href="#DejaVuSans-46"/>
       <use x="95.410156" xlink:href="#DejaVuSans-50"/>
      </g>
     </g>
    </g>
    <g id="ytick_3">
     <g id="line2d_10">
      <g>
       <use style="stroke:#000000;stroke-width:0.8;" x="22.903125" xlink:href="#m3846e409cb" y="136.855219"/>
      </g>
     </g>
     <g id="text_10">
      <!-- 0.4 -->
      <g transform="translate(0 140.654438)scale(0.1 -0.1)">
       <use xlink:href="#DejaVuSans-48"/>
       <use x="63.623047" xlink:href="#DejaVuSans-46"/>
       <use x="95.410156" xlink:href="#DejaVuSans-52"/>
      </g>
     </g>
    </g>
    <g id="ytick_4">
     <g id="line2d_11">
      <g>
       <use style="stroke:#000000;stroke-width:0.8;" x="22.903125" xlink:href="#m3846e409cb" y="92.503219"/>
      </g>
     </g>
     <g id="text_11">
      <!-- 0.6 -->
      <g transform="translate(0 96.302437)scale(0.1 -0.1)">
       <use xlink:href="#DejaVuSans-48"/>
       <use x="63.623047" xlink:href="#DejaVuSans-46"/>
       <use x="95.410156" xlink:href="#DejaVuSans-54"/>
      </g>
     </g>
    </g>
    <g id="ytick_5">
     <g id="line2d_12">
      <g>
       <use style="stroke:#000000;stroke-width:0.8;" x="22.903125" xlink:href="#m3846e409cb" y="48.151219"/>
      </g>
     </g>
     <g id="text_12">
      <!-- 0.8 -->
      <g transform="translate(0 51.950438)scale(0.1 -0.1)">
       <use xlink:href="#DejaVuSans-48"/>
       <use x="63.623047" xlink:href="#DejaVuSans-46"/>
       <use x="95.410156" xlink:href="#DejaVuSans-56"/>
      </g>
     </g>
    </g>
    <g id="ytick_6">
     <g id="line2d_13">
      <g>
       <use style="stroke:#000000;stroke-width:0.8;" x="22.903125" xlink:href="#m3846e409cb" y="3.799219"/>
      </g>
     </g>
     <g id="text_13">
      <!-- 1.0 -->
      <defs>
       <path d="M 12.40625 8.296875 
L 28.515625 8.296875 
L 28.515625 63.921875 
L 10.984375 60.40625 
L 10.984375 69.390625 
L 28.421875 72.90625 
L 38.28125 72.90625 
L 38.28125 8.296875 
L 54.390625 8.296875 
L 54.390625 0 
L 12.40625 0 
z
" id="DejaVuSans-49"/>
      </defs>
      <g transform="translate(0 7.598438)scale(0.1 -0.1)">
       <use xlink:href="#DejaVuSans-49"/>
       <use x="63.623047" xlink:href="#DejaVuSans-46"/>
       <use x="95.410156" xlink:href="#DejaVuSans-48"/>
      </g>
     </g>
    </g>
   </g>
   <g id="line2d_14">
    <path clip-path="url(#p7f50616e7b)" d="M 22.903125 218.839219 
L 43.910184 217.816688 
L 63.166654 216.662813 
L 80.672537 215.378468 
L 94.677243 214.143602 
L 108.681949 212.674801 
L 120.936066 211.149894 
L 131.439596 209.622638 
L 141.943125 207.846759 
L 150.696066 206.137713 
L 159.449007 204.178379 
L 166.45136 202.39811 
L 173.453713 200.396026 
L 180.456066 198.135753 
L 185.707831 196.245206 
L 190.959596 194.163534 
L 196.21136 191.86595 
L 201.463125 189.323925 
L 206.71489 186.504594 
L 211.966654 183.370104 
L 217.218419 179.876899 
L 220.719596 177.324399 
L 224.220772 174.573825 
L 227.721949 171.607102 
L 231.223125 168.40458 
L 234.724301 164.944987 
L 238.225478 161.205441 
L 241.726654 157.161524 
L 245.227831 152.787451 
L 248.729007 148.056389 
L 252.230184 142.940954 
L 255.73136 137.41398 
L 259.232537 131.449615 
L 262.733713 125.024865 
L 266.23489 118.121681 
L 269.736066 110.72972 
L 273.237243 102.849867 
L 276.738419 94.498605 
L 281.990184 81.176413 
L 287.241949 67.127893 
L 297.745478 38.755441 
L 301.246654 30.000083 
L 304.747831 22.051534 
L 306.498419 18.474302 
L 308.249007 15.211838 
L 309.999596 12.300068 
L 311.750184 9.772552 
L 313.500772 7.659586 
L 315.25136 5.98734 
L 317.001949 4.777077 
L 318.752537 4.044495 
L 320.503125 3.799219 
L 322.253713 4.044495 
L 324.004301 4.777077 
L 325.75489 5.98734 
L 327.505478 7.659586 
L 329.256066 9.772552 
L 331.006654 12.300068 
L 332.757243 15.211838 
L 334.507831 18.474302 
L 336.258419 22.051534 
L 339.759596 30.000083 
L 343.260772 38.755441 
L 348.512537 52.776301 
L 359.016066 81.176413 
L 364.267831 94.498605 
L 367.769007 102.849867 
L 371.270184 110.72972 
L 374.77136 118.121681 
L 378.272537 125.024865 
L 381.773713 131.449615 
L 385.27489 137.41398 
L 388.776066 142.940954 
L 392.277243 148.056389 
L 395.778419 152.787451 
L 399.279596 157.161524 
L 402.780772 161.205441 
L 406.281949 164.944987 
L 409.783125 168.40458 
L 413.284301 171.607102 
L 416.785478 174.573825 
L 420.286654 177.324399 
L 423.787831 179.876899 
L 429.039596 183.370104 
L 434.29136 186.504594 
L 439.543125 189.323925 
L 444.79489 191.86595 
L 450.046654 194.163534 
L 455.298419 196.245206 
L 460.550184 198.135753 
L 467.552537 200.396026 
L 469.303125 200.919219 
L 469.303125 200.919219 
" style="fill:none;stroke:#1f77b4;stroke-dasharray:3.7,1.6;stroke-dashoffset:0;"/>
   </g>
   <g id="line2d_15">
    <path clip-path="url(#p7f50616e7b)" d="M 22.903125 225.410434 
L 59.665478 225.159511 
L 84.173713 224.786779 
L 101.679596 224.322598 
L 115.684301 223.757314 
L 127.938419 223.05434 
L 138.441949 222.237212 
L 147.19489 221.356088 
L 155.947831 220.241366 
L 162.950184 219.140367 
L 169.952537 217.811652 
L 176.95489 216.2083 
L 182.206654 214.792003 
L 187.458419 213.161778 
L 192.710184 211.285622 
L 197.961949 209.126905 
L 203.213713 206.643791 
L 206.71489 204.784887 
L 210.216066 202.745079 
L 213.717243 200.50734 
L 217.218419 198.05323 
L 220.719596 195.362839 
L 224.220772 192.414759 
L 227.721949 189.186075 
L 231.223125 185.652415 
L 234.724301 181.788053 
L 238.225478 177.566098 
L 241.726654 172.958801 
L 245.227831 167.93801 
L 248.729007 162.475816 
L 252.230184 156.54545 
L 255.73136 150.12249 
L 259.232537 143.186444 
L 262.733713 135.722785 
L 266.23489 127.7255 
L 269.736066 119.200204 
L 273.237243 110.167827 
L 276.738419 100.668813 
L 281.990184 85.69415 
L 297.745478 39.680732 
L 301.246654 30.519268 
L 304.747831 22.303106 
L 306.498419 18.636796 
L 308.249007 15.310036 
L 309.999596 12.35451 
L 311.750184 9.799415 
L 313.500772 7.670799 
L 315.25136 5.990941 
L 317.001949 4.777796 
L 318.752537 4.04454 
L 320.503125 3.799219 
L 322.253713 4.04454 
L 324.004301 4.777796 
L 325.75489 5.990941 
L 327.505478 7.670799 
L 329.256066 9.799415 
L 331.006654 12.35451 
L 332.757243 15.310036 
L 334.507831 18.636796 
L 336.258419 22.303106 
L 339.759596 30.519268 
L 343.260772 39.680732 
L 346.761949 49.510736 
L 353.764301 70.164204 
L 360.766654 90.767661 
L 366.018419 105.473237 
L 369.519596 114.745382 
L 373.020772 123.527951 
L 376.521949 131.790808 
L 380.023125 139.521175 
L 383.524301 146.719678 
L 387.025478 153.396938 
L 390.526654 159.570752 
L 394.027831 165.263801 
L 397.529007 170.501852 
L 401.030184 175.312374 
L 404.53136 179.723493 
L 408.032537 183.763228 
L 411.533713 187.458945 
L 415.03489 190.836982 
L 418.536066 193.922407 
L 422.037243 196.738872 
L 425.538419 199.308541 
L 429.039596 201.65207 
L 432.540772 203.788628 
L 436.041949 205.735942 
L 441.293713 208.337472 
L 446.545478 210.599398 
L 451.797243 212.565427 
L 457.049007 214.273856 
L 462.300772 215.758169 
L 467.552537 217.047591 
L 469.303125 217.438591 
L 469.303125 217.438591 
" style="fill:none;stroke:#ff7f0e;stroke-dasharray:6.4,1.6,1,1.6;stroke-dashoffset:0;"/>
   </g>
   <g id="line2d_16">
    <path clip-path="url(#p7f50616e7b)" d="M 22.903125 225.548393 
L 91.176066 225.414165 
L 117.43489 225.165823 
L 134.940772 224.794515 
L 147.19489 224.342 
L 157.698419 223.747044 
L 166.45136 223.035666 
L 173.453713 222.2717 
L 180.456066 221.278717 
L 185.707831 220.343996 
L 190.959596 219.208149 
L 196.21136 217.829347 
L 201.463125 216.157767 
L 204.964301 214.851997 
L 208.465478 213.37009 
L 211.966654 211.689847 
L 215.467831 209.786739 
L 218.969007 207.633805 
L 222.470184 205.201597 
L 225.97136 202.458192 
L 229.472537 199.369293 
L 232.973713 195.898452 
L 236.47489 192.007458 
L 239.976066 187.65692 
L 243.477243 182.80711 
L 246.978419 177.419106 
L 250.479596 171.456298 
L 253.980772 164.886302 
L 257.481949 157.683322 
L 260.983125 149.83098 
L 264.484301 141.325597 
L 267.985478 132.179857 
L 271.486654 122.426724 
L 274.987831 112.123394 
L 280.239596 95.831364 
L 295.99489 45.732254 
L 299.496066 35.712943 
L 302.997243 26.648894 
L 304.747831 22.557064 
L 306.498419 18.800572 
L 308.249007 15.408854 
L 309.999596 12.409214 
L 311.750184 9.82637 
L 313.500772 7.682037 
L 315.25136 5.994546 
L 317.001949 4.778516 
L 318.752537 4.044585 
L 320.503125 3.799219 
L 322.253713 4.044585 
L 324.004301 4.778516 
L 325.75489 5.994546 
L 327.505478 7.682037 
L 329.256066 9.82637 
L 331.006654 12.409214 
L 332.757243 15.408854 
L 334.507831 18.800572 
L 336.258419 22.557064 
L 338.009007 26.648894 
L 341.510184 35.712943 
L 345.01136 45.732254 
L 348.512537 56.441563 
L 355.51489 78.919843 
L 362.517243 101.354982 
L 367.769007 117.339208 
L 371.270184 127.376253 
L 374.77136 136.831234 
L 378.272537 145.659554 
L 381.773713 153.83889 
L 385.27489 161.365216 
L 388.776066 168.248996 
L 392.277243 174.511701 
L 395.778419 180.182745 
L 399.279596 185.296891 
L 402.780772 189.892119 
L 406.281949 194.007917 
L 409.783125 197.683968 
L 413.284301 200.959161 
L 416.785478 203.870884 
L 420.286654 206.454548 
L 423.787831 208.743282 
L 427.289007 210.767779 
L 430.790184 212.556238 
L 434.29136 214.134395 
L 437.792537 215.525599 
L 443.044301 217.307399 
L 448.296066 218.777828 
L 453.547831 219.989641 
L 458.799596 220.987203 
L 465.801949 222.047265 
L 469.303125 222.481893 
L 469.303125 222.481893 
" style="fill:none;stroke:#2ca02c;stroke-dasharray:1,1.65;stroke-dashoffset:0;"/>
   </g>
   <g id="line2d_17">
    <path clip-path="url(#p7f50616e7b)" d="M 22.903125 225.559219 
L 175.204301 225.451299 
L 187.458419 225.189116 
L 194.460772 224.846361 
L 199.712537 224.420504 
L 204.964301 223.776137 
L 208.465478 223.181284 
L 211.966654 222.415949 
L 215.467831 221.440935 
L 218.969007 220.211065 
L 222.470184 218.675162 
L 225.97136 216.776318 
L 229.472537 214.452533 
L 232.973713 211.637785 
L 236.47489 208.263589 
L 238.225478 206.345123 
L 239.976066 204.261075 
L 241.726654 202.003204 
L 245.227831 196.934802 
L 248.729007 191.082619 
L 252.230184 184.400184 
L 255.73136 176.855861 
L 259.232537 168.436933 
L 262.733713 159.153541 
L 266.23489 149.042239 
L 269.736066 138.168888 
L 273.237243 126.630608 
L 278.489007 108.367613 
L 292.493713 58.535554 
L 295.99489 47.062272 
L 299.496066 36.483162 
L 302.997243 27.043344 
L 304.747831 22.822713 
L 306.498419 18.970353 
L 308.249007 15.510466 
L 309.999596 12.465061 
L 311.750184 9.853718 
L 313.500772 7.69338 
L 315.25136 5.99817 
L 317.001949 4.779236 
L 318.752537 4.04463 
L 320.503125 3.799219 
L 322.253713 4.04463 
L 324.004301 4.779236 
L 325.75489 5.99817 
L 327.505478 7.69338 
L 329.256066 9.853718 
L 331.006654 12.465061 
L 332.757243 15.510466 
L 334.507831 18.970353 
L 336.258419 22.822713 
L 338.009007 27.043344 
L 339.759596 31.606099 
L 343.260772 41.645323 
L 346.761949 52.702892 
L 350.263125 64.528408 
L 355.51489 83.152221 
L 364.267831 114.556556 
L 369.519596 132.475543 
L 373.020772 143.695498 
L 376.521949 154.197977 
L 380.023125 163.901667 
L 383.524301 172.755669 
L 387.025478 180.737044 
L 390.526654 187.847555 
L 394.027831 194.109887 
L 397.529007 199.563603 
L 401.030184 204.261075 
L 404.53136 208.263589 
L 408.032537 211.637785 
L 411.533713 214.452533 
L 415.03489 216.776318 
L 418.536066 218.675162 
L 422.037243 220.211065 
L 425.538419 221.440935 
L 429.039596 222.415949 
L 432.540772 223.181284 
L 437.792537 224.020305 
L 443.044301 224.582943 
L 450.046654 225.043294 
L 458.799596 225.338055 
L 469.303125 225.484827 
L 469.303125 225.484827 
" style="fill:none;stroke:#d62728;stroke-dasharray:3.7,1.6;stroke-dashoffset:0;"/>
   </g>
   <g id="line2d_18">
    <path clip-path="url(#p7f50616e7b)" d="M 22.903125 225.559219 
L 246.978419 225.483494 
L 248.729007 224.87832 
L 250.479596 223.671276 
L 252.230184 221.868955 
L 253.980772 219.481202 
L 255.73136 216.521056 
L 257.481949 213.004685 
L 259.232537 208.951295 
L 260.983125 204.383023 
L 262.733713 199.32482 
L 264.484301 193.804313 
L 266.23489 187.851651 
L 269.736066 174.782095 
L 273.237243 160.401287 
L 276.738419 145.022971 
L 281.990184 120.823243 
L 288.992537 88.296964 
L 292.493713 72.721002 
L 295.99489 58.060432 
L 299.496066 44.635102 
L 301.246654 38.478415 
L 302.997243 32.73791 
L 304.747831 27.44494 
L 306.498419 22.628413 
L 308.249007 18.314636 
L 309.999596 14.527169 
L 311.750184 11.286698 
L 313.500772 8.610921 
L 315.25136 6.514452 
L 317.001949 5.008741 
L 318.752537 4.102013 
L 320.503125 3.799219 
L 322.253713 4.102013 
L 324.004301 5.008741 
L 325.75489 6.514452 
L 327.505478 8.610921 
L 329.256066 11.286698 
L 331.006654 14.527169 
L 332.757243 18.314636 
L 334.507831 22.628413 
L 336.258419 27.44494 
L 338.009007 32.73791 
L 339.759596 38.478415 
L 343.260772 51.174346 
L 346.761949 65.25575 
L 350.263125 80.415414 
L 355.51489 104.448503 
L 364.267831 145.022971 
L 367.769007 160.401287 
L 371.270184 174.782095 
L 374.77136 187.851651 
L 376.521949 193.804313 
L 378.272537 199.32482 
L 380.023125 204.383023 
L 381.773713 208.951295 
L 383.524301 213.004685 
L 385.27489 216.521056 
L 387.025478 219.481202 
L 388.776066 221.868955 
L 390.526654 223.671276 
L 392.277243 224.87832 
L 394.027831 225.483494 
L 397.529007 225.559219 
L 469.303125 225.559219 
L 469.303125 225.559219 
" style="fill:none;stroke:#9467bd;stroke-dasharray:6.4,1.6,1,1.6;stroke-dashoffset:0;"/>
   </g>
   <g id="patch_3">
    <path d="M 22.903125 225.559219 
L 22.903125 3.799219 
" style="fill:none;stroke:#000000;stroke-linecap:square;stroke-linejoin:miter;stroke-width:0.8;"/>
   </g>
   <g id="patch_4">
    <path d="M 469.303125 225.559219 
L 469.303125 3.799219 
" style="fill:none;stroke:#000000;stroke-linecap:square;stroke-linejoin:miter;stroke-width:0.8;"/>
   </g>
   <g id="patch_5">
    <path d="M 22.903125 225.559219 
L 469.303125 225.559219 
" style="fill:none;stroke:#000000;stroke-linecap:square;stroke-linejoin:miter;stroke-width:0.8;"/>
   </g>
   <g id="patch_6">
    <path d="M 22.903125 3.799219 
L 469.303125 3.799219 
" style="fill:none;stroke:#000000;stroke-linecap:square;stroke-linejoin:miter;stroke-width:0.8;"/>
   </g>
   <g id="legend_1">
    <g id="patch_7">
     <path d="M 423.940625 85.189844 
L 462.303125 85.189844 
Q 464.303125 85.189844 464.303125 83.189844 
L 464.303125 10.799219 
Q 464.303125 8.799219 462.303125 8.799219 
L 423.940625 8.799219 
Q 421.940625 8.799219 421.940625 10.799219 
L 421.940625 83.189844 
Q 421.940625 85.189844 423.940625 85.189844 
z
" style="fill:#ffffff;opacity:0.8;stroke:#cccccc;stroke-linejoin:miter;"/>
    </g>
    <g id="line2d_19">
     <path d="M 425.940625 16.897656 
L 445.940625 16.897656 
" style="fill:none;stroke:#1f77b4;stroke-dasharray:3.7,1.6;stroke-dashoffset:0;"/>
    </g>
    <g id="line2d_20"/>
    <g id="text_14">
     <!-- 0 -->
     <g transform="translate(453.940625 20.397656)scale(0.1 -0.1)">
      <use xlink:href="#DejaVuSans-48"/>
     </g>
    </g>
    <g id="line2d_21">
     <path d="M 425.940625 31.575781 
L 445.940625 31.575781 
" style="fill:none;stroke:#ff7f0e;stroke-dasharray:6.4,1.6,1,1.6;stroke-dashoffset:0;"/>
    </g>
    <g id="line2d_22"/>
    <g id="text_15">
     <!-- 1 -->
     <g transform="translate(453.940625 35.075781)scale(0.1 -0.1)">
      <use xlink:href="#DejaVuSans-49"/>
     </g>
    </g>
    <g id="line2d_23">
     <path d="M 425.940625 46.253906 
L 445.940625 46.253906 
" style="fill:none;stroke:#2ca02c;stroke-dasharray:1,1.65;stroke-dashoffset:0;"/>
    </g>
    <g id="line2d_24"/>
    <g id="text_16">
     <!-- 2 -->
     <g transform="translate(453.940625 49.753906)scale(0.1 -0.1)">
      <use xlink:href="#DejaVuSans-50"/>
     </g>
    </g>
    <g id="line2d_25">
     <path d="M 425.940625 60.932031 
L 445.940625 60.932031 
" style="fill:none;stroke:#d62728;stroke-dasharray:3.7,1.6;stroke-dashoffset:0;"/>
    </g>
    <g id="line2d_26"/>
    <g id="text_17">
     <!-- 3 -->
     <defs>
      <path d="M 40.578125 39.3125 
Q 47.65625 37.796875 51.625 33 
Q 55.609375 28.21875 55.609375 21.1875 
Q 55.609375 10.40625 48.1875 4.484375 
Q 40.765625 -1.421875 27.09375 -1.421875 
Q 22.515625 -1.421875 17.65625 -0.515625 
Q 12.796875 0.390625 7.625 2.203125 
L 7.625 11.71875 
Q 11.71875 9.328125 16.59375 8.109375 
Q 21.484375 6.890625 26.8125 6.890625 
Q 36.078125 6.890625 40.9375 10.546875 
Q 45.796875 14.203125 45.796875 21.1875 
Q 45.796875 27.640625 41.28125 31.265625 
Q 36.765625 34.90625 28.71875 34.90625 
L 20.21875 34.90625 
L 20.21875 43.015625 
L 29.109375 43.015625 
Q 36.375 43.015625 40.234375 45.921875 
Q 44.09375 48.828125 44.09375 54.296875 
Q 44.09375 59.90625 40.109375 62.90625 
Q 36.140625 65.921875 28.71875 65.921875 
Q 24.65625 65.921875 20.015625 65.03125 
Q 15.375 64.15625 9.8125 62.3125 
L 9.8125 71.09375 
Q 15.4375 72.65625 20.34375 73.4375 
Q 25.25 74.21875 29.59375 74.21875 
Q 40.828125 74.21875 47.359375 69.109375 
Q 53.90625 64.015625 53.90625 55.328125 
Q 53.90625 49.265625 50.4375 45.09375 
Q 46.96875 40.921875 40.578125 39.3125 
z
" id="DejaVuSans-51"/>
     </defs>
     <g transform="translate(453.940625 64.432031)scale(0.1 -0.1)">
      <use xlink:href="#DejaVuSans-51"/>
     </g>
    </g>
    <g id="line2d_27">
     <path d="M 425.940625 75.610156 
L 445.940625 75.610156 
" style="fill:none;stroke:#9467bd;stroke-dasharray:6.4,1.6,1,1.6;stroke-dashoffset:0;"/>
    </g>
    <g id="line2d_28"/>
    <g id="text_18">
     <!-- 4 -->
     <g transform="translate(453.940625 79.110156)scale(0.1 -0.1)">
      <use xlink:href="#DejaVuSans-52"/>
     </g>
    </g>
   </g>
  </g>
 </g>
 <defs>
  <clipPath id="p7f50616e7b">
   <rect height="221.76" width="446.4" x="22.903125" y="3.799219"/>
  </clipPath>
 </defs>
</svg>
