<?xml version="1.0" encoding="utf-8" standalone="no"?>
<!DOCTYPE svg PUBLIC "-//W3C//DTD SVG 1.1//EN"
  "http://www.w3.org/Graphics/SVG/1.1/DTD/svg11.dtd">
<!-- Created with matplotlib (https://matplotlib.org/) -->
<svg height="242.237344pt" version="1.1" viewBox="0 0 472.484375 242.237344" width="472.484375pt" xmlns="http://www.w3.org/2000/svg" xmlns:xlink="http://www.w3.org/1999/xlink">
 <defs>
  <style type="text/css">
*{stroke-linecap:butt;stroke-linejoin:round;white-space:pre;}
  </style>
 </defs>
 <g id="figure_1">
  <g id="patch_1">
   <path d="M 0 242.237344 
L 472.484375 242.237344 
L 472.484375 0 
L 0 0 
z
" style="fill:#ffffff;"/>
  </g>
  <g id="axes_1">
   <g id="patch_2">
    <path d="M 22.903125 225.559219 
L 469.303125 225.559219 
L 469.303125 3.799219 
L 22.903125 3.799219 
z
" style="fill:#ffffff;"/>
   </g>
   <g id="matplotlib.axis_1">
    <g id="xtick_1">
     <g id="line2d_1">
      <defs>
       <path d="M 0 0 
L 0 3.5 
" id="m412d6b6736" style="stroke:#000000;stroke-width:0.8;"/>
      </defs>
      <g>
       <use style="stroke:#000000;stroke-width:0.8;" x="22.903125" xlink:href="#m412d6b6736" y="225.559219"/>
      </g>
     </g>
     <g id="text_1">
      <!-- −6 -->
      <defs>
       <path d="M 10.59375 35.5 
L 73.1875 35.5 
L 73.1875 27.203125 
L 10.59375 27.203125 
z
" id="DejaVuSans-8722"/>
       <path d="M 33.015625 40.375 
Q 26.375 40.375 22.484375 35.828125 
Q 18.609375 31.296875 18.609375 23.390625 
Q 18.609375 15.53125 22.484375 10.953125 
Q 26.375 6.390625 33.015625 6.390625 
Q 39.65625 6.390625 43.53125 10.953125 
Q 47.40625 15.53125 47.40625 23.390625 
Q 47.40625 31.296875 43.53125 35.828125 
Q 39.65625 40.375 33.015625 40.375 
z
M 52.59375 71.296875 
L 52.59375 62.3125 
Q 48.875 64.0625 45.09375 64.984375 
Q 41.3125 65.921875 37.59375 65.921875 
Q 27.828125 65.921875 22.671875 59.328125 
Q 17.53125 52.734375 16.796875 39.40625 
Q 19.671875 43.65625 24.015625 45.921875 
Q 28.375 48.1875 33.59375 48.1875 
Q 44.578125 48.1875 50.953125 41.515625 
Q 57.328125 34.859375 57.328125 23.390625 
Q 57.328125 12.15625 50.6875 5.359375 
Q 44.046875 -1.421875 33.015625 -1.421875 
Q 20.359375 -1.421875 13.671875 8.265625 
Q 6.984375 17.96875 6.984375 36.375 
Q 6.984375 53.65625 15.1875 63.9375 
Q 23.390625 74.21875 37.203125 74.21875 
Q 40.921875 74.21875 44.703125 73.484375 
Q 48.484375 72.75 52.59375 71.296875 
z
" id="DejaVuSans-54"/>
      </defs>
      <g transform="translate(15.532031 240.157656)scale(0.1 -0.1)">
       <use xlink:href="#DejaVuSans-8722"/>
       <use x="83.789062" xlink:href="#DejaVuSans-54"/>
      </g>
     </g>
    </g>
    <g id="xtick_2">
     <g id="line2d_2">
      <g>
       <use style="stroke:#000000;stroke-width:0.8;" x="72.503125" xlink:href="#m412d6b6736" y="225.559219"/>
      </g>
     </g>
     <g id="text_2">
      <!-- −5 -->
      <defs>
       <path d="M 10.796875 72.90625 
L 49.515625 72.90625 
L 49.515625 64.59375 
L 19.828125 64.59375 
L 19.828125 46.734375 
Q 21.96875 47.46875 24.109375 47.828125 
Q 26.265625 48.1875 28.421875 48.1875 
Q 40.625 48.1875 47.75 41.5 
Q 54.890625 34.8125 54.890625 23.390625 
Q 54.890625 11.625 47.5625 5.09375 
Q 40.234375 -1.421875 26.90625 -1.421875 
Q 22.3125 -1.421875 17.546875 -0.640625 
Q 12.796875 0.140625 7.71875 1.703125 
L 7.71875 11.625 
Q 12.109375 9.234375 16.796875 8.0625 
Q 21.484375 6.890625 26.703125 6.890625 
Q 35.15625 6.890625 40.078125 11.328125 
Q 45.015625 15.765625 45.015625 23.390625 
Q 45.015625 31 40.078125 35.4375 
Q 35.15625 39.890625 26.703125 39.890625 
Q 22.75 39.890625 18.8125 39.015625 
Q 14.890625 38.140625 10.796875 36.28125 
z
" id="DejaVuSans-53"/>
      </defs>
      <g transform="translate(65.132031 240.157656)scale(0.1 -0.1)">
       <use xlink:href="#DejaVuSans-8722"/>
       <use x="83.789062" xlink:href="#DejaVuSans-53"/>
      </g>
     </g>
    </g>
    <g id="xtick_3">
     <g id="line2d_3">
      <g>
       <use style="stroke:#000000;stroke-width:0.8;" x="122.103125" xlink:href="#m412d6b6736" y="225.559219"/>
      </g>
     </g>
     <g id="text_3">
      <!-- −4 -->
      <defs>
       <path d="M 37.796875 64.3125 
L 12.890625 25.390625 
L 37.796875 25.390625 
z
M 35.203125 72.90625 
L 47.609375 72.90625 
L 47.609375 25.390625 
L 58.015625 25.390625 
L 58.015625 17.1875 
L 47.609375 17.1875 
L 47.609375 0 
L 37.796875 0 
L 37.796875 17.1875 
L 4.890625 17.1875 
L 4.890625 26.703125 
z
" id="DejaVuSans-52"/>
      </defs>
      <g transform="translate(114.732031 240.157656)scale(0.1 -0.1)">
       <use xlink:href="#DejaVuSans-8722"/>
       <use x="83.789062" xlink:href="#DejaVuSans-52"/>
      </g>
     </g>
    </g>
    <g id="xtick_4">
     <g id="line2d_4">
      <g>
       <use style="stroke:#000000;stroke-width:0.8;" x="171.703125" xlink:href="#m412d6b6736" y="225.559219"/>
      </g>
     </g>
     <g id="text_4">
      <!-- −3 -->
      <defs>
       <path d="M 40.578125 39.3125 
Q 47.65625 37.796875 51.625 33 
Q 55.609375 28.21875 55.609375 21.1875 
Q 55.609375 10.40625 48.1875 4.484375 
Q 40.765625 -1.421875 27.09375 -1.421875 
Q 22.515625 -1.421875 17.65625 -0.515625 
Q 12.796875 0.390625 7.625 2.203125 
L 7.625 11.71875 
Q 11.71875 9.328125 16.59375 8.109375 
Q 21.484375 6.890625 26.8125 6.890625 
Q 36.078125 6.890625 40.9375 10.546875 
Q 45.796875 14.203125 45.796875 21.1875 
Q 45.796875 27.640625 41.28125 31.265625 
Q 36.765625 34.90625 28.71875 34.90625 
L 20.21875 34.90625 
L 20.21875 43.015625 
L 29.109375 43.015625 
Q 36.375 43.015625 40.234375 45.921875 
Q 44.09375 48.828125 44.09375 54.296875 
Q 44.09375 59.90625 40.109375 62.90625 
Q 36.140625 65.921875 28.71875 65.921875 
Q 24.65625 65.921875 20.015625 65.03125 
Q 15.375 64.15625 9.8125 62.3125 
L 9.8125 71.09375 
Q 15.4375 72.65625 20.34375 73.4375 
Q 25.25 74.21875 29.59375 74.21875 
Q 40.828125 74.21875 47.359375 69.109375 
Q 53.90625 64.015625 53.90625 55.328125 
Q 53.90625 49.265625 50.4375 45.09375 
Q 46.96875 40.921875 40.578125 39.3125 
z
" id="DejaVuSans-51"/>
      </defs>
      <g transform="translate(164.332031 240.157656)scale(0.1 -0.1)">
       <use xlink:href="#DejaVuSans-8722"/>
       <use x="83.789062" xlink:href="#DejaVuSans-51"/>
      </g>
     </g>
    </g>
    <g id="xtick_5">
     <g id="line2d_5">
      <g>
       <use style="stroke:#000000;stroke-width:0.8;" x="221.303125" xlink:href="#m412d6b6736" y="225.559219"/>
      </g>
     </g>
     <g id="text_5">
      <!-- −2 -->
      <defs>
       <path d="M 19.1875 8.296875 
L 53.609375 8.296875 
L 53.609375 0 
L 7.328125 0 
L 7.328125 8.296875 
Q 12.9375 14.109375 22.625 23.890625 
Q 32.328125 33.6875 34.8125 36.53125 
Q 39.546875 41.84375 41.421875 45.53125 
Q 43.3125 49.21875 43.3125 52.78125 
Q 43.3125 58.59375 39.234375 62.25 
Q 35.15625 65.921875 28.609375 65.921875 
Q 23.96875 65.921875 18.8125 64.3125 
Q 13.671875 62.703125 7.8125 59.421875 
L 7.8125 69.390625 
Q 13.765625 71.78125 18.9375 73 
Q 24.125 74.21875 28.421875 74.21875 
Q 39.75 74.21875 46.484375 68.546875 
Q 53.21875 62.890625 53.21875 53.421875 
Q 53.21875 48.921875 51.53125 44.890625 
Q 49.859375 40.875 45.40625 35.40625 
Q 44.1875 33.984375 37.640625 27.21875 
Q 31.109375 20.453125 19.1875 8.296875 
z
" id="DejaVuSans-50"/>
      </defs>
      <g transform="translate(213.932031 240.157656)scale(0.1 -0.1)">
       <use xlink:href="#DejaVuSans-8722"/>
       <use x="83.789062" xlink:href="#DejaVuSans-50"/>
      </g>
     </g>
    </g>
    <g id="xtick_6">
     <g id="line2d_6">
      <g>
       <use style="stroke:#000000;stroke-width:0.8;" x="270.903125" xlink:href="#m412d6b6736" y="225.559219"/>
      </g>
     </g>
     <g id="text_6">
      <!-- −1 -->
      <defs>
       <path d="M 12.40625 8.296875 
L 28.515625 8.296875 
L 28.515625 63.921875 
L 10.984375 60.40625 
L 10.984375 69.390625 
L 28.421875 72.90625 
L 38.28125 72.90625 
L 38.28125 8.296875 
L 54.390625 8.296875 
L 54.390625 0 
L 12.40625 0 
z
" id="DejaVuSans-49"/>
      </defs>
      <g transform="translate(263.532031 240.157656)scale(0.1 -0.1)">
       <use xlink:href="#DejaVuSans-8722"/>
       <use x="83.789062" xlink:href="#DejaVuSans-49"/>
      </g>
     </g>
    </g>
    <g id="xtick_7">
     <g id="line2d_7">
      <g>
       <use style="stroke:#000000;stroke-width:0.8;" x="320.503125" xlink:href="#m412d6b6736" y="225.559219"/>
      </g>
     </g>
     <g id="text_7">
      <!-- 0 -->
      <defs>
       <path d="M 31.78125 66.40625 
Q 24.171875 66.40625 20.328125 58.90625 
Q 16.5 51.421875 16.5 36.375 
Q 16.5 21.390625 20.328125 13.890625 
Q 24.171875 6.390625 31.78125 6.390625 
Q 39.453125 6.390625 43.28125 13.890625 
Q 47.125 21.390625 47.125 36.375 
Q 47.125 51.421875 43.28125 58.90625 
Q 39.453125 66.40625 31.78125 66.40625 
z
M 31.78125 74.21875 
Q 44.046875 74.21875 50.515625 64.515625 
Q 56.984375 54.828125 56.984375 36.375 
Q 56.984375 17.96875 50.515625 8.265625 
Q 44.046875 -1.421875 31.78125 -1.421875 
Q 19.53125 -1.421875 13.0625 8.265625 
Q 6.59375 17.96875 6.59375 36.375 
Q 6.59375 54.828125 13.0625 64.515625 
Q 19.53125 74.21875 31.78125 74.21875 
z
" id="DejaVuSans-48"/>
      </defs>
      <g transform="translate(317.321875 240.157656)scale(0.1 -0.1)">
       <use xlink:href="#DejaVuSans-48"/>
      </g>
     </g>
    </g>
    <g id="xtick_8">
     <g id="line2d_8">
      <g>
       <use style="stroke:#000000;stroke-width:0.8;" x="370.103125" xlink:href="#m412d6b6736" y="225.559219"/>
      </g>
     </g>
     <g id="text_8">
      <!-- 1 -->
      <g transform="translate(366.921875 240.157656)scale(0.1 -0.1)">
       <use xlink:href="#DejaVuSans-49"/>
      </g>
     </g>
    </g>
    <g id="xtick_9">
     <g id="line2d_9">
      <g>
       <use style="stroke:#000000;stroke-width:0.8;" x="419.703125" xlink:href="#m412d6b6736" y="225.559219"/>
      </g>
     </g>
     <g id="text_9">
      <!-- 2 -->
      <g transform="translate(416.521875 240.157656)scale(0.1 -0.1)">
       <use xlink:href="#DejaVuSans-50"/>
      </g>
     </g>
    </g>
    <g id="xtick_10">
     <g id="line2d_10">
      <g>
       <use style="stroke:#000000;stroke-width:0.8;" x="469.303125" xlink:href="#m412d6b6736" y="225.559219"/>
      </g>
     </g>
     <g id="text_10">
      <!-- 3 -->
      <g transform="translate(466.121875 240.157656)scale(0.1 -0.1)">
       <use xlink:href="#DejaVuSans-51"/>
      </g>
     </g>
    </g>
   </g>
   <g id="matplotlib.axis_2">
    <g id="ytick_1">
     <g id="line2d_11">
      <defs>
       <path d="M 0 0 
L -3.5 0 
" id="me2f8f3a91f" style="stroke:#000000;stroke-width:0.8;"/>
      </defs>
      <g>
       <use style="stroke:#000000;stroke-width:0.8;" x="22.903125" xlink:href="#me2f8f3a91f" y="225.559219"/>
      </g>
     </g>
     <g id="text_11">
      <!-- 0.0 -->
      <defs>
       <path d="M 10.6875 12.40625 
L 21 12.40625 
L 21 0 
L 10.6875 0 
z
" id="DejaVuSans-46"/>
      </defs>
      <g transform="translate(0 229.358438)scale(0.1 -0.1)">
       <use xlink:href="#DejaVuSans-48"/>
       <use x="63.623047" xlink:href="#DejaVuSans-46"/>
       <use x="95.410156" xlink:href="#DejaVuSans-48"/>
      </g>
     </g>
    </g>
    <g id="ytick_2">
     <g id="line2d_12">
      <g>
       <use style="stroke:#000000;stroke-width:0.8;" x="22.903125" xlink:href="#me2f8f3a91f" y="181.207219"/>
      </g>
     </g>
     <g id="text_12">
      <!-- 0.1 -->
      <g transform="translate(0 185.006438)scale(0.1 -0.1)">
       <use xlink:href="#DejaVuSans-48"/>
       <use x="63.623047" xlink:href="#DejaVuSans-46"/>
       <use x="95.410156" xlink:href="#DejaVuSans-49"/>
      </g>
     </g>
    </g>
    <g id="ytick_3">
     <g id="line2d_13">
      <g>
       <use style="stroke:#000000;stroke-width:0.8;" x="22.903125" xlink:href="#me2f8f3a91f" y="136.855219"/>
      </g>
     </g>
     <g id="text_13">
      <!-- 0.2 -->
      <g transform="translate(0 140.654438)scale(0.1 -0.1)">
       <use xlink:href="#DejaVuSans-48"/>
       <use x="63.623047" xlink:href="#DejaVuSans-46"/>
       <use x="95.410156" xlink:href="#DejaVuSans-50"/>
      </g>
     </g>
    </g>
    <g id="ytick_4">
     <g id="line2d_14">
      <g>
       <use style="stroke:#000000;stroke-width:0.8;" x="22.903125" xlink:href="#me2f8f3a91f" y="92.503219"/>
      </g>
     </g>
     <g id="text_14">
      <!-- 0.3 -->
      <g transform="translate(0 96.302437)scale(0.1 -0.1)">
       <use xlink:href="#DejaVuSans-48"/>
       <use x="63.623047" xlink:href="#DejaVuSans-46"/>
       <use x="95.410156" xlink:href="#DejaVuSans-51"/>
      </g>
     </g>
    </g>
    <g id="ytick_5">
     <g id="line2d_15">
      <g>
       <use style="stroke:#000000;stroke-width:0.8;" x="22.903125" xlink:href="#me2f8f3a91f" y="48.151219"/>
      </g>
     </g>
     <g id="text_15">
      <!-- 0.4 -->
      <g transform="translate(0 51.950438)scale(0.1 -0.1)">
       <use xlink:href="#DejaVuSans-48"/>
       <use x="63.623047" xlink:href="#DejaVuSans-46"/>
       <use x="95.410156" xlink:href="#DejaVuSans-52"/>
      </g>
     </g>
    </g>
    <g id="ytick_6">
     <g id="line2d_16">
      <g>
       <use style="stroke:#000000;stroke-width:0.8;" x="22.903125" xlink:href="#me2f8f3a91f" y="3.799219"/>
      </g>
     </g>
     <g id="text_16">
      <!-- 0.5 -->
      <g transform="translate(0 7.598438)scale(0.1 -0.1)">
       <use xlink:href="#DejaVuSans-48"/>
       <use x="63.623047" xlink:href="#DejaVuSans-46"/>
       <use x="95.410156" xlink:href="#DejaVuSans-53"/>
      </g>
     </g>
    </g>
   </g>
   <g id="line2d_17">
    <path clip-path="url(#p6b39788d78)" d="M 22.903125 225.523427 
L 78.921949 225.348232 
L 106.93136 225.046959 
L 126.187831 224.616594 
L 140.192537 224.090449 
L 152.446654 223.394065 
L 161.199596 222.702501 
L 169.952537 221.790098 
L 176.95489 220.854524 
L 183.957243 219.686853 
L 189.209007 218.624725 
L 194.460772 217.370715 
L 199.712537 215.890302 
L 204.964301 214.142849 
L 210.216066 212.080579 
L 213.717243 210.503521 
L 217.218419 208.742899 
L 220.719596 206.777721 
L 224.220772 204.584747 
L 227.721949 202.138303 
L 231.223125 199.410108 
L 234.724301 196.369129 
L 238.225478 192.98147 
L 241.726654 189.210341 
L 245.227831 185.01612 
L 248.729007 180.356589 
L 252.230184 175.187384 
L 255.73136 169.462778 
L 259.232537 163.136896 
L 262.733713 156.165534 
L 266.23489 148.508746 
L 269.736066 140.134426 
L 273.237243 131.023107 
L 276.738419 121.174166 
L 280.239596 110.613547 
L 283.740772 99.40293 
L 288.992537 81.618741 
L 299.496066 45.205126 
L 302.997243 33.999675 
L 306.498419 23.955079 
L 308.249007 19.510923 
L 309.999596 15.526688 
L 311.750184 12.054668 
L 313.500772 9.142455 
L 315.25136 6.831446 
L 317.001949 5.155464 
L 318.752537 4.139581 
L 320.503125 3.799219 
L 322.253713 4.139581 
L 324.004301 5.155464 
L 325.75489 6.831446 
L 327.505478 9.142455 
L 329.256066 12.054668 
L 331.006654 15.526688 
L 332.757243 19.510923 
L 334.507831 23.955079 
L 336.258419 28.803703 
L 339.759596 39.485616 
L 343.260772 51.103856 
L 359.016066 105.083962 
L 362.517243 115.979914 
L 366.018419 126.189942 
L 369.519596 135.671455 
L 373.020772 144.412855 
L 376.521949 152.425058 
L 380.023125 159.734533 
L 383.524301 166.377824 
L 387.025478 172.397388 
L 390.526654 177.838533 
L 394.027831 182.747248 
L 397.529007 187.168699 
L 401.030184 191.146251 
L 404.53136 194.720866 
L 408.032537 197.930767 
L 411.533713 200.811298 
L 415.03489 203.394913 
L 418.536066 205.711254 
L 422.037243 207.787277 
L 425.538419 209.647417 
L 429.039596 211.313767 
L 434.29136 213.492992 
L 439.543125 215.339691 
L 444.79489 216.904272 
L 450.046654 218.229631 
L 455.298419 219.352223 
L 462.300772 220.586396 
L 469.303125 221.575271 
L 469.303125 221.575271 
" style="fill:none;stroke:#1f77b4;stroke-dasharray:3.7,1.6;stroke-dashoffset:0;"/>
   </g>
   <g id="line2d_18">
    <path clip-path="url(#p6b39788d78)" d="M 22.903125 225.544113 
L 87.67489 225.397908 
L 113.933713 225.138092 
L 131.439596 224.761179 
L 145.444301 224.229182 
L 155.947831 223.609363 
L 164.700772 222.878714 
L 171.703125 222.103189 
L 178.705478 221.105812 
L 183.957243 220.175589 
L 189.209007 219.054284 
L 194.460772 217.704134 
L 199.712537 216.080599 
L 204.964301 214.131468 
L 208.465478 212.621538 
L 211.966654 210.919835 
L 215.467831 209.004196 
L 218.969007 206.850529 
L 222.470184 204.432821 
L 225.97136 201.72323 
L 229.472537 198.692257 
L 232.973713 195.309044 
L 236.47489 191.541809 
L 239.976066 187.358467 
L 243.477243 182.727472 
L 246.978419 177.618905 
L 250.479596 172.005862 
L 253.980772 165.866151 
L 257.481949 159.184335 
L 260.983125 151.954094 
L 264.484301 144.180888 
L 267.985478 135.884837 
L 271.486654 127.103688 
L 276.738419 113.156056 
L 283.740772 93.602943 
L 290.743125 73.94542 
L 294.244301 64.5114 
L 297.745478 55.609159 
L 301.246654 47.452252 
L 302.997243 43.720033 
L 304.747831 40.253192 
L 306.498419 37.076398 
L 308.249007 34.212899 
L 309.999596 31.684175 
L 311.750184 29.509614 
L 313.500772 27.706196 
L 315.25136 26.288225 
L 317.001949 25.267085 
L 318.752537 24.651051 
L 320.503125 24.445145 
L 322.253713 24.651051 
L 324.004301 25.267085 
L 325.75489 26.288225 
L 327.505478 27.706196 
L 329.256066 29.509614 
L 331.006654 31.684175 
L 332.757243 34.212899 
L 334.507831 37.076398 
L 336.258419 40.253192 
L 338.009007 43.720033 
L 341.510184 51.424114 
L 345.01136 59.980552 
L 348.512537 69.175062 
L 353.764301 83.705855 
L 364.267831 113.156056 
L 369.519596 127.103688 
L 373.020772 135.884837 
L 376.521949 144.180888 
L 380.023125 151.954094 
L 383.524301 159.184335 
L 387.025478 165.866151 
L 390.526654 172.005862 
L 394.027831 177.618905 
L 397.529007 182.727472 
L 401.030184 187.358467 
L 404.53136 191.541809 
L 408.032537 195.309044 
L 411.533713 198.692257 
L 415.03489 201.72323 
L 418.536066 204.432821 
L 422.037243 206.850529 
L 425.538419 209.004196 
L 429.039596 210.919835 
L 432.540772 212.621538 
L 436.041949 214.131468 
L 441.293713 216.080599 
L 446.545478 217.704134 
L 451.797243 219.054284 
L 457.049007 220.175589 
L 462.300772 221.105812 
L 469.303125 222.103189 
L 469.303125 222.103189 
" style="fill:none;stroke:#ff7f0e;stroke-dasharray:6.4,1.6,1,1.6;stroke-dashoffset:0;"/>
   </g>
   <g id="line2d_19">
    <path clip-path="url(#p6b39788d78)" d="M 22.903125 225.559216 
L 129.689007 225.451057 
L 145.444301 225.210179 
L 155.947831 224.838558 
L 164.700772 224.28503 
L 171.703125 223.593605 
L 176.95489 222.873775 
L 182.206654 221.931238 
L 187.458419 220.71253 
L 190.959596 219.716788 
L 194.460772 218.551477 
L 197.961949 217.195516 
L 201.463125 215.626797 
L 204.964301 213.822471 
L 208.465478 211.759303 
L 211.966654 209.414104 
L 215.467831 206.764238 
L 218.969007 203.788205 
L 222.470184 200.466283 
L 225.97136 196.781236 
L 229.472537 192.71906 
L 232.973713 188.26975 
L 236.47489 183.428082 
L 239.976066 178.194364 
L 243.477243 172.575153 
L 246.978419 166.583887 
L 250.479596 160.24142 
L 255.73136 150.134127 
L 260.983125 139.43382 
L 267.985478 124.546066 
L 280.239596 98.287618 
L 285.49136 87.639824 
L 288.992537 80.954339 
L 292.493713 74.698352 
L 295.99489 68.95398 
L 299.496066 63.798891 
L 302.997243 59.304573 
L 304.747831 57.325443 
L 306.498419 55.53468 
L 308.249007 53.938772 
L 309.999596 52.54354 
L 311.750184 51.354103 
L 313.500772 50.374848 
L 315.25136 49.609401 
L 317.001949 49.060606 
L 318.752537 48.730508 
L 320.503125 48.620339 
L 322.253713 48.730508 
L 324.004301 49.060606 
L 325.75489 49.609401 
L 327.505478 50.374848 
L 329.256066 51.354103 
L 331.006654 52.54354 
L 332.757243 53.938772 
L 334.507831 55.53468 
L 336.258419 57.325443 
L 338.009007 59.304573 
L 341.510184 63.798891 
L 345.01136 68.95398 
L 348.512537 74.698352 
L 352.013713 80.954339 
L 355.51489 87.639824 
L 360.766654 98.287618 
L 367.769007 113.193835 
L 380.023125 139.43382 
L 385.27489 150.134127 
L 390.526654 160.24142 
L 394.027831 166.583887 
L 397.529007 172.575153 
L 401.030184 178.194364 
L 404.53136 183.428082 
L 408.032537 188.26975 
L 411.533713 192.71906 
L 415.03489 196.781236 
L 418.536066 200.466283 
L 422.037243 203.788205 
L 425.538419 206.764238 
L 429.039596 209.414104 
L 432.540772 211.759303 
L 436.041949 213.822471 
L 439.543125 215.626797 
L 443.044301 217.195516 
L 446.545478 218.551477 
L 450.046654 219.716788 
L 453.547831 220.71253 
L 458.799596 221.931238 
L 464.05136 222.873775 
L 469.303125 223.593605 
L 469.303125 223.593605 
" style="fill:none;stroke:#2ca02c;stroke-dasharray:1,1.65;stroke-dashoffset:0;"/>
   </g>
   <g id="line2d_20">
    <path clip-path="url(#p6b39788d78)" d="M 22.903125 225.559219 
L 183.957243 225.550185 
L 185.707831 225.437567 
L 187.458419 225.19635 
L 189.209007 224.826922 
L 190.959596 224.329875 
L 192.710184 223.706008 
L 194.460772 222.956324 
L 197.961949 221.084522 
L 201.463125 218.726492 
L 204.964301 215.89738 
L 208.465478 212.615361 
L 211.966654 208.901516 
L 215.467831 204.779701 
L 218.969007 200.276393 
L 222.470184 195.420521 
L 225.97136 190.243274 
L 231.223125 181.948091 
L 236.47489 173.12489 
L 243.477243 160.760391 
L 253.980772 141.576464 
L 262.733713 125.710632 
L 267.985478 116.52968 
L 273.237243 107.765574 
L 278.489007 99.544896 
L 281.990184 94.425358 
L 285.49136 89.633199 
L 288.992537 85.199199 
L 292.493713 81.151843 
L 295.99489 77.517127 
L 299.496066 74.3184 
L 302.997243 71.57621 
L 306.498419 69.308171 
L 309.999596 67.528851 
L 311.750184 66.826158 
L 313.500772 66.249681 
L 315.25136 65.800347 
L 317.001949 65.478878 
L 318.752537 65.285789 
L 320.503125 65.221392 
L 322.253713 65.285789 
L 324.004301 65.478878 
L 325.75489 65.800347 
L 327.505478 66.249681 
L 329.256066 66.826158 
L 331.006654 67.528851 
L 332.757243 68.356632 
L 336.258419 70.381938 
L 339.759596 72.889067 
L 343.260772 75.861914 
L 346.761949 79.281382 
L 350.263125 83.125506 
L 353.764301 87.369593 
L 357.265478 91.986381 
L 360.766654 96.946213 
L 364.267831 102.217231 
L 369.519596 110.632668 
L 374.77136 119.550124 
L 381.773713 131.997554 
L 404.53136 173.12489 
L 409.783125 181.948091 
L 415.03489 190.243274 
L 418.536066 195.420521 
L 422.037243 200.276393 
L 425.538419 204.779701 
L 429.039596 208.901516 
L 432.540772 212.615361 
L 436.041949 215.89738 
L 439.543125 218.726492 
L 443.044301 221.084522 
L 446.545478 222.956324 
L 448.296066 223.706008 
L 450.046654 224.329875 
L 451.797243 224.826922 
L 453.547831 225.19635 
L 455.298419 225.437567 
L 458.799596 225.559219 
L 469.303125 225.559219 
L 469.303125 225.559219 
" style="fill:none;stroke:#d62728;stroke-dasharray:3.7,1.6;stroke-dashoffset:0;"/>
   </g>
   <g id="patch_3">
    <path d="M 22.903125 225.559219 
L 22.903125 3.799219 
" style="fill:none;stroke:#000000;stroke-linecap:square;stroke-linejoin:miter;stroke-width:0.8;"/>
   </g>
   <g id="patch_4">
    <path d="M 469.303125 225.559219 
L 469.303125 3.799219 
" style="fill:none;stroke:#000000;stroke-linecap:square;stroke-linejoin:miter;stroke-width:0.8;"/>
   </g>
   <g id="patch_5">
    <path d="M 22.903125 225.559219 
L 469.303125 225.559219 
" style="fill:none;stroke:#000000;stroke-linecap:square;stroke-linejoin:miter;stroke-width:0.8;"/>
   </g>
   <g id="patch_6">
    <path d="M 22.903125 3.799219 
L 469.303125 3.799219 
" style="fill:none;stroke:#000000;stroke-linecap:square;stroke-linejoin:miter;stroke-width:0.8;"/>
   </g>
   <g id="legend_1">
    <g id="patch_7">
     <path d="M 423.940625 70.511719 
L 462.303125 70.511719 
Q 464.303125 70.511719 464.303125 68.511719 
L 464.303125 10.799219 
Q 464.303125 8.799219 462.303125 8.799219 
L 423.940625 8.799219 
Q 421.940625 8.799219 421.940625 10.799219 
L 421.940625 68.511719 
Q 421.940625 70.511719 423.940625 70.511719 
z
" style="fill:#ffffff;opacity:0.8;stroke:#cccccc;stroke-linejoin:miter;"/>
    </g>
    <g id="line2d_21">
     <path d="M 425.940625 16.897656 
L 445.940625 16.897656 
" style="fill:none;stroke:#1f77b4;stroke-dasharray:3.7,1.6;stroke-dashoffset:0;"/>
    </g>
    <g id="line2d_22"/>
    <g id="text_17">
     <!-- 0 -->
     <g transform="translate(453.940625 20.397656)scale(0.1 -0.1)">
      <use xlink:href="#DejaVuSans-48"/>
     </g>
    </g>
    <g id="line2d_23">
     <path d="M 425.940625 31.575781 
L 445.940625 31.575781 
" style="fill:none;stroke:#ff7f0e;stroke-dasharray:6.4,1.6,1,1.6;stroke-dashoffset:0;"/>
    </g>
    <g id="line2d_24"/>
    <g id="text_18">
     <!-- 1 -->
     <g transform="translate(453.940625 35.075781)scale(0.1 -0.1)">
      <use xlink:href="#DejaVuSans-49"/>
     </g>
    </g>
    <g id="line2d_25">
     <path d="M 425.940625 46.253906 
L 445.940625 46.253906 
" style="fill:none;stroke:#2ca02c;stroke-dasharray:1,1.65;stroke-dashoffset:0;"/>
    </g>
    <g id="line2d_26"/>
    <g id="text_19">
     <!-- 2 -->
     <g transform="translate(453.940625 49.753906)scale(0.1 -0.1)">
      <use xlink:href="#DejaVuSans-50"/>
     </g>
    </g>
    <g id="line2d_27">
     <path d="M 425.940625 60.932031 
L 445.940625 60.932031 
" style="fill:none;stroke:#d62728;stroke-dasharray:3.7,1.6;stroke-dashoffset:0;"/>
    </g>
    <g id="line2d_28"/>
    <g id="text_20">
     <!-- 3 -->
     <g transform="translate(453.940625 64.432031)scale(0.1 -0.1)">
      <use xlink:href="#DejaVuSans-51"/>
     </g>
    </g>
   </g>
  </g>
 </g>
 <defs>
  <clipPath id="p6b39788d78">
   <rect height="221.76" width="446.4" x="22.903125" y="3.799219"/>
  </clipPath>
 </defs>
</svg>
