<?xml version="1.0" encoding="utf-8" standalone="no"?>
<!DOCTYPE svg PUBLIC "-//W3C//DTD SVG 1.1//EN"
  "http://www.w3.org/Graphics/SVG/1.1/DTD/svg11.dtd">
<!-- Created with matplotlib (https://matplotlib.org/) -->
<svg height="280.558125pt" version="1.1" viewBox="0 0 542.684375 280.558125" width="542.684375pt" xmlns="http://www.w3.org/2000/svg" xmlns:xlink="http://www.w3.org/1999/xlink">
 <defs>
  <style type="text/css">
*{stroke-linecap:butt;stroke-linejoin:round;white-space:pre;}
  </style>
 </defs>
 <g id="figure_1">
  <g id="patch_1">
   <path d="M 0 280.558125 
L 542.684375 280.558125 
L 542.684375 0 
L 0 0 
z
" style="fill:#ffffff;"/>
  </g>
  <g id="axes_1">
   <g id="patch_2">
    <path d="M 30.103125 256.68 
L 532.303125 256.68 
L 532.303125 7.2 
L 30.103125 7.2 
z
" style="fill:#ffffff;"/>
   </g>
   <g id="matplotlib.axis_1">
    <g id="xtick_1">
     <g id="line2d_1">
      <defs>
       <path d="M 0 0 
L 0 3.5 
" id="md503c75535" style="stroke:#000000;stroke-width:0.8;"/>
      </defs>
      <g>
       <use style="stroke:#000000;stroke-width:0.8;" x="30.103125" xlink:href="#md503c75535" y="256.68"/>
      </g>
     </g>
     <g id="text_1">
      <!-- −4 -->
      <defs>
       <path d="M 10.59375 35.5 
L 73.1875 35.5 
L 73.1875 27.203125 
L 10.59375 27.203125 
z
" id="DejaVuSans-8722"/>
       <path d="M 37.796875 64.3125 
L 12.890625 25.390625 
L 37.796875 25.390625 
z
M 35.203125 72.90625 
L 47.609375 72.90625 
L 47.609375 25.390625 
L 58.015625 25.390625 
L 58.015625 17.1875 
L 47.609375 17.1875 
L 47.609375 0 
L 37.796875 0 
L 37.796875 17.1875 
L 4.890625 17.1875 
L 4.890625 26.703125 
z
" id="DejaVuSans-52"/>
      </defs>
      <g transform="translate(22.732031 271.278437)scale(0.1 -0.1)">
       <use xlink:href="#DejaVuSans-8722"/>
       <use x="83.789062" xlink:href="#DejaVuSans-52"/>
      </g>
     </g>
    </g>
    <g id="xtick_2">
     <g id="line2d_2">
      <g>
       <use style="stroke:#000000;stroke-width:0.8;" x="113.803125" xlink:href="#md503c75535" y="256.68"/>
      </g>
     </g>
     <g id="text_2">
      <!-- −3 -->
      <defs>
       <path d="M 40.578125 39.3125 
Q 47.65625 37.796875 51.625 33 
Q 55.609375 28.21875 55.609375 21.1875 
Q 55.609375 10.40625 48.1875 4.484375 
Q 40.765625 -1.421875 27.09375 -1.421875 
Q 22.515625 -1.421875 17.65625 -0.515625 
Q 12.796875 0.390625 7.625 2.203125 
L 7.625 11.71875 
Q 11.71875 9.328125 16.59375 8.109375 
Q 21.484375 6.890625 26.8125 6.890625 
Q 36.078125 6.890625 40.9375 10.546875 
Q 45.796875 14.203125 45.796875 21.1875 
Q 45.796875 27.640625 41.28125 31.265625 
Q 36.765625 34.90625 28.71875 34.90625 
L 20.21875 34.90625 
L 20.21875 43.015625 
L 29.109375 43.015625 
Q 36.375 43.015625 40.234375 45.921875 
Q 44.09375 48.828125 44.09375 54.296875 
Q 44.09375 59.90625 40.109375 62.90625 
Q 36.140625 65.921875 28.71875 65.921875 
Q 24.65625 65.921875 20.015625 65.03125 
Q 15.375 64.15625 9.8125 62.3125 
L 9.8125 71.09375 
Q 15.4375 72.65625 20.34375 73.4375 
Q 25.25 74.21875 29.59375 74.21875 
Q 40.828125 74.21875 47.359375 69.109375 
Q 53.90625 64.015625 53.90625 55.328125 
Q 53.90625 49.265625 50.4375 45.09375 
Q 46.96875 40.921875 40.578125 39.3125 
z
" id="DejaVuSans-51"/>
      </defs>
      <g transform="translate(106.432031 271.278437)scale(0.1 -0.1)">
       <use xlink:href="#DejaVuSans-8722"/>
       <use x="83.789062" xlink:href="#DejaVuSans-51"/>
      </g>
     </g>
    </g>
    <g id="xtick_3">
     <g id="line2d_3">
      <g>
       <use style="stroke:#000000;stroke-width:0.8;" x="197.503125" xlink:href="#md503c75535" y="256.68"/>
      </g>
     </g>
     <g id="text_3">
      <!-- −2 -->
      <defs>
       <path d="M 19.1875 8.296875 
L 53.609375 8.296875 
L 53.609375 0 
L 7.328125 0 
L 7.328125 8.296875 
Q 12.9375 14.109375 22.625 23.890625 
Q 32.328125 33.6875 34.8125 36.53125 
Q 39.546875 41.84375 41.421875 45.53125 
Q 43.3125 49.21875 43.3125 52.78125 
Q 43.3125 58.59375 39.234375 62.25 
Q 35.15625 65.921875 28.609375 65.921875 
Q 23.96875 65.921875 18.8125 64.3125 
Q 13.671875 62.703125 7.8125 59.421875 
L 7.8125 69.390625 
Q 13.765625 71.78125 18.9375 73 
Q 24.125 74.21875 28.421875 74.21875 
Q 39.75 74.21875 46.484375 68.546875 
Q 53.21875 62.890625 53.21875 53.421875 
Q 53.21875 48.921875 51.53125 44.890625 
Q 49.859375 40.875 45.40625 35.40625 
Q 44.1875 33.984375 37.640625 27.21875 
Q 31.109375 20.453125 19.1875 8.296875 
z
" id="DejaVuSans-50"/>
      </defs>
      <g transform="translate(190.132031 271.278437)scale(0.1 -0.1)">
       <use xlink:href="#DejaVuSans-8722"/>
       <use x="83.789062" xlink:href="#DejaVuSans-50"/>
      </g>
     </g>
    </g>
    <g id="xtick_4">
     <g id="line2d_4">
      <g>
       <use style="stroke:#000000;stroke-width:0.8;" x="281.203125" xlink:href="#md503c75535" y="256.68"/>
      </g>
     </g>
     <g id="text_4">
      <!-- −1 -->
      <defs>
       <path d="M 12.40625 8.296875 
L 28.515625 8.296875 
L 28.515625 63.921875 
L 10.984375 60.40625 
L 10.984375 69.390625 
L 28.421875 72.90625 
L 38.28125 72.90625 
L 38.28125 8.296875 
L 54.390625 8.296875 
L 54.390625 0 
L 12.40625 0 
z
" id="DejaVuSans-49"/>
      </defs>
      <g transform="translate(273.832031 271.278437)scale(0.1 -0.1)">
       <use xlink:href="#DejaVuSans-8722"/>
       <use x="83.789062" xlink:href="#DejaVuSans-49"/>
      </g>
     </g>
    </g>
    <g id="xtick_5">
     <g id="line2d_5">
      <g>
       <use style="stroke:#000000;stroke-width:0.8;" x="364.903125" xlink:href="#md503c75535" y="256.68"/>
      </g>
     </g>
     <g id="text_5">
      <!-- 0 -->
      <defs>
       <path d="M 31.78125 66.40625 
Q 24.171875 66.40625 20.328125 58.90625 
Q 16.5 51.421875 16.5 36.375 
Q 16.5 21.390625 20.328125 13.890625 
Q 24.171875 6.390625 31.78125 6.390625 
Q 39.453125 6.390625 43.28125 13.890625 
Q 47.125 21.390625 47.125 36.375 
Q 47.125 51.421875 43.28125 58.90625 
Q 39.453125 66.40625 31.78125 66.40625 
z
M 31.78125 74.21875 
Q 44.046875 74.21875 50.515625 64.515625 
Q 56.984375 54.828125 56.984375 36.375 
Q 56.984375 17.96875 50.515625 8.265625 
Q 44.046875 -1.421875 31.78125 -1.421875 
Q 19.53125 -1.421875 13.0625 8.265625 
Q 6.59375 17.96875 6.59375 36.375 
Q 6.59375 54.828125 13.0625 64.515625 
Q 19.53125 74.21875 31.78125 74.21875 
z
" id="DejaVuSans-48"/>
      </defs>
      <g transform="translate(361.721875 271.278437)scale(0.1 -0.1)">
       <use xlink:href="#DejaVuSans-48"/>
      </g>
     </g>
    </g>
    <g id="xtick_6">
     <g id="line2d_6">
      <g>
       <use style="stroke:#000000;stroke-width:0.8;" x="448.603125" xlink:href="#md503c75535" y="256.68"/>
      </g>
     </g>
     <g id="text_6">
      <!-- 1 -->
      <g transform="translate(445.421875 271.278437)scale(0.1 -0.1)">
       <use xlink:href="#DejaVuSans-49"/>
      </g>
     </g>
    </g>
    <g id="xtick_7">
     <g id="line2d_7">
      <g>
       <use style="stroke:#000000;stroke-width:0.8;" x="532.303125" xlink:href="#md503c75535" y="256.68"/>
      </g>
     </g>
     <g id="text_7">
      <!-- 2 -->
      <g transform="translate(529.121875 271.278437)scale(0.1 -0.1)">
       <use xlink:href="#DejaVuSans-50"/>
      </g>
     </g>
    </g>
   </g>
   <g id="matplotlib.axis_2">
    <g id="ytick_1">
     <g id="line2d_8">
      <defs>
       <path d="M 0 0 
L -3.5 0 
" id="meb8fa3e4cd" style="stroke:#000000;stroke-width:0.8;"/>
      </defs>
      <g>
       <use style="stroke:#000000;stroke-width:0.8;" x="30.103125" xlink:href="#meb8fa3e4cd" y="256.68"/>
      </g>
     </g>
     <g id="text_8">
      <!-- 0.0 -->
      <defs>
       <path d="M 10.6875 12.40625 
L 21 12.40625 
L 21 0 
L 10.6875 0 
z
" id="DejaVuSans-46"/>
      </defs>
      <g transform="translate(7.2 260.479219)scale(0.1 -0.1)">
       <use xlink:href="#DejaVuSans-48"/>
       <use x="63.623047" xlink:href="#DejaVuSans-46"/>
       <use x="95.410156" xlink:href="#DejaVuSans-48"/>
      </g>
     </g>
    </g>
    <g id="ytick_2">
     <g id="line2d_9">
      <g>
       <use style="stroke:#000000;stroke-width:0.8;" x="30.103125" xlink:href="#meb8fa3e4cd" y="217.491773"/>
      </g>
     </g>
     <g id="text_9">
      <!-- 0.1 -->
      <g transform="translate(7.2 221.290992)scale(0.1 -0.1)">
       <use xlink:href="#DejaVuSans-48"/>
       <use x="63.623047" xlink:href="#DejaVuSans-46"/>
       <use x="95.410156" xlink:href="#DejaVuSans-49"/>
      </g>
     </g>
    </g>
    <g id="ytick_3">
     <g id="line2d_10">
      <g>
       <use style="stroke:#000000;stroke-width:0.8;" x="30.103125" xlink:href="#meb8fa3e4cd" y="178.303546"/>
      </g>
     </g>
     <g id="text_10">
      <!-- 0.2 -->
      <g transform="translate(7.2 182.102765)scale(0.1 -0.1)">
       <use xlink:href="#DejaVuSans-48"/>
       <use x="63.623047" xlink:href="#DejaVuSans-46"/>
       <use x="95.410156" xlink:href="#DejaVuSans-50"/>
      </g>
     </g>
    </g>
    <g id="ytick_4">
     <g id="line2d_11">
      <g>
       <use style="stroke:#000000;stroke-width:0.8;" x="30.103125" xlink:href="#meb8fa3e4cd" y="139.11532"/>
      </g>
     </g>
     <g id="text_11">
      <!-- 0.3 -->
      <g transform="translate(7.2 142.914538)scale(0.1 -0.1)">
       <use xlink:href="#DejaVuSans-48"/>
       <use x="63.623047" xlink:href="#DejaVuSans-46"/>
       <use x="95.410156" xlink:href="#DejaVuSans-51"/>
      </g>
     </g>
    </g>
    <g id="ytick_5">
     <g id="line2d_12">
      <g>
       <use style="stroke:#000000;stroke-width:0.8;" x="30.103125" xlink:href="#meb8fa3e4cd" y="99.927093"/>
      </g>
     </g>
     <g id="text_12">
      <!-- 0.4 -->
      <g transform="translate(7.2 103.726312)scale(0.1 -0.1)">
       <use xlink:href="#DejaVuSans-48"/>
       <use x="63.623047" xlink:href="#DejaVuSans-46"/>
       <use x="95.410156" xlink:href="#DejaVuSans-52"/>
      </g>
     </g>
    </g>
    <g id="ytick_6">
     <g id="line2d_13">
      <g>
       <use style="stroke:#000000;stroke-width:0.8;" x="30.103125" xlink:href="#meb8fa3e4cd" y="60.738866"/>
      </g>
     </g>
     <g id="text_13">
      <!-- 0.5 -->
      <defs>
       <path d="M 10.796875 72.90625 
L 49.515625 72.90625 
L 49.515625 64.59375 
L 19.828125 64.59375 
L 19.828125 46.734375 
Q 21.96875 47.46875 24.109375 47.828125 
Q 26.265625 48.1875 28.421875 48.1875 
Q 40.625 48.1875 47.75 41.5 
Q 54.890625 34.8125 54.890625 23.390625 
Q 54.890625 11.625 47.5625 5.09375 
Q 40.234375 -1.421875 26.90625 -1.421875 
Q 22.3125 -1.421875 17.546875 -0.640625 
Q 12.796875 0.140625 7.71875 1.703125 
L 7.71875 11.625 
Q 12.109375 9.234375 16.796875 8.0625 
Q 21.484375 6.890625 26.703125 6.890625 
Q 35.15625 6.890625 40.078125 11.328125 
Q 45.015625 15.765625 45.015625 23.390625 
Q 45.015625 31 40.078125 35.4375 
Q 35.15625 39.890625 26.703125 39.890625 
Q 22.75 39.890625 18.8125 39.015625 
Q 14.890625 38.140625 10.796875 36.28125 
z
" id="DejaVuSans-53"/>
      </defs>
      <g transform="translate(7.2 64.538085)scale(0.1 -0.1)">
       <use xlink:href="#DejaVuSans-48"/>
       <use x="63.623047" xlink:href="#DejaVuSans-46"/>
       <use x="95.410156" xlink:href="#DejaVuSans-53"/>
      </g>
     </g>
    </g>
    <g id="ytick_7">
     <g id="line2d_14">
      <g>
       <use style="stroke:#000000;stroke-width:0.8;" x="30.103125" xlink:href="#meb8fa3e4cd" y="21.550639"/>
      </g>
     </g>
     <g id="text_14">
      <!-- 0.6 -->
      <defs>
       <path d="M 33.015625 40.375 
Q 26.375 40.375 22.484375 35.828125 
Q 18.609375 31.296875 18.609375 23.390625 
Q 18.609375 15.53125 22.484375 10.953125 
Q 26.375 6.390625 33.015625 6.390625 
Q 39.65625 6.390625 43.53125 10.953125 
Q 47.40625 15.53125 47.40625 23.390625 
Q 47.40625 31.296875 43.53125 35.828125 
Q 39.65625 40.375 33.015625 40.375 
z
M 52.59375 71.296875 
L 52.59375 62.3125 
Q 48.875 64.0625 45.09375 64.984375 
Q 41.3125 65.921875 37.59375 65.921875 
Q 27.828125 65.921875 22.671875 59.328125 
Q 17.53125 52.734375 16.796875 39.40625 
Q 19.671875 43.65625 24.015625 45.921875 
Q 28.375 48.1875 33.59375 48.1875 
Q 44.578125 48.1875 50.953125 41.515625 
Q 57.328125 34.859375 57.328125 23.390625 
Q 57.328125 12.15625 50.6875 5.359375 
Q 44.046875 -1.421875 33.015625 -1.421875 
Q 20.359375 -1.421875 13.671875 8.265625 
Q 6.984375 17.96875 6.984375 36.375 
Q 6.984375 53.65625 15.1875 63.9375 
Q 23.390625 74.21875 37.203125 74.21875 
Q 40.921875 74.21875 44.703125 73.484375 
Q 48.484375 72.75 52.59375 71.296875 
z
" id="DejaVuSans-54"/>
      </defs>
      <g transform="translate(7.2 25.349858)scale(0.1 -0.1)">
       <use xlink:href="#DejaVuSans-48"/>
       <use x="63.623047" xlink:href="#DejaVuSans-46"/>
       <use x="95.410156" xlink:href="#DejaVuSans-54"/>
      </g>
     </g>
    </g>
   </g>
   <g id="line2d_15">
    <path clip-path="url(#pc4d849c153)" d="M 30.103125 255.816747 
L 65.552537 255.368298 
L 93.124301 254.807728 
L 114.787831 254.149673 
L 132.512537 253.390573 
L 146.298419 252.601728 
L 158.11489 251.736284 
L 169.93136 250.638667 
L 179.778419 249.493382 
L 187.656066 248.385831 
L 195.533713 247.068229 
L 203.41136 245.494177 
L 209.319596 244.111123 
L 215.227831 242.522217 
L 221.136066 240.692776 
L 227.044301 238.581942 
L 232.952537 236.141653 
L 236.89136 234.304292 
L 240.830184 232.276626 
L 244.769007 230.037606 
L 248.707831 227.563996 
L 252.646654 224.830239 
L 256.585478 221.808355 
L 260.524301 218.467892 
L 264.463125 214.775942 
L 268.401949 210.697263 
L 272.340772 206.194545 
L 276.279596 201.228861 
L 280.218419 195.760366 
L 284.157243 189.749312 
L 288.096066 183.157445 
L 292.03489 175.949878 
L 295.973713 168.097498 
L 299.912537 159.579981 
L 303.85136 150.389448 
L 307.790184 140.534726 
L 311.729007 130.046132 
L 315.667831 118.980546 
L 321.576066 101.5036 
L 337.33136 53.652507 
L 341.270184 42.681425 
L 345.209007 32.688395 
L 347.178419 28.155595 
L 349.147831 23.98228 
L 351.117243 20.20427 
L 353.086654 16.855071 
L 355.056066 13.965244 
L 357.025478 11.561812 
L 358.99489 9.667708 
L 360.964301 8.301304 
L 362.933713 7.476012 
L 364.903125 7.2 
L 366.872537 7.476012 
L 368.841949 8.301304 
L 370.81136 9.667708 
L 372.780772 11.561812 
L 374.750184 13.965244 
L 376.719596 16.855071 
L 378.689007 20.20427 
L 380.658419 23.98228 
L 382.627831 28.155595 
L 384.597243 32.688395 
L 388.536066 42.681425 
L 392.47489 53.652507 
L 396.413713 65.294588 
L 414.138419 118.980546 
L 418.077243 130.046132 
L 422.016066 140.534726 
L 425.95489 150.389448 
L 429.893713 159.579981 
L 433.832537 168.097498 
L 437.77136 175.949878 
L 441.710184 183.157445 
L 445.649007 189.749312 
L 449.587831 195.760366 
L 453.526654 201.228861 
L 457.465478 206.194545 
L 461.404301 210.697263 
L 465.343125 214.775942 
L 469.281949 218.467892 
L 473.220772 221.808355 
L 477.159596 224.830239 
L 481.098419 227.563996 
L 485.037243 230.037606 
L 488.976066 232.276626 
L 492.91489 234.304292 
L 496.853713 236.141653 
L 502.761949 238.581942 
L 508.670184 240.692776 
L 514.578419 242.522217 
L 520.486654 244.111123 
L 526.39489 245.494177 
L 532.303125 246.7008 
L 532.303125 246.7008 
" style="fill:none;stroke:#1f77b4;stroke-dasharray:3.7,1.6;stroke-dashoffset:0;"/>
   </g>
   <g id="line2d_16">
    <path clip-path="url(#pc4d849c153)" d="M 30.103125 255.948185 
L 57.67489 255.452223 
L 79.338419 254.836342 
L 97.063125 254.108807 
L 112.818419 253.224336 
L 126.604301 252.204216 
L 138.420772 251.093415 
L 148.267831 249.960076 
L 158.11489 248.597148 
L 165.992537 247.310703 
L 173.870184 245.820058 
L 181.747831 244.093104 
L 189.625478 242.092855 
L 195.533713 240.38797 
L 201.441949 238.485379 
L 207.350184 236.362765 
L 213.258419 233.995534 
L 219.166654 231.356679 
L 225.07489 228.416677 
L 230.983125 225.143445 
L 236.89136 221.502383 
L 240.830184 218.852501 
L 244.769007 216.011305 
L 248.707831 212.967018 
L 252.646654 209.707645 
L 256.585478 206.221117 
L 260.524301 202.495472 
L 264.463125 198.51909 
L 268.401949 194.280992 
L 272.340772 189.771216 
L 276.279596 184.98127 
L 280.218419 179.904689 
L 284.157243 174.537699 
L 288.096066 168.879996 
L 292.03489 162.935647 
L 297.943125 153.504083 
L 303.85136 143.510978 
L 309.759596 133.059062 
L 319.606654 115.063668 
L 327.484301 100.783914 
L 331.423125 93.934422 
L 335.361949 87.423172 
L 339.300772 81.367504 
L 343.239596 75.887437 
L 345.209007 73.400344 
L 347.178419 71.100941 
L 349.147831 69.002769 
L 351.117243 67.11855 
L 353.086654 65.460005 
L 355.056066 64.037691 
L 357.025478 62.860837 
L 358.99489 61.937208 
L 360.964301 61.272975 
L 362.933713 60.872621 
L 364.903125 60.738866 
L 366.872537 60.872621 
L 368.841949 61.272975 
L 370.81136 61.937208 
L 372.780772 62.860837 
L 374.750184 64.037691 
L 376.719596 65.460005 
L 378.689007 67.11855 
L 380.658419 69.002769 
L 382.627831 71.100941 
L 384.597243 73.400344 
L 388.536066 78.548039 
L 392.47489 84.330901 
L 396.413713 90.629296 
L 400.352537 97.324005 
L 406.260772 107.860824 
L 423.985478 140.071521 
L 429.893713 150.231324 
L 435.801949 159.858693 
L 439.740772 165.9432 
L 443.679596 171.745046 
L 447.618419 177.257605 
L 451.557243 182.479116 
L 455.496066 187.411723 
L 459.43489 192.060635 
L 463.373713 196.433407 
L 467.312537 200.539328 
L 471.25136 204.388922 
L 475.190184 207.993528 
L 479.129007 211.364971 
L 483.067831 214.515294 
L 487.006654 217.456547 
L 490.945478 220.200632 
L 494.884301 222.759176 
L 500.792537 226.273633 
L 506.700772 229.432066 
L 512.609007 232.268248 
L 518.517243 234.813407 
L 524.425478 237.09622 
L 530.333713 239.142876 
L 532.303125 239.776797 
L 532.303125 239.776797 
" style="fill:none;stroke:#ff7f0e;stroke-dasharray:6.4,1.6,1,1.6;stroke-dashoffset:0;"/>
   </g>
   <g id="line2d_17">
    <path clip-path="url(#pc4d849c153)" d="M 30.103125 256.178537 
L 57.67489 255.769619 
L 79.338419 255.226425 
L 97.063125 254.54982 
L 110.849007 253.814171 
L 122.665478 252.986546 
L 134.481949 251.923171 
L 144.329007 250.810516 
L 154.176066 249.443067 
L 162.053713 248.128714 
L 169.93136 246.582749 
L 177.809007 244.767182 
L 183.717243 243.202853 
L 189.625478 241.442592 
L 195.533713 239.464539 
L 201.441949 237.245161 
L 207.350184 234.759346 
L 213.258419 231.980597 
L 219.166654 228.881324 
L 225.07489 225.433287 
L 230.983125 221.608203 
L 234.921949 218.835028 
L 238.860772 215.874257 
L 242.799596 212.718656 
L 246.738419 209.361703 
L 250.677243 205.797807 
L 254.616066 202.022548 
L 258.55489 198.032949 
L 262.493713 193.827771 
L 268.401949 187.118211 
L 274.310184 179.939153 
L 280.218419 172.318467 
L 286.126654 164.301311 
L 292.03489 155.952493 
L 299.912537 144.457258 
L 315.667831 121.304088 
L 321.576066 113.033868 
L 325.51489 107.787089 
L 329.453713 102.818934 
L 333.392537 98.18561 
L 337.33136 93.942257 
L 341.270184 90.141681 
L 345.209007 86.833047 
L 347.178419 85.377259 
L 349.147831 84.060594 
L 351.117243 82.887613 
L 353.086654 81.862424 
L 355.056066 80.988653 
L 357.025478 80.269415 
L 358.99489 79.707292 
L 360.964301 79.304313 
L 362.933713 79.061938 
L 364.903125 78.981048 
L 366.872537 79.061938 
L 368.841949 79.304313 
L 370.81136 79.707292 
L 372.780772 80.269415 
L 374.750184 80.988653 
L 376.719596 81.862424 
L 378.689007 82.887613 
L 380.658419 84.060594 
L 382.627831 85.377259 
L 386.566654 88.422976 
L 390.505478 91.983449 
L 394.444301 96.011817 
L 398.383125 100.456932 
L 402.321949 105.26466 
L 406.260772 110.379172 
L 412.169007 118.503192 
L 420.046654 129.89216 
L 439.740772 158.767414 
L 445.649007 167.014176 
L 451.557243 174.905361 
L 457.465478 182.38295 
L 463.373713 189.407825 
L 469.281949 195.957309 
L 473.220772 200.054663 
L 477.159596 203.936821 
L 481.098419 207.60593 
L 485.037243 211.065722 
L 488.976066 214.321237 
L 492.91489 217.378558 
L 496.853713 220.24459 
L 502.761949 224.201537 
L 508.670184 227.772133 
L 514.578419 230.984506 
L 520.486654 233.866988 
L 526.39489 236.447442 
L 532.303125 238.752769 
L 532.303125 238.752769 
" style="fill:none;stroke:#2ca02c;stroke-dasharray:1,1.65;stroke-dashoffset:0;"/>
   </g>
   <g id="line2d_18">
    <path clip-path="url(#pc4d849c153)" d="M 30.103125 256.627554 
L 63.583125 256.440206 
L 83.277243 256.135888 
L 99.032537 255.672935 
L 110.849007 255.118702 
L 120.696066 254.464029 
L 130.543125 253.578075 
L 138.420772 252.660638 
L 146.298419 251.517786 
L 154.176066 250.108451 
L 160.084301 248.849906 
L 165.992537 247.396704 
L 171.900772 245.728502 
L 177.809007 243.82474 
L 183.717243 241.665038 
L 189.625478 239.22967 
L 195.533713 236.500095 
L 201.441949 233.459551 
L 207.350184 230.093685 
L 213.258419 226.391223 
L 219.166654 222.344659 
L 225.07489 217.950933 
L 230.983125 213.212092 
L 236.89136 208.135896 
L 242.799596 202.736356 
L 248.707831 197.034166 
L 254.616066 191.057014 
L 262.493713 182.721005 
L 270.37136 174.061184 
L 286.126654 156.284604 
L 295.973713 145.302807 
L 303.85136 136.858617 
L 309.759596 130.84158 
L 315.667831 125.179252 
L 319.606654 121.637852 
L 323.545478 118.307849 
L 327.484301 115.209371 
L 331.423125 112.361462 
L 335.361949 109.781894 
L 339.300772 107.486978 
L 343.239596 105.491392 
L 347.178419 103.808029 
L 351.117243 102.447854 
L 355.056066 101.419786 
L 358.99489 100.730603 
L 362.933713 100.384866 
L 366.872537 100.384866 
L 370.81136 100.730603 
L 374.750184 101.419786 
L 378.689007 102.447854 
L 382.627831 103.808029 
L 386.566654 105.491392 
L 390.505478 107.486978 
L 394.444301 109.781894 
L 398.383125 112.361462 
L 402.321949 115.209371 
L 406.260772 118.307849 
L 410.199596 121.637852 
L 416.107831 127.02269 
L 422.016066 132.811545 
L 427.924301 138.93012 
L 435.801949 147.470441 
L 447.618419 160.740439 
L 463.373713 178.424321 
L 471.25136 186.936398 
L 479.129007 195.070761 
L 485.037243 200.868032 
L 490.945478 206.371095 
L 496.853713 211.556952 
L 502.761949 216.409405 
L 508.670184 220.918667 
L 514.578419 225.080851 
L 520.486654 228.897385 
L 526.39489 232.374369 
L 532.303125 235.521898 
L 532.303125 235.521898 
" style="fill:none;stroke:#d62728;stroke-dasharray:3.7,1.6;stroke-dashoffset:0;"/>
   </g>
   <g id="line2d_19">
    <path clip-path="url(#pc4d849c153)" d="M 30.103125 256.68 
L 136.45136 256.618318 
L 140.390184 256.359379 
L 144.329007 255.899067 
L 148.267831 255.238697 
L 152.206654 254.380153 
L 156.145478 253.325888 
L 160.084301 252.078912 
L 164.023125 250.642787 
L 167.961949 249.021614 
L 171.900772 247.220023 
L 175.839596 245.243157 
L 181.747831 241.961704 
L 187.656066 238.31978 
L 193.564301 234.34078 
L 199.472537 230.050262 
L 205.380772 225.475788 
L 211.289007 220.646741 
L 219.166654 213.865836 
L 227.044301 206.765074 
L 236.89136 197.563077 
L 254.616066 180.585763 
L 266.432537 169.375516 
L 276.279596 160.344451 
L 284.157243 153.439418 
L 290.065478 148.499234 
L 295.973713 143.798944 
L 301.881949 139.368739 
L 307.790184 135.237079 
L 313.698419 131.430501 
L 319.606654 127.97346 
L 323.545478 125.874015 
L 327.484301 123.945833 
L 331.423125 122.194421 
L 335.361949 120.624781 
L 339.300772 119.241395 
L 343.239596 118.048214 
L 347.178419 117.048645 
L 351.117243 116.245542 
L 355.056066 115.6412 
L 358.99489 115.237344 
L 362.933713 115.035127 
L 366.872537 115.035127 
L 370.81136 115.237344 
L 374.750184 115.6412 
L 378.689007 116.245542 
L 382.627831 117.048645 
L 386.566654 118.048214 
L 390.505478 119.241395 
L 394.444301 120.624781 
L 398.383125 122.194421 
L 402.321949 123.945833 
L 406.260772 125.874015 
L 410.199596 127.97346 
L 416.107831 131.430501 
L 422.016066 135.237079 
L 427.924301 139.368739 
L 433.832537 143.798944 
L 439.740772 148.499234 
L 445.649007 153.439418 
L 453.526654 160.344451 
L 461.404301 167.54057 
L 473.220772 178.70017 
L 500.792537 204.949337 
L 508.670184 212.117521 
L 516.547831 218.985805 
L 522.456066 223.892891 
L 528.364301 228.555573 
L 532.303125 231.513386 
L 532.303125 231.513386 
" style="fill:none;stroke:#9467bd;stroke-dasharray:6.4,1.6,1,1.6;stroke-dashoffset:0;"/>
   </g>
   <g id="patch_3">
    <path d="M 30.103125 256.68 
L 30.103125 7.2 
" style="fill:none;stroke:#000000;stroke-linecap:square;stroke-linejoin:miter;stroke-width:0.8;"/>
   </g>
   <g id="patch_4">
    <path d="M 532.303125 256.68 
L 532.303125 7.2 
" style="fill:none;stroke:#000000;stroke-linecap:square;stroke-linejoin:miter;stroke-width:0.8;"/>
   </g>
   <g id="patch_5">
    <path d="M 30.103125 256.68 
L 532.303125 256.68 
" style="fill:none;stroke:#000000;stroke-linecap:square;stroke-linejoin:miter;stroke-width:0.8;"/>
   </g>
   <g id="patch_6">
    <path d="M 30.103125 7.2 
L 532.303125 7.2 
" style="fill:none;stroke:#000000;stroke-linecap:square;stroke-linejoin:miter;stroke-width:0.8;"/>
   </g>
   <g id="legend_1">
    <g id="patch_7">
     <path d="M 486.940625 88.590625 
L 525.303125 88.590625 
Q 527.303125 88.590625 527.303125 86.590625 
L 527.303125 14.2 
Q 527.303125 12.2 525.303125 12.2 
L 486.940625 12.2 
Q 484.940625 12.2 484.940625 14.2 
L 484.940625 86.590625 
Q 484.940625 88.590625 486.940625 88.590625 
z
" style="fill:#ffffff;opacity:0.8;stroke:#cccccc;stroke-linejoin:miter;"/>
    </g>
    <g id="line2d_20">
     <path d="M 488.940625 20.298437 
L 508.940625 20.298437 
" style="fill:none;stroke:#1f77b4;stroke-dasharray:3.7,1.6;stroke-dashoffset:0;"/>
    </g>
    <g id="line2d_21"/>
    <g id="text_15">
     <!-- 0 -->
     <g transform="translate(516.940625 23.798437)scale(0.1 -0.1)">
      <use xlink:href="#DejaVuSans-48"/>
     </g>
    </g>
    <g id="line2d_22">
     <path d="M 488.940625 34.976562 
L 508.940625 34.976562 
" style="fill:none;stroke:#ff7f0e;stroke-dasharray:6.4,1.6,1,1.6;stroke-dashoffset:0;"/>
    </g>
    <g id="line2d_23"/>
    <g id="text_16">
     <!-- 1 -->
     <g transform="translate(516.940625 38.476562)scale(0.1 -0.1)">
      <use xlink:href="#DejaVuSans-49"/>
     </g>
    </g>
    <g id="line2d_24">
     <path d="M 488.940625 49.654687 
L 508.940625 49.654687 
" style="fill:none;stroke:#2ca02c;stroke-dasharray:1,1.65;stroke-dashoffset:0;"/>
    </g>
    <g id="line2d_25"/>
    <g id="text_17">
     <!-- 2 -->
     <g transform="translate(516.940625 53.154687)scale(0.1 -0.1)">
      <use xlink:href="#DejaVuSans-50"/>
     </g>
    </g>
    <g id="line2d_26">
     <path d="M 488.940625 64.332812 
L 508.940625 64.332812 
" style="fill:none;stroke:#d62728;stroke-dasharray:3.7,1.6;stroke-dashoffset:0;"/>
    </g>
    <g id="line2d_27"/>
    <g id="text_18">
     <!-- 3 -->
     <g transform="translate(516.940625 67.832812)scale(0.1 -0.1)">
      <use xlink:href="#DejaVuSans-51"/>
     </g>
    </g>
    <g id="line2d_28">
     <path d="M 488.940625 79.010937 
L 508.940625 79.010937 
" style="fill:none;stroke:#9467bd;stroke-dasharray:6.4,1.6,1,1.6;stroke-dashoffset:0;"/>
    </g>
    <g id="line2d_29"/>
    <g id="text_19">
     <!-- 4 -->
     <g transform="translate(516.940625 82.510937)scale(0.1 -0.1)">
      <use xlink:href="#DejaVuSans-52"/>
     </g>
    </g>
   </g>
  </g>
 </g>
 <defs>
  <clipPath id="pc4d849c153">
   <rect height="249.48" width="502.2" x="30.103125" y="7.2"/>
  </clipPath>
 </defs>
</svg>
