<?xml version="1.0" encoding="utf-8" standalone="no"?>
<!DOCTYPE svg PUBLIC "-//W3C//DTD SVG 1.1//EN"
  "http://www.w3.org/Graphics/SVG/1.1/DTD/svg11.dtd">
<!-- Created with matplotlib (https://matplotlib.org/) -->
<svg height="363.718125pt" version="1.1" viewBox="0 0 542.684375 363.718125" width="542.684375pt" xmlns="http://www.w3.org/2000/svg" xmlns:xlink="http://www.w3.org/1999/xlink">
 <defs>
  <style type="text/css">
*{stroke-linecap:butt;stroke-linejoin:round;white-space:pre;}
  </style>
 </defs>
 <g id="figure_1">
  <g id="patch_1">
   <path d="M 0 363.718125 
L 542.684375 363.718125 
L 542.684375 0 
L 0 0 
z
" style="fill:#ffffff;"/>
  </g>
  <g id="axes_1">
   <g id="patch_2">
    <path d="M 30.103125 339.84 
L 532.303125 339.84 
L 532.303125 7.2 
L 30.103125 7.2 
z
" style="fill:#ffffff;"/>
   </g>
   <g id="matplotlib.axis_1">
    <g id="xtick_1">
     <g id="line2d_1">
      <defs>
       <path d="M 0 0 
L 0 3.5 
" id="m14706426e0" style="stroke:#000000;stroke-width:0.8;"/>
      </defs>
      <g>
       <use style="stroke:#000000;stroke-width:0.8;" x="30.103125" xlink:href="#m14706426e0" y="339.84"/>
      </g>
     </g>
     <g id="text_1">
      <!-- −6 -->
      <defs>
       <path d="M 10.59375 35.5 
L 73.1875 35.5 
L 73.1875 27.203125 
L 10.59375 27.203125 
z
" id="DejaVuSans-8722"/>
       <path d="M 33.015625 40.375 
Q 26.375 40.375 22.484375 35.828125 
Q 18.609375 31.296875 18.609375 23.390625 
Q 18.609375 15.53125 22.484375 10.953125 
Q 26.375 6.390625 33.015625 6.390625 
Q 39.65625 6.390625 43.53125 10.953125 
Q 47.40625 15.53125 47.40625 23.390625 
Q 47.40625 31.296875 43.53125 35.828125 
Q 39.65625 40.375 33.015625 40.375 
z
M 52.59375 71.296875 
L 52.59375 62.3125 
Q 48.875 64.0625 45.09375 64.984375 
Q 41.3125 65.921875 37.59375 65.921875 
Q 27.828125 65.921875 22.671875 59.328125 
Q 17.53125 52.734375 16.796875 39.40625 
Q 19.671875 43.65625 24.015625 45.921875 
Q 28.375 48.1875 33.59375 48.1875 
Q 44.578125 48.1875 50.953125 41.515625 
Q 57.328125 34.859375 57.328125 23.390625 
Q 57.328125 12.15625 50.6875 5.359375 
Q 44.046875 -1.421875 33.015625 -1.421875 
Q 20.359375 -1.421875 13.671875 8.265625 
Q 6.984375 17.96875 6.984375 36.375 
Q 6.984375 53.65625 15.1875 63.9375 
Q 23.390625 74.21875 37.203125 74.21875 
Q 40.921875 74.21875 44.703125 73.484375 
Q 48.484375 72.75 52.59375 71.296875 
z
" id="DejaVuSans-54"/>
      </defs>
      <g transform="translate(22.732031 354.438438)scale(0.1 -0.1)">
       <use xlink:href="#DejaVuSans-8722"/>
       <use x="83.789062" xlink:href="#DejaVuSans-54"/>
      </g>
     </g>
    </g>
    <g id="xtick_2">
     <g id="line2d_2">
      <g>
       <use style="stroke:#000000;stroke-width:0.8;" x="85.903125" xlink:href="#m14706426e0" y="339.84"/>
      </g>
     </g>
     <g id="text_2">
      <!-- −5 -->
      <defs>
       <path d="M 10.796875 72.90625 
L 49.515625 72.90625 
L 49.515625 64.59375 
L 19.828125 64.59375 
L 19.828125 46.734375 
Q 21.96875 47.46875 24.109375 47.828125 
Q 26.265625 48.1875 28.421875 48.1875 
Q 40.625 48.1875 47.75 41.5 
Q 54.890625 34.8125 54.890625 23.390625 
Q 54.890625 11.625 47.5625 5.09375 
Q 40.234375 -1.421875 26.90625 -1.421875 
Q 22.3125 -1.421875 17.546875 -0.640625 
Q 12.796875 0.140625 7.71875 1.703125 
L 7.71875 11.625 
Q 12.109375 9.234375 16.796875 8.0625 
Q 21.484375 6.890625 26.703125 6.890625 
Q 35.15625 6.890625 40.078125 11.328125 
Q 45.015625 15.765625 45.015625 23.390625 
Q 45.015625 31 40.078125 35.4375 
Q 35.15625 39.890625 26.703125 39.890625 
Q 22.75 39.890625 18.8125 39.015625 
Q 14.890625 38.140625 10.796875 36.28125 
z
" id="DejaVuSans-53"/>
      </defs>
      <g transform="translate(78.532031 354.438438)scale(0.1 -0.1)">
       <use xlink:href="#DejaVuSans-8722"/>
       <use x="83.789062" xlink:href="#DejaVuSans-53"/>
      </g>
     </g>
    </g>
    <g id="xtick_3">
     <g id="line2d_3">
      <g>
       <use style="stroke:#000000;stroke-width:0.8;" x="141.703125" xlink:href="#m14706426e0" y="339.84"/>
      </g>
     </g>
     <g id="text_3">
      <!-- −4 -->
      <defs>
       <path d="M 37.796875 64.3125 
L 12.890625 25.390625 
L 37.796875 25.390625 
z
M 35.203125 72.90625 
L 47.609375 72.90625 
L 47.609375 25.390625 
L 58.015625 25.390625 
L 58.015625 17.1875 
L 47.609375 17.1875 
L 47.609375 0 
L 37.796875 0 
L 37.796875 17.1875 
L 4.890625 17.1875 
L 4.890625 26.703125 
z
" id="DejaVuSans-52"/>
      </defs>
      <g transform="translate(134.332031 354.438438)scale(0.1 -0.1)">
       <use xlink:href="#DejaVuSans-8722"/>
       <use x="83.789062" xlink:href="#DejaVuSans-52"/>
      </g>
     </g>
    </g>
    <g id="xtick_4">
     <g id="line2d_4">
      <g>
       <use style="stroke:#000000;stroke-width:0.8;" x="197.503125" xlink:href="#m14706426e0" y="339.84"/>
      </g>
     </g>
     <g id="text_4">
      <!-- −3 -->
      <defs>
       <path d="M 40.578125 39.3125 
Q 47.65625 37.796875 51.625 33 
Q 55.609375 28.21875 55.609375 21.1875 
Q 55.609375 10.40625 48.1875 4.484375 
Q 40.765625 -1.421875 27.09375 -1.421875 
Q 22.515625 -1.421875 17.65625 -0.515625 
Q 12.796875 0.390625 7.625 2.203125 
L 7.625 11.71875 
Q 11.71875 9.328125 16.59375 8.109375 
Q 21.484375 6.890625 26.8125 6.890625 
Q 36.078125 6.890625 40.9375 10.546875 
Q 45.796875 14.203125 45.796875 21.1875 
Q 45.796875 27.640625 41.28125 31.265625 
Q 36.765625 34.90625 28.71875 34.90625 
L 20.21875 34.90625 
L 20.21875 43.015625 
L 29.109375 43.015625 
Q 36.375 43.015625 40.234375 45.921875 
Q 44.09375 48.828125 44.09375 54.296875 
Q 44.09375 59.90625 40.109375 62.90625 
Q 36.140625 65.921875 28.71875 65.921875 
Q 24.65625 65.921875 20.015625 65.03125 
Q 15.375 64.15625 9.8125 62.3125 
L 9.8125 71.09375 
Q 15.4375 72.65625 20.34375 73.4375 
Q 25.25 74.21875 29.59375 74.21875 
Q 40.828125 74.21875 47.359375 69.109375 
Q 53.90625 64.015625 53.90625 55.328125 
Q 53.90625 49.265625 50.4375 45.09375 
Q 46.96875 40.921875 40.578125 39.3125 
z
" id="DejaVuSans-51"/>
      </defs>
      <g transform="translate(190.132031 354.438438)scale(0.1 -0.1)">
       <use xlink:href="#DejaVuSans-8722"/>
       <use x="83.789062" xlink:href="#DejaVuSans-51"/>
      </g>
     </g>
    </g>
    <g id="xtick_5">
     <g id="line2d_5">
      <g>
       <use style="stroke:#000000;stroke-width:0.8;" x="253.303125" xlink:href="#m14706426e0" y="339.84"/>
      </g>
     </g>
     <g id="text_5">
      <!-- −2 -->
      <defs>
       <path d="M 19.1875 8.296875 
L 53.609375 8.296875 
L 53.609375 0 
L 7.328125 0 
L 7.328125 8.296875 
Q 12.9375 14.109375 22.625 23.890625 
Q 32.328125 33.6875 34.8125 36.53125 
Q 39.546875 41.84375 41.421875 45.53125 
Q 43.3125 49.21875 43.3125 52.78125 
Q 43.3125 58.59375 39.234375 62.25 
Q 35.15625 65.921875 28.609375 65.921875 
Q 23.96875 65.921875 18.8125 64.3125 
Q 13.671875 62.703125 7.8125 59.421875 
L 7.8125 69.390625 
Q 13.765625 71.78125 18.9375 73 
Q 24.125 74.21875 28.421875 74.21875 
Q 39.75 74.21875 46.484375 68.546875 
Q 53.21875 62.890625 53.21875 53.421875 
Q 53.21875 48.921875 51.53125 44.890625 
Q 49.859375 40.875 45.40625 35.40625 
Q 44.1875 33.984375 37.640625 27.21875 
Q 31.109375 20.453125 19.1875 8.296875 
z
" id="DejaVuSans-50"/>
      </defs>
      <g transform="translate(245.932031 354.438438)scale(0.1 -0.1)">
       <use xlink:href="#DejaVuSans-8722"/>
       <use x="83.789062" xlink:href="#DejaVuSans-50"/>
      </g>
     </g>
    </g>
    <g id="xtick_6">
     <g id="line2d_6">
      <g>
       <use style="stroke:#000000;stroke-width:0.8;" x="309.103125" xlink:href="#m14706426e0" y="339.84"/>
      </g>
     </g>
     <g id="text_6">
      <!-- −1 -->
      <defs>
       <path d="M 12.40625 8.296875 
L 28.515625 8.296875 
L 28.515625 63.921875 
L 10.984375 60.40625 
L 10.984375 69.390625 
L 28.421875 72.90625 
L 38.28125 72.90625 
L 38.28125 8.296875 
L 54.390625 8.296875 
L 54.390625 0 
L 12.40625 0 
z
" id="DejaVuSans-49"/>
      </defs>
      <g transform="translate(301.732031 354.438438)scale(0.1 -0.1)">
       <use xlink:href="#DejaVuSans-8722"/>
       <use x="83.789062" xlink:href="#DejaVuSans-49"/>
      </g>
     </g>
    </g>
    <g id="xtick_7">
     <g id="line2d_7">
      <g>
       <use style="stroke:#000000;stroke-width:0.8;" x="364.903125" xlink:href="#m14706426e0" y="339.84"/>
      </g>
     </g>
     <g id="text_7">
      <!-- 0 -->
      <defs>
       <path d="M 31.78125 66.40625 
Q 24.171875 66.40625 20.328125 58.90625 
Q 16.5 51.421875 16.5 36.375 
Q 16.5 21.390625 20.328125 13.890625 
Q 24.171875 6.390625 31.78125 6.390625 
Q 39.453125 6.390625 43.28125 13.890625 
Q 47.125 21.390625 47.125 36.375 
Q 47.125 51.421875 43.28125 58.90625 
Q 39.453125 66.40625 31.78125 66.40625 
z
M 31.78125 74.21875 
Q 44.046875 74.21875 50.515625 64.515625 
Q 56.984375 54.828125 56.984375 36.375 
Q 56.984375 17.96875 50.515625 8.265625 
Q 44.046875 -1.421875 31.78125 -1.421875 
Q 19.53125 -1.421875 13.0625 8.265625 
Q 6.59375 17.96875 6.59375 36.375 
Q 6.59375 54.828125 13.0625 64.515625 
Q 19.53125 74.21875 31.78125 74.21875 
z
" id="DejaVuSans-48"/>
      </defs>
      <g transform="translate(361.721875 354.438438)scale(0.1 -0.1)">
       <use xlink:href="#DejaVuSans-48"/>
      </g>
     </g>
    </g>
    <g id="xtick_8">
     <g id="line2d_8">
      <g>
       <use style="stroke:#000000;stroke-width:0.8;" x="420.703125" xlink:href="#m14706426e0" y="339.84"/>
      </g>
     </g>
     <g id="text_8">
      <!-- 1 -->
      <g transform="translate(417.521875 354.438438)scale(0.1 -0.1)">
       <use xlink:href="#DejaVuSans-49"/>
      </g>
     </g>
    </g>
    <g id="xtick_9">
     <g id="line2d_9">
      <g>
       <use style="stroke:#000000;stroke-width:0.8;" x="476.503125" xlink:href="#m14706426e0" y="339.84"/>
      </g>
     </g>
     <g id="text_9">
      <!-- 2 -->
      <g transform="translate(473.321875 354.438438)scale(0.1 -0.1)">
       <use xlink:href="#DejaVuSans-50"/>
      </g>
     </g>
    </g>
    <g id="xtick_10">
     <g id="line2d_10">
      <g>
       <use style="stroke:#000000;stroke-width:0.8;" x="532.303125" xlink:href="#m14706426e0" y="339.84"/>
      </g>
     </g>
     <g id="text_10">
      <!-- 3 -->
      <g transform="translate(529.121875 354.438438)scale(0.1 -0.1)">
       <use xlink:href="#DejaVuSans-51"/>
      </g>
     </g>
    </g>
   </g>
   <g id="matplotlib.axis_2">
    <g id="ytick_1">
     <g id="line2d_11">
      <defs>
       <path d="M 0 0 
L -3.5 0 
" id="m48f0258d68" style="stroke:#000000;stroke-width:0.8;"/>
      </defs>
      <g>
       <use style="stroke:#000000;stroke-width:0.8;" x="30.103125" xlink:href="#m48f0258d68" y="339.84"/>
      </g>
     </g>
     <g id="text_11">
      <!-- 0.0 -->
      <defs>
       <path d="M 10.6875 12.40625 
L 21 12.40625 
L 21 0 
L 10.6875 0 
z
" id="DejaVuSans-46"/>
      </defs>
      <g transform="translate(7.2 343.639219)scale(0.1 -0.1)">
       <use xlink:href="#DejaVuSans-48"/>
       <use x="63.623047" xlink:href="#DejaVuSans-46"/>
       <use x="95.410156" xlink:href="#DejaVuSans-48"/>
      </g>
     </g>
    </g>
    <g id="ytick_2">
     <g id="line2d_12">
      <g>
       <use style="stroke:#000000;stroke-width:0.8;" x="30.103125" xlink:href="#m48f0258d68" y="287.589031"/>
      </g>
     </g>
     <g id="text_12">
      <!-- 0.1 -->
      <g transform="translate(7.2 291.38825)scale(0.1 -0.1)">
       <use xlink:href="#DejaVuSans-48"/>
       <use x="63.623047" xlink:href="#DejaVuSans-46"/>
       <use x="95.410156" xlink:href="#DejaVuSans-49"/>
      </g>
     </g>
    </g>
    <g id="ytick_3">
     <g id="line2d_13">
      <g>
       <use style="stroke:#000000;stroke-width:0.8;" x="30.103125" xlink:href="#m48f0258d68" y="235.338062"/>
      </g>
     </g>
     <g id="text_13">
      <!-- 0.2 -->
      <g transform="translate(7.2 239.137281)scale(0.1 -0.1)">
       <use xlink:href="#DejaVuSans-48"/>
       <use x="63.623047" xlink:href="#DejaVuSans-46"/>
       <use x="95.410156" xlink:href="#DejaVuSans-50"/>
      </g>
     </g>
    </g>
    <g id="ytick_4">
     <g id="line2d_14">
      <g>
       <use style="stroke:#000000;stroke-width:0.8;" x="30.103125" xlink:href="#m48f0258d68" y="183.087093"/>
      </g>
     </g>
     <g id="text_14">
      <!-- 0.3 -->
      <g transform="translate(7.2 186.886312)scale(0.1 -0.1)">
       <use xlink:href="#DejaVuSans-48"/>
       <use x="63.623047" xlink:href="#DejaVuSans-46"/>
       <use x="95.410156" xlink:href="#DejaVuSans-51"/>
      </g>
     </g>
    </g>
    <g id="ytick_5">
     <g id="line2d_15">
      <g>
       <use style="stroke:#000000;stroke-width:0.8;" x="30.103125" xlink:href="#m48f0258d68" y="130.836124"/>
      </g>
     </g>
     <g id="text_15">
      <!-- 0.4 -->
      <g transform="translate(7.2 134.635343)scale(0.1 -0.1)">
       <use xlink:href="#DejaVuSans-48"/>
       <use x="63.623047" xlink:href="#DejaVuSans-46"/>
       <use x="95.410156" xlink:href="#DejaVuSans-52"/>
      </g>
     </g>
    </g>
    <g id="ytick_6">
     <g id="line2d_16">
      <g>
       <use style="stroke:#000000;stroke-width:0.8;" x="30.103125" xlink:href="#m48f0258d68" y="78.585155"/>
      </g>
     </g>
     <g id="text_16">
      <!-- 0.5 -->
      <g transform="translate(7.2 82.384374)scale(0.1 -0.1)">
       <use xlink:href="#DejaVuSans-48"/>
       <use x="63.623047" xlink:href="#DejaVuSans-46"/>
       <use x="95.410156" xlink:href="#DejaVuSans-53"/>
      </g>
     </g>
    </g>
    <g id="ytick_7">
     <g id="line2d_17">
      <g>
       <use style="stroke:#000000;stroke-width:0.8;" x="30.103125" xlink:href="#m48f0258d68" y="26.334186"/>
      </g>
     </g>
     <g id="text_17">
      <!-- 0.6 -->
      <g transform="translate(7.2 30.133405)scale(0.1 -0.1)">
       <use xlink:href="#DejaVuSans-48"/>
       <use x="63.623047" xlink:href="#DejaVuSans-46"/>
       <use x="95.410156" xlink:href="#DejaVuSans-54"/>
      </g>
     </g>
    </g>
   </g>
   <g id="line2d_18">
    <path clip-path="url(#pc6f4d241da)" d="M 30.103125 339.59702 
L 89.185478 339.325025 
L 126.604301 338.94121 
L 152.206654 338.460706 
L 169.93136 337.933469 
L 185.686654 337.242042 
L 197.503125 336.5136 
L 207.350184 335.707954 
L 215.227831 334.886927 
L 223.105478 333.85893 
L 229.013713 332.914907 
L 234.921949 331.784889 
L 240.830184 330.425338 
L 246.738419 328.781108 
L 250.677243 327.492914 
L 254.616066 326.022095 
L 258.55489 324.338822 
L 262.493713 322.407942 
L 266.432537 320.188014 
L 270.37136 317.630193 
L 274.310184 314.676961 
L 278.249007 311.260701 
L 282.187831 307.302168 
L 284.157243 305.09121 
L 286.126654 302.708889 
L 288.096066 300.141329 
L 290.065478 297.373652 
L 292.03489 294.389948 
L 294.004301 291.173262 
L 295.973713 287.705593 
L 297.943125 283.967923 
L 299.912537 279.940263 
L 301.881949 275.601748 
L 303.85136 270.930766 
L 305.820772 265.905148 
L 307.790184 260.502421 
L 309.759596 254.700139 
L 311.729007 248.476311 
L 313.698419 241.809927 
L 315.667831 234.681612 
L 317.637243 227.074408 
L 319.606654 218.974702 
L 321.576066 210.373308 
L 325.51489 191.658371 
L 329.453713 170.994843 
L 333.392537 148.610222 
L 339.300772 112.837192 
L 345.209007 76.81112 
L 349.147831 54.508566 
L 351.117243 44.370576 
L 353.086654 35.140793 
L 355.056066 26.988941 
L 357.025478 20.073428 
L 358.99489 14.534925 
L 360.964301 10.490278 
L 362.933713 8.027177 
L 364.903125 7.2 
L 366.872537 8.027177 
L 368.841949 10.490278 
L 370.81136 14.534925 
L 372.780772 20.073428 
L 374.750184 26.988941 
L 376.719596 35.140793 
L 378.689007 44.370576 
L 380.658419 54.508566 
L 384.597243 76.81112 
L 390.505478 112.837192 
L 396.413713 148.610222 
L 400.352537 170.994843 
L 404.29136 191.658371 
L 408.230184 210.373308 
L 410.199596 218.974702 
L 412.169007 227.074408 
L 414.138419 234.681612 
L 416.107831 241.809927 
L 418.077243 248.476311 
L 420.046654 254.700139 
L 422.016066 260.502421 
L 423.985478 265.905148 
L 425.95489 270.930766 
L 427.924301 275.601748 
L 429.893713 279.940263 
L 431.863125 283.967923 
L 433.832537 287.705593 
L 435.801949 291.173262 
L 437.77136 294.389948 
L 439.740772 297.373652 
L 441.710184 300.141329 
L 443.679596 302.708889 
L 447.618419 307.302168 
L 451.557243 311.260701 
L 455.496066 314.676961 
L 459.43489 317.630193 
L 463.373713 320.188014 
L 467.312537 322.407942 
L 471.25136 324.338822 
L 475.190184 326.022095 
L 479.129007 327.492914 
L 483.067831 328.781108 
L 488.976066 330.425338 
L 494.884301 331.784889 
L 500.792537 332.914907 
L 508.670184 334.138458 
L 516.547831 335.109516 
L 526.39489 336.056036 
L 532.303125 336.5136 
L 532.303125 336.5136 
" style="fill:none;stroke:#1f77b4;stroke-dasharray:3.7,1.6;stroke-dashoffset:0;"/>
   </g>
   <g id="line2d_19">
    <path clip-path="url(#pc6f4d241da)" d="M 30.103125 339.797834 
L 89.185478 339.617525 
L 118.726654 339.328977 
L 140.390184 338.899652 
L 156.145478 338.374774 
L 169.93136 337.680063 
L 179.778419 336.990151 
L 189.625478 336.079909 
L 197.503125 335.146522 
L 205.380772 333.981531 
L 211.289007 332.921782 
L 217.197243 331.670492 
L 223.105478 330.193146 
L 229.013713 328.449076 
L 234.921949 326.390407 
L 238.860772 324.815773 
L 242.799596 323.057472 
L 246.738419 321.09435 
L 250.677243 318.902924 
L 254.616066 316.457168 
L 258.55489 313.728293 
L 262.493713 310.684543 
L 266.432537 307.290997 
L 270.37136 303.509422 
L 274.310184 299.298178 
L 278.249007 294.612234 
L 282.187831 289.403335 
L 286.126654 283.620392 
L 290.065478 277.210193 
L 294.004301 270.118562 
L 297.943125 262.29212 
L 301.881949 253.680847 
L 305.820772 244.241693 
L 309.759596 233.943473 
L 313.698419 222.773328 
L 317.637243 210.744923 
L 321.576066 197.908432 
L 325.51489 184.362029 
L 331.423125 163.077201 
L 339.300772 134.314617 
L 343.239596 120.627201 
L 347.178419 108.042868 
L 349.147831 102.330718 
L 351.117243 97.09507 
L 353.086654 92.401254 
L 355.056066 88.310877 
L 357.025478 84.880007 
L 358.99489 82.157414 
L 360.964301 80.182944 
L 362.933713 78.986135 
L 364.903125 78.585155 
L 366.872537 78.986135 
L 368.841949 80.182944 
L 370.81136 82.157414 
L 372.780772 84.880007 
L 374.750184 88.310877 
L 376.719596 92.401254 
L 378.689007 97.09507 
L 380.658419 102.330718 
L 382.627831 108.042868 
L 386.566654 120.627201 
L 390.505478 134.314617 
L 398.383125 163.077201 
L 404.29136 184.362029 
L 408.230184 197.908432 
L 412.169007 210.744923 
L 416.107831 222.773328 
L 420.046654 233.943473 
L 423.985478 244.241693 
L 427.924301 253.680847 
L 431.863125 262.29212 
L 435.801949 270.118562 
L 439.740772 277.210193 
L 443.679596 283.620392 
L 447.618419 289.403335 
L 451.557243 294.612234 
L 455.496066 299.298178 
L 459.43489 303.509422 
L 463.373713 307.290997 
L 467.312537 310.684543 
L 471.25136 313.728293 
L 475.190184 316.457168 
L 479.129007 318.902924 
L 483.067831 321.09435 
L 487.006654 323.057472 
L 490.945478 324.815773 
L 494.884301 326.390407 
L 500.792537 328.449076 
L 506.700772 330.193146 
L 512.609007 331.670492 
L 518.517243 332.921782 
L 524.425478 333.981531 
L 532.303125 335.146522 
L 532.303125 335.146522 
" style="fill:none;stroke:#ff7f0e;stroke-dasharray:6.4,1.6,1,1.6;stroke-dashoffset:0;"/>
   </g>
   <g id="line2d_20">
    <path clip-path="url(#pc6f4d241da)" d="M 30.103125 339.822204 
L 99.032537 339.67279 
L 128.573713 339.40344 
L 148.267831 339.012619 
L 162.053713 338.546131 
L 173.870184 337.942655 
L 183.717243 337.230849 
L 191.59489 336.474824 
L 199.472537 335.501767 
L 205.380772 334.593454 
L 211.289007 333.497561 
L 217.197243 332.176555 
L 223.105478 330.585947 
L 229.013713 328.673264 
L 232.952537 327.189241 
L 236.89136 325.514274 
L 240.830184 323.625588 
L 244.769007 321.498203 
L 248.707831 319.104875 
L 252.646654 316.416081 
L 256.585478 313.400081 
L 260.524301 310.023064 
L 264.463125 306.249423 
L 268.401949 302.042184 
L 272.340772 297.363619 
L 276.279596 292.176106 
L 280.218419 286.443257 
L 284.157243 280.131374 
L 288.096066 273.211262 
L 292.03489 265.660431 
L 295.973713 257.465693 
L 299.912537 248.626132 
L 303.85136 239.156379 
L 307.790184 229.090086 
L 311.729007 218.483392 
L 317.637243 201.746832 
L 327.484301 172.722943 
L 333.392537 155.604256 
L 337.33136 144.772229 
L 341.270184 134.691912 
L 345.209007 125.615756 
L 347.178419 121.53148 
L 349.147831 117.788908 
L 351.117243 114.415427 
L 353.086654 111.436345 
L 355.056066 108.8745 
L 357.025478 106.749899 
L 358.99489 105.079391 
L 360.964301 103.87639 
L 362.933713 103.150641 
L 364.903125 102.908064 
L 366.872537 103.150641 
L 368.841949 103.87639 
L 370.81136 105.079391 
L 372.780772 106.749899 
L 374.750184 108.8745 
L 376.719596 111.436345 
L 378.689007 114.415427 
L 380.658419 117.788908 
L 382.627831 121.53148 
L 384.597243 125.615756 
L 386.566654 130.012674 
L 390.505478 139.622303 
L 394.444301 150.110009 
L 398.383125 161.224202 
L 406.260772 184.382675 
L 414.138419 207.418143 
L 420.046654 223.849811 
L 423.985478 234.194858 
L 427.924301 243.968413 
L 431.863125 253.126005 
L 435.801949 261.643932 
L 439.740772 269.515761 
L 443.679596 276.748938 
L 447.618419 283.361649 
L 451.557243 289.380037 
L 455.496066 294.8358 
L 459.43489 299.764183 
L 463.373713 304.202353 
L 467.312537 308.188106 
L 471.25136 311.758887 
L 475.190184 314.951049 
L 479.129007 317.799344 
L 483.067831 320.336574 
L 487.006654 322.593382 
L 490.945478 324.598154 
L 494.884301 326.376998 
L 498.823125 327.953781 
L 502.761949 329.350211 
L 508.670184 331.149168 
L 514.578419 332.644495 
L 520.486654 333.885884 
L 526.39489 334.915395 
L 532.303125 335.768461 
L 532.303125 335.768461 
" style="fill:none;stroke:#2ca02c;stroke-dasharray:1,1.65;stroke-dashoffset:0;"/>
   </g>
   <g id="line2d_21">
    <path clip-path="url(#pc6f4d241da)" d="M 30.103125 339.839997 
L 146.298419 339.743119 
L 164.023125 339.520275 
L 175.839596 339.169924 
L 185.686654 338.640399 
L 193.564301 337.970915 
L 199.472537 337.267278 
L 205.380772 336.338228 
L 211.289007 335.126822 
L 215.227831 334.130129 
L 219.166654 332.957049 
L 223.105478 331.584199 
L 227.044301 329.986745 
L 230.983125 328.138641 
L 234.921949 326.012969 
L 238.860772 323.582357 
L 242.799596 320.819485 
L 246.738419 317.697685 
L 250.677243 314.191628 
L 254.616066 310.278081 
L 258.55489 305.936738 
L 262.493713 301.1511 
L 266.432537 295.90938 
L 270.37136 290.205424 
L 274.310184 284.039595 
L 278.249007 277.419619 
L 282.187831 270.361325 
L 286.126654 262.889281 
L 290.065478 255.037262 
L 295.973713 242.644033 
L 301.881949 229.681578 
L 323.545478 181.454218 
L 327.484301 173.36241 
L 331.423125 165.726916 
L 335.361949 158.646307 
L 339.300772 152.214964 
L 343.239596 146.521 
L 345.209007 143.975859 
L 347.178419 141.644252 
L 349.147831 139.534559 
L 351.117243 137.654425 
L 353.086654 136.010706 
L 355.056066 134.609433 
L 357.025478 133.455776 
L 358.99489 132.554005 
L 360.964301 131.907471 
L 362.933713 131.518583 
L 364.903125 131.388793 
L 366.872537 131.518583 
L 368.841949 131.907471 
L 370.81136 132.554005 
L 372.780772 133.455776 
L 374.750184 134.609433 
L 376.719596 136.010706 
L 378.689007 137.654425 
L 380.658419 139.534559 
L 382.627831 141.644252 
L 384.597243 143.975859 
L 386.566654 146.521 
L 388.536066 149.270603 
L 392.47489 155.343799 
L 396.413713 162.111229 
L 400.352537 169.48139 
L 404.29136 177.357542 
L 410.199596 189.901677 
L 418.077243 207.46265 
L 429.893713 234.052211 
L 435.801949 246.84853 
L 441.710184 259.008289 
L 445.649007 266.675131 
L 449.587831 273.943937 
L 453.526654 280.785584 
L 457.465478 287.179943 
L 461.404301 293.115322 
L 465.343125 298.587777 
L 469.281949 303.600314 
L 473.220772 308.162015 
L 477.159596 312.287139 
L 481.098419 315.9942 
L 485.037243 319.305074 
L 488.976066 322.244143 
L 492.91489 324.837496 
L 496.853713 327.112207 
L 500.792537 329.09569 
L 504.73136 330.815151 
L 508.670184 332.297116 
L 512.609007 333.567062 
L 516.547831 334.649125 
L 522.456066 335.968872 
L 528.364301 336.985267 
L 532.303125 337.524316 
L 532.303125 337.524316 
" style="fill:none;stroke:#d62728;stroke-dasharray:3.7,1.6;stroke-dashoffset:0;"/>
   </g>
   <g id="line2d_22">
    <path clip-path="url(#pc6f4d241da)" d="M 30.103125 339.84 
L 211.289007 339.829357 
L 213.258419 339.696683 
L 215.227831 339.412506 
L 217.197243 338.977283 
L 219.166654 338.391713 
L 221.136066 337.656738 
L 223.105478 336.773537 
L 225.07489 335.74353 
L 227.044301 334.568372 
L 229.013713 333.24995 
L 230.983125 331.790383 
L 234.921949 328.457415 
L 238.860772 324.590877 
L 242.799596 320.215606 
L 246.738419 315.359707 
L 250.677243 310.054373 
L 254.616066 304.333683 
L 258.55489 298.234383 
L 262.493713 291.795654 
L 268.401949 281.592136 
L 274.310184 270.865783 
L 282.187831 256.019261 
L 301.881949 218.55826 
L 307.790184 207.888848 
L 313.698419 197.761126 
L 317.637243 191.382873 
L 321.576066 185.35156 
L 325.51489 179.70593 
L 329.453713 174.482248 
L 333.392537 169.714068 
L 337.33136 165.43202 
L 341.270184 161.663609 
L 345.209007 158.433042 
L 347.178419 157.026074 
L 349.147831 155.761071 
L 351.117243 154.640066 
L 353.086654 153.664859 
L 355.056066 152.837019 
L 357.025478 152.157873 
L 358.99489 151.628514 
L 360.964301 151.249791 
L 362.933713 151.022314 
L 364.903125 150.946448 
L 366.872537 151.022314 
L 368.841949 151.249791 
L 370.81136 151.628514 
L 372.780772 152.157873 
L 374.750184 152.837019 
L 376.719596 153.664859 
L 378.689007 154.640066 
L 380.658419 155.761071 
L 382.627831 157.026074 
L 384.597243 158.433042 
L 388.536066 161.663609 
L 392.47489 165.43202 
L 396.413713 169.714068 
L 400.352537 174.482248 
L 404.29136 179.70593 
L 408.230184 185.35156 
L 412.169007 191.382873 
L 416.107831 197.761126 
L 422.016066 207.888848 
L 427.924301 218.55826 
L 435.801949 233.359573 
L 455.496066 270.865783 
L 461.404301 281.592136 
L 467.312537 291.795654 
L 471.25136 298.234383 
L 475.190184 304.333683 
L 479.129007 310.054373 
L 483.067831 315.359707 
L 487.006654 320.215606 
L 490.945478 324.590877 
L 494.884301 328.457415 
L 498.823125 331.790383 
L 500.792537 333.24995 
L 502.761949 334.568372 
L 504.73136 335.74353 
L 506.700772 336.773537 
L 508.670184 337.656738 
L 510.639596 338.391713 
L 512.609007 338.977283 
L 514.578419 339.412506 
L 516.547831 339.696683 
L 518.517243 339.829357 
L 532.303125 339.84 
L 532.303125 339.84 
" style="fill:none;stroke:#9467bd;stroke-dasharray:6.4,1.6,1,1.6;stroke-dashoffset:0;"/>
   </g>
   <g id="patch_3">
    <path d="M 30.103125 339.84 
L 30.103125 7.2 
" style="fill:none;stroke:#000000;stroke-linecap:square;stroke-linejoin:miter;stroke-width:0.8;"/>
   </g>
   <g id="patch_4">
    <path d="M 532.303125 339.84 
L 532.303125 7.2 
" style="fill:none;stroke:#000000;stroke-linecap:square;stroke-linejoin:miter;stroke-width:0.8;"/>
   </g>
   <g id="patch_5">
    <path d="M 30.103125 339.84 
L 532.303125 339.84 
" style="fill:none;stroke:#000000;stroke-linecap:square;stroke-linejoin:miter;stroke-width:0.8;"/>
   </g>
   <g id="patch_6">
    <path d="M 30.103125 7.2 
L 532.303125 7.2 
" style="fill:none;stroke:#000000;stroke-linecap:square;stroke-linejoin:miter;stroke-width:0.8;"/>
   </g>
   <g id="legend_1">
    <g id="patch_7">
     <path d="M 486.940625 88.590625 
L 525.303125 88.590625 
Q 527.303125 88.590625 527.303125 86.590625 
L 527.303125 14.2 
Q 527.303125 12.2 525.303125 12.2 
L 486.940625 12.2 
Q 484.940625 12.2 484.940625 14.2 
L 484.940625 86.590625 
Q 484.940625 88.590625 486.940625 88.590625 
z
" style="fill:#ffffff;opacity:0.8;stroke:#cccccc;stroke-linejoin:miter;"/>
    </g>
    <g id="line2d_23">
     <path d="M 488.940625 20.298438 
L 508.940625 20.298438 
" style="fill:none;stroke:#1f77b4;stroke-dasharray:3.7,1.6;stroke-dashoffset:0;"/>
    </g>
    <g id="line2d_24"/>
    <g id="text_18">
     <!-- 0 -->
     <g transform="translate(516.940625 23.798438)scale(0.1 -0.1)">
      <use xlink:href="#DejaVuSans-48"/>
     </g>
    </g>
    <g id="line2d_25">
     <path d="M 488.940625 34.976563 
L 508.940625 34.976563 
" style="fill:none;stroke:#ff7f0e;stroke-dasharray:6.4,1.6,1,1.6;stroke-dashoffset:0;"/>
    </g>
    <g id="line2d_26"/>
    <g id="text_19">
     <!-- 1 -->
     <g transform="translate(516.940625 38.476563)scale(0.1 -0.1)">
      <use xlink:href="#DejaVuSans-49"/>
     </g>
    </g>
    <g id="line2d_27">
     <path d="M 488.940625 49.654688 
L 508.940625 49.654688 
" style="fill:none;stroke:#2ca02c;stroke-dasharray:1,1.65;stroke-dashoffset:0;"/>
    </g>
    <g id="line2d_28"/>
    <g id="text_20">
     <!-- 2 -->
     <g transform="translate(516.940625 53.154688)scale(0.1 -0.1)">
      <use xlink:href="#DejaVuSans-50"/>
     </g>
    </g>
    <g id="line2d_29">
     <path d="M 488.940625 64.332813 
L 508.940625 64.332813 
" style="fill:none;stroke:#d62728;stroke-dasharray:3.7,1.6;stroke-dashoffset:0;"/>
    </g>
    <g id="line2d_30"/>
    <g id="text_21">
     <!-- 3 -->
     <g transform="translate(516.940625 67.832813)scale(0.1 -0.1)">
      <use xlink:href="#DejaVuSans-51"/>
     </g>
    </g>
    <g id="line2d_31">
     <path d="M 488.940625 79.010938 
L 508.940625 79.010938 
" style="fill:none;stroke:#9467bd;stroke-dasharray:6.4,1.6,1,1.6;stroke-dashoffset:0;"/>
    </g>
    <g id="line2d_32"/>
    <g id="text_22">
     <!-- 4 -->
     <g transform="translate(516.940625 82.510938)scale(0.1 -0.1)">
      <use xlink:href="#DejaVuSans-52"/>
     </g>
    </g>
   </g>
  </g>
 </g>
 <defs>
  <clipPath id="pc6f4d241da">
   <rect height="332.64" width="502.2" x="30.103125" y="7.2"/>
  </clipPath>
 </defs>
</svg>
