<?xml version="1.0" encoding="utf-8" standalone="no"?>
<!DOCTYPE svg PUBLIC "-//W3C//DTD SVG 1.1//EN"
  "http://www.w3.org/Graphics/SVG/1.1/DTD/svg11.dtd">
<!-- Created with matplotlib (https://matplotlib.org/) -->
<svg height="197.398125pt" version="1.1" viewBox="0 0 542.684375 197.398125" width="542.684375pt" xmlns="http://www.w3.org/2000/svg" xmlns:xlink="http://www.w3.org/1999/xlink">
 <defs>
  <style type="text/css">
*{stroke-linecap:butt;stroke-linejoin:round;white-space:pre;}
  </style>
 </defs>
 <g id="figure_1">
  <g id="patch_1">
   <path d="M 0 197.398125 
L 542.684375 197.398125 
L 542.684375 0 
L 0 0 
z
" style="fill:#ffffff;"/>
  </g>
  <g id="axes_1">
   <g id="patch_2">
    <path d="M 30.103125 173.52 
L 532.303125 173.52 
L 532.303125 7.2 
L 30.103125 7.2 
z
" style="fill:#ffffff;"/>
   </g>
   <g id="matplotlib.axis_1">
    <g id="xtick_1">
     <g id="line2d_1">
      <defs>
       <path d="M 0 0 
L 0 3.5 
" id="m301bb4b51c" style="stroke:#000000;stroke-width:0.8;"/>
      </defs>
      <g>
       <use style="stroke:#000000;stroke-width:0.8;" x="30.103125" xlink:href="#m301bb4b51c" y="173.52"/>
      </g>
     </g>
     <g id="text_1">
      <!-- −4 -->
      <defs>
       <path d="M 10.59375 35.5 
L 73.1875 35.5 
L 73.1875 27.203125 
L 10.59375 27.203125 
z
" id="DejaVuSans-8722"/>
       <path d="M 37.796875 64.3125 
L 12.890625 25.390625 
L 37.796875 25.390625 
z
M 35.203125 72.90625 
L 47.609375 72.90625 
L 47.609375 25.390625 
L 58.015625 25.390625 
L 58.015625 17.1875 
L 47.609375 17.1875 
L 47.609375 0 
L 37.796875 0 
L 37.796875 17.1875 
L 4.890625 17.1875 
L 4.890625 26.703125 
z
" id="DejaVuSans-52"/>
      </defs>
      <g transform="translate(22.732031 188.118438)scale(0.1 -0.1)">
       <use xlink:href="#DejaVuSans-8722"/>
       <use x="83.789062" xlink:href="#DejaVuSans-52"/>
      </g>
     </g>
    </g>
    <g id="xtick_2">
     <g id="line2d_2">
      <g>
       <use style="stroke:#000000;stroke-width:0.8;" x="113.803125" xlink:href="#m301bb4b51c" y="173.52"/>
      </g>
     </g>
     <g id="text_2">
      <!-- −3 -->
      <defs>
       <path d="M 40.578125 39.3125 
Q 47.65625 37.796875 51.625 33 
Q 55.609375 28.21875 55.609375 21.1875 
Q 55.609375 10.40625 48.1875 4.484375 
Q 40.765625 -1.421875 27.09375 -1.421875 
Q 22.515625 -1.421875 17.65625 -0.515625 
Q 12.796875 0.390625 7.625 2.203125 
L 7.625 11.71875 
Q 11.71875 9.328125 16.59375 8.109375 
Q 21.484375 6.890625 26.8125 6.890625 
Q 36.078125 6.890625 40.9375 10.546875 
Q 45.796875 14.203125 45.796875 21.1875 
Q 45.796875 27.640625 41.28125 31.265625 
Q 36.765625 34.90625 28.71875 34.90625 
L 20.21875 34.90625 
L 20.21875 43.015625 
L 29.109375 43.015625 
Q 36.375 43.015625 40.234375 45.921875 
Q 44.09375 48.828125 44.09375 54.296875 
Q 44.09375 59.90625 40.109375 62.90625 
Q 36.140625 65.921875 28.71875 65.921875 
Q 24.65625 65.921875 20.015625 65.03125 
Q 15.375 64.15625 9.8125 62.3125 
L 9.8125 71.09375 
Q 15.4375 72.65625 20.34375 73.4375 
Q 25.25 74.21875 29.59375 74.21875 
Q 40.828125 74.21875 47.359375 69.109375 
Q 53.90625 64.015625 53.90625 55.328125 
Q 53.90625 49.265625 50.4375 45.09375 
Q 46.96875 40.921875 40.578125 39.3125 
z
" id="DejaVuSans-51"/>
      </defs>
      <g transform="translate(106.432031 188.118438)scale(0.1 -0.1)">
       <use xlink:href="#DejaVuSans-8722"/>
       <use x="83.789062" xlink:href="#DejaVuSans-51"/>
      </g>
     </g>
    </g>
    <g id="xtick_3">
     <g id="line2d_3">
      <g>
       <use style="stroke:#000000;stroke-width:0.8;" x="197.503125" xlink:href="#m301bb4b51c" y="173.52"/>
      </g>
     </g>
     <g id="text_3">
      <!-- −2 -->
      <defs>
       <path d="M 19.1875 8.296875 
L 53.609375 8.296875 
L 53.609375 0 
L 7.328125 0 
L 7.328125 8.296875 
Q 12.9375 14.109375 22.625 23.890625 
Q 32.328125 33.6875 34.8125 36.53125 
Q 39.546875 41.84375 41.421875 45.53125 
Q 43.3125 49.21875 43.3125 52.78125 
Q 43.3125 58.59375 39.234375 62.25 
Q 35.15625 65.921875 28.609375 65.921875 
Q 23.96875 65.921875 18.8125 64.3125 
Q 13.671875 62.703125 7.8125 59.421875 
L 7.8125 69.390625 
Q 13.765625 71.78125 18.9375 73 
Q 24.125 74.21875 28.421875 74.21875 
Q 39.75 74.21875 46.484375 68.546875 
Q 53.21875 62.890625 53.21875 53.421875 
Q 53.21875 48.921875 51.53125 44.890625 
Q 49.859375 40.875 45.40625 35.40625 
Q 44.1875 33.984375 37.640625 27.21875 
Q 31.109375 20.453125 19.1875 8.296875 
z
" id="DejaVuSans-50"/>
      </defs>
      <g transform="translate(190.132031 188.118438)scale(0.1 -0.1)">
       <use xlink:href="#DejaVuSans-8722"/>
       <use x="83.789062" xlink:href="#DejaVuSans-50"/>
      </g>
     </g>
    </g>
    <g id="xtick_4">
     <g id="line2d_4">
      <g>
       <use style="stroke:#000000;stroke-width:0.8;" x="281.203125" xlink:href="#m301bb4b51c" y="173.52"/>
      </g>
     </g>
     <g id="text_4">
      <!-- −1 -->
      <defs>
       <path d="M 12.40625 8.296875 
L 28.515625 8.296875 
L 28.515625 63.921875 
L 10.984375 60.40625 
L 10.984375 69.390625 
L 28.421875 72.90625 
L 38.28125 72.90625 
L 38.28125 8.296875 
L 54.390625 8.296875 
L 54.390625 0 
L 12.40625 0 
z
" id="DejaVuSans-49"/>
      </defs>
      <g transform="translate(273.832031 188.118438)scale(0.1 -0.1)">
       <use xlink:href="#DejaVuSans-8722"/>
       <use x="83.789062" xlink:href="#DejaVuSans-49"/>
      </g>
     </g>
    </g>
    <g id="xtick_5">
     <g id="line2d_5">
      <g>
       <use style="stroke:#000000;stroke-width:0.8;" x="364.903125" xlink:href="#m301bb4b51c" y="173.52"/>
      </g>
     </g>
     <g id="text_5">
      <!-- 0 -->
      <defs>
       <path d="M 31.78125 66.40625 
Q 24.171875 66.40625 20.328125 58.90625 
Q 16.5 51.421875 16.5 36.375 
Q 16.5 21.390625 20.328125 13.890625 
Q 24.171875 6.390625 31.78125 6.390625 
Q 39.453125 6.390625 43.28125 13.890625 
Q 47.125 21.390625 47.125 36.375 
Q 47.125 51.421875 43.28125 58.90625 
Q 39.453125 66.40625 31.78125 66.40625 
z
M 31.78125 74.21875 
Q 44.046875 74.21875 50.515625 64.515625 
Q 56.984375 54.828125 56.984375 36.375 
Q 56.984375 17.96875 50.515625 8.265625 
Q 44.046875 -1.421875 31.78125 -1.421875 
Q 19.53125 -1.421875 13.0625 8.265625 
Q 6.59375 17.96875 6.59375 36.375 
Q 6.59375 54.828125 13.0625 64.515625 
Q 19.53125 74.21875 31.78125 74.21875 
z
" id="DejaVuSans-48"/>
      </defs>
      <g transform="translate(361.721875 188.118438)scale(0.1 -0.1)">
       <use xlink:href="#DejaVuSans-48"/>
      </g>
     </g>
    </g>
    <g id="xtick_6">
     <g id="line2d_6">
      <g>
       <use style="stroke:#000000;stroke-width:0.8;" x="448.603125" xlink:href="#m301bb4b51c" y="173.52"/>
      </g>
     </g>
     <g id="text_6">
      <!-- 1 -->
      <g transform="translate(445.421875 188.118438)scale(0.1 -0.1)">
       <use xlink:href="#DejaVuSans-49"/>
      </g>
     </g>
    </g>
    <g id="xtick_7">
     <g id="line2d_7">
      <g>
       <use style="stroke:#000000;stroke-width:0.8;" x="532.303125" xlink:href="#m301bb4b51c" y="173.52"/>
      </g>
     </g>
     <g id="text_7">
      <!-- 2 -->
      <g transform="translate(529.121875 188.118438)scale(0.1 -0.1)">
       <use xlink:href="#DejaVuSans-50"/>
      </g>
     </g>
    </g>
   </g>
   <g id="matplotlib.axis_2">
    <g id="ytick_1">
     <g id="line2d_8">
      <defs>
       <path d="M 0 0 
L -3.5 0 
" id="ma99f7a54d0" style="stroke:#000000;stroke-width:0.8;"/>
      </defs>
      <g>
       <use style="stroke:#000000;stroke-width:0.8;" x="30.103125" xlink:href="#ma99f7a54d0" y="173.52"/>
      </g>
     </g>
     <g id="text_8">
      <!-- 0.0 -->
      <defs>
       <path d="M 10.6875 12.40625 
L 21 12.40625 
L 21 0 
L 10.6875 0 
z
" id="DejaVuSans-46"/>
      </defs>
      <g transform="translate(7.2 177.319219)scale(0.1 -0.1)">
       <use xlink:href="#DejaVuSans-48"/>
       <use x="63.623047" xlink:href="#DejaVuSans-46"/>
       <use x="95.410156" xlink:href="#DejaVuSans-48"/>
      </g>
     </g>
    </g>
    <g id="ytick_2">
     <g id="line2d_9">
      <g>
       <use style="stroke:#000000;stroke-width:0.8;" x="30.103125" xlink:href="#ma99f7a54d0" y="147.394515"/>
      </g>
     </g>
     <g id="text_9">
      <!-- 0.1 -->
      <g transform="translate(7.2 151.193734)scale(0.1 -0.1)">
       <use xlink:href="#DejaVuSans-48"/>
       <use x="63.623047" xlink:href="#DejaVuSans-46"/>
       <use x="95.410156" xlink:href="#DejaVuSans-49"/>
      </g>
     </g>
    </g>
    <g id="ytick_3">
     <g id="line2d_10">
      <g>
       <use style="stroke:#000000;stroke-width:0.8;" x="30.103125" xlink:href="#ma99f7a54d0" y="121.269031"/>
      </g>
     </g>
     <g id="text_10">
      <!-- 0.2 -->
      <g transform="translate(7.2 125.06825)scale(0.1 -0.1)">
       <use xlink:href="#DejaVuSans-48"/>
       <use x="63.623047" xlink:href="#DejaVuSans-46"/>
       <use x="95.410156" xlink:href="#DejaVuSans-50"/>
      </g>
     </g>
    </g>
    <g id="ytick_4">
     <g id="line2d_11">
      <g>
       <use style="stroke:#000000;stroke-width:0.8;" x="30.103125" xlink:href="#ma99f7a54d0" y="95.143546"/>
      </g>
     </g>
     <g id="text_11">
      <!-- 0.3 -->
      <g transform="translate(7.2 98.942765)scale(0.1 -0.1)">
       <use xlink:href="#DejaVuSans-48"/>
       <use x="63.623047" xlink:href="#DejaVuSans-46"/>
       <use x="95.410156" xlink:href="#DejaVuSans-51"/>
      </g>
     </g>
    </g>
    <g id="ytick_5">
     <g id="line2d_12">
      <g>
       <use style="stroke:#000000;stroke-width:0.8;" x="30.103125" xlink:href="#ma99f7a54d0" y="69.018062"/>
      </g>
     </g>
     <g id="text_12">
      <!-- 0.4 -->
      <g transform="translate(7.2 72.817281)scale(0.1 -0.1)">
       <use xlink:href="#DejaVuSans-48"/>
       <use x="63.623047" xlink:href="#DejaVuSans-46"/>
       <use x="95.410156" xlink:href="#DejaVuSans-52"/>
      </g>
     </g>
    </g>
    <g id="ytick_6">
     <g id="line2d_13">
      <g>
       <use style="stroke:#000000;stroke-width:0.8;" x="30.103125" xlink:href="#ma99f7a54d0" y="42.892577"/>
      </g>
     </g>
     <g id="text_13">
      <!-- 0.5 -->
      <defs>
       <path d="M 10.796875 72.90625 
L 49.515625 72.90625 
L 49.515625 64.59375 
L 19.828125 64.59375 
L 19.828125 46.734375 
Q 21.96875 47.46875 24.109375 47.828125 
Q 26.265625 48.1875 28.421875 48.1875 
Q 40.625 48.1875 47.75 41.5 
Q 54.890625 34.8125 54.890625 23.390625 
Q 54.890625 11.625 47.5625 5.09375 
Q 40.234375 -1.421875 26.90625 -1.421875 
Q 22.3125 -1.421875 17.546875 -0.640625 
Q 12.796875 0.140625 7.71875 1.703125 
L 7.71875 11.625 
Q 12.109375 9.234375 16.796875 8.0625 
Q 21.484375 6.890625 26.703125 6.890625 
Q 35.15625 6.890625 40.078125 11.328125 
Q 45.015625 15.765625 45.015625 23.390625 
Q 45.015625 31 40.078125 35.4375 
Q 35.15625 39.890625 26.703125 39.890625 
Q 22.75 39.890625 18.8125 39.015625 
Q 14.890625 38.140625 10.796875 36.28125 
z
" id="DejaVuSans-53"/>
      </defs>
      <g transform="translate(7.2 46.691796)scale(0.1 -0.1)">
       <use xlink:href="#DejaVuSans-48"/>
       <use x="63.623047" xlink:href="#DejaVuSans-46"/>
       <use x="95.410156" xlink:href="#DejaVuSans-53"/>
      </g>
     </g>
    </g>
    <g id="ytick_7">
     <g id="line2d_14">
      <g>
       <use style="stroke:#000000;stroke-width:0.8;" x="30.103125" xlink:href="#ma99f7a54d0" y="16.767093"/>
      </g>
     </g>
     <g id="text_14">
      <!-- 0.6 -->
      <defs>
       <path d="M 33.015625 40.375 
Q 26.375 40.375 22.484375 35.828125 
Q 18.609375 31.296875 18.609375 23.390625 
Q 18.609375 15.53125 22.484375 10.953125 
Q 26.375 6.390625 33.015625 6.390625 
Q 39.65625 6.390625 43.53125 10.953125 
Q 47.40625 15.53125 47.40625 23.390625 
Q 47.40625 31.296875 43.53125 35.828125 
Q 39.65625 40.375 33.015625 40.375 
z
M 52.59375 71.296875 
L 52.59375 62.3125 
Q 48.875 64.0625 45.09375 64.984375 
Q 41.3125 65.921875 37.59375 65.921875 
Q 27.828125 65.921875 22.671875 59.328125 
Q 17.53125 52.734375 16.796875 39.40625 
Q 19.671875 43.65625 24.015625 45.921875 
Q 28.375 48.1875 33.59375 48.1875 
Q 44.578125 48.1875 50.953125 41.515625 
Q 57.328125 34.859375 57.328125 23.390625 
Q 57.328125 12.15625 50.6875 5.359375 
Q 44.046875 -1.421875 33.015625 -1.421875 
Q 20.359375 -1.421875 13.671875 8.265625 
Q 6.984375 17.96875 6.984375 36.375 
Q 6.984375 53.65625 15.1875 63.9375 
Q 23.390625 74.21875 37.203125 74.21875 
Q 40.921875 74.21875 44.703125 73.484375 
Q 48.484375 72.75 52.59375 71.296875 
z
" id="DejaVuSans-54"/>
      </defs>
      <g transform="translate(7.2 20.566312)scale(0.1 -0.1)">
       <use xlink:href="#DejaVuSans-48"/>
       <use x="63.623047" xlink:href="#DejaVuSans-46"/>
       <use x="95.410156" xlink:href="#DejaVuSans-54"/>
      </g>
     </g>
    </g>
   </g>
   <g id="line2d_15">
    <path clip-path="url(#p2120c4fda6)" d="M 30.103125 172.944498 
L 73.430184 172.554776 
L 104.940772 172.052661 
L 128.573713 171.453977 
L 146.298419 170.801152 
L 162.053713 169.999622 
L 173.870184 169.205979 
L 185.686654 168.187208 
L 195.533713 167.112153 
L 203.41136 166.062785 
L 211.289007 164.803971 
L 219.166654 163.2878 
L 225.07489 161.946417 
L 230.983125 160.396657 
L 236.89136 158.602861 
L 242.799596 156.52329 
L 246.738419 154.954445 
L 250.677243 153.220885 
L 254.616066 151.304772 
L 258.55489 149.186631 
L 262.493713 146.845335 
L 266.432537 144.258154 
L 270.37136 141.400874 
L 274.310184 138.248035 
L 278.249007 134.773311 
L 282.187831 130.95007 
L 286.126654 126.752177 
L 290.065478 122.155074 
L 294.004301 117.137204 
L 297.943125 111.681808 
L 301.881949 105.779157 
L 305.820772 99.429185 
L 309.759596 92.644527 
L 313.698419 85.45382 
L 319.606654 74.017628 
L 327.484301 57.993352 
L 335.361949 42.00556 
L 339.300772 34.442763 
L 343.239596 27.428789 
L 345.209007 24.192263 
L 347.178419 21.170396 
L 349.147831 18.388186 
L 351.117243 15.869513 
L 353.086654 13.636714 
L 355.056066 11.710163 
L 357.025478 10.107875 
L 358.99489 8.845139 
L 360.964301 7.934202 
L 362.933713 7.384008 
L 364.903125 7.2 
L 366.872537 7.384008 
L 368.841949 7.934202 
L 370.81136 8.845139 
L 372.780772 10.107875 
L 374.750184 11.710163 
L 376.719596 13.636714 
L 378.689007 15.869513 
L 380.658419 18.388186 
L 382.627831 21.170396 
L 384.597243 24.192263 
L 388.536066 30.854283 
L 392.47489 38.168338 
L 398.383125 49.917146 
L 412.169007 77.905111 
L 416.107831 85.45382 
L 420.046654 92.644527 
L 423.985478 99.429185 
L 427.924301 105.779157 
L 431.863125 111.681808 
L 435.801949 117.137204 
L 439.740772 122.155074 
L 443.679596 126.752177 
L 447.618419 130.95007 
L 451.557243 134.773311 
L 455.496066 138.248035 
L 459.43489 141.400874 
L 463.373713 144.258154 
L 467.312537 146.845335 
L 471.25136 149.186631 
L 475.190184 151.304772 
L 479.129007 153.220885 
L 483.067831 154.954445 
L 488.976066 157.251084 
L 494.884301 159.230351 
L 500.792537 160.93848 
L 506.700772 162.415097 
L 512.609007 163.694007 
L 520.486654 165.140749 
L 528.364301 166.343114 
L 532.303125 166.8672 
L 532.303125 166.8672 
" style="fill:none;stroke:#1f77b4;stroke-dasharray:3.7,1.6;stroke-dashoffset:0;"/>
   </g>
   <g id="line2d_16">
    <path clip-path="url(#p2120c4fda6)" d="M 30.103125 173.032123 
L 61.613713 172.638686 
L 85.246654 172.146776 
L 104.940772 171.532793 
L 122.665478 170.748706 
L 136.45136 169.930699 
L 148.267831 169.040051 
L 160.084301 167.928727 
L 169.93136 166.795203 
L 179.778419 165.43262 
L 187.656066 164.147175 
L 195.533713 162.658647 
L 203.41136 160.935636 
L 211.289007 158.942271 
L 217.197243 157.245499 
L 223.105478 155.354711 
L 229.013713 153.249089 
L 234.921949 150.906117 
L 240.830184 148.301668 
L 246.738419 145.410196 
L 252.646654 142.205097 
L 258.55489 138.659281 
L 264.463125 134.74606 
L 270.37136 130.440424 
L 274.310184 127.341149 
L 280.218419 122.336459 
L 286.126654 116.896697 
L 292.03489 111.023764 
L 297.943125 104.736056 
L 303.85136 98.073985 
L 311.729007 88.73206 
L 329.453713 67.28267 
L 333.392537 62.81953 
L 337.33136 58.620601 
L 341.270184 54.765359 
L 345.209007 51.333563 
L 349.147831 48.401846 
L 351.117243 47.1457 
L 353.086654 46.040003 
L 355.056066 45.091794 
L 357.025478 44.307225 
L 358.99489 43.691472 
L 360.964301 43.24865 
L 362.933713 42.981748 
L 364.903125 42.892577 
L 366.872537 42.981748 
L 368.841949 43.24865 
L 370.81136 43.691472 
L 372.780772 44.307225 
L 374.750184 45.091794 
L 376.719596 46.040003 
L 378.689007 47.1457 
L 380.658419 48.401846 
L 384.597243 51.333563 
L 388.536066 54.765359 
L 392.47489 58.620601 
L 396.413713 62.81953 
L 402.321949 69.589276 
L 410.199596 79.109112 
L 422.016066 93.457107 
L 427.924301 100.332689 
L 433.832537 106.876068 
L 439.740772 113.0288 
L 445.649007 118.758466 
L 451.557243 124.052744 
L 457.465478 128.914144 
L 463.373713 133.355605 
L 469.281949 137.396981 
L 475.190184 141.062352 
L 481.098419 144.378012 
L 487.006654 147.371032 
L 492.91489 150.068255 
L 498.823125 152.49563 
L 504.73136 154.677785 
L 510.639596 156.637786 
L 516.547831 158.397023 
L 524.425478 160.464146 
L 532.303125 162.251198 
L 532.303125 162.251198 
" style="fill:none;stroke:#ff7f0e;stroke-dasharray:6.4,1.6,1,1.6;stroke-dashoffset:0;"/>
   </g>
   <g id="line2d_17">
    <path clip-path="url(#p2120c4fda6)" d="M 30.103125 173.185691 
L 63.583125 172.830421 
L 87.216066 172.37144 
L 106.910184 171.764595 
L 122.665478 171.057697 
L 136.45136 170.212454 
L 148.267831 169.264665 
L 158.11489 168.275105 
L 167.961949 167.061964 
L 175.839596 165.899077 
L 183.717243 164.535236 
L 191.59489 162.939046 
L 199.472537 161.075525 
L 205.380772 159.479443 
L 211.289007 157.694053 
L 217.197243 155.701176 
L 223.105478 153.482091 
L 229.013713 151.0179 
L 234.921949 148.290019 
L 240.830184 145.280824 
L 246.738419 141.974469 
L 252.646654 138.357881 
L 258.55489 134.421966 
L 264.463125 130.163003 
L 270.37136 125.584207 
L 276.279596 120.697429 
L 282.187831 115.524905 
L 288.096066 110.100945 
L 295.973713 102.562706 
L 319.606654 79.562787 
L 325.51489 74.258059 
L 329.453713 70.945956 
L 333.392537 67.857073 
L 337.33136 65.028172 
L 341.270184 62.494454 
L 345.209007 60.288698 
L 349.147831 58.440396 
L 353.086654 56.97495 
L 357.025478 55.912944 
L 360.964301 55.269542 
L 364.903125 55.054032 
L 368.841949 55.269542 
L 372.780772 55.912944 
L 376.719596 56.97495 
L 380.658419 58.440396 
L 384.597243 60.288698 
L 388.536066 62.494454 
L 392.47489 65.028172 
L 396.413713 67.857073 
L 400.352537 70.945956 
L 404.29136 74.258059 
L 410.199596 79.562787 
L 418.077243 87.069996 
L 441.710184 110.100945 
L 447.618419 115.524905 
L 453.526654 120.697429 
L 459.43489 125.584207 
L 465.343125 130.163003 
L 471.25136 134.421966 
L 477.159596 138.357881 
L 483.067831 141.974469 
L 488.976066 145.280824 
L 494.884301 148.290019 
L 500.792537 151.0179 
L 506.700772 153.482091 
L 512.609007 155.701176 
L 518.517243 157.694053 
L 524.425478 159.479443 
L 530.333713 161.075525 
L 532.303125 161.568513 
L 532.303125 161.568513 
" style="fill:none;stroke:#2ca02c;stroke-dasharray:1,1.65;stroke-dashoffset:0;"/>
   </g>
   <g id="line2d_18">
    <path clip-path="url(#p2120c4fda6)" d="M 30.103125 173.485036 
L 69.49136 173.314399 
L 91.15489 173.024316 
L 106.910184 172.618677 
L 120.696066 172.042686 
L 132.512537 171.311832 
L 142.359596 170.479912 
L 152.206654 169.3921 
L 160.084301 168.299938 
L 167.961949 166.977027 
L 175.839596 165.391179 
L 181.747831 164.009742 
L 187.656066 162.448843 
L 193.564301 160.695814 
L 199.472537 158.739041 
L 205.380772 156.568369 
L 211.289007 154.17555 
L 217.197243 151.55469 
L 223.105478 148.702712 
L 229.013713 145.619798 
L 234.921949 142.309809 
L 240.830184 138.780662 
L 246.738419 135.044641 
L 254.616066 129.771342 
L 262.493713 124.214004 
L 272.340772 116.973126 
L 299.912537 96.419904 
L 307.790184 90.94103 
L 313.698419 87.081793 
L 319.606654 83.491901 
L 325.51489 80.218968 
L 329.453713 78.235302 
L 333.392537 76.42472 
L 337.33136 74.798598 
L 341.270184 73.36728 
L 345.209007 72.139967 
L 349.147831 71.124624 
L 353.086654 70.327888 
L 357.025478 69.754998 
L 360.964301 69.409738 
L 364.903125 69.294396 
L 368.841949 69.409738 
L 372.780772 69.754998 
L 376.719596 70.327888 
L 380.658419 71.124624 
L 384.597243 72.139967 
L 388.536066 73.36728 
L 392.47489 74.798598 
L 396.413713 76.42472 
L 400.352537 78.235302 
L 406.260772 81.2719 
L 412.169007 84.655615 
L 418.077243 88.340695 
L 423.985478 92.278771 
L 431.863125 97.836678 
L 441.710184 105.109949 
L 467.312537 124.214004 
L 475.190184 129.771342 
L 483.067831 135.044641 
L 488.976066 138.780662 
L 494.884301 142.309809 
L 500.792537 145.619798 
L 506.700772 148.702712 
L 512.609007 151.55469 
L 518.517243 154.17555 
L 524.425478 156.568369 
L 530.333713 158.739041 
L 532.303125 159.414598 
L 532.303125 159.414598 
" style="fill:none;stroke:#d62728;stroke-dasharray:3.7,1.6;stroke-dashoffset:0;"/>
   </g>
   <g id="line2d_19">
    <path clip-path="url(#p2120c4fda6)" d="M 30.103125 173.52 
L 138.420772 173.409387 
L 144.329007 172.999378 
L 150.237243 172.289371 
L 156.145478 171.283925 
L 162.053713 169.9895 
L 167.961949 168.414409 
L 173.870184 166.568772 
L 179.778419 164.464443 
L 185.686654 162.11494 
L 191.59489 159.535354 
L 197.503125 156.742257 
L 205.380772 152.717192 
L 213.258419 148.390537 
L 221.136066 143.811681 
L 230.983125 137.813306 
L 244.769007 129.09537 
L 268.401949 114.093714 
L 278.249007 108.125174 
L 286.126654 103.578643 
L 294.004301 99.291437 
L 301.881949 95.312493 
L 307.790184 92.558052 
L 313.698419 90.020334 
L 319.606654 87.71564 
L 325.51489 85.658773 
L 331.423125 83.862948 
L 337.33136 82.339698 
L 343.239596 81.098809 
L 349.147831 80.148252 
L 355.056066 79.494133 
L 360.964301 79.140654 
L 366.872537 79.090084 
L 372.780772 79.34275 
L 378.689007 79.897028 
L 384.597243 80.749357 
L 390.505478 81.894263 
L 396.413713 83.324392 
L 402.321949 85.030555 
L 408.230184 87.001795 
L 414.138419 89.225448 
L 420.046654 91.687231 
L 425.95489 94.371331 
L 431.863125 97.260504 
L 439.740772 101.399489 
L 447.618419 105.822674 
L 455.496066 110.479567 
L 465.343125 116.548148 
L 481.098419 126.573117 
L 498.823125 137.813306 
L 508.670184 143.811681 
L 516.547831 148.390537 
L 524.425478 152.717192 
L 532.303125 156.742257 
L 532.303125 156.742257 
" style="fill:none;stroke:#9467bd;stroke-dasharray:6.4,1.6,1,1.6;stroke-dashoffset:0;"/>
   </g>
   <g id="patch_3">
    <path d="M 30.103125 173.52 
L 30.103125 7.2 
" style="fill:none;stroke:#000000;stroke-linecap:square;stroke-linejoin:miter;stroke-width:0.8;"/>
   </g>
   <g id="patch_4">
    <path d="M 532.303125 173.52 
L 532.303125 7.2 
" style="fill:none;stroke:#000000;stroke-linecap:square;stroke-linejoin:miter;stroke-width:0.8;"/>
   </g>
   <g id="patch_5">
    <path d="M 30.103125 173.52 
L 532.303125 173.52 
" style="fill:none;stroke:#000000;stroke-linecap:square;stroke-linejoin:miter;stroke-width:0.8;"/>
   </g>
   <g id="patch_6">
    <path d="M 30.103125 7.2 
L 532.303125 7.2 
" style="fill:none;stroke:#000000;stroke-linecap:square;stroke-linejoin:miter;stroke-width:0.8;"/>
   </g>
   <g id="legend_1">
    <g id="patch_7">
     <path d="M 486.940625 88.590625 
L 525.303125 88.590625 
Q 527.303125 88.590625 527.303125 86.590625 
L 527.303125 14.2 
Q 527.303125 12.2 525.303125 12.2 
L 486.940625 12.2 
Q 484.940625 12.2 484.940625 14.2 
L 484.940625 86.590625 
Q 484.940625 88.590625 486.940625 88.590625 
z
" style="fill:#ffffff;opacity:0.8;stroke:#cccccc;stroke-linejoin:miter;"/>
    </g>
    <g id="line2d_20">
     <path d="M 488.940625 20.298438 
L 508.940625 20.298438 
" style="fill:none;stroke:#1f77b4;stroke-dasharray:3.7,1.6;stroke-dashoffset:0;"/>
    </g>
    <g id="line2d_21"/>
    <g id="text_15">
     <!-- 0 -->
     <g transform="translate(516.940625 23.798438)scale(0.1 -0.1)">
      <use xlink:href="#DejaVuSans-48"/>
     </g>
    </g>
    <g id="line2d_22">
     <path d="M 488.940625 34.976563 
L 508.940625 34.976563 
" style="fill:none;stroke:#ff7f0e;stroke-dasharray:6.4,1.6,1,1.6;stroke-dashoffset:0;"/>
    </g>
    <g id="line2d_23"/>
    <g id="text_16">
     <!-- 1 -->
     <g transform="translate(516.940625 38.476563)scale(0.1 -0.1)">
      <use xlink:href="#DejaVuSans-49"/>
     </g>
    </g>
    <g id="line2d_24">
     <path d="M 488.940625 49.654688 
L 508.940625 49.654688 
" style="fill:none;stroke:#2ca02c;stroke-dasharray:1,1.65;stroke-dashoffset:0;"/>
    </g>
    <g id="line2d_25"/>
    <g id="text_17">
     <!-- 2 -->
     <g transform="translate(516.940625 53.154688)scale(0.1 -0.1)">
      <use xlink:href="#DejaVuSans-50"/>
     </g>
    </g>
    <g id="line2d_26">
     <path d="M 488.940625 64.332813 
L 508.940625 64.332813 
" style="fill:none;stroke:#d62728;stroke-dasharray:3.7,1.6;stroke-dashoffset:0;"/>
    </g>
    <g id="line2d_27"/>
    <g id="text_18">
     <!-- 3 -->
     <g transform="translate(516.940625 67.832813)scale(0.1 -0.1)">
      <use xlink:href="#DejaVuSans-51"/>
     </g>
    </g>
    <g id="line2d_28">
     <path d="M 488.940625 79.010938 
L 508.940625 79.010938 
" style="fill:none;stroke:#9467bd;stroke-dasharray:6.4,1.6,1,1.6;stroke-dashoffset:0;"/>
    </g>
    <g id="line2d_29"/>
    <g id="text_19">
     <!-- 4 -->
     <g transform="translate(516.940625 82.510938)scale(0.1 -0.1)">
      <use xlink:href="#DejaVuSans-52"/>
     </g>
    </g>
   </g>
  </g>
 </g>
 <defs>
  <clipPath id="p2120c4fda6">
   <rect height="166.32" width="502.2" x="30.103125" y="7.2"/>
  </clipPath>
 </defs>
</svg>
