<?xml version="1.0" standalone="no"?>
<!DOCTYPE svg PUBLIC "-//W3C//DTD SVG 1.1//EN"
  "http://www.w3.org/Graphics/SVG/1.1/DTD/svg11.dtd">
<!-- Created with matplotlib (http://matplotlib.sourceforge.net/) -->
<svg width="432pt" height="432pt" viewBox="0 0 432 432"
   xmlns="http://www.w3.org/2000/svg"
   xmlns:xlink="http://www.w3.org/1999/xlink"
   version="1.1"
   id="svg1">
<filter id="colorAdd"><feComposite in="SourceGraphic" in2="BackgroundImage" operator="arithmetic" k2="1" k3="1"/></filter>
<g id="figure1">
<g id="patch1">
<path style="fill: #ffffff; stroke: #ffffff; stroke-width: 1.000000; stroke-linejoin: round; stroke-linecap: square;  opacity: 1.000000"  d="M0.000000 432.000000L432.000000 432.000000L432.000000 0.000000
L0.000000 0.000000z"/>
</g>
<g id="axes1">
<g id="patch2">
<path style="fill: #ffffff; opacity: 1.000000"  d="M54.000000 388.800000L388.800000 388.800000L388.800000 43.200000
L54.000000 43.200000z"/>
</g>
<g id="line2d1">
<defs>
  <clipPath id="p105063337a2c10f7d81bf1ac160b5ed4">
<rect x="54.000000" y="43.200000" width="334.800000" height="345.600000"/>
  </clipPath>
</defs><path style="fill: none; stroke: #000000; stroke-width: 1.000000; stroke-linejoin: round; stroke-linecap: square;  opacity: 1.000000" clip-path="url(#p105063337a2c10f7d81bf1ac160b5ed4)" d="M305.100000 388.800000L305.100000 43.200000"/>
</g>
<g id="line2d2">
<path style="fill: none; stroke: #0000ff; stroke-width: 1.000000; stroke-linejoin: round; stroke-linecap: square;  opacity: 1.000000" clip-path="url(#p105063337a2c10f7d81bf1ac160b5ed4)" d="M54.000000 147.679803L58.577344 149.701934L63.154687 151.493844
L68.385937 153.300718L74.271094 155.071999L80.156250 156.608808
L86.695312 158.084179L93.888281 159.469203L101.735156 160.742310
L110.235937 161.888537L119.390625 162.898666L129.853125 163.819515
L140.969531 164.576036L154.047656 165.232489L168.433594 165.726564
L185.435156 166.079053L205.706250 166.268871L232.516406 166.286782
L255.403125 166.106882L273.712500 165.744299L288.752344 165.232489
L301.830469 164.576036L313.600781 163.768360L324.063281 162.833329
L333.217969 161.807993L341.718750 160.644656L349.565625 159.352502
L356.758594 157.946533L363.297656 156.448465L369.182813 154.887493
L375.067969 153.087613L380.299219 151.250668L384.876563 149.427984
L388.146094 147.984177L388.146094 147.984177"/>
</g>
<g id="line2d3">
<path style="fill: none; stroke: #008000; stroke-width: 1.000000; stroke-linejoin: round; stroke-linecap: square;  opacity: 1.000000" clip-path="url(#p105063337a2c10f7d81bf1ac160b5ed4)" d="M54.000000 198.076223L388.146094 198.076223L388.146094 198.076223"/>
</g>
<g id="line2d4">
<path style="fill: none; stroke: #ff0000; stroke-width: 1.000000; stroke-linejoin: round; stroke-linecap: square;  opacity: 1.000000" clip-path="url(#p105063337a2c10f7d81bf1ac160b5ed4)" d="M54.000000 166.302998L388.146094 166.302998L388.146094 166.302998"/>
</g>
<g id="matplotlib.axis1">
<g id="xtick1">
<g id="line2d5">
<path style="fill: none; stroke: #000000; stroke-width: 0.500000; stroke-linejoin: round; stroke-linecap: butt; stroke-dasharray: 1.000000,3.000000; stroke-dashoffset: 0.000000; opacity: 1.000000" clip-path="url(#p105063337a2c10f7d81bf1ac160b5ed4)" d="M54.000000 388.800000L54.000000 43.200000"/>
</g>
<g id="line2d6">
<defs><path id="m30e32995789d870ad79a2e54c91cf9c6" d="M0.000000 0.000000L0.000000 -4.000000"/></defs>
<g ><use style="fill: none; stroke: #000000; stroke-width: 0.500000; stroke-linejoin: round; stroke-linecap: butt;  opacity: 1.000000" xlink:href="#m30e32995789d870ad79a2e54c91cf9c6" x="54.000000" y="388.800000"/>
</g></g>
<g id="line2d7">
<defs><path id="m9281cae24120827b11d5ea8a7ad3e96b" d="M0.000000 0.000000L0.000000 4.000000"/></defs>
<g ><use style="fill: none; stroke: #000000; stroke-width: 0.500000; stroke-linejoin: round; stroke-linecap: butt;  opacity: 1.000000" xlink:href="#m9281cae24120827b11d5ea8a7ad3e96b" x="54.000000" y="43.200000"/>
</g></g>
<g id="text1">
<defs>
<path id="c_7b26b13f539f13a4c64eef23b6952d29" d="M4.890625 -31.390625l26.312500 0.000000l0.000000 8.000000l-26.312500 0.000000z"/>
<path id="c_dc1dfbded6c1a708bd2ce45e5309b560" d="M10.109375 -1.703125q0.000000 -0.546875 0.390625 -1.625000q2.781250 -5.796875 5.187500 -11.390625q2.421875 -5.593750 4.343750 -10.890625q1.937500 -5.296875 3.546875 -11.312500l-6.390625 0.000000q-3.656250 0.000000 -6.843750 2.296875q-3.171875 2.296875 -5.265625 5.812500q-0.187500 0.390625 -0.578125 0.390625l-1.171875 0.000000q-0.937500 0.000000 -0.937500 -0.968750q0.000000 -0.203125 0.203125 -0.593750q3.265625 -5.562500 7.000000 -9.343750q3.734375 -3.781250 8.421875 -3.781250l36.281250 0.000000q1.031250 0.000000 1.750000 0.687500q0.734375 0.671875 0.734375 1.843750q0.000000 1.468750 -1.046875 2.562500q-1.046875 1.093750 -2.515625 1.093750l-12.734375 0.000000q-1.609375 7.875000 -1.765625 15.343750q0.000000 9.609375 3.375000 17.375000q0.296875 0.593750 0.296875 1.218750q0.000000 1.078125 -0.640625 2.015625q-0.640625 0.921875 -1.640625 1.500000q-1.000000 0.593750 -2.125000 0.593750q-2.625000 0.000000 -3.609375 -4.296875q-0.968750 -4.296875 -0.968750 -8.359375q0.000000 -5.703125 0.968750 -11.000000q0.984375 -5.296875 3.125000 -14.390625l-10.890625 0.000000q-7.906250 32.031250 -9.515625 35.312500q-1.421875 2.734375 -3.906250 2.734375q-1.218750 0.000000 -2.156250 -0.812500q-0.921875 -0.796875 -0.921875 -2.015625"/>
<path id="c_62db141412f5d9d8ddcda81385ac812d" d="M5.609375 23.000000q0.000000 -0.296875 0.109375 -0.390625l34.765625 -96.390625q0.187500 -0.578125 0.671875 -0.890625q0.500000 -0.328125 1.125000 -0.328125q0.890625 0.000000 1.437500 0.546875q0.562500 0.531250 0.562500 1.453125l0.000000 0.390625l-34.765625 96.390625q-0.578125 1.218750 -1.890625 1.218750q-0.843750 0.000000 -1.437500 -0.593750q-0.578125 -0.578125 -0.578125 -1.406250"/>
<path id="c_1210e7f4d85518601ea3049211d562d0" d="M4.984375 -0.000000l0.000000 -2.687500q0.000000 -0.250000 0.187500 -0.531250l15.531250 -17.187500q3.515625 -3.812500 5.703125 -6.390625q2.203125 -2.593750 4.343750 -5.968750q2.156250 -3.375000 3.406250 -6.859375q1.250000 -3.484375 1.250000 -7.390625q0.000000 -4.109375 -1.515625 -7.843750q-1.515625 -3.734375 -4.515625 -5.984375q-3.000000 -2.250000 -7.250000 -2.250000q-4.343750 0.000000 -7.812500 2.625000q-3.468750 2.609375 -4.890625 6.750000q0.390625 -0.093750 1.078125 -0.093750q2.250000 0.000000 3.828125 1.515625q1.593750 1.515625 1.593750 3.906250q0.000000 2.296875 -1.593750 3.890625q-1.578125 1.578125 -3.828125 1.578125q-2.343750 0.000000 -3.937500 -1.625000q-1.578125 -1.640625 -1.578125 -3.843750q0.000000 -3.765625 1.406250 -7.046875q1.421875 -3.296875 4.078125 -5.859375q2.671875 -2.578125 6.015625 -3.937500q3.343750 -1.375000 7.093750 -1.375000q5.718750 0.000000 10.640625 2.421875q4.937500 2.421875 7.812500 6.843750q2.890625 4.406250 2.890625 10.328125q0.000000 4.343750 -1.906250 8.250000q-1.906250 3.906250 -4.890625 7.109375q-2.968750 3.187500 -7.609375 7.250000q-4.640625 4.046875 -6.093750 5.406250l-11.328125 10.890625l9.609375 0.000000q7.078125 0.000000 11.843750 -0.109375q4.765625 -0.125000 5.046875 -0.375000q1.171875 -1.265625 2.406250 -9.234375l2.921875 0.000000l-2.828125 17.828125z"/>
</defs>
<g id="mathtext1">
<g style="fill: #000000" transform="translate(42.000000,404.800000)">
<use xlink:href="#c_7b26b13f539f13a4c64eef23b6952d29" transform="translate(0.000000,-3.000000)scale(0.120000)"/>
<use xlink:href="#c_dc1dfbded6c1a708bd2ce45e5309b560" transform="translate(4.330078,-3.000000)scale(0.120000)"/>
<use xlink:href="#c_62db141412f5d9d8ddcda81385ac812d" transform="translate(11.167969,-3.000000)scale(0.120000)"/>
<use xlink:href="#c_1210e7f4d85518601ea3049211d562d0" transform="translate(17.167969,-3.000000)scale(0.120000)"/>
</g>
</g>
</g>
</g>
<g id="xtick2">
<g id="line2d8">
<path style="fill: none; stroke: #000000; stroke-width: 0.500000; stroke-linejoin: round; stroke-linecap: butt; stroke-dasharray: 1.000000,3.000000; stroke-dashoffset: 0.000000; opacity: 1.000000" clip-path="url(#p105063337a2c10f7d81bf1ac160b5ed4)" d="M137.700000 388.800000L137.700000 43.200000"/>
</g>
<g id="line2d9">
<g ><use style="fill: none; stroke: #000000; stroke-width: 0.500000; stroke-linejoin: round; stroke-linecap: butt;  opacity: 1.000000" xlink:href="#m30e32995789d870ad79a2e54c91cf9c6" x="137.700000" y="388.800000"/>
</g></g>
<g id="line2d10">
<g ><use style="fill: none; stroke: #000000; stroke-width: 0.500000; stroke-linejoin: round; stroke-linecap: butt;  opacity: 1.000000" xlink:href="#m9281cae24120827b11d5ea8a7ad3e96b" x="137.700000" y="43.200000"/>
</g></g>
<g id="text2">
<defs>
<path id="c_61c20b1e4c944de7566e5fda525fb070" d="M10.203125 -23.000000q-0.828125 0.000000 -1.375000 -0.625000q-0.531250 -0.640625 -0.531250 -1.375000q0.000000 -0.734375 0.531250 -1.359375q0.546875 -0.640625 1.375000 -0.640625l57.375000 0.000000q0.781250 0.000000 1.296875 0.640625q0.515625 0.625000 0.515625 1.359375q0.000000 0.734375 -0.515625 1.375000q-0.515625 0.625000 -1.296875 0.625000z"/>
<path id="c_f6bfecfef5ea966626c74db776cc6a54" d="M2.781250 -16.500000l0.000000 -3.515625l30.906250 -46.093750q0.343750 -0.500000 1.031250 -0.500000l1.468750 0.000000q1.125000 0.000000 1.125000 1.125000l0.000000 45.468750l9.812500 0.000000l0.000000 3.515625l-9.812500 0.000000l0.000000 9.812500q0.000000 2.046875 2.921875 2.609375q2.937500 0.562500 6.781250 0.562500l0.000000 3.515625l-27.531250 0.000000l0.000000 -3.515625q3.859375 0.000000 6.781250 -0.562500q2.937500 -0.562500 2.937500 -2.609375l0.000000 -9.812500zM6.109375 -20.015625l23.671875 0.000000l0.000000 -35.406250z"/>
</defs>
<g id="mathtext2">
<g style="fill: #000000" transform="translate(123.200000,404.800000)">
<use xlink:href="#c_61c20b1e4c944de7566e5fda525fb070" transform="translate(0.000000,-3.000000)scale(0.120000)"/>
<use xlink:href="#c_dc1dfbded6c1a708bd2ce45e5309b560" transform="translate(9.322266,-3.000000)scale(0.120000)"/>
<use xlink:href="#c_62db141412f5d9d8ddcda81385ac812d" transform="translate(16.160156,-3.000000)scale(0.120000)"/>
<use xlink:href="#c_f6bfecfef5ea966626c74db776cc6a54" transform="translate(22.160156,-3.000000)scale(0.120000)"/>
</g>
</g>
</g>
</g>
<g id="xtick3">
<g id="line2d11">
<path style="fill: none; stroke: #000000; stroke-width: 0.500000; stroke-linejoin: round; stroke-linecap: butt; stroke-dasharray: 1.000000,3.000000; stroke-dashoffset: 0.000000; opacity: 1.000000" clip-path="url(#p105063337a2c10f7d81bf1ac160b5ed4)" d="M221.400000 388.800000L221.400000 43.200000"/>
</g>
<g id="line2d12">
<g ><use style="fill: none; stroke: #000000; stroke-width: 0.500000; stroke-linejoin: round; stroke-linecap: butt;  opacity: 1.000000" xlink:href="#m30e32995789d870ad79a2e54c91cf9c6" x="221.400000" y="388.800000"/>
</g></g>
<g id="line2d13">
<g ><use style="fill: none; stroke: #000000; stroke-width: 0.500000; stroke-linejoin: round; stroke-linecap: butt;  opacity: 1.000000" xlink:href="#m9281cae24120827b11d5ea8a7ad3e96b" x="221.400000" y="43.200000"/>
</g></g>
<g id="text3">
<defs>
<path id="c_f47f2818876b2f1a61c47f270461e46e" d="M25.000000 2.203125q-12.250000 0.000000 -16.671875 -10.078125q-4.421875 -10.093750 -4.421875 -24.015625q0.000000 -8.687500 1.578125 -16.343750q1.593750 -7.671875 6.296875 -13.015625q4.718750 -5.359375 13.218750 -5.359375q6.593750 0.000000 10.781250 3.234375q4.203125 3.218750 6.406250 8.328125q2.203125 5.093750 3.000000 10.937500q0.812500 5.828125 0.812500 12.218750q0.000000 8.593750 -1.593750 16.093750q-1.578125 7.500000 -6.218750 12.750000q-4.640625 5.250000 -13.187500 5.250000M25.000000 -0.390625q5.562500 0.000000 8.296875 -5.703125q2.734375 -5.718750 3.375000 -12.656250q0.640625 -6.937500 0.640625 -14.750000q0.000000 -7.515625 -0.640625 -13.859375q-0.640625 -6.359375 -3.359375 -11.500000q-2.703125 -5.156250 -8.312500 -5.156250q-5.656250 0.000000 -8.390625 5.187500q-2.734375 5.171875 -3.375000 11.500000q-0.640625 6.312500 -0.640625 13.828125q0.000000 5.562500 0.265625 10.500000q0.281250 4.937500 1.453125 10.187500q1.171875 5.250000 3.781250 8.843750q2.609375 3.578125 6.906250 3.578125"/>
</defs>
<g id="mathtext3">
<g style="fill: #000000" transform="translate(218.400000,401.800000)">
<use xlink:href="#c_f47f2818876b2f1a61c47f270461e46e" transform="translate(0.000000,-1.000000)scale(0.120000)"/>
</g>
</g>
</g>
</g>
<g id="xtick4">
<g id="line2d14">
<path style="fill: none; stroke: #000000; stroke-width: 0.500000; stroke-linejoin: round; stroke-linecap: butt; stroke-dasharray: 1.000000,3.000000; stroke-dashoffset: 0.000000; opacity: 1.000000" clip-path="url(#p105063337a2c10f7d81bf1ac160b5ed4)" d="M305.100000 388.800000L305.100000 43.200000"/>
</g>
<g id="line2d15">
<g ><use style="fill: none; stroke: #000000; stroke-width: 0.500000; stroke-linejoin: round; stroke-linecap: butt;  opacity: 1.000000" xlink:href="#m30e32995789d870ad79a2e54c91cf9c6" x="305.100000" y="388.800000"/>
</g></g>
<g id="line2d16">
<g ><use style="fill: none; stroke: #000000; stroke-width: 0.500000; stroke-linejoin: round; stroke-linecap: butt;  opacity: 1.000000" xlink:href="#m9281cae24120827b11d5ea8a7ad3e96b" x="305.100000" y="43.200000"/>
</g></g>
<g id="text4">
<defs>
<path id="c_6a3a612567bb59e037cbf13158797929" d="M7.515625 -23.000000q-0.828125 0.000000 -1.375000 -0.625000q-0.531250 -0.640625 -0.531250 -1.375000q0.000000 -0.734375 0.531250 -1.359375q0.546875 -0.640625 1.375000 -0.640625l29.406250 0.000000l0.000000 -29.500000q0.000000 -0.781250 0.578125 -1.281250q0.593750 -0.515625 1.421875 -0.515625q0.734375 0.000000 1.359375 0.515625q0.640625 0.500000 0.640625 1.281250l0.000000 29.500000l29.390625 0.000000q0.734375 0.000000 1.265625 0.640625q0.546875 0.625000 0.546875 1.359375q0.000000 0.734375 -0.546875 1.375000q-0.531250 0.625000 -1.265625 0.625000l-29.390625 0.000000l0.000000 29.500000q0.000000 0.781250 -0.640625 1.281250q-0.625000 0.515625 -1.359375 0.515625q-0.828125 0.000000 -1.421875 -0.515625q-0.578125 -0.500000 -0.578125 -1.281250l0.000000 -29.500000z"/>
</defs>
<g id="mathtext4">
<g style="fill: #000000" transform="translate(289.100000,404.800000)">
<use xlink:href="#c_6a3a612567bb59e037cbf13158797929" transform="translate(2.107031,-3.000000)scale(0.120000)"/>
<use xlink:href="#c_dc1dfbded6c1a708bd2ce45e5309b560" transform="translate(12.182813,-3.000000)scale(0.120000)"/>
<use xlink:href="#c_62db141412f5d9d8ddcda81385ac812d" transform="translate(19.020703,-3.000000)scale(0.120000)"/>
<use xlink:href="#c_f6bfecfef5ea966626c74db776cc6a54" transform="translate(25.020703,-3.000000)scale(0.120000)"/>
</g>
</g>
</g>
</g>
</g>
<g id="matplotlib.axis2">
<g id="ytick1">
<g id="line2d17">
<path style="fill: none; stroke: #000000; stroke-width: 0.500000; stroke-linejoin: round; stroke-linecap: butt; stroke-dasharray: 1.000000,3.000000; stroke-dashoffset: 0.000000; opacity: 1.000000" clip-path="url(#p105063337a2c10f7d81bf1ac160b5ed4)" d="M54.000000 388.800000L388.800000 388.800000"/>
</g>
<g id="line2d18">
<defs><path id="m3400efa6b1638b3fea9e19e898273957" d="M0.000000 0.000000L4.000000 0.000000"/></defs>
<g ><use style="fill: none; stroke: #000000; stroke-width: 0.500000; stroke-linejoin: round; stroke-linecap: butt;  opacity: 1.000000" xlink:href="#m3400efa6b1638b3fea9e19e898273957" x="54.000000" y="388.800000"/>
</g></g>
<g id="line2d19">
<defs><path id="m20b58b2501143cb5e0a5e8f1ef6f1643" d="M0.000000 0.000000L-4.000000 0.000000"/></defs>
<g ><use style="fill: none; stroke: #000000; stroke-width: 0.500000; stroke-linejoin: round; stroke-linecap: butt;  opacity: 1.000000" xlink:href="#m20b58b2501143cb5e0a5e8f1ef6f1643" x="388.800000" y="388.800000"/>
</g></g>
<g id="text5">
<defs>
<path id="c_7a2040fe3b94fcd41d0a72c84e93b115" d="M31.781250 -66.406250q-7.609375 0.000000 -11.453125 7.500000q-3.828125 7.484375 -3.828125 22.531250q0.000000 14.984375 3.828125 22.484375q3.843750 7.500000 11.453125 7.500000q7.671875 0.000000 11.500000 -7.500000q3.843750 -7.500000 3.843750 -22.484375q0.000000 -15.046875 -3.843750 -22.531250q-3.828125 -7.500000 -11.500000 -7.500000M31.781250 -74.218750q12.265625 0.000000 18.734375 9.703125q6.468750 9.687500 6.468750 28.140625q0.000000 18.406250 -6.468750 28.109375q-6.468750 9.687500 -18.734375 9.687500q-12.250000 0.000000 -18.718750 -9.687500q-6.468750 -9.703125 -6.468750 -28.109375q0.000000 -18.453125 6.468750 -28.140625q6.468750 -9.703125 18.718750 -9.703125"/>
<path id="c_ed3e21196fb739f392806f09ca0594ef" d="M10.687500 -12.406250l10.312500 0.000000l0.000000 12.406250l-10.312500 0.000000z"/>
</defs>
<g style="fill: #000000; opacity: 1.000000" transform="translate(24.859375,393.167188)scale(0.120000)">
<use xlink:href="#c_7a2040fe3b94fcd41d0a72c84e93b115"/>
<use xlink:href="#c_ed3e21196fb739f392806f09ca0594ef" x="63.623047"/>
<use xlink:href="#c_7a2040fe3b94fcd41d0a72c84e93b115" x="95.410156"/>
<use xlink:href="#c_7a2040fe3b94fcd41d0a72c84e93b115" x="159.033203"/>
</g>
</g>
</g>
<g id="ytick2">
<g id="line2d20">
<path style="fill: none; stroke: #000000; stroke-width: 0.500000; stroke-linejoin: round; stroke-linecap: butt; stroke-dasharray: 1.000000,3.000000; stroke-dashoffset: 0.000000; opacity: 1.000000" clip-path="url(#p105063337a2c10f7d81bf1ac160b5ed4)" d="M54.000000 310.254545L388.800000 310.254545"/>
</g>
<g id="line2d21">
<g ><use style="fill: none; stroke: #000000; stroke-width: 0.500000; stroke-linejoin: round; stroke-linecap: butt;  opacity: 1.000000" xlink:href="#m3400efa6b1638b3fea9e19e898273957" x="54.000000" y="310.254545"/>
</g></g>
<g id="line2d22">
<g ><use style="fill: none; stroke: #000000; stroke-width: 0.500000; stroke-linejoin: round; stroke-linecap: butt;  opacity: 1.000000" xlink:href="#m20b58b2501143cb5e0a5e8f1ef6f1643" x="388.800000" y="310.254545"/>
</g></g>
<g id="text6">
<defs>
<path id="c_1260a2df50f305f3db244e29828f968e" d="M10.796875 -72.906250l38.718750 0.000000l0.000000 8.312500l-29.687500 0.000000l0.000000 17.859375q2.140625 -0.734375 4.281250 -1.093750q2.156250 -0.359375 4.312500 -0.359375q12.203125 0.000000 19.328125 6.687500q7.140625 6.687500 7.140625 18.109375q0.000000 11.765625 -7.328125 18.296875q-7.328125 6.515625 -20.656250 6.515625q-4.593750 0.000000 -9.359375 -0.781250q-4.750000 -0.781250 -9.828125 -2.343750l0.000000 -9.921875q4.390625 2.390625 9.078125 3.562500q4.687500 1.171875 9.906250 1.171875q8.453125 0.000000 13.375000 -4.437500q4.937500 -4.437500 4.937500 -12.062500q0.000000 -7.609375 -4.937500 -12.046875q-4.921875 -4.453125 -13.375000 -4.453125q-3.953125 0.000000 -7.890625 0.875000q-3.921875 0.875000 -8.015625 2.734375z"/>
</defs>
<g style="fill: #000000; opacity: 1.000000" transform="translate(25.109375,314.621733)scale(0.120000)">
<use xlink:href="#c_7a2040fe3b94fcd41d0a72c84e93b115"/>
<use xlink:href="#c_ed3e21196fb739f392806f09ca0594ef" x="63.623047"/>
<use xlink:href="#c_7a2040fe3b94fcd41d0a72c84e93b115" x="95.410156"/>
<use xlink:href="#c_1260a2df50f305f3db244e29828f968e" x="159.033203"/>
</g>
</g>
</g>
<g id="ytick3">
<g id="line2d23">
<path style="fill: none; stroke: #000000; stroke-width: 0.500000; stroke-linejoin: round; stroke-linecap: butt; stroke-dasharray: 1.000000,3.000000; stroke-dashoffset: 0.000000; opacity: 1.000000" clip-path="url(#p105063337a2c10f7d81bf1ac160b5ed4)" d="M54.000000 231.709091L388.800000 231.709091"/>
</g>
<g id="line2d24">
<g ><use style="fill: none; stroke: #000000; stroke-width: 0.500000; stroke-linejoin: round; stroke-linecap: butt;  opacity: 1.000000" xlink:href="#m3400efa6b1638b3fea9e19e898273957" x="54.000000" y="231.709091"/>
</g></g>
<g id="line2d25">
<g ><use style="fill: none; stroke: #000000; stroke-width: 0.500000; stroke-linejoin: round; stroke-linecap: butt;  opacity: 1.000000" xlink:href="#m20b58b2501143cb5e0a5e8f1ef6f1643" x="388.800000" y="231.709091"/>
</g></g>
<g id="text7">
<defs>
<path id="c_42baa63129a918535c52adb20d687ea7" d="M12.406250 -8.296875l16.109375 0.000000l0.000000 -55.625000l-17.531250 3.515625l0.000000 -8.984375l17.437500 -3.515625l9.859375 0.000000l0.000000 64.609375l16.109375 0.000000l0.000000 8.296875l-41.984375 0.000000z"/>
</defs>
<g style="fill: #000000; opacity: 1.000000" transform="translate(24.859375,236.076278)scale(0.120000)">
<use xlink:href="#c_7a2040fe3b94fcd41d0a72c84e93b115"/>
<use xlink:href="#c_ed3e21196fb739f392806f09ca0594ef" x="63.623047"/>
<use xlink:href="#c_42baa63129a918535c52adb20d687ea7" x="95.410156"/>
<use xlink:href="#c_7a2040fe3b94fcd41d0a72c84e93b115" x="159.033203"/>
</g>
</g>
</g>
<g id="ytick4">
<g id="line2d26">
<path style="fill: none; stroke: #000000; stroke-width: 0.500000; stroke-linejoin: round; stroke-linecap: butt; stroke-dasharray: 1.000000,3.000000; stroke-dashoffset: 0.000000; opacity: 1.000000" clip-path="url(#p105063337a2c10f7d81bf1ac160b5ed4)" d="M54.000000 153.163636L388.800000 153.163636"/>
</g>
<g id="line2d27">
<g ><use style="fill: none; stroke: #000000; stroke-width: 0.500000; stroke-linejoin: round; stroke-linecap: butt;  opacity: 1.000000" xlink:href="#m3400efa6b1638b3fea9e19e898273957" x="54.000000" y="153.163636"/>
</g></g>
<g id="line2d28">
<g ><use style="fill: none; stroke: #000000; stroke-width: 0.500000; stroke-linejoin: round; stroke-linecap: butt;  opacity: 1.000000" xlink:href="#m20b58b2501143cb5e0a5e8f1ef6f1643" x="388.800000" y="153.163636"/>
</g></g>
<g id="text8">
<g style="fill: #000000; opacity: 1.000000" transform="translate(25.109375,157.530824)scale(0.120000)">
<use xlink:href="#c_7a2040fe3b94fcd41d0a72c84e93b115"/>
<use xlink:href="#c_ed3e21196fb739f392806f09ca0594ef" x="63.623047"/>
<use xlink:href="#c_42baa63129a918535c52adb20d687ea7" x="95.410156"/>
<use xlink:href="#c_1260a2df50f305f3db244e29828f968e" x="159.033203"/>
</g>
</g>
</g>
<g id="ytick5">
<g id="line2d29">
<path style="fill: none; stroke: #000000; stroke-width: 0.500000; stroke-linejoin: round; stroke-linecap: butt; stroke-dasharray: 1.000000,3.000000; stroke-dashoffset: 0.000000; opacity: 1.000000" clip-path="url(#p105063337a2c10f7d81bf1ac160b5ed4)" d="M54.000000 74.618182L388.800000 74.618182"/>
</g>
<g id="line2d30">
<g ><use style="fill: none; stroke: #000000; stroke-width: 0.500000; stroke-linejoin: round; stroke-linecap: butt;  opacity: 1.000000" xlink:href="#m3400efa6b1638b3fea9e19e898273957" x="54.000000" y="74.618182"/>
</g></g>
<g id="line2d31">
<g ><use style="fill: none; stroke: #000000; stroke-width: 0.500000; stroke-linejoin: round; stroke-linecap: butt;  opacity: 1.000000" xlink:href="#m20b58b2501143cb5e0a5e8f1ef6f1643" x="388.800000" y="74.618182"/>
</g></g>
<g id="text9">
<defs>
<path id="c_ed3f3ed3ebfbd18bcb9c012009a68ad1" d="M19.187500 -8.296875l34.421875 0.000000l0.000000 8.296875l-46.281250 0.000000l0.000000 -8.296875q5.609375 -5.812500 15.296875 -15.593750q9.703125 -9.796875 12.187500 -12.640625q4.734375 -5.312500 6.609375 -9.000000q1.890625 -3.687500 1.890625 -7.250000q0.000000 -5.812500 -4.078125 -9.468750q-4.078125 -3.671875 -10.625000 -3.671875q-4.640625 0.000000 -9.796875 1.609375q-5.140625 1.609375 -11.000000 4.890625l0.000000 -9.968750q5.953125 -2.390625 11.125000 -3.609375q5.187500 -1.218750 9.484375 -1.218750q11.328125 0.000000 18.062500 5.671875q6.734375 5.656250 6.734375 15.125000q0.000000 4.500000 -1.687500 8.531250q-1.671875 4.015625 -6.125000 9.484375q-1.218750 1.421875 -7.765625 8.187500q-6.531250 6.765625 -18.453125 18.921875"/>
</defs>
<g style="fill: #000000; opacity: 1.000000" transform="translate(24.859375,78.985369)scale(0.120000)">
<use xlink:href="#c_7a2040fe3b94fcd41d0a72c84e93b115"/>
<use xlink:href="#c_ed3e21196fb739f392806f09ca0594ef" x="63.623047"/>
<use xlink:href="#c_ed3f3ed3ebfbd18bcb9c012009a68ad1" x="95.410156"/>
<use xlink:href="#c_7a2040fe3b94fcd41d0a72c84e93b115" x="159.033203"/>
</g>
</g>
</g>
</g>
<g id="patch3">
<path style="fill: none; stroke: #000000; stroke-width: 1.000000; stroke-linejoin: round; stroke-linecap: square;  opacity: 1.000000"  d="M54.000000 43.200000L388.800000 43.200000"/>
</g>
<g id="patch4">
<path style="fill: none; stroke: #000000; stroke-width: 1.000000; stroke-linejoin: round; stroke-linecap: square;  opacity: 1.000000"  d="M388.800000 388.800000L388.800000 43.200000"/>
</g>
<g id="patch5">
<path style="fill: none; stroke: #000000; stroke-width: 1.000000; stroke-linejoin: round; stroke-linecap: square;  opacity: 1.000000"  d="M54.000000 388.800000L388.800000 388.800000"/>
</g>
<g id="patch6">
<path style="fill: none; stroke: #000000; stroke-width: 1.000000; stroke-linejoin: round; stroke-linecap: square;  opacity: 1.000000"  d="M54.000000 388.800000L54.000000 43.200000"/>
</g>
<g id="text10">
<g style="fill: #000000; opacity: 1.000000" transform="translate(388.800000,388.800000)scale(0.172800)">
</g>
<defs>
<path id="c_ff49bdd6e7fe13d289da70d262cdf847" d="M16.109375 1.125000q-4.531250 0.000000 -7.265625 -3.312500q-2.734375 -3.328125 -3.796875 -8.015625q-1.046875 -4.687500 -1.046875 -9.281250l0.000000 -0.093750q0.000000 -4.984375 0.953125 -10.343750q0.953125 -5.375000 2.750000 -10.718750q1.812500 -5.359375 3.921875 -9.562500q1.468750 -2.921875 3.781250 -6.531250q2.312500 -3.625000 5.171875 -6.765625q2.859375 -3.156250 6.156250 -5.078125q3.296875 -1.937500 6.671875 -1.937500l0.093750 0.000000q3.609375 0.000000 6.015625 2.015625q2.421875 2.000000 3.765625 5.125000q1.343750 3.125000 1.875000 6.687500q0.546875 3.562500 0.546875 6.781250q0.000000 7.578125 -2.046875 15.468750q-2.046875 7.875000 -5.671875 15.250000q-1.359375 2.781250 -3.781250 6.546875q-2.421875 3.750000 -5.125000 6.734375q-2.703125 2.968750 -6.078125 5.000000q-3.375000 2.031250 -6.781250 2.031250zM16.312500 -1.515625q3.312500 0.000000 6.359375 -3.531250q3.062500 -3.546875 5.359375 -8.593750q2.296875 -5.062500 4.031250 -10.359375q1.734375 -5.296875 2.562500 -9.015625l-20.421875 0.000000q-1.562500 6.312500 -2.437500 10.875000q-0.875000 4.562500 -0.875000 8.953125q0.000000 11.671875 5.421875 11.671875M14.984375 -36.531250l20.515625 0.000000q1.078125 -4.390625 1.703125 -7.343750q0.640625 -2.953125 1.078125 -6.218750q0.437500 -3.281250 0.437500 -6.109375q0.000000 -11.718750 -5.312500 -11.718750q-6.359375 0.000000 -10.968750 10.234375q-4.609375 10.218750 -7.453125 21.156250"/>
<path id="c_439964be9e9f5a11ea84f1c0bd1fc39b" d="M7.718750 -1.703125q0.000000 -0.593750 0.093750 -0.890625l7.468750 -29.828125q0.734375 -2.781250 0.734375 -4.890625q0.000000 -4.296875 -2.921875 -4.296875q-3.125000 0.000000 -4.640625 3.750000q-1.515625 3.734375 -2.937500 9.437500q0.000000 0.296875 -0.296875 0.468750q-0.281250 0.171875 -0.531250 0.171875l-1.171875 0.000000q-0.343750 0.000000 -0.593750 -0.359375q-0.234375 -0.375000 -0.234375 -0.671875q1.078125 -4.343750 2.078125 -7.359375q1.000000 -3.031250 3.125000 -5.515625q2.125000 -2.500000 5.296875 -2.500000q3.468750 0.000000 6.078125 2.000000q2.609375 2.000000 3.250000 5.265625q2.531250 -3.312500 5.781250 -5.281250q3.250000 -1.984375 7.109375 -1.984375q3.171875 0.000000 5.578125 1.859375q2.421875 1.843750 2.421875 5.015625q0.000000 2.546875 -1.593750 4.437500q-1.578125 1.875000 -4.218750 1.875000q-1.609375 0.000000 -2.703125 -1.000000q-1.093750 -1.015625 -1.093750 -2.625000q0.000000 -2.187500 1.609375 -3.921875q1.609375 -1.734375 3.703125 -1.734375q-1.609375 -1.328125 -3.906250 -1.328125q-4.296875 0.000000 -7.468750 3.062500q-3.171875 3.046875 -5.718750 7.734375l-7.125000 28.609375q-0.343750 1.375000 -1.546875 2.343750q-1.187500 0.984375 -2.656250 0.984375q-1.218750 0.000000 -2.093750 -0.781250q-0.875000 -0.781250 -0.875000 -2.046875"/>
</defs>
<g id="mathtext5">
<g style="fill: #000000" transform="translate(372.800000,413.621875)">
<use xlink:href="#c_ff49bdd6e7fe13d289da70d262cdf847" transform="translate(0.000000,-5.828125)scale(0.172800)"/>
<use xlink:href="#c_439964be9e9f5a11ea84f1c0bd1fc39b" transform="translate(8.101685,-1.420105)scale(0.120960)"/>
</g>
</g>
</g>
<g id="text11">
<defs>
<path id="c_9d9fc0f5a68b3451eca65ae635b3492d" d="M4.687500 -0.000000q-0.968750 0.000000 -0.968750 -1.312500q0.046875 -0.250000 0.187500 -0.859375q0.140625 -0.609375 0.406250 -0.968750q0.281250 -0.375000 0.671875 -0.375000q6.093750 0.000000 8.500000 -0.687500q1.312500 -0.437500 1.890625 -2.687500l13.734375 -54.921875q0.187500 -0.984375 0.187500 -1.375000q0.000000 -1.078125 -1.218750 -1.218750q-1.859375 -0.390625 -7.171875 -0.390625q-0.984375 0.000000 -0.984375 -1.312500q0.343750 -1.281250 0.531250 -1.734375q0.203125 -0.468750 1.125000 -0.468750l29.546875 0.000000q0.875000 0.000000 0.875000 1.312500q-0.140625 1.031250 -0.343750 1.625000q-0.187500 0.578125 -0.968750 0.578125q-7.375000 0.000000 -9.859375 0.484375q-2.453125 0.437500 -3.031250 2.937500l-13.671875 54.875000q-0.437500 1.218750 -0.437500 2.203125q0.000000 0.781250 3.406250 0.781250l9.281250 0.000000q7.859375 0.000000 12.734375 -3.125000q4.890625 -3.125000 7.234375 -7.046875q2.343750 -3.937500 3.921875 -8.156250q1.593750 -4.234375 2.328125 -4.375000l0.890625 0.000000q1.015625 0.000000 1.015625 1.312500l-8.890625 24.218750q-0.140625 0.687500 -0.921875 0.687500z"/>
<path id="c_d41d8cd98f00b204e9800998ecf8427e" d=""/>
</defs>
<g id="mathtext6">
<g style="fill: #000000" transform="translate(28.000000,60.200000)">
<use xlink:href="#c_9d9fc0f5a68b3451eca65ae635b3492d" transform="translate(0.000000,-5.203125)scale(0.172800)"/>
<use xlink:href="#c_439964be9e9f5a11ea84f1c0bd1fc39b" transform="translate(11.743652,-0.795105)scale(0.120960)"/>
<use xlink:href="#c_d41d8cd98f00b204e9800998ecf8427e" transform="translate(19.533417,-5.203125)scale(0.172800)"/>
</g>
</g>
</g>
<g id="text12">
<defs>
<path id="c_786535fd61bcec8cdbf876618dde5ce3" d="M7.812500 -7.171875q0.000000 -1.859375 0.781250 -3.906250l8.109375 -21.546875q1.312500 -3.656250 1.312500 -6.000000q0.000000 -2.984375 -2.187500 -2.984375q-3.968750 0.000000 -6.531250 4.078125q-2.562500 4.078125 -3.781250 9.109375q-0.187500 0.640625 -0.828125 0.640625l-1.171875 0.000000q-0.828125 0.000000 -0.828125 -0.937500l0.000000 -0.281250q1.609375 -5.968750 4.921875 -10.578125q3.328125 -4.609375 8.406250 -4.609375q3.562500 0.000000 6.031250 2.343750q2.468750 2.343750 2.468750 5.953125q0.000000 1.859375 -0.828125 3.906250l-8.109375 21.484375q-1.375000 3.328125 -1.375000 6.000000q0.000000 2.984375 2.296875 2.984375q3.906250 0.000000 6.515625 -4.171875q2.625000 -4.171875 3.687500 -9.015625q0.203125 -0.578125 0.781250 -0.578125l1.234375 0.000000q0.390625 0.000000 0.625000 0.265625q0.250000 0.265625 0.250000 0.609375q0.000000 0.093750 -0.093750 0.296875q-1.375000 5.656250 -4.765625 10.453125q-3.390625 4.781250 -8.421875 4.781250q-3.515625 0.000000 -6.015625 -2.421875q-2.484375 -2.421875 -2.484375 -5.875000M19.093750 -60.593750q0.000000 -2.109375 1.750000 -3.812500q1.765625 -1.703125 3.859375 -1.703125q1.718750 0.000000 2.812500 1.046875q1.093750 1.046875 1.093750 2.656250q0.000000 2.250000 -1.781250 3.937500q-1.781250 1.687500 -3.921875 1.687500q-1.609375 0.000000 -2.718750 -1.093750q-1.093750 -1.109375 -1.093750 -2.718750"/>
<path id="c_7bbc93c01755cdeb977d08bdfb9ce616" d="M7.515625 -13.281250q-0.828125 0.000000 -1.375000 -0.625000q-0.531250 -0.640625 -0.531250 -1.375000q0.000000 -0.828125 0.531250 -1.406250q0.546875 -0.593750 1.375000 -0.593750l62.796875 0.000000q0.734375 0.000000 1.265625 0.593750q0.546875 0.578125 0.546875 1.406250q0.000000 0.734375 -0.546875 1.375000q-0.531250 0.625000 -1.265625 0.625000zM7.515625 -32.718750q-0.828125 0.000000 -1.375000 -0.578125q-0.531250 -0.593750 -0.531250 -1.421875q0.000000 -0.734375 0.531250 -1.359375q0.546875 -0.640625 1.375000 -0.640625l62.796875 0.000000q0.734375 0.000000 1.265625 0.640625q0.546875 0.625000 0.546875 1.359375q0.000000 0.828125 -0.546875 1.421875q-0.531250 0.578125 -1.265625 0.578125z"/>
<path id="c_7d09e94cce4bdf71f2297f5bbc354b76" d="M8.687500 -11.375000q1.031250 2.921875 3.156250 5.328125q2.125000 2.390625 5.031250 3.734375q2.906250 1.328125 6.031250 1.328125q7.218750 0.000000 9.953125 -5.609375q2.734375 -5.609375 2.734375 -13.625000q0.000000 -3.468750 -0.125000 -5.828125q-0.109375 -2.375000 -0.656250 -4.562500q-0.921875 -3.515625 -3.250000 -6.156250q-2.312500 -2.640625 -5.687500 -2.640625q-3.359375 0.000000 -5.781250 1.031250q-2.421875 1.015625 -3.937500 2.390625q-1.500000 1.359375 -2.671875 2.875000q-1.171875 1.515625 -1.468750 1.609375l-1.125000 0.000000q-0.250000 0.000000 -0.625000 -0.312500q-0.359375 -0.312500 -0.359375 -0.609375l0.000000 -33.406250q0.000000 -0.234375 0.312500 -0.500000q0.328125 -0.281250 0.671875 -0.281250l0.296875 0.000000q6.734375 3.234375 14.296875 3.234375q7.421875 0.000000 14.312500 -3.234375l0.296875 0.000000q0.343750 0.000000 0.625000 0.250000q0.296875 0.250000 0.296875 0.531250l0.000000 0.937500q0.000000 0.484375 -0.187500 0.484375q-3.421875 4.546875 -8.578125 7.093750q-5.156250 2.531250 -10.671875 2.531250q-4.000000 0.000000 -8.203125 -1.125000l0.000000 18.890625q3.328125 -2.687500 5.937500 -3.828125q2.609375 -1.156250 6.671875 -1.156250q5.515625 0.000000 9.875000 3.187500q4.375000 3.171875 6.718750 8.281250q2.343750 5.093750 2.343750 10.406250q0.000000 6.015625 -2.953125 11.140625q-2.953125 5.125000 -8.031250 8.156250q-5.078125 3.031250 -11.031250 3.031250q-4.937500 0.000000 -9.062500 -2.531250q-4.125000 -2.546875 -6.500000 -6.843750q-2.359375 -4.296875 -2.359375 -9.140625q0.000000 -2.250000 1.453125 -3.656250q1.468750 -1.421875 3.671875 -1.421875q2.203125 0.000000 3.687500 1.453125q1.484375 1.437500 1.484375 3.625000q0.000000 2.156250 -1.484375 3.640625q-1.484375 1.484375 -3.687500 1.484375q-0.343750 0.000000 -0.781250 -0.062500q-0.437500 -0.078125 -0.640625 -0.125000"/>
<path id="c_c5a9fef654eb9e987f621c86ed1a9b2e" d="M25.000000 -5.609375q-5.171875 0.000000 -9.640625 -2.609375q-4.468750 -2.625000 -7.109375 -7.156250q-2.640625 -4.546875 -2.640625 -9.625000q0.000000 -5.078125 2.640625 -9.609375q2.640625 -4.546875 7.109375 -7.156250q4.468750 -2.625000 9.640625 -2.625000q5.171875 0.000000 9.609375 2.640625q4.453125 2.640625 7.062500 7.156250q2.609375 4.515625 2.609375 9.593750q0.000000 5.078125 -2.609375 9.593750q-2.609375 4.515625 -7.062500 7.156250q-4.437500 2.640625 -9.609375 2.640625M25.000000 -9.625000q6.250000 0.000000 10.765625 -4.562500q4.515625 -4.562500 4.515625 -10.812500q0.000000 -4.000000 -2.078125 -7.593750q-2.062500 -3.593750 -5.578125 -5.687500q-3.515625 -2.093750 -7.625000 -2.093750q-3.078125 0.000000 -5.859375 1.203125q-2.781250 1.187500 -4.984375 3.390625q-2.187500 2.187500 -3.359375 4.953125q-1.171875 2.750000 -1.171875 5.828125q0.000000 6.250000 4.515625 10.812500q4.515625 4.562500 10.859375 4.562500"/>
<path id="c_01bd98e0cf1b355b13e73042b8c9bdee" d="M9.906250 18.015625q0.000000 -0.437500 0.390625 -0.828125q3.625000 -3.468750 5.625000 -8.015625q2.000000 -4.531250 2.000000 -9.562500l0.000000 -1.218750q-1.609375 1.609375 -4.000000 1.609375q-2.296875 0.000000 -3.906250 -1.609375q-1.609375 -1.609375 -1.609375 -3.906250q0.000000 -2.343750 1.609375 -3.906250q1.609375 -1.562500 3.906250 -1.562500q3.562500 0.000000 5.078125 3.296875q1.515625 3.296875 1.515625 7.296875q0.000000 5.562500 -2.234375 10.562500q-2.218750 5.015625 -6.265625 9.015625q-0.390625 0.203125 -0.640625 0.203125q-0.484375 0.000000 -0.984375 -0.453125q-0.484375 -0.437500 -0.484375 -0.921875"/>
<path id="c_eb1e92470a4110d909865a24321813de" d="M19.390625 19.484375l4.484375 -18.062500q-5.078125 0.000000 -9.468750 -2.375000q-4.390625 -2.375000 -7.062500 -6.609375q-2.656250 -4.250000 -2.656250 -9.234375q0.000000 -5.421875 2.687500 -10.343750q2.687500 -4.937500 7.343750 -8.968750q4.671875 -4.031250 10.031250 -6.203125q5.375000 -2.171875 10.656250 -2.171875l6.000000 -24.312500q0.203125 -0.593750 0.781250 -0.593750l1.218750 0.000000q0.390625 0.000000 0.625000 0.343750q0.250000 0.343750 0.250000 0.640625l-6.000000 23.921875q3.765625 0.000000 7.281250 1.375000q3.515625 1.359375 6.218750 3.828125q2.718750 2.468750 4.218750 5.812500q1.515625 3.343750 1.515625 7.156250q0.000000 5.406250 -2.687500 10.343750q-2.671875 4.937500 -7.218750 8.890625q-4.546875 3.953125 -10.140625 6.234375q-5.578125 2.265625 -10.656250 2.265625l-4.593750 18.500000q-0.203125 0.593750 -0.828125 0.593750l-1.171875 0.000000q-0.390625 0.000000 -0.609375 -0.375000q-0.218750 -0.359375 -0.218750 -0.656250M24.515625 -1.218750l10.203125 -40.671875q-2.546875 0.000000 -5.328125 1.031250q-2.781250 1.015625 -5.250000 2.578125q-2.453125 1.562500 -4.468750 3.562500q-2.437500 2.437500 -4.296875 5.765625q-1.843750 3.312500 -2.796875 7.000000q-0.953125 3.687500 -0.953125 7.250000q0.000000 3.765625 1.609375 6.843750q1.609375 3.078125 4.531250 4.859375q2.937500 1.781250 6.750000 1.781250M27.484375 -1.218750q3.765625 0.000000 8.015625 -2.140625q4.250000 -2.156250 6.984375 -5.046875q3.750000 -3.703125 5.921875 -9.093750q2.187500 -5.406250 2.187500 -10.921875q0.000000 -3.703125 -1.625000 -6.796875q-1.609375 -3.109375 -4.546875 -4.890625q-2.921875 -1.781250 -6.718750 -1.781250z"/>
<path id="c_6733a1659a14e49f8feaf83505a1ef98" d="M11.281250 -4.203125q2.734375 3.218750 9.515625 3.218750q3.812500 0.000000 7.109375 -2.578125q3.296875 -2.593750 5.109375 -6.343750q2.093750 -4.250000 2.671875 -9.062500q0.593750 -4.812500 0.593750 -11.937500q-1.703125 4.046875 -4.906250 6.640625q-3.203125 2.578125 -7.343750 2.578125q-5.812500 0.000000 -10.390625 -3.140625q-4.562500 -3.156250 -7.000000 -8.296875q-2.437500 -5.156250 -2.437500 -10.968750q0.000000 -6.000000 2.734375 -11.203125q2.734375 -5.203125 7.562500 -8.250000q4.843750 -3.062500 10.984375 -3.062500q6.062500 0.000000 10.140625 3.296875q4.078125 3.296875 6.218750 8.500000q2.156250 5.203125 3.000000 11.015625q0.859375 5.812500 0.859375 11.468750q0.000000 7.718750 -2.828125 15.750000q-2.828125 8.031250 -8.468750 13.406250q-5.640625 5.375000 -13.609375 5.375000q-5.906250 0.000000 -10.015625 -2.781250q-4.093750 -2.796875 -4.093750 -8.406250q0.000000 -2.046875 1.390625 -3.437500q1.390625 -1.390625 3.453125 -1.390625q2.000000 0.000000 3.390625 1.390625q1.390625 1.390625 1.390625 3.437500q0.000000 1.953125 -1.421875 3.375000q-1.406250 1.406250 -3.359375 1.406250zM24.421875 -24.312500q4.093750 0.000000 6.703125 -2.750000q2.609375 -2.765625 3.781250 -6.859375q1.171875 -4.109375 1.171875 -8.171875l0.000000 -1.906250l0.000000 -0.390625q0.000000 -7.515625 -2.203125 -13.421875q-2.187500 -5.906250 -8.390625 -5.906250q-3.953125 0.000000 -6.421875 1.734375q-2.453125 1.734375 -3.625000 4.609375q-1.171875 2.875000 -1.500000 6.156250q-0.312500 3.265625 -0.312500 7.125000q0.000000 5.671875 0.531250 9.671875q0.546875 4.000000 2.937500 7.062500q2.390625 3.046875 7.328125 3.046875"/>
</defs>
<g id="mathtext7">
<g style="fill: #000000" transform="translate(155.400000,43.200000)">
<use xlink:href="#c_ff49bdd6e7fe13d289da70d262cdf847" transform="translate(0.000000,-5.293925)scale(0.172800)"/>
<use xlink:href="#c_786535fd61bcec8cdbf876618dde5ce3" transform="translate(8.101685,-0.885905)scale(0.120960)"/>
<use xlink:href="#c_7bbc93c01755cdeb977d08bdfb9ce616" transform="translate(17.076767,-5.293925)scale(0.172800)"/>
<use xlink:href="#c_f6bfecfef5ea966626c74db776cc6a54" transform="translate(31.577118,-5.293925)scale(0.172800)"/>
<use xlink:href="#c_7d09e94cce4bdf71f2297f5bbc354b76" transform="translate(40.209930,-5.293925)scale(0.172800)"/>
<use xlink:href="#c_c5a9fef654eb9e987f621c86ed1a9b2e" transform="translate(50.964864,-12.640625)scale(0.120960)"/>
<use xlink:href="#c_01bd98e0cf1b355b13e73042b8c9bdee" transform="translate(60.695977,-5.293925)scale(0.172800)"/>
<use xlink:href="#c_eb1e92470a4110d909865a24321813de" transform="translate(74.900506,-5.293925)scale(0.172800)"/>
<use xlink:href="#c_7bbc93c01755cdeb977d08bdfb9ce616" transform="translate(88.208855,-5.293925)scale(0.172800)"/>
<use xlink:href="#c_6733a1659a14e49f8feaf83505a1ef98" transform="translate(102.709206,-5.293925)scale(0.172800)"/>
<use xlink:href="#c_f47f2818876b2f1a61c47f270461e46e" transform="translate(111.342019,-5.293925)scale(0.172800)"/>
<use xlink:href="#c_c5a9fef654eb9e987f621c86ed1a9b2e" transform="translate(122.096952,-12.640625)scale(0.120960)"/>
</g>
</g>
</g>
</g>
</g>
</svg>
