<?xml version="1.0" encoding="utf-8" standalone="no"?>
<!DOCTYPE svg PUBLIC "-//W3C//DTD SVG 1.1//EN"
  "http://www.w3.org/Graphics/SVG/1.1/DTD/svg11.dtd">
<!-- Created with matplotlib (http://matplotlib.org/) -->
<svg height="432pt" version="1.1" viewBox="0 0 576 432" width="576pt" xmlns="http://www.w3.org/2000/svg" xmlns:xlink="http://www.w3.org/1999/xlink">
 <defs>
  <style type="text/css">
*{stroke-linecap:butt;stroke-linejoin:round;}
  </style>
 </defs>
 <g id="figure_1">
  <g id="patch_1">
   <path d="
M0 432
L576 432
L576 0
L0 0
z
" style="fill:#ffffff;"/>
  </g>
  <g id="axes_1">
   <g id="patch_2">
    <path d="
M25.2625 416.3
L574.122 416.3
L574.122 0
L25.2625 0
z
" style="fill:#ffffff;"/>
   </g>
   <g id="LineCollection_1">
    <path clip-path="url(#pf7cb0f9780)" d="
M300.768 220.394
L300.768 220.394
L298.616 220.021
L296.464 219.419
L294.73 218.762
L294.311 218.592
L292.159 217.512
L291.515 217.129
L290.006 216.132
L289.169 215.496
L287.854 214.352
L287.349 213.864
L285.925 212.231
L285.702 211.914
L284.835 210.599
L284.041 208.966
L283.549 207.334
L283.549 207.334
L283.549 207.334
L284.041 205.701
L284.835 204.069
L285.702 202.754
L285.925 202.436
L287.349 200.804
L287.854 200.316
L289.169 199.171
L290.006 198.536
L291.515 197.538
L292.159 197.155
L294.311 196.075
L294.73 195.906
L296.464 195.248
L298.616 194.646
L300.768 194.273
L300.768 194.273
L300.768 194.273
L302.921 194.646
L305.073 195.248
L306.806 195.906
L307.225 196.075
L309.378 197.155
L310.021 197.538
L311.53 198.536
L312.368 199.171
L313.683 200.316
L314.188 200.804
L315.612 202.436
L315.835 202.754
L316.702 204.069
L317.496 205.701
L317.987 207.334
L317.987 207.334
L317.987 207.334
L317.496 208.966
L316.702 210.599
L315.835 211.914
L315.612 212.231
L314.188 213.864
L313.683 214.352
L312.368 215.496
L311.53 216.132
L310.021 217.129
L309.378 217.512
L307.225 218.592
L306.806 218.762
L305.073 219.419
L302.921 220.021
L300.768 220.394
L300.768 220.394" style="fill:none;stroke:#000080;"/>
   </g>
   <g id="LineCollection_2">
    <path clip-path="url(#pf7cb0f9780)" d="
M300.768 233.455
L298.616 233.254
L296.464 232.932
L292.159 231.945
L290.006 231.279
L287.119 230.189
L283.599 228.557
L281.397 227.324
L279.244 225.944
L277.092 224.358
L274.94 222.52
L272.787 220.356
L270.635 217.686
L270.234 217.129
L268.482 214.173
L268.32 213.864
L267.595 212.231
L267.019 210.599
L266.594 208.966
L266.33 207.334
L266.33 207.334
L266.594 205.701
L267.019 204.069
L267.595 202.436
L268.482 200.494
L269.198 199.171
L270.635 196.981
L271.439 195.906
L272.821 194.273
L274.94 192.148
L277.092 190.31
L279.244 188.724
L281.397 187.343
L283.599 186.111
L287.119 184.478
L290.006 183.389
L292.159 182.722
L296.464 181.735
L298.616 181.413
L300.768 181.213
L300.768 181.213
L302.921 181.413
L305.073 181.735
L309.378 182.722
L311.53 183.389
L314.418 184.478
L317.937 186.111
L320.14 187.343
L322.292 188.724
L324.445 190.31
L326.597 192.148
L328.749 194.311
L330.902 196.981
L331.303 197.538
L333.054 200.494
L333.217 200.804
L333.942 202.436
L334.518 204.069
L334.943 205.701
L335.207 207.334
L335.207 207.334
L334.943 208.966
L334.518 210.599
L333.942 212.231
L333.054 214.173
L332.338 215.496
L330.902 217.686
L330.098 218.762
L328.716 220.394
L326.597 222.52
L324.445 224.358
L322.292 225.944
L320.14 227.324
L317.937 228.557
L314.418 230.189
L311.53 231.279
L309.378 231.945
L305.073 232.932
L302.921 233.254
L300.768 233.455
L300.768 233.455" style="fill:none;stroke:#0000a4;"/>
   </g>
   <g id="LineCollection_3">
    <path clip-path="url(#pf7cb0f9780)" d="
M300.768 246.515
L296.464 246.159
L292.159 245.489
L287.854 244.518
L283.549 243.238
L279.217 241.617
L274.94 239.658
L270.635 237.272
L267.3 235.087
L264.178 232.719
L261.296 230.189
L259.648 228.557
L256.791 225.292
L254.438 222.027
L252.537 218.762
L251.053 215.496
L249.971 212.231
L249.29 208.966
L249.111 207.334
L249.111 207.334
L249.58 204.069
L250.463 200.804
L251.744 197.538
L253.432 194.273
L255.568 190.987
L258.152 187.743
L259.873 185.881
L263.106 182.845
L266.33 180.279
L269.746 177.948
L272.787 176.145
L277.092 173.977
L281.397 172.193
L285.702 170.751
L290.006 169.626
L294.311 168.805
L298.616 168.289
L300.768 168.153
L300.768 168.153
L305.073 168.508
L309.378 169.178
L313.683 170.15
L317.987 171.43
L322.32 173.05
L326.597 175.01
L330.902 177.395
L334.237 179.58
L337.359 181.948
L340.24 184.478
L341.888 186.111
L344.746 189.376
L347.099 192.641
L349 195.906
L350.483 199.171
L351.565 202.436
L352.246 205.701
L352.426 207.334
L352.426 207.334
L351.957 210.599
L351.074 213.864
L349.792 217.129
L348.105 220.394
L345.968 223.68
L343.385 226.924
L341.664 228.786
L338.43 231.822
L335.207 234.389
L331.79 236.72
L328.749 238.522
L324.445 240.69
L320.14 242.475
L315.835 243.916
L311.53 245.042
L307.225 245.862
L302.921 246.379
L300.768 246.515
L300.768 246.515" style="fill:none;stroke:#0000cd;"/>
   </g>
   <g id="LineCollection_4">
    <path clip-path="url(#pf7cb0f9780)" d="
M300.768 259.575
L296.464 259.3
L292.159 258.788
L287.253 257.943
L283.549 257.11
L279.244 255.921
L274.94 254.491
L270.635 252.803
L266.33 250.834
L262.025 248.556
L258.641 246.515
L255.568 244.451
L251.833 241.617
L249.111 239.287
L246.42 236.72
L243.416 233.455
L240.821 230.189
L238.595 226.924
L236.71 223.659
L235.143 220.394
L233.879 217.129
L232.914 213.864
L232.246 210.599
L231.892 207.334
L231.892 207.334
L232.246 204.069
L232.914 200.804
L234.044 197.082
L235.143 194.273
L236.71 191.008
L238.595 187.743
L240.821 184.478
L243.416 181.213
L246.42 177.948
L249.111 175.381
L251.833 173.05
L255.568 170.217
L258.641 168.153
L262.025 166.112
L266.33 163.833
L270.635 161.865
L274.94 160.177
L279.244 158.747
L283.549 157.558
L287.854 156.603
L292.159 155.88
L296.464 155.368
L300.768 155.092
L300.768 155.092
L305.073 155.368
L309.378 155.88
L314.284 156.725
L317.987 157.558
L322.292 158.747
L326.597 160.177
L330.902 161.865
L335.207 163.833
L339.511 166.112
L342.896 168.153
L345.968 170.217
L349.704 173.05
L352.426 175.381
L355.116 177.948
L358.121 181.213
L360.716 184.478
L362.941 187.743
L364.827 191.008
L366.394 194.273
L367.657 197.538
L368.622 200.804
L369.29 204.069
L369.645 207.334
L369.645 207.334
L369.29 210.599
L368.622 213.864
L367.492 217.585
L366.394 220.394
L364.827 223.659
L362.941 226.924
L360.716 230.189
L358.121 233.455
L355.116 236.72
L352.426 239.287
L349.704 241.617
L345.968 244.451
L342.896 246.515
L339.511 248.556
L335.207 250.834
L330.902 252.803
L326.597 254.491
L322.292 255.921
L317.987 257.11
L313.683 258.064
L309.378 258.788
L305.073 259.3
L300.768 259.575
L300.768 259.575" style="fill:none;stroke:#0000f1;"/>
   </g>
   <g id="LineCollection_5">
    <path clip-path="url(#pf7cb0f9780)" d="
M255.568 259.617
L253.633 259.575
L253.416 259.477
L250.116 257.943
L246.959 255.977
L242.654 253
L238.349 249.622
L234.843 246.515
L231.559 243.25
L228.643 239.985
L226.054 236.72
L223.767 233.455
L221.76 230.189
L220.017 226.924
L218.526 223.659
L217.278 220.394
L216.268 217.129
L215.494 213.864
L214.957 210.599
L214.673 207.334
L214.673 207.334
L214.957 204.069
L215.494 200.804
L216.268 197.538
L217.278 194.273
L218.526 191.008
L220.017 187.743
L221.76 184.478
L223.767 181.213
L226.054 177.948
L228.643 174.683
L231.892 171.071
L234.843 168.153
L238.538 164.887
L242.715 161.622
L247.475 158.357
L250.116 156.725
L253.633 155.092
L311.53 155.018
L347.903 155.092
L351.421 156.725
L354.578 158.69
L358.883 161.667
L363.188 165.046
L366.693 168.153
L369.977 171.418
L372.894 174.683
L375.483 177.948
L377.77 181.213
L379.777 184.478
L381.519 187.743
L383.011 191.008
L384.258 194.273
L385.268 197.538
L386.043 200.804
L386.579 204.069
L386.864 207.334
L386.864 207.334
L386.579 210.599
L386.043 213.864
L385.268 217.129
L384.258 220.394
L383.011 223.659
L381.519 226.924
L379.777 230.189
L377.77 233.455
L375.483 236.72
L372.894 239.985
L369.645 243.597
L366.693 246.515
L362.999 249.78
L358.821 253.045
L354.062 256.31
L351.421 257.943
L347.903 259.575
L335.207 259.772
L311.53 259.859
L266.33 259.76
L255.568 259.617
L255.568 259.617" style="fill:none;stroke:#0008ff;"/>
   </g>
   <g id="LineCollection_6">
    <path clip-path="url(#pf7cb0f9780)" d="
M369.645 261.667
L369.04 261.208
L367.492 260.776
L363.188 260.483
L354.578 260.35
L320.14 260.203
L283.549 260.168
L231.892 260.342
L229.739 260.48
L227.587 259.559
L225.224 257.943
L221.13 254.272
L218.242 251.413
L214.673 247.491
L212.52 244.882
L210.068 241.617
L207.862 238.352
L205.887 235.087
L203.911 231.367
L202.594 228.557
L201.258 225.292
L200.122 222.027
L199.182 218.762
L198.438 215.496
L197.89 212.231
L197.544 208.966
L197.454 207.334
L197.454 207.334
L197.691 204.069
L198.139 200.804
L198.786 197.538
L199.627 194.273
L200.665 191.008
L201.9 187.743
L203.338 184.478
L204.984 181.213
L206.847 177.948
L208.935 174.683
L211.263 171.418
L213.846 168.153
L216.825 164.754
L219.86 161.622
L223.344 158.357
L225.435 156.605
L228.118 155.092
L283.549 154.944
L348.121 154.998
L373.418 155.092
L376.312 156.725
L380.407 160.395
L383.295 163.255
L386.864 167.177
L389.016 169.785
L391.469 173.05
L393.675 176.315
L395.649 179.58
L397.626 183.301
L398.943 186.111
L400.279 189.376
L401.415 192.641
L402.354 195.906
L403.099 199.171
L403.647 202.436
L403.992 205.701
L404.083 207.334
L404.083 207.334
L403.845 210.599
L403.397 213.864
L402.751 217.129
L401.909 220.394
L400.872 223.659
L399.637 226.924
L398.199 230.189
L396.552 233.455
L394.69 236.72
L392.601 239.985
L390.273 243.25
L387.691 246.515
L384.711 249.913
L381.677 253.045
L378.192 256.31
L376.102 258.112
L373.95 259.707
L371.797 260.899
L369.645 261.667
L369.645 261.667" style="fill:none;stroke:#0028ff;"/>
   </g>
   <g id="LineCollection_7">
    <path clip-path="url(#pf7cb0f9780)" d="
M367.492 274.366
L365.34 273.781
L362.443 272.636
L361.035 271.935
L358.883 270.615
L356.73 268.925
L355.501 267.738
L354.126 266.105
L353.068 264.473
L352.297 262.84
L351.82 261.208
L343.816 260.916
L328.749 260.65
L298.616 260.383
L262.025 260.734
L249.111 261.062
L245.999 261.208
L245.483 262.84
L244.651 264.473
L243.496 266.105
L241.987 267.738
L240.038 269.371
L237.447 271.003
L236.197 271.642
L233.659 272.636
L231.892 273.149
L229.739 273.541
L227.587 273.245
L224.957 272.636
L223.282 272.136
L220.362 271.003
L218.978 270.369
L216.825 269.23
L214.424 267.738
L212.152 266.105
L210.129 264.473
L206.551 261.208
L203.345 257.943
L199.606 253.731
L197.454 251.077
L195.25 248.147
L192.999 244.882
L190.952 241.617
L188.844 237.87
L187.432 235.087
L185.945 231.822
L184.539 228.297
L183.494 225.292
L182.387 221.507
L181.717 218.762
L181.079 215.496
L180.609 212.231
L180.312 208.966
L180.235 207.334
L180.235 207.334
L180.438 204.069
L180.823 200.804
L181.377 197.538
L182.387 193.161
L182.987 191.008
L184.539 186.37
L185.268 184.478
L186.692 181.158
L188.844 176.798
L190.002 174.683
L191.951 171.418
L194.099 168.153
L196.456 164.887
L199.606 160.936
L201.844 158.357
L203.345 156.725
L206.063 155.092
L257.721 154.896
L326.597 154.867
L386.864 155.043
L395.554 155.092
L398.192 156.725
L401.931 160.936
L404.083 163.59
L406.287 166.52
L408.537 169.785
L410.585 173.05
L412.693 176.798
L414.105 179.58
L415.591 182.845
L416.997 186.37
L418.043 189.376
L419.15 193.161
L419.819 195.906
L420.457 199.171
L420.928 202.436
L421.224 205.701
L421.302 207.334
L421.302 207.334
L421.098 210.599
L420.714 213.864
L420.159 217.129
L419.15 221.507
L418.55 223.659
L416.997 228.297
L416.269 230.189
L414.845 233.509
L412.693 237.87
L411.535 239.985
L409.585 243.25
L407.437 246.515
L405.081 249.78
L401.931 253.731
L399.693 256.31
L396.625 259.575
L393.27 262.84
L389.48 266.105
L386.864 268.055
L384.711 269.464
L381.954 271.003
L380.407 271.756
L378.254 272.662
L376.102 273.409
L372.69 274.268
L371.797 274.45
L369.645 274.727
L367.492 274.366
L367.492 274.366" style="fill:none;stroke:#004cff;"/>
   </g>
   <g id="LineCollection_8">
    <path clip-path="url(#pf7cb0f9780)" d="
M367.492 287.591
L365.707 287.329
L365.34 287.274
L361.035 286.302
L358.883 285.649
L354.769 284.064
L352.426 282.949
L350.273 281.769
L348.121 280.423
L345.968 278.881
L343.816 277.097
L341.664 275.005
L339.62 272.636
L338.441 271.003
L337.359 269.256
L336.559 267.738
L335.846 266.105
L335.207 264.194
L334.861 262.84
L334.601 261.208
L320.14 260.911
L298.616 260.653
L270.635 261.03
L263.219 261.208
L262.948 262.84
L262.512 264.473
L261.921 266.105
L261.174 267.738
L259.873 269.995
L259.205 271.003
L257.721 272.926
L255.568 275.246
L253.416 277.19
L251.263 278.848
L249.111 280.281
L246.959 281.529
L244.806 282.617
L241.325 284.064
L238.349 285.051
L235.821 285.696
L234.044 286.065
L231.892 286.396
L229.739 286.601
L225.435 286.144
L221.13 285.289
L216.825 284.052
L212.52 282.421
L208.216 280.366
L203.911 277.853
L201.05 275.901
L197.454 273.111
L195.017 271.003
L190.996 267.142
L188.457 264.473
L184.539 259.978
L181.635 256.31
L179.257 253.045
L177.065 249.78
L174.106 244.882
L171.625 240.191
L169.999 236.72
L168.004 231.822
L166.345 226.924
L165.017 222.027
L164.016 217.129
L163.343 212.231
L163.084 208.966
L163.015 207.334
L163.015 207.334
L163.194 204.069
L163.53 200.804
L164.313 195.906
L165.424 191.008
L166.861 186.111
L168.631 181.213
L170.741 176.315
L173.204 171.418
L175.93 166.693
L178.138 163.255
L180.422 159.99
L182.895 156.725
L185.398 155.092
L227.587 154.876
L292.159 154.781
L384.711 154.912
L416.138 155.092
L418.641 156.725
L421.302 160.25
L424.471 164.887
L427.431 169.785
L429.912 174.476
L431.538 177.948
L433.533 182.845
L435.191 187.743
L436.519 192.641
L437.521 197.538
L438.193 202.436
L438.453 205.701
L438.521 207.334
L438.521 207.334
L438.343 210.599
L438.006 213.864
L437.223 218.762
L436.113 223.659
L434.675 228.557
L432.906 233.455
L430.796 238.352
L428.333 243.25
L425.607 247.974
L423.399 251.413
L421.115 254.678
L418.641 257.943
L414.845 262.506
L411.55 266.105
L408.296 269.371
L404.083 273.169
L400.653 275.901
L397.626 278.041
L395.473 279.415
L391.169 281.808
L389.016 282.841
L384.711 284.601
L380.407 285.976
L376.102 286.983
L371.797 287.619
L369.645 287.788
L367.492 287.591
L367.492 287.591" style="fill:none;stroke:#006cff;"/>
   </g>
   <g id="LineCollection_9">
    <path clip-path="url(#pf7cb0f9780)" d="
M365.34 300.497
L361.035 299.834
L356.301 298.756
L352.426 297.607
L348.121 296.018
L343.816 294.076
L340.369 292.226
L337.359 290.378
L335.207 288.896
L333.054 287.26
L329.409 284.064
L327.789 282.431
L326.311 280.798
L323.75 277.533
L321.655 274.268
L319.985 271.003
L318.719 267.738
L317.846 264.473
L317.382 261.208
L298.616 260.923
L280.438 261.208
L280.255 262.84
L279.562 266.105
L278.459 269.371
L276.949 272.636
L274.94 276.006
L272.609 279.166
L269.679 282.431
L267.992 284.064
L266.135 285.696
L264.085 287.329
L261.809 288.961
L257.721 291.501
L255.568 292.666
L251.263 294.679
L246.959 296.322
L242.654 297.627
L238.349 298.618
L234.044 299.3
L229.739 299.662
L225.435 299.338
L221.13 298.73
L216.825 297.853
L212.52 296.707
L208.216 295.285
L203.911 293.571
L199.606 291.547
L195.301 289.187
L192.309 287.329
L188.844 284.942
L185.565 282.431
L181.728 279.166
L178.082 275.724
L173.777 271.227
L170.724 267.738
L166.804 262.84
L163.276 257.943
L160.863 254.25
L158.202 249.78
L155.608 244.882
L153.334 239.985
L151.368 235.087
L149.702 230.189
L148.33 225.292
L147.247 220.394
L146.454 215.496
L145.955 210.599
L145.796 207.334
L145.796 207.334
L146.088 202.436
L146.686 197.538
L147.576 192.641
L148.755 187.743
L150.225 182.845
L151.99 177.948
L154.057 173.05
L156.436 168.153
L159.14 163.255
L162.184 158.357
L163.276 156.725
L165.695 155.092
L199.606 154.862
L257.721 154.713
L354.578 154.722
L414.845 154.925
L435.841 155.092
L438.26 156.725
L440.674 160.417
L443.334 164.887
L445.928 169.785
L448.202 174.683
L450.168 179.58
L451.834 184.478
L453.207 189.376
L454.29 194.273
L455.083 199.171
L455.582 204.069
L455.74 207.334
L455.74 207.334
L455.449 212.231
L454.851 217.129
L453.961 222.027
L452.782 226.924
L451.312 231.822
L449.547 236.72
L447.479 241.617
L445.1 246.515
L442.396 251.413
L439.353 256.31
L435.951 261.208
L432.166 266.105
L429.414 269.371
L425.607 273.539
L423.291 275.901
L419.15 279.795
L416.072 282.431
L411.844 285.696
L408.388 288.076
L404.083 290.703
L399.778 292.978
L395.473 294.935
L391.169 296.595
L386.864 297.976
L382.559 299.089
L378.254 299.942
L373.95 300.533
L369.645 300.848
L365.34 300.497
L365.34 300.497" style="fill:none;stroke:#0090ff;"/>
   </g>
   <g id="LineCollection_10">
    <path clip-path="url(#pf7cb0f9780)" d="
M365.34 313.642
L361.035 313.14
L356.73 312.414
L352.426 311.464
L347.793 310.184
L342.956 308.552
L338.862 306.919
L335.207 305.252
L330.902 302.997
L326.584 300.389
L322.292 297.383
L319.89 295.491
L316.202 292.226
L313.683 289.685
L311.53 287.273
L309.011 284.064
L306.807 280.798
L304.939 277.533
L303.386 274.268
L302.134 271.003
L301.177 267.738
L300.122 262.84
L299.936 261.208
L297.657 261.208
L297.297 264.473
L296.62 267.738
L295.641 271.003
L294.311 274.378
L292.77 277.533
L290.856 280.798
L288.595 284.064
L285.957 287.329
L283.549 289.932
L281.19 292.226
L277.37 295.491
L274.94 297.335
L270.635 300.232
L267.61 302.022
L264.178 303.848
L259.873 305.848
L255.568 307.563
L251.263 309.016
L246.959 310.222
L242.654 311.193
L238.349 311.936
L234.044 312.449
L229.739 312.722
L225.435 312.472
L221.13 312.001
L216.825 311.323
L211.459 310.184
L208.216 309.348
L203.911 308.043
L199.606 306.518
L195.301 304.759
L190.996 302.754
L186.523 300.389
L182.387 297.925
L178.082 295.055
L173.777 291.844
L169.473 288.264
L166.638 285.696
L163.015 282.155
L158.692 277.533
L154.406 272.483
L150.743 267.738
L147.304 262.84
L144.193 257.943
L141.392 253.045
L138.888 248.147
L136.67 243.25
L134.729 238.352
L133.057 233.455
L131.65 228.557
L130.503 223.659
L129.616 218.762
L128.989 213.864
L128.632 208.966
L128.632 205.701
L128.989 200.804
L129.616 195.906
L130.503 191.008
L131.65 186.111
L133.057 181.213
L134.729 176.315
L136.67 171.418
L138.888 166.52
L141.492 161.441
L144.193 156.725
L146.556 155.092
L171.625 154.856
L216.825 154.679
L292.159 154.622
L425.607 154.823
L454.981 155.092
L457.344 156.725
L460.145 161.622
L462.648 166.52
L464.866 171.418
L466.808 176.315
L468.48 181.213
L469.887 186.111
L471.034 191.008
L471.921 195.906
L472.547 200.804
L472.905 205.701
L472.905 208.966
L472.547 213.864
L471.921 218.762
L471.034 223.659
L469.887 228.557
L468.48 233.455
L466.808 238.352
L464.866 243.25
L462.648 248.147
L460.045 253.227
L457.344 257.943
L454.232 262.84
L450.794 267.738
L447.009 272.636
L442.826 277.557
L438.264 282.431
L434.216 286.365
L429.912 290.176
L427.404 292.226
L423.061 295.491
L418.184 298.756
L414.845 300.768
L410.54 303.109
L406.011 305.287
L401.931 307.018
L397.626 308.618
L392.669 310.184
L389.016 311.167
L384.711 312.132
L380.407 312.896
L376.102 313.459
L371.797 313.815
L369.645 313.908
L365.34 313.642
L365.34 313.642" style="fill:none;stroke:#00b0ff;"/>
   </g>
   <g id="LineCollection_11">
    <path clip-path="url(#pf7cb0f9780)" d="
M363.188 326.575
L358.883 326.081
L354.578 325.409
L350.273 324.559
L344.918 323.245
L341.664 322.312
L337.359 320.902
L333.054 319.288
L328.749 317.456
L323.848 315.082
L320.14 313.065
L315.425 310.184
L311.53 307.504
L308.607 305.287
L304.722 302.022
L300.768 298.239
L298.616 296.23
L296.155 298.756
L292.159 302.413
L288.612 305.287
L285.702 307.426
L281.397 310.281
L277.092 312.809
L272.735 315.082
L268.482 317.046
L264.178 318.803
L259.873 320.345
L255.568 321.683
L251.263 322.827
L246.959 323.784
L242.654 324.559
L238.349 325.153
L234.044 325.564
L229.739 325.782
L225.435 325.579
L221.13 325.195
L216.825 324.643
L212.52 323.923
L208.216 323.038
L202.557 321.612
L199.606 320.755
L195.301 319.349
L190.996 317.757
L186.692 315.97
L181.321 313.449
L178.082 311.768
L172.509 308.552
L169.473 306.623
L165.168 303.652
L160.863 300.384
L156.558 296.795
L152.253 292.862
L148.329 288.961
L145.271 285.696
L141.017 280.798
L137.119 275.901
L133.548 271.003
L130.282 266.105
L127.307 261.208
L124.609 256.31
L122.12 251.285
L119.968 246.418
L117.815 240.863
L116.411 236.72
L114.975 231.822
L113.776 226.924
L112.813 222.027
L112.086 217.129
L111.596 212.231
L111.358 207.334
L111.358 207.334
L111.596 202.436
L112.086 197.538
L112.813 192.641
L113.776 187.743
L114.975 182.845
L116.411 177.948
L118.086 173.05
L120.007 168.153
L122.179 163.255
L124.609 158.357
L125.479 156.725
L127.802 155.092
L143.644 154.859
L173.777 154.665
L234.044 154.542
L373.95 154.539
L440.674 154.715
L466.502 154.958
L473.735 155.092
L476.058 156.725
L478.576 161.622
L480.833 166.52
L482.837 171.418
L484.594 176.315
L486.11 181.213
L487.387 186.111
L488.428 191.008
L489.234 195.906
L489.804 200.804
L490.129 205.701
L490.129 208.966
L489.804 213.864
L489.234 218.762
L488.428 223.659
L487.387 228.557
L486.11 233.455
L484.594 238.352
L482.837 243.25
L480.833 248.147
L478.576 253.045
L476.058 257.943
L472.959 263.353
L470.199 267.738
L466.502 273.092
L463.155 277.533
L459.144 282.431
L454.768 287.329
L451.436 290.782
L447.131 294.916
L442.826 298.709
L440.674 300.482
L436.369 303.797
L431.917 306.919
L426.744 310.184
L423.454 312.077
L419.15 314.346
L414.135 316.715
L410.287 318.347
L406.008 319.98
L401.143 321.612
L397.626 322.657
L393.321 323.776
L388.248 324.877
L384.711 325.516
L380.407 326.141
L376.102 326.602
L371.797 326.892
L369.645 326.969
L365.34 326.754
L363.188 326.575
L363.188 326.575" style="fill:none;stroke:#00d4ff;"/>
   </g>
   <g id="LineCollection_12">
    <path clip-path="url(#pf7cb0f9780)" d="
M363.188 339.7
L358.883 339.287
L352.426 338.39
L345.968 337.161
L341.664 336.154
L336.28 334.673
L331.172 333.04
L326.597 331.375
L322.292 329.621
L317.987 327.676
L312.468 324.877
L309.378 323.152
L304.225 319.98
L299.495 316.715
L298.616 316.066
L294.311 318.979
L290.006 321.663
L285.702 324.087
L280.918 326.51
L277.092 328.263
L272.787 330.048
L268.482 331.649
L264.178 333.076
L258.611 334.673
L253.416 335.93
L249.111 336.8
L242.654 337.823
L238.349 338.318
L234.044 338.661
L229.739 338.843
L225.435 338.671
L218.978 338.132
L212.52 337.276
L206.063 336.105
L199.606 334.616
L193.149 332.8
L186.692 330.641
L182.387 329.003
L176.549 326.51
L171.625 324.154
L166.822 321.612
L161.258 318.347
L158.688 316.715
L153.909 313.449
L149.533 310.184
L145.494 306.919
L141.492 303.425
L136.573 298.756
L131.857 293.859
L127.525 288.961
L123.531 284.064
L119.844 279.166
L116.446 274.268
L113.321 269.371
L110.459 264.473
L107.847 259.575
L105.478 254.678
L103.345 249.78
L101.441 244.882
L99.7623 239.985
L98.3035 235.087
L97.0625 230.189
L96.037 225.292
L95.2265 220.394
L94.6319 215.496
L94.2579 210.599
L94.1389 207.334
L94.1389 207.334
L94.3575 202.436
L94.8059 197.538
L95.4728 192.641
L96.3549 187.743
L97.4522 182.845
L98.7655 177.948
L100.596 172.177
L102.051 168.153
L104.03 163.255
L106.241 158.357
L107.053 156.709
L109.325 155.092
L117.815 154.844
L135.034 154.636
L169.473 154.497
L251.263 154.437
L462.197 154.584
L483.721 154.822
L492.212 155.092
L494.506 156.725
L496.795 161.622
L498.851 166.52
L500.94 172.177
L502.285 176.315
L503.671 181.213
L504.84 186.111
L505.794 191.008
L506.532 195.906
L507.054 200.804
L507.352 205.701
L507.352 208.966
L507.054 213.864
L506.532 218.762
L505.794 223.659
L504.84 228.557
L503.671 233.455
L502.285 238.352
L500.68 243.25
L498.788 248.305
L496.636 253.4
L494.483 257.988
L491.976 262.84
L489.198 267.738
L485.874 273.077
L482.856 277.533
L479.268 282.431
L475.112 287.652
L470.807 292.628
L466.502 297.223
L461.614 302.022
L457.893 305.401
L453.588 309.031
L449.283 312.384
L444.978 315.479
L440.65 318.347
L435.235 321.612
L432.064 323.375
L427.759 325.593
L422.292 328.142
L416.997 330.349
L412.693 331.958
L406.235 334.08
L399.778 335.867
L393.321 337.333
L386.864 338.486
L380.407 339.329
L373.95 339.86
L369.645 340.029
L365.34 339.85
L363.188 339.7
L363.188 339.7" style="fill:none;stroke:#0cf4eb;"/>
   </g>
   <g id="LineCollection_13">
    <path clip-path="url(#pf7cb0f9780)" d="
M361.035 352.646
L354.578 351.97
L348.039 350.998
L341.664 349.77
L335.207 348.236
L328.749 346.401
L322.911 344.468
L317.987 342.63
L313.683 340.853
L309.378 338.911
L304.138 336.305
L300.768 334.483
L298.616 333.252
L295.61 334.673
L292.159 336.464
L287.854 338.527
L281.63 341.203
L277.092 342.941
L270.635 345.124
L264.178 346.985
L257.721 348.539
L251.263 349.799
L244.806 350.769
L238.349 351.453
L231.892 351.844
L229.739 351.903
L223.282 351.631
L216.825 351.073
L210.368 350.243
L203.911 349.142
L197.306 347.733
L190.946 346.1
L184.539 344.172
L178.082 341.927
L171.625 339.364
L165.168 336.461
L160.863 334.324
L155.478 331.407
L150.101 328.211
L145.796 325.425
L141.492 322.426
L137.187 319.198
L132.121 315.082
L128.392 311.817
L123.209 306.919
L118.447 302.022
L114.048 297.124
L109.969 292.226
L106.183 287.329
L102.669 282.431
L99.4151 277.533
L96.2913 272.436
L93.6391 267.738
L91.0998 262.84
L88.7831 257.943
L86.683 253.045
L84.7942 248.147
L83.1126 243.25
L81.6347 238.352
L80.3578 233.455
L79.0722 227.482
L78.4 223.659
L77.7183 218.762
L77.2367 213.864
L76.9618 208.966
L76.9618 205.701
L77.2367 200.804
L77.7183 195.906
L78.4 191.008
L79.2799 186.111
L80.3578 181.213
L81.6347 176.315
L83.377 170.614
L84.7942 166.52
L86.683 161.622
L88.7831 156.725
L89.8342 155.694
L90.6893 155.092
L91.9866 154.423
L96.2913 154.324
L135.034 154.306
L488.026 154.224
L500.94 154.091
L505.245 153.817
L506.631 153.46
L507.398 152.878
L509.55 153.791
L511.702 155.449
L512.753 156.725
L514.854 161.622
L516.742 166.52
L518.424 171.418
L519.902 176.315
L521.179 181.213
L522.464 187.185
L523.137 191.008
L523.818 195.906
L524.3 200.804
L524.575 205.701
L524.575 208.966
L524.3 213.864
L523.818 218.762
L523.137 223.659
L522.257 228.557
L521.179 233.455
L519.902 238.352
L518.16 244.054
L516.742 248.147
L514.854 253.045
L512.753 257.943
L510.437 262.84
L507.398 268.65
L505.129 272.636
L502.122 277.533
L498.788 282.545
L495.354 287.329
L491.569 292.226
L487.493 297.124
L483.1 302.022
L478.354 306.919
L474.97 310.184
L469.505 315.082
L465.566 318.347
L461.351 321.612
L456.816 324.877
L451.436 328.444
L446.554 331.407
L440.662 334.673
L434.216 337.876
L429.912 339.816
L423.454 342.447
L416.997 344.761
L410.54 346.773
L404.083 348.497
L397.626 349.943
L391.169 351.119
L384.711 352.027
L378.254 352.668
L371.797 353.034
L369.645 353.09
L363.188 352.807
L361.035 352.646
L361.035 352.646" style="fill:none;stroke:#29ffce;"/>
   </g>
   <g id="LineCollection_14">
    <path clip-path="url(#pf7cb0f9780)" d="
M361.035 365.761
L354.578 365.17
L348.121 364.331
L341.664 363.246
L335.207 361.91
L328.749 360.317
L322.292 358.457
L315.835 356.32
L309.378 353.889
L302.921 351.145
L298.616 349.128
L296.464 349.768
L289.809 352.631
L283.549 355.014
L277.092 357.179
L270.261 359.161
L263.644 360.793
L257.721 362.026
L251.263 363.124
L244.806 363.972
L238.349 364.57
L231.892 364.911
L227.587 364.914
L221.13 364.587
L214.673 364.016
L208.216 363.206
L201.758 362.16
L194.942 360.793
L188.146 359.161
L182.273 357.528
L175.93 355.522
L169.473 353.21
L163.015 350.613
L156.558 347.714
L150.058 344.468
L143.644 340.918
L138.715 337.938
L132.882 334.105
L128.577 331.046
L124.272 327.777
L118.741 323.245
L115.031 319.98
L109.84 315.082
L105.04 310.184
L100.581 305.287
L96.2913 300.221
L91.9866 294.743
L88.9399 290.594
L85.5294 285.633
L82.4384 280.798
L79.0722 275.089
L76.8419 271.003
L74.3645 266.105
L72.0925 261.208
L70.0207 256.31
L68.145 251.413
L66.1579 245.56
L64.9675 241.617
L63.66 236.72
L62.5375 231.822
L61.5988 226.924
L60.8434 222.027
L60.2722 217.129
L59.888 212.231
L59.7007 207.334
L59.7007 207.334
L59.888 202.436
L60.2722 197.538
L60.8434 192.641
L61.5988 187.743
L62.5375 182.845
L64.0055 176.589
L64.9675 173.05
L66.4616 168.153
L68.3103 162.807
L70.4627 157.277
L71.4331 155.092
L72.6151 152.992
L73.3898 151.827
L74.7674 150.108
L76.9198 147.981
L79.0722 146.288
L81.2246 144.915
L83.6795 143.664
L85.5294 142.901
L88.3569 142.032
L89.8342 141.682
L91.9866 141.363
L95.0735 142.032
L96.2913 142.404
L99.1706 143.664
L100.596 144.464
L102.749 145.982
L103.847 146.929
L105.391 148.562
L106.563 150.195
L107.411 151.827
L107.936 153.46
L115.663 153.722
L130.73 153.942
L160.863 154.101
L242.654 154.238
L341.664 154.247
L457.893 153.986
L479.417 153.749
L489.412 153.46
L490.179 151.186
L490.65 150.195
L492.331 147.775
L493.062 146.929
L494.782 145.297
L496.978 143.664
L499.903 142.032
L500.94 141.553
L503.093 140.757
L505.245 140.177
L507.398 139.818
L510.87 140.399
L511.702 140.585
L513.855 141.231
L516.007 142.048
L519.257 143.664
L521.82 145.297
L523.897 146.929
L525.619 148.562
L527.062 150.195
L528.922 152.879
L529.273 153.46
L530.847 156.725
L533.226 162.807
L534.535 166.52
L536.092 171.418
L537.531 176.589
L538.645 181.213
L539.683 186.323
L540.462 191.008
L541.095 195.906
L541.542 200.804
L541.797 205.701
L541.797 208.966
L541.542 213.864
L541.095 218.762
L540.462 223.659
L539.645 228.557
L538.645 233.455
L537.461 238.352
L536.092 243.25
L534.535 248.147
L532.788 253.045
L530.847 257.943
L528.709 262.84
L526.369 267.738
L523.822 272.636
L521.061 277.533
L518.08 282.431
L514.869 287.329
L511.42 292.226
L507.398 297.536
L503.093 302.81
L498.788 307.72
L494.483 312.303
L490.052 316.715
L484.749 321.612
L479.417 326.157
L474.842 329.775
L470.422 333.04
L465.685 336.305
L460.045 339.9
L453.588 343.653
L448.999 346.1
L442.826 349.126
L438.521 351.065
L432.064 353.721
L425.607 356.094
L419.15 358.195
L412.693 360.038
L406.235 361.631
L399.778 362.981
L393.321 364.094
L386.864 364.972
L380.407 365.616
L373.95 366.021
L369.645 366.15
L363.188 365.902
L361.035 365.761
L361.035 365.761" style="fill:none;stroke:#43ffb4;"/>
   </g>
   <g id="LineCollection_15">
    <path clip-path="url(#pf7cb0f9780)" d="
M361.035 378.864
L354.578 378.339
L348.121 377.593
L341.664 376.63
L335.207 375.445
L327.991 373.854
L321.657 372.221
L315.835 370.52
L309.378 368.394
L302.921 366.008
L298.616 364.264
L296.464 364.676
L289.338 367.324
L283.549 369.241
L277.092 371.139
L270.635 372.796
L264.178 374.22
L257.293 375.486
L251.263 376.39
L244.806 377.143
L238.349 377.674
L231.892 377.978
L227.587 377.979
L221.13 377.688
L214.089 377.119
L208.216 376.455
L201.544 375.486
L195.301 374.376
L188.844 373.015
L182.387 371.435
L175.93 369.629
L168.686 367.324
L163.015 365.308
L155.729 362.426
L150.101 359.968
L143.644 356.88
L137.187 353.489
L130.73 349.771
L124.884 346.1
L119.968 342.773
L115.537 339.57
L111.287 336.305
L105.357 331.407
L100.596 327.165
L96.2913 323.073
L91.634 318.347
L87.1247 313.449
L82.9056 308.552
L78.9526 303.654
L74.7674 298.094
L71.7794 293.859
L68.3103 288.609
L65.5046 284.064
L62.6831 279.166
L59.7007 273.557
L56.8735 267.738
L54.7027 262.84
L52.7171 257.943
L50.9129 253.045
L48.9388 247.016
L47.393 241.617
L46.1746 236.72
L45.1281 231.822
L44.2525 226.924
L43.5478 222.027
L43.0149 217.129
L42.6563 212.231
L42.4816 207.334
L42.4816 207.334
L42.6563 202.436
L43.0149 197.538
L43.5478 192.641
L44.2525 187.743
L45.1281 182.845
L46.1746 177.948
L47.393 173.05
L48.9388 167.651
L50.3514 163.255
L52.0957 158.357
L54.0514 153.46
L55.6308 150.195
L57.6093 146.929
L59.7007 144.161
L61.6002 142.032
L64.0055 139.745
L66.1579 137.979
L68.3103 136.427
L70.4627 135.057
L72.6151 133.843
L75.9748 132.236
L79.0722 131.005
L81.2246 130.291
L85.5294 129.181
L89.8342 128.486
L91.9866 128.302
L94.1389 128.509
L96.9104 128.971
L98.4437 129.296
L100.596 129.866
L102.879 130.604
L106.865 132.236
L109.206 133.423
L111.358 134.687
L113.51 136.141
L115.663 137.825
L117.815 139.802
L118.404 140.399
L119.968 142.175
L121.104 143.664
L122.184 145.297
L123.092 146.929
L124.272 149.725
L124.442 150.195
L124.881 151.827
L125.155 153.46
L139.339 153.707
L167.32 153.928
L225.435 154.106
L322.292 154.191
L438.521 153.868
L466.502 153.574
L472.193 153.46
L472.452 151.827
L472.959 149.925
L473.432 148.562
L474.143 146.929
L475.112 145.113
L476.015 143.664
L477.264 141.937
L479.417 139.457
L481.569 137.383
L483.869 135.502
L486.202 133.869
L488.936 132.236
L492.331 130.547
L496.636 128.887
L500.94 127.697
L503.093 127.269
L505.245 126.954
L507.398 126.758
L511.702 127.213
L516.007 128.073
L520.312 129.327
L524.617 130.999
L527.218 132.236
L530.169 133.869
L533.226 135.855
L535.379 137.475
L537.531 139.315
L540.251 142.032
L541.836 143.889
L544.042 146.929
L545.948 150.195
L547.492 153.46
L549.441 158.357
L551.185 163.255
L552.752 168.153
L554.569 174.683
L555.73 179.58
L556.903 185.503
L557.538 189.376
L558.186 194.273
L558.661 199.171
L558.96 204.069
L559.055 207.334
L559.055 207.334
L558.88 212.231
L558.522 217.129
L557.989 222.027
L557.284 226.924
L556.409 231.822
L555.362 236.72
L554.144 241.617
L552.598 247.016
L551.185 251.413
L549.441 256.31
L547.516 261.208
L545.408 266.105
L543.111 271.003
L540.622 275.901
L537.531 281.503
L535.046 285.696
L531.074 291.91
L528.626 295.491
L524.617 301.004
L520.312 306.509
L517.259 310.184
L512.952 315.082
L508.351 319.98
L503.093 325.192
L498.123 329.775
L492.402 334.673
L488.026 338.163
L483.721 341.398
L479.386 344.468
L472.959 348.693
L468.655 351.322
L462.197 354.98
L455.74 358.321
L449.283 361.366
L442.826 364.133
L436.369 366.637
L429.713 368.956
L423.454 370.906
L416.997 372.692
L410.54 374.255
L404.083 375.601
L397.626 376.734
L391.169 377.658
L384.711 378.373
L378.254 378.878
L371.797 379.166
L367.492 379.165
L361.035 378.864
L361.035 378.864" style="fill:none;stroke:#60ff97;"/>
   </g>
   <g id="LineCollection_16">
    <path clip-path="url(#pf7cb0f9780)" d="
M358.883 391.824
L352.426 391.284
L345.968 390.548
L339.511 389.616
L333.054 388.486
L325.533 386.914
L318.836 385.282
L312.919 383.649
L307.225 381.907
L300.768 379.714
L298.616 378.931
L296.464 379.169
L290.006 381.307
L283.549 383.218
L277.092 384.91
L270.635 386.392
L264.178 387.667
L257.721 388.741
L251.263 389.615
L244.806 390.292
L238.349 390.77
L231.892 391.043
L227.587 391.044
L221.13 390.781
L213.127 390.179
L208.216 389.668
L201.758 388.826
L195.301 387.793
L188.844 386.567
L182.387 385.147
L175.93 383.526
L169.473 381.7
L163.015 379.662
L155.787 377.119
L150.101 374.919
L143.644 372.193
L136.658 368.956
L130.212 365.691
L124.265 362.426
L117.815 358.586
L111.358 354.412
L106.449 350.998
L100.596 346.636
L95.8347 342.835
L90.1064 337.938
L85.5294 333.747
L81.2246 329.567
L76.678 324.877
L72.2189 319.98
L68.0284 315.082
L64.0055 310.08
L59.7007 304.356
L55.7763 298.756
L52.5695 293.859
L48.9388 287.898
L45.8584 282.431
L42.4816 275.893
L39.435 269.371
L36.6963 262.84
L34.2617 256.31
L32.1246 249.78
L30.2796 243.25
L28.7228 236.72
L27.4513 230.189
L27.4149 229.972
L27.4513 184.478
L28.7228 177.948
L30.2796 171.418
L32.1246 164.887
L34.2617 158.357
L36.064 153.46
L37.4031 150.195
L38.935 146.929
L40.7385 143.664
L42.8796 140.399
L45.419 137.134
L48.4229 133.869
L51.0912 131.374
L54.0169 128.971
L57.5483 126.452
L61.4353 124.074
L64.5145 122.441
L68.3103 120.691
L72.6151 119.031
L77.4472 117.544
L81.2246 116.628
L85.5294 115.856
L89.8342 115.37
L91.9866 115.242
L96.2913 115.606
L100.596 116.292
L104.901 117.288
L109.206 118.602
L113.51 120.255
L115.663 121.219
L119.968 123.457
L123.591 125.706
L126.425 127.743
L129.84 130.604
L131.543 132.236
L133.091 133.869
L135.764 137.134
L137.943 140.399
L139.676 143.664
L140.989 146.929
L141.894 150.195
L142.374 153.46
L165.168 153.72
L206.063 153.935
L300.768 154.157
L429.912 153.731
L454.974 153.46
L455.436 150.195
L456.307 146.929
L457.57 143.664
L459.234 140.399
L461.322 137.134
L462.536 135.502
L465.346 132.236
L466.959 130.604
L468.727 128.971
L470.807 127.233
L472.959 125.605
L475.197 124.074
L479.417 121.565
L483.721 119.433
L485.874 118.512
L490.179 116.928
L494.483 115.666
L498.788 114.708
L503.093 114.048
L507.398 113.697
L511.702 114.02
L516.007 114.629
L520.312 115.51
L524.617 116.667
L528.922 118.111
L533.226 119.865
L537.531 121.96
L541.234 124.074
L543.988 125.855
L546.141 127.393
L550.084 130.604
L552.598 132.975
L554.975 135.502
L557.629 138.767
L559.882 142.032
L561.792 145.297
L563.417 148.562
L564.826 151.827
L566.694 156.725
L568.905 163.255
L570.823 169.785
L571.969 174.264
L571.976 236.72
L571.969 240.403
L570.371 246.515
L568.38 253.045
L566.095 259.575
L563.509 266.105
L561.207 271.354
L558.238 277.533
L554.784 284.064
L551.973 288.961
L548.293 294.913
L544.645 300.389
L541.158 305.287
L537.451 310.184
L533.226 315.424
L528.922 320.435
L524.617 325.151
L520.134 329.775
L515.072 334.673
L509.55 339.66
L503.824 344.468
L498.788 348.415
L493.029 352.631
L488.026 356.053
L481.569 360.159
L475.112 363.945
L468.86 367.324
L464.35 369.597
L457.893 372.625
L451.226 375.486
L444.978 377.936
L438.101 380.384
L432.064 382.33
L425.607 384.206
L419.15 385.877
L412.693 387.349
L406.235 388.627
L399.778 389.713
L393.321 390.61
L386.864 391.319
L380.407 391.839
L373.95 392.167
L369.645 392.271
L363.188 392.073
L358.883 391.824
L358.883 391.824" style="fill:none;stroke:#7dff7a;"/>
   </g>
   <g id="LineCollection_17">
    <path clip-path="url(#pf7cb0f9780)" d="
M358.883 404.925
L352.426 404.434
L345.968 403.765
L339.511 402.919
L331.44 401.607
L326.597 400.687
L320.14 399.297
L313.683 397.719
L307.225 395.948
L300.768 393.977
L298.616 393.275
L296.247 393.444
L290.006 395.298
L283.549 397.019
L277.092 398.548
L270.173 399.975
L264.178 401.043
L257.721 402.016
L251.263 402.81
L244.806 403.425
L238.349 403.859
L231.892 404.107
L227.587 404.108
L221.13 403.868
L214.673 403.448
L208.216 402.854
L201.758 402.086
L195.301 401.146
L188.545 399.975
L180.562 398.342
L175.93 397.27
L169.473 395.616
L161.934 393.444
L156.558 391.738
L150.101 389.501
L143.288 386.914
L137.187 384.393
L130.73 381.502
L124.272 378.37
L117.815 374.983
L111.358 371.324
L104.821 367.324
L98.4437 363.11
L92.8733 359.161
L87.6818 355.236
L82.4163 350.998
L76.7231 346.1
L71.4048 341.203
L66.1579 336.041
L61.73 331.407
L57.3148 326.51
L53.1496 321.612
L48.9388 316.355
L44.3157 310.184
L39.7797 303.654
L35.5911 297.124
L31.7197 290.567
L28.1978 284.064
L27.4145 282.431
L27.2684 217.129
L27.3387 155.092
L27.4149 134.857
L29.5673 131.962
L32.0758 128.971
L35.1889 125.706
L38.1768 122.936
L40.7171 120.809
L44.634 117.877
L47.5796 115.911
L51.0912 113.795
L55.3959 111.505
L60.0129 109.381
L64.1181 107.748
L68.9602 106.116
L72.6151 105.071
L76.9198 104.05
L81.2246 103.244
L85.5294 102.653
L89.8342 102.28
L91.9866 102.181
L96.2913 102.455
L100.596 102.971
L104.901 103.717
L109.206 104.693
L114.169 106.116
L118.825 107.748
L122.782 109.381
L126.425 111.099
L130.73 113.436
L135.034 116.142
L139.339 119.293
L143.036 122.441
L145.796 125.128
L147.949 127.47
L150.488 130.604
L152.76 133.869
L154.684 137.134
L156.282 140.399
L157.568 143.664
L158.552 146.929
L159.232 150.195
L159.593 153.46
L188.844 153.715
L244.806 153.946
L315.835 154.04
L412.693 153.683
L437.755 153.46
L438.106 150.195
L438.766 146.929
L439.721 143.664
L440.97 140.399
L442.52 137.134
L444.384 133.869
L446.581 130.604
L449.14 127.339
L451.436 124.774
L453.75 122.441
L457.427 119.176
L460.045 117.115
L464.35 114.112
L468.655 111.52
L472.959 109.272
L477.264 107.332
L481.569 105.665
L485.874 104.251
L491.138 102.851
L494.483 102.128
L498.788 101.404
L503.093 100.903
L507.398 100.637
L511.702 100.887
L516.007 101.357
L520.312 102.037
L524.617 102.924
L528.922 104.024
L533.226 105.342
L537.531 106.891
L541.836 108.687
L546.646 111.013
L550.445 113.112
L554.9 115.911
L559.402 119.176
L563.36 122.481
L566.735 125.706
L569.817 129.058
L571.969 131.7
L572.105 174.683
L572.105 239.985
L571.969 286.658
L568.868 292.226
L564.93 298.756
L560.656 305.287
L556.031 311.817
L552.32 316.715
L548.293 321.73
L543.988 326.784
L539.683 331.555
L535.145 336.305
L530.177 341.203
L524.617 346.34
L519.23 350.998
L513.855 355.357
L508.868 359.161
L503.093 363.297
L496.636 367.602
L490.179 371.595
L483.379 375.486
L477.222 378.751
L470.573 382.016
L463.333 385.282
L457.893 387.549
L451.054 390.179
L444.978 392.321
L438.521 394.402
L430.531 396.709
L424.171 398.342
L419.15 399.508
L412.693 400.846
L406.235 402.009
L398.002 403.24
L393.321 403.817
L386.864 404.463
L380.407 404.938
L373.95 405.236
L369.645 405.331
L363.188 405.151
L358.883 404.925
L358.883 404.925" style="fill:none;stroke:#97ff60;"/>
   </g>
   <g id="LineCollection_18">
    <path clip-path="url(#pf7cb0f9780)" d="
M197.454 414.668
L196.822 414.667
L188.844 413.429
L180.235 411.815
L171.625 409.91
L164.617 408.137
L156.558 405.849
L148.376 403.24
L141.492 400.814
L135.034 398.339
L127.235 395.077
L122.12 392.772
L115.663 389.661
L109.206 386.316
L102.749 382.723
L96.1058 378.751
L89.8342 374.725
L83.377 370.281
L76.9198 365.508
L70.4627 360.377
L65.1835 355.896
L59.7007 350.945
L54.6557 346.1
L48.9388 340.246
L43.8444 334.673
L39.6257 329.775
L35.6309 324.877
L30.6321 318.347
L27.4149 313.876
L27.1848 253.045
L27.1461 184.478
L27.3218 125.706
L27.4149 112.633
L31.7197 109.309
L36.4013 106.116
L40.3292 103.725
L44.9353 101.218
L48.9388 99.2719
L53.2436 97.4021
L57.5483 95.745
L61.8531 94.2875
L66.1579 93.0193
L70.4627 91.9336
L74.7674 91.0236
L79.0722 90.2865
L83.377 89.7208
L87.6818 89.3289
L91.9866 89.121
L96.2913 89.34
L100.889 89.7902
L104.901 90.3492
L110.604 91.4227
L113.51 92.0875
L117.815 93.2356
L122.438 94.6878
L126.92 96.3204
L130.87 97.9529
L135.034 99.8909
L139.339 102.148
L143.644 104.69
L148.214 107.748
L152.502 111.013
L156.558 114.531
L159.637 117.544
L163.015 121.286
L165.25 124.074
L167.576 127.339
L169.617 130.604
L171.625 134.358
L172.901 137.134
L174.168 140.399
L175.193 143.664
L175.979 146.929
L176.523 150.195
L176.812 153.46
L214.673 153.723
L290.006 153.983
L317.987 153.951
L404.083 153.595
L420.536 153.46
L420.818 150.195
L421.35 146.929
L422.118 143.664
L423.119 140.399
L424.355 137.134
L425.832 133.869
L427.759 130.259
L429.912 126.789
L432.064 123.735
L434.37 120.809
L437.255 117.544
L440.674 114.111
L444.144 111.013
L447.131 108.605
L450.52 106.116
L453.588 104.059
L458.305 101.218
L462.197 99.1317
L466.502 97.0699
L470.807 95.2423
L475.112 93.6317
L479.417 92.2246
L483.721 91.0105
L488.946 89.7902
L492.331 89.1338
L496.636 88.4629
L500.94 87.9695
L505.245 87.6583
L507.398 87.5765
L511.702 87.7799
L516.007 88.1631
L520.312 88.7163
L526.415 89.7902
L528.922 90.3264
L533.356 91.4227
L538.884 93.0553
L543.603 94.6878
L547.75 96.3204
L551.475 97.9529
L554.873 99.5855
L559.055 101.807
L563.565 104.483
L568.433 107.748
L571.969 110.399
L572.186 150.195
L572.264 217.129
L572.11 287.329
L571.969 316.893
L567.191 323.245
L563.271 328.142
L559.055 333.128
L554.75 337.95
L550.143 342.835
L545.254 347.733
L539.683 352.984
L534.56 357.528
L528.688 362.426
L522.406 367.324
L515.659 372.221
L509.55 376.356
L503.093 380.44
L496.636 384.247
L490.179 387.797
L483.721 391.103
L477.264 394.18
L470.807 397.039
L463.621 399.975
L457.893 402.141
L450.016 404.872
L442.826 407.13
L436.369 408.969
L427.759 411.155
L419.15 413.045
L410.408 414.667
L333.054 414.672
L329.581 414.667
L322.292 413.311
L315.835 411.929
L309.378 410.374
L301.154 408.137
L298.616 407.388
L296.464 407.379
L290.006 409.125
L283.549 410.692
L277.092 412.085
L268.482 413.679
L262.025 414.668
L197.454 414.668
L197.454 414.668" style="fill:none;stroke:#b4ff43;"/>
   </g>
   <g id="LineCollection_19">
    <path clip-path="url(#pf7cb0f9780)" d="
M141.492 414.672
L139.988 414.667
L132.882 412.124
L126.425 409.622
L118.986 406.505
L111.787 403.24
L105.098 399.975
L98.8482 396.709
L92.9766 393.444
L87.4361 390.179
L81.2246 386.291
L74.7674 381.979
L67.9706 377.119
L61.5736 372.221
L55.3959 367.168
L48.9388 361.517
L44.634 357.526
L39.6229 352.631
L33.8721 346.66
L28.9327 341.203
L27.4149 339.46
L27.1275 282.431
L26.9988 212.231
L27.0882 145.297
L27.3265 104.483
L27.4149 94.923
L31.7197 92.4103
L36.6971 89.7902
L40.3292 88.0513
L44.634 86.1722
L48.9388 84.4746
L53.2436 82.9484
L57.5483 81.5856
L64.0055 79.8343
L70.4627 78.4194
L74.7674 77.6579
L81.2246 76.784
L87.6818 76.2352
L91.9866 76.0606
L96.2913 76.243
L101.937 76.7298
L104.901 77.0834
L109.206 77.7299
L113.51 78.5265
L119.916 79.9949
L124.272 81.1924
L128.577 82.5402
L132.882 84.0585
L137.187 85.7564
L142.582 88.1576
L145.898 89.7902
L150.101 92.0553
L154.521 94.6878
L159.425 97.9529
L163.807 101.218
L167.746 104.483
L171.625 108.067
L174.509 111.013
L178.082 115.084
L180.235 117.807
L182.399 120.809
L184.539 124.111
L186.692 127.88
L188.072 130.604
L189.529 133.869
L190.996 137.774
L191.83 140.399
L192.683 143.664
L193.337 146.929
L193.791 150.195
L194.031 153.46
L240.501 153.731
L307.225 153.903
L395.473 153.519
L403.317 153.46
L403.553 150.195
L404.083 146.458
L404.639 143.664
L405.475 140.399
L406.504 137.134
L407.731 133.869
L409.157 130.604
L410.79 127.339
L412.693 123.983
L414.845 120.608
L417.016 117.544
L419.576 114.278
L422.406 111.013
L425.607 107.67
L428.979 104.483
L432.791 101.218
L437.019 97.9529
L441.733 94.6878
L444.978 92.6394
L449.945 89.7902
L453.588 87.8944
L457.893 85.8533
L462.197 84.0092
L466.502 82.3498
L470.807 80.8647
L475.112 79.5454
L479.511 78.3624
L485.874 76.9338
L490.179 76.1529
L496.636 75.2573
L500.94 74.8448
L505.245 74.5845
L507.398 74.5161
L511.702 74.6875
L518.16 75.2261
L524.617 76.0836
L531.074 77.2575
L537.531 78.7535
L543.988 80.5832
L548.293 81.9966
L552.598 83.5728
L556.903 85.3205
L561.207 87.25
L566.307 89.7902
L569.817 91.7075
L571.97 93.0553
L572.267 133.869
L572.386 184.478
L572.35 253.045
L572.097 321.612
L571.969 341.932
L566.678 347.733
L561.207 353.369
L556.903 357.571
L551.661 362.426
L546.061 367.324
L539.683 372.559
L533.226 377.52
L526.769 382.163
L519.692 386.914
L513.855 390.586
L507.398 394.402
L500.256 398.342
L493.916 401.607
L487.129 404.872
L479.82 408.137
L472.959 410.976
L466.502 413.455
L463.157 414.667
L382.559 414.81
L305.073 414.74
L270.635 414.773
L190.996 414.777
L141.492 414.672
L141.492 414.672" style="fill:none;stroke:#ceff29;"/>
   </g>
   <g id="LineCollection_20">
    <path clip-path="url(#pf7cb0f9780)" d="
M104.901 414.673
L103.497 414.667
L96.2913 411.175
L89.8342 407.828
L83.377 404.266
L76.0942 399.975
L70.4627 396.446
L63.502 391.812
L56.6201 386.914
L50.1699 382.016
L44.1052 377.119
L38.1768 372.035
L31.7197 366.136
L27.4149 361.978
L27.0902 310.184
L26.891 241.617
L26.896 169.785
L27.0962 114.278
L27.4149 78.8728
L31.9147 76.7298
L38.1768 74.0502
L44.0631 71.8322
L48.9388 70.1969
L55.3959 68.3067
L61.8531 66.7129
L68.3103 65.405
L74.7674 64.3763
L81.2246 63.6236
L87.6818 63.1507
L91.9866 63.0002
L98.4437 63.2872
L104.901 63.8762
L111.358 64.7538
L117.815 65.9195
L124.272 67.3786
L130.73 69.1408
L137.187 71.2202
L143.211 73.4647
L147.949 75.4462
L154.16 78.3624
L158.711 80.7449
L163.102 83.26
L168.27 86.5251
L172.941 89.7902
L177.186 93.0553
L181.06 96.3204
L184.608 99.5855
L188.844 103.905
L190.996 106.302
L193.564 109.381
L196.061 112.646
L198.34 115.911
L200.413 119.176
L202.288 122.441
L203.975 125.706
L206.063 130.365
L206.804 132.236
L208.216 136.326
L208.938 138.767
L209.752 142.032
L210.397 145.297
L210.872 148.562
L211.172 151.827
L211.25 153.46
L266.33 153.74
L311.53 153.809
L386.098 153.46
L386.3 150.195
L386.864 145.765
L387.233 143.664
L387.95 140.399
L389.016 136.537
L389.882 133.869
L391.169 130.434
L392.488 127.339
L394.054 124.074
L395.801 120.809
L397.736 117.544
L399.868 114.278
L402.207 111.013
L404.764 107.748
L408.388 103.561
L410.591 101.218
L414.845 97.0742
L417.511 94.6878
L421.448 91.4227
L425.76 88.1576
L430.503 84.8925
L435.749 81.6275
L440.674 78.8573
L444.978 76.6479
L449.283 74.6227
L453.588 72.7675
L460.045 70.2831
L465.131 68.5671
L470.807 66.8794
L477.264 65.249
L483.721 63.9121
L490.179 62.861
L496.636 62.0923
L503.093 61.6094
L507.398 61.4557
L513.855 61.7277
L520.312 62.2857
L526.769 63.1167
L533.226 64.2196
L539.683 65.5983
L546.141 67.2606
L552.598 69.218
L559.055 71.4854
L564.044 73.4647
L569.817 76.0129
L571.969 77.0394
L572.314 115.911
L572.484 159.99
L572.516 233.455
L572.323 306.919
L571.969 364.123
L565.512 370.174
L561.207 373.995
L554.75 379.426
L548.293 384.525
L541.836 389.315
L535.379 393.818
L528.465 398.342
L522.464 402.036
L514.716 406.505
L508.671 409.77
L502.254 413.035
L498.788 414.668
L421.302 414.885
L335.207 414.907
L246.959 414.914
L165.168 414.853
L104.901 414.673
L104.901 414.673" style="fill:none;stroke:#ebff0c;"/>
   </g>
   <g id="LineCollection_21">
    <path clip-path="url(#pf7cb0f9780)" d="
M74.7674 414.676
L73.0375 414.667
L66.1579 410.628
L59.5474 406.505
L52.1776 401.607
L45.2683 396.709
L38.7707 391.812
L32.6429 386.914
L27.4149 382.506
L27.0655 336.305
L26.8143 272.636
L26.7343 195.906
L26.8806 125.706
L27.2069 81.6275
L27.4527 63.6694
L33.8721 61.1131
L40.5261 58.7718
L46.7864 56.8386
L53.2436 55.1072
L59.7007 53.6318
L66.1579 52.4051
L72.6151 51.4222
L79.8698 50.609
L85.5294 50.1826
L91.9866 49.9398
L98.4437 50.1908
L104.901 50.7057
L111.358 51.4723
L117.815 52.4891
L124.791 53.8741
L130.73 55.2871
L137.373 57.1392
L143.644 59.1568
L150.101 61.525
L156.558 64.2065
L163.015 67.226
L168.715 70.1996
L173.777 73.1023
L178.082 75.7874
L182.387 78.6891
L186.692 81.8323
L190.996 85.2479
L195.301 88.9741
L197.931 91.4227
L201.758 95.2623
L204.246 97.9529
L208.216 102.64
L210.886 106.116
L213.195 109.381
L215.321 112.646
L218.182 117.544
L220.67 122.441
L222.129 125.706
L224.03 130.604
L225.592 135.502
L226.822 140.399
L227.723 145.297
L228.139 148.562
L228.401 151.827
L228.469 153.46
L292.159 153.752
L313.683 153.72
L368.879 153.46
L369.056 150.195
L369.391 146.929
L370.169 142.032
L371.273 137.134
L372.703 132.236
L374.462 127.339
L376.56 122.441
L379.009 117.544
L381.823 112.646
L384.711 108.203
L387.385 104.483
L391.169 99.7316
L394.157 96.3204
L397.626 92.6715
L401.931 88.5325
L406.075 84.8925
L410.114 81.6275
L414.491 78.3624
L419.251 75.0973
L424.46 71.8322
L429.912 68.7174
L434.216 66.4613
L440.674 63.3817
L447.131 60.6408
L453.588 58.2133
L460.045 56.0787
L466.502 54.2218
L472.959 52.6306
L479.417 51.2961
L485.874 50.2118
L492.331 49.3745
L498.788 48.7839
L505.245 48.4468
L509.55 48.4451
L516.007 48.7714
L522.464 49.3429
L528.922 50.1531
L535.379 51.2015
L541.836 52.4911
L548.293 54.0274
L554.75 55.8184
L561.207 57.8745
L568.168 60.4043
L571.969 61.9276
L572.341 97.9529
L572.58 142.032
L572.665 208.966
L572.541 287.329
L572.232 352.631
L571.969 384.435
L565.512 389.766
L559.055 394.788
L552.598 399.523
L546.141 403.99
L539.683 408.208
L531.803 413.035
L528.922 414.668
L455.74 414.937
L365.34 415.042
L124.272 414.875
L74.7674 414.676
L74.7674 414.676" style="fill:none;stroke:#ffe600;"/>
   </g>
   <g id="LineCollection_22">
    <path clip-path="url(#pf7cb0f9780)" d="
M46.7864 414.674
L45.7113 414.667
L38.4915 409.77
L33.8721 406.473
L27.4145 401.607
L27.0368 359.161
L26.7507 300.389
L26.6031 223.659
L26.6669 145.297
L26.8956 97.9529
L27.3013 57.1392
L27.4149 49.0209
L33.8721 46.7712
L40.3292 44.7703
L46.7864 43.0078
L53.2436 41.4754
L59.7007 40.1662
L66.1579 39.0756
L72.6151 38.2005
L79.0722 37.5399
L85.5294 37.0958
L91.9866 36.8794
L98.4437 37.1023
L104.901 37.5596
L111.358 38.2402
L118.058 39.1812
L124.272 40.2663
L130.73 41.6166
L137.187 43.1985
L143.644 45.0194
L150.84 47.3439
L156.558 49.4191
L163.518 52.2416
L169.473 54.9265
L173.981 57.1392
L180.235 60.4826
L185.664 63.6694
L190.996 67.0774
L195.504 70.1996
L199.88 73.4647
L203.948 76.7298
L208.216 80.4265
L212.947 84.8925
L216.825 88.8957
L220.528 93.0553
L223.282 96.4051
L226.907 101.218
L229.739 105.375
L232.228 109.381
L234.957 114.278
L237.357 119.176
L239.443 124.074
L241.223 128.971
L242.706 133.869
L243.894 138.767
L244.806 143.765
L245.395 148.562
L245.688 153.46
L302.921 153.682
L351.659 153.46
L351.949 148.562
L352.545 143.664
L353.43 138.767
L354.603 133.869
L356.066 128.971
L357.822 124.074
L359.879 119.176
L362.246 114.278
L364.934 109.381
L367.96 104.483
L371.342 99.5855
L373.95 96.1384
L377.837 91.4227
L380.763 88.1576
L384.711 84.0744
L389.016 79.9797
L393.321 76.2126
L397.626 72.725
L401.931 69.4861
L406.235 66.4704
L410.54 63.6567
L415.919 60.4043
L421.302 57.4091
L425.607 55.1905
L432.064 52.1328
L438.521 49.378
L444.978 46.9045
L451.436 44.6961
L457.893 42.7392
L464.35 41.0233
L470.807 39.5401
L477.264 38.2828
L483.721 37.2469
L490.179 36.4298
L496.636 35.8311
L503.093 35.4547
L507.398 35.335
L513.855 35.5486
L520.312 35.987
L526.769 36.6392
L533.52 37.5486
L539.683 38.5795
L546.141 39.8714
L552.598 41.3834
L559.055 43.1217
L565.512 45.0945
L571.969 47.3115
L572.371 81.6275
L572.663 125.706
L572.782 179.58
L572.748 259.575
L572.504 334.673
L572.127 388.547
L571.969 403.42
L565.512 408.194
L558.58 413.035
L556.146 414.667
L490.179 414.969
L401.931 415.142
L311.53 415.111
L257.721 415.138
L167.32 415.097
L79.0722 414.843
L46.7864 414.674
L46.7864 414.674" style="fill:none;stroke:#ffc400;"/>
   </g>
   <g id="LineCollection_23">
    <path clip-path="url(#pf7cb0f9780)" d="
M27.4149 414.718
L27.3487 414.667
L26.9691 375.486
L26.6687 319.98
L26.4857 243.25
L26.5006 159.99
L26.6914 104.483
L27.0597 60.4043
L27.4149 34.7019
L34.0364 32.651
L40.3292 30.9114
L46.7864 29.333
L54.3036 27.7533
L59.7007 26.7808
L66.1579 25.7989
L72.6151 25.0104
L79.0722 24.4147
L85.5294 24.0142
L91.9866 23.819
L98.4437 24.0195
L105.582 24.4882
L111.358 25.0426
L117.815 25.8527
L124.272 26.8617
L130.73 28.0717
L137.187 29.4863
L143.644 31.1108
L150.101 32.9517
L156.558 35.0171
L163.628 37.5486
L169.473 39.8629
L175.93 42.67
L182.387 45.7563
L188.844 49.1445
L195.301 52.8618
L199.606 55.5377
L204.468 58.7718
L209.045 62.0369
L213.323 65.302
L217.33 68.5671
L221.13 71.869
L226.301 76.7298
L229.739 80.2283
L234.044 84.961
L238.054 89.7902
L240.561 93.0553
L244.03 97.9529
L247.169 102.851
L249.993 107.748
L252.517 112.646
L254.753 117.544
L256.709 122.441
L258.394 127.339
L259.873 132.475
L260.967 137.134
L261.861 142.032
L262.492 146.929
L262.853 151.827
L262.908 153.46
L307.225 153.585
L334.44 153.46
L334.702 148.562
L335.237 143.664
L336.035 138.767
L337.09 133.869
L338.404 128.971
L339.98 124.074
L341.822 119.176
L343.937 114.278
L346.333 109.381
L349.02 104.483
L352.011 99.5855
L355.321 94.6878
L358.967 89.7902
L363.188 84.6456
L367.492 79.8641
L372.185 75.0973
L376.102 71.422
L381.269 66.9345
L385.321 63.6694
L389.647 60.4043
L395.473 56.3283
L399.778 53.5318
L406.235 49.6489
L410.54 47.2503
L416.997 43.9173
L423.598 40.8137
L429.912 38.112
L436.369 35.6015
L442.826 33.3333
L450.225 31.0184
L456.093 29.3859
L462.726 27.7533
L468.655 26.4764
L475.112 25.2811
L481.569 24.2842
L488.026 23.4837
L494.802 22.8557
L500.94 22.4727
L507.398 22.2746
L513.855 22.4675
L520.312 22.8634
L526.769 23.4522
L533.226 24.2316
L539.683 25.202
L546.141 26.365
L552.726 27.7533
L559.448 29.3859
L565.512 31.0478
L571.969 33.0256
L572.379 63.6694
L572.715 106.116
L572.888 156.725
L572.91 241.617
L572.707 324.877
L572.354 385.282
L572.057 414.667
L571.969 414.734
L509.55 415.04
L421.302 415.239
L322.292 415.243
L242.654 415.262
L147.949 415.186
L61.8531 414.914
L27.4149 414.718
L27.4149 414.718" style="fill:none;stroke:#ffa700;"/>
   </g>
   <g id="LineCollection_24">
    <path clip-path="url(#pf7cb0f9780)" d="
M27.4149 414.893
L27.1169 414.667
L26.7584 372.221
L26.486 311.817
L26.3368 226.924
L26.3963 140.399
L26.6305 88.1576
L27.0248 45.7114
L27.4149 20.6245
L33.8721 18.8172
L40.3292 17.2012
L46.7864 15.7712
L53.2436 14.5231
L59.7007 13.4538
L66.1579 12.561
L72.6151 11.8433
L79.0722 11.301
L85.5294 10.9363
L91.9866 10.7586
L98.4437 10.9407
L106.381 11.4278
L111.358 11.87
L117.815 12.6054
L124.272 13.5206
L131.133 14.6929
L137.187 15.8971
L143.644 17.3646
L150.101 19.0239
L157.671 21.2231
L163.015 22.9418
L169.473 25.2164
L176.029 27.7533
L182.387 30.4449
L188.844 33.4254
L195.301 36.6718
L201.758 40.2045
L206.063 42.7307
L212.52 46.8002
L218.097 50.609
L223.282 54.4218
L228.766 58.7718
L232.609 62.0369
L236.237 65.302
L241.305 70.1996
L245.962 75.0973
L250.242 79.9949
L254.172 84.8925
L257.774 89.7902
L261.065 94.6878
L264.178 99.7825
L266.782 104.483
L269.23 109.381
L271.417 114.278
L273.352 119.176
L275.04 124.074
L276.485 128.971
L277.692 133.869
L278.661 138.767
L279.394 143.664
L279.887 148.562
L280.127 153.46
L309.378 153.496
L317.221 153.46
L317.459 148.562
L317.987 143.35
L318.671 138.767
L319.63 133.869
L320.823 128.971
L322.292 123.952
L323.922 119.176
L325.835 114.278
L327.998 109.381
L330.417 104.483
L333.102 99.5855
L336.063 94.6878
L339.511 89.5071
L342.867 84.8925
L346.743 79.9949
L350.961 75.0973
L355.548 70.1996
L360.535 65.302
L365.34 60.9443
L369.844 57.1392
L373.961 53.8741
L378.332 50.609
L384.711 46.1821
L390.551 42.4463
L396.046 39.1812
L401.961 35.9161
L408.388 32.6417
L415.366 29.3859
L421.302 26.8431
L427.759 24.3022
L434.216 21.9845
L441.616 19.5906
L447.201 17.958
L453.588 16.2728
L460.353 14.6929
L466.502 13.4324
L472.959 12.2878
L479.417 11.323
L485.874 10.5364
L494.07 9.79529
L498.788 9.4972
L505.245 9.25163
L509.55 9.25075
L516.007 9.4905
L522.464 9.9104
L528.922 10.5049
L536.514 11.4278
L541.836 12.2141
L548.293 13.3304
L555.064 14.6929
L562.123 16.3255
L568.384 17.958
L571.969 18.9721
L572.38 45.7114
L572.744 84.8925
L572.985 135.502
L573.062 207.334
L572.945 298.756
L572.649 370.589
L572.286 414.667
L571.969 414.908
L505.245 415.193
L410.54 415.367
L307.225 415.343
L249.111 415.375
L147.949 415.309
L57.5483 415.049
L27.4149 414.893
L27.4149 414.893" style="fill:none;stroke:#ff8600;"/>
   </g>
   <g id="LineCollection_25">
    <path clip-path="url(#pf7cb0f9780)" d="
M27.4149 415.069
L26.8851 414.667
L26.5537 368.956
L26.3081 302.022
L26.197 208.966
L26.2973 124.074
L26.5802 70.1996
L26.9864 31.0184
L27.4149 6.72375
L34.6229 4.89765
L42.4816 3.14629
L50.4157 1.63255
L104.901 1.57378
L133.06 1.63255
L141.492 3.27188
L148.66 4.89765
L155.059 6.5302
L160.864 8.16275
L167.32 10.1573
L173.777 12.3443
L180.235 14.7311
L188.179 17.958
L193.149 20.1454
L199.606 23.1955
L206.063 26.4942
L212.52 30.0596
L218.978 33.9128
L224.637 37.5486
L229.739 41.0503
L236.056 45.7114
L240.501 49.2303
L245.984 53.8741
L251.263 58.7007
L255.568 62.9348
L259.873 67.4716
L264.178 72.3608
L267.751 76.7298
L271.465 81.6275
L274.94 86.6008
L278.036 91.4227
L280.92 96.3204
L283.549 101.218
L285.934 106.116
L288.081 111.013
L290.006 115.936
L291.687 120.809
L293.155 125.706
L294.404 130.604
L295.436 135.502
L296.252 140.399
L296.85 145.297
L297.226 150.195
L297.346 153.46
L299.958 153.46
L300.189 148.562
L300.661 143.664
L301.6 137.134
L302.55 132.236
L303.715 127.339
L305.096 122.441
L306.695 117.544
L308.516 112.646
L310.564 107.748
L312.844 102.851
L315.835 97.0904
L318.13 93.0553
L321.153 88.1576
L324.445 83.2587
L328.016 78.3624
L331.883 73.4647
L336.065 68.5671
L340.582 63.6694
L345.46 58.7718
L350.273 54.2838
L354.578 50.5244
L360.491 45.7114
L365.34 42.0332
L371.797 37.4728
L378.254 33.2627
L384.711 29.3667
L391.169 25.7611
L397.626 22.4219
L404.083 19.3312
L410.892 16.3255
L416.997 13.8376
L423.454 11.4099
L429.912 9.18302
L436.369 7.14789
L444.319 4.89765
L451.436 3.10992
L458.083 1.63255
L513.855 1.54291
L557.307 1.63255
L565.512 3.45873
L571.969 5.08916
L572.398 29.3859
L572.766 63.6694
L573.055 112.646
L573.178 171.418
L573.149 267.738
L572.912 354.263
L572.561 409.77
L572.516 414.667
L571.969 415.082
L498.788 415.348
L393.321 415.494
L184.539 415.475
L76.9198 415.274
L27.4149 415.069
L27.4149 415.069" style="fill:none;stroke:#ff6800;"/>
   </g>
   <g id="LineCollection_26">
    <path clip-path="url(#pf7cb0f9780)" d="
M27.4149 415.245
L26.6533 414.667
L26.3546 365.691
L26.1369 290.594
L26.0682 187.743
L26.2151 104.483
L26.5399 50.609
L26.9674 14.6929
L27.21 1.63255
L27.4149 1.47715
L85.5294 1.34395
L141.492 1.42397
L184.069 1.63255
L190.996 4.29047
L197.454 6.97355
L203.911 9.86421
L210.539 13.0604
L216.839 16.3255
L223.282 19.9113
L229.739 23.7725
L236.197 27.9238
L243.01 32.651
L249.536 37.5486
L255.58 42.4463
L261.189 47.3439
L266.404 52.2416
L271.255 57.1392
L275.77 62.0369
L279.971 66.9345
L283.878 71.8322
L287.854 77.223
L290.867 81.6275
L294.311 87.0799
L297.771 93.0553
L298.616 94.608
L301.255 89.7902
L304.17 84.8925
L307.328 79.9949
L310.739 75.0973
L314.415 70.1996
L318.37 65.302
L322.621 60.4043
L327.186 55.5067
L332.088 50.609
L337.359 45.7057
L343.016 40.8137
L348.121 36.6889
L353.445 32.651
L358.883 28.779
L365.34 24.4835
L371.797 20.4904
L378.254 16.7721
L385.196 13.0604
L391.775 9.79529
L398.878 6.5302
L404.083 4.29756
L410.743 1.63255
L460.045 1.39339
L520.312 1.32718
L571.969 1.45127
L572.208 1.63255
L572.604 26.1208
L572.948 62.0369
L573.212 114.278
L573.319 181.213
L573.265 284.064
L573.017 370.589
L572.745 414.667
L571.969 415.256
L492.331 415.497
L376.102 415.614
L132.882 415.536
L36.0244 415.282
L27.4149 415.245
L27.4149 415.245" style="fill:none;stroke:#ff4700;"/>
   </g>
   <g id="LineCollection_27">
    <path clip-path="url(#pf7cb0f9780)" d="
M27.4149 415.421
L26.4215 414.667
L26.1497 359.161
L25.966 271.003
L25.9517 158.357
L26.1245 86.5251
L26.4622 34.2835
L26.8854 1.63255
L27.4149 1.23096
L91.9866 1.11799
L158.711 1.24153
L208.216 1.53158
L218.978 1.68309
L225.435 4.99103
L231.892 8.52815
L238.349 12.31
L244.806 16.3542
L252.034 21.2231
L257.721 25.33
L263.005 29.3859
L268.986 34.2835
L274.94 39.521
L279.781 44.0788
L284.656 48.9765
L289.217 53.8741
L293.481 58.7718
L298.616 64.8881
L302.921 59.4694
L307.225 54.4255
L311.53 49.7057
L315.835 45.2689
L320.426 40.8137
L325.808 35.9161
L331.567 31.0184
L337.74 26.1208
L344.371 21.2231
L350.273 17.1499
L356.73 12.9747
L363.188 9.07223
L370.606 4.89765
L376.829 1.63255
L414.845 1.33676
L470.807 1.13767
L535.379 1.12257
L571.969 1.20939
L572.527 1.63255
L572.891 29.3859
L573.199 71.8322
L573.408 133.869
L573.456 225.292
L573.309 336.305
L573.017 408.137
L572.974 414.667
L571.969 415.43
L483.721 415.644
L354.578 415.727
L68.3103 415.547
L27.4149 415.421
L27.4149 415.421" style="fill:none;stroke:#ff2900;"/>
   </g>
   <g id="LineCollection_28">
    <path clip-path="url(#pf7cb0f9780)" d="
M27.4149 415.597
L26.1897 414.667
L25.9553 352.631
L25.8097 249.78
L25.8481 127.339
L26.078 57.1392
L26.417 13.0604
L26.5608 1.63255
L27.4149 0.98477
L98.4437 0.896001
L171.625 1.03656
L223.282 1.34415
L248.233 1.63255
L253.53 4.89765
L260.987 9.79529
L266.33 13.5351
L272.787 18.3375
L279.244 23.4796
L284.284 27.7533
L290.006 32.9148
L294.829 37.5486
L296.464 39.1834
L298.616 41.0171
L302.921 36.6354
L307.225 32.4828
L312.417 27.7533
L318.138 22.8557
L324.445 17.8011
L330.902 12.9621
L337.757 8.16275
L343.816 4.18395
L347.899 1.63255
L376.102 1.31221
L421.302 1.04205
L488.026 0.889664
L559.055 0.936496
L571.969 0.967513
L572.846 1.63255
L573.162 32.651
L573.421 81.6275
L573.571 153.46
L573.554 280.798
L573.336 385.282
L573.204 414.667
L571.969 415.604
L470.807 415.79
L324.445 415.831
L27.4149 415.597
L27.4149 415.597" style="fill:none;stroke:#f10800;"/>
   </g>
   <g id="LineCollection_29">
    <path clip-path="url(#pf7cb0f9780)" d="
M27.4149 415.773
L25.9579 414.667
L25.762 341.203
L25.6632 212.231
L25.7635 93.0553
L26.0319 26.1208
L26.2363 1.63255
L27.4149 0.738577
L109.206 0.676807
L188.844 0.833437
L238.349 1.12569
L268.482 1.51074
L274.681 1.63255
L279.272 4.89765
L285.796 9.79529
L292.159 14.889
L296.464 18.5302
L298.616 19.9531
L302.921 16.2034
L309.378 10.8868
L315.835 5.90369
L321.712 1.63255
L341.664 1.29931
L373.95 0.998276
L425.607 0.769021
L505.245 0.660348
L571.969 0.725635
L573.165 1.63255
L573.437 39.1812
L573.646 102.851
L573.724 197.538
L573.631 337.938
L573.433 414.667
L571.969 415.778
L453.588 415.93
L238.349 415.954
L74.7674 415.857
L27.4149 415.773
L27.4149 415.773" style="fill:none;stroke:#cd0000;"/>
   </g>
   <g id="LineCollection_30">
    <path clip-path="url(#pf7cb0f9780)" d="
M27.4149 415.948
L25.7261 414.667
L25.575 319.98
L25.5412 150.195
L25.6931 48.9765
L25.9117 1.63255
L27.4149 0.492385
L128.577 0.462695
L216.825 0.644653
L262.025 0.935796
L285.702 1.27557
L300.768 1.52123
L315.835 1.18088
L339.511 0.885169
L378.254 0.647052
L447.131 0.479058
L550.445 0.459953
L571.969 0.483757
L573.484 1.63255
L573.696 48.9765
L573.838 137.134
L573.827 298.756
L573.663 414.667
L571.969 415.952
L419.15 416.065
L109.206 416.032
L27.4149 415.948
L27.4149 415.948" style="fill:none;stroke:#a40000;"/>
   </g>
   <g id="LineCollection_31">
    <path clip-path="url(#pf7cb0f9780)" d="
M27.4149 416.124
L25.4943 414.667
L25.4025 267.738
L25.4686 55.5067
L25.5871 1.63255
L27.4149 0.246192
L169.473 0.257161
L257.721 0.447132
L292.159 0.711063
L300.768 0.760617
L324.445 0.525256
L369.645 0.342742
L462.197 0.231195
L571.969 0.241878
L573.803 1.63255
L573.94 75.0973
L573.988 235.087
L573.892 414.667
L571.969 416.126
L341.664 416.185
L27.4149 416.124
L27.4149 416.124" style="fill:none;stroke:#800000;"/>
   </g>
   <g id="patch_3">
    <path d="
M574.122 416.3
L574.122 0" style="fill:none;stroke:#000000;stroke-linecap:square;stroke-linejoin:miter;"/>
   </g>
   <g id="patch_4">
    <path d="
M25.2625 416.3
L25.2625 0" style="fill:none;stroke:#000000;stroke-linecap:square;stroke-linejoin:miter;"/>
   </g>
   <g id="patch_5">
    <path d="
M25.2625 416.3
L574.122 416.3" style="fill:none;stroke:#000000;stroke-linecap:square;stroke-linejoin:miter;"/>
   </g>
   <g id="patch_6">
    <path d="
M25.2625 0
L574.122 0" style="fill:none;stroke:#000000;stroke-linecap:square;stroke-linejoin:miter;"/>
   </g>
   <g id="matplotlib.axis_1">
    <g id="xtick_1">
     <g id="line2d_1">
      <defs>
       <path d="
M0 0
L0 -4" id="mc7db9fdffb" style="stroke:#000000;stroke-width:0.5;"/>
      </defs>
      <g>
       <use style="stroke:#000000;stroke-width:0.5;" x="25.2625" xlink:href="#mc7db9fdffb" y="416.3"/>
      </g>
     </g>
     <g id="line2d_2">
      <defs>
       <path d="
M0 0
L0 4" id="m5a7d422ac3" style="stroke:#000000;stroke-width:0.5;"/>
      </defs>
      <g>
       <use style="stroke:#000000;stroke-width:0.5;" x="25.2625" xlink:href="#m5a7d422ac3" y="0.0"/>
      </g>
     </g>
     <g id="text_1">
      <!-- 0 -->
      <defs>
       <path d="
M31.7812 66.4062
Q24.1719 66.4062 20.3281 58.9062
Q16.5 51.4219 16.5 36.375
Q16.5 21.3906 20.3281 13.8906
Q24.1719 6.39062 31.7812 6.39062
Q39.4531 6.39062 43.2812 13.8906
Q47.125 21.3906 47.125 36.375
Q47.125 51.4219 43.2812 58.9062
Q39.4531 66.4062 31.7812 66.4062
M31.7812 74.2188
Q44.0469 74.2188 50.5156 64.5156
Q56.9844 54.8281 56.9844 36.375
Q56.9844 17.9688 50.5156 8.26562
Q44.0469 -1.42188 31.7812 -1.42188
Q19.5312 -1.42188 13.0625 8.26562
Q6.59375 17.9688 6.59375 36.375
Q6.59375 54.8281 13.0625 64.5156
Q19.5312 74.2188 31.7812 74.2188" id="BitstreamVeraSans-Roman-30"/>
      </defs>
      <g transform="translate(22.2390625 429.418125)scale(0.12 -0.12)">
       <use xlink:href="#BitstreamVeraSans-Roman-30"/>
      </g>
     </g>
    </g>
    <g id="xtick_2">
     <g id="line2d_3">
      <g>
       <use style="stroke:#000000;stroke-width:0.5;" x="132.88194925" xlink:href="#mc7db9fdffb" y="416.3"/>
      </g>
     </g>
     <g id="line2d_4">
      <g>
       <use style="stroke:#000000;stroke-width:0.5;" x="132.88194925" xlink:href="#m5a7d422ac3" y="0.0"/>
      </g>
     </g>
     <g id="text_2">
      <!-- 50 -->
      <defs>
       <path d="
M10.7969 72.9062
L49.5156 72.9062
L49.5156 64.5938
L19.8281 64.5938
L19.8281 46.7344
Q21.9688 47.4688 24.1094 47.8281
Q26.2656 48.1875 28.4219 48.1875
Q40.625 48.1875 47.75 41.5
Q54.8906 34.8125 54.8906 23.3906
Q54.8906 11.625 47.5625 5.09375
Q40.2344 -1.42188 26.9062 -1.42188
Q22.3125 -1.42188 17.5469 -0.640625
Q12.7969 0.140625 7.71875 1.70312
L7.71875 11.625
Q12.1094 9.23438 16.7969 8.0625
Q21.4844 6.89062 26.7031 6.89062
Q35.1562 6.89062 40.0781 11.3281
Q45.0156 15.7656 45.0156 23.3906
Q45.0156 31 40.0781 35.4375
Q35.1562 39.8906 26.7031 39.8906
Q22.75 39.8906 18.8125 39.0156
Q14.8906 38.1406 10.7969 36.2812
z
" id="BitstreamVeraSans-Roman-35"/>
      </defs>
      <g transform="translate(126.10851175 429.418125)scale(0.12 -0.12)">
       <use xlink:href="#BitstreamVeraSans-Roman-35"/>
       <use x="63.623046875" xlink:href="#BitstreamVeraSans-Roman-30"/>
      </g>
     </g>
    </g>
    <g id="xtick_3">
     <g id="line2d_5">
      <g>
       <use style="stroke:#000000;stroke-width:0.5;" x="240.501398501" xlink:href="#mc7db9fdffb" y="416.3"/>
      </g>
     </g>
     <g id="line2d_6">
      <g>
       <use style="stroke:#000000;stroke-width:0.5;" x="240.501398501" xlink:href="#m5a7d422ac3" y="0.0"/>
      </g>
     </g>
     <g id="text_3">
      <!-- 100 -->
      <defs>
       <path d="
M12.4062 8.29688
L28.5156 8.29688
L28.5156 63.9219
L10.9844 60.4062
L10.9844 69.3906
L28.4219 72.9062
L38.2812 72.9062
L38.2812 8.29688
L54.3906 8.29688
L54.3906 0
L12.4062 0
z
" id="BitstreamVeraSans-Roman-31"/>
      </defs>
      <g transform="translate(230.106398501 429.418125)scale(0.12 -0.12)">
       <use xlink:href="#BitstreamVeraSans-Roman-31"/>
       <use x="63.623046875" xlink:href="#BitstreamVeraSans-Roman-30"/>
       <use x="127.24609375" xlink:href="#BitstreamVeraSans-Roman-30"/>
      </g>
     </g>
    </g>
    <g id="xtick_4">
     <g id="line2d_7">
      <g>
       <use style="stroke:#000000;stroke-width:0.5;" x="348.120847751" xlink:href="#mc7db9fdffb" y="416.3"/>
      </g>
     </g>
     <g id="line2d_8">
      <g>
       <use style="stroke:#000000;stroke-width:0.5;" x="348.120847751" xlink:href="#m5a7d422ac3" y="0.0"/>
      </g>
     </g>
     <g id="text_4">
      <!-- 150 -->
      <g transform="translate(337.725847751 429.418125)scale(0.12 -0.12)">
       <use xlink:href="#BitstreamVeraSans-Roman-31"/>
       <use x="63.623046875" xlink:href="#BitstreamVeraSans-Roman-35"/>
       <use x="127.24609375" xlink:href="#BitstreamVeraSans-Roman-30"/>
      </g>
     </g>
    </g>
    <g id="xtick_5">
     <g id="line2d_9">
      <g>
       <use style="stroke:#000000;stroke-width:0.5;" x="455.740297001" xlink:href="#mc7db9fdffb" y="416.3"/>
      </g>
     </g>
     <g id="line2d_10">
      <g>
       <use style="stroke:#000000;stroke-width:0.5;" x="455.740297001" xlink:href="#m5a7d422ac3" y="0.0"/>
      </g>
     </g>
     <g id="text_5">
      <!-- 200 -->
      <defs>
       <path d="
M19.1875 8.29688
L53.6094 8.29688
L53.6094 0
L7.32812 0
L7.32812 8.29688
Q12.9375 14.1094 22.625 23.8906
Q32.3281 33.6875 34.8125 36.5312
Q39.5469 41.8438 41.4219 45.5312
Q43.3125 49.2188 43.3125 52.7812
Q43.3125 58.5938 39.2344 62.25
Q35.1562 65.9219 28.6094 65.9219
Q23.9688 65.9219 18.8125 64.3125
Q13.6719 62.7031 7.8125 59.4219
L7.8125 69.3906
Q13.7656 71.7812 18.9375 73
Q24.125 74.2188 28.4219 74.2188
Q39.75 74.2188 46.4844 68.5469
Q53.2188 62.8906 53.2188 53.4219
Q53.2188 48.9219 51.5312 44.8906
Q49.8594 40.875 45.4062 35.4062
Q44.1875 33.9844 37.6406 27.2188
Q31.1094 20.4531 19.1875 8.29688" id="BitstreamVeraSans-Roman-32"/>
      </defs>
      <g transform="translate(445.125922001 429.418125)scale(0.12 -0.12)">
       <use xlink:href="#BitstreamVeraSans-Roman-32"/>
       <use x="63.623046875" xlink:href="#BitstreamVeraSans-Roman-30"/>
       <use x="127.24609375" xlink:href="#BitstreamVeraSans-Roman-30"/>
      </g>
     </g>
    </g>
    <g id="xtick_6">
     <g id="line2d_11">
      <g>
       <use style="stroke:#000000;stroke-width:0.5;" x="563.359746251" xlink:href="#mc7db9fdffb" y="416.3"/>
      </g>
     </g>
     <g id="line2d_12">
      <g>
       <use style="stroke:#000000;stroke-width:0.5;" x="563.359746251" xlink:href="#m5a7d422ac3" y="0.0"/>
      </g>
     </g>
     <g id="text_6">
      <!-- 250 -->
      <g transform="translate(552.745371251 429.418125)scale(0.12 -0.12)">
       <use xlink:href="#BitstreamVeraSans-Roman-32"/>
       <use x="63.623046875" xlink:href="#BitstreamVeraSans-Roman-35"/>
       <use x="127.24609375" xlink:href="#BitstreamVeraSans-Roman-30"/>
      </g>
     </g>
    </g>
   </g>
   <g id="matplotlib.axis_2">
    <g id="ytick_1">
     <g id="line2d_13">
      <defs>
       <path d="
M0 0
L4 0" id="md7965d1ba0" style="stroke:#000000;stroke-width:0.5;"/>
      </defs>
      <g>
       <use style="stroke:#000000;stroke-width:0.5;" x="25.2625" xlink:href="#md7965d1ba0" y="416.3"/>
      </g>
     </g>
     <g id="line2d_14">
      <defs>
       <path d="
M0 0
L-4 0" id="md9a1c1a7cd" style="stroke:#000000;stroke-width:0.5;"/>
      </defs>
      <g>
       <use style="stroke:#000000;stroke-width:0.5;" x="574.121691176" xlink:href="#md9a1c1a7cd" y="416.3"/>
      </g>
     </g>
     <g id="text_7">
      <!-- 0 -->
      <g transform="translate(15.215625 419.61125)scale(0.12 -0.12)">
       <use xlink:href="#BitstreamVeraSans-Roman-30"/>
      </g>
     </g>
    </g>
    <g id="ytick_2">
     <g id="line2d_15">
      <g>
       <use style="stroke:#000000;stroke-width:0.5;" x="25.2625" xlink:href="#md7965d1ba0" y="334.67254902"/>
      </g>
     </g>
     <g id="line2d_16">
      <g>
       <use style="stroke:#000000;stroke-width:0.5;" x="574.121691176" xlink:href="#md9a1c1a7cd" y="334.67254902"/>
      </g>
     </g>
     <g id="text_8">
      <!-- 50 -->
      <g transform="translate(7.715625 337.98379902)scale(0.12 -0.12)">
       <use xlink:href="#BitstreamVeraSans-Roman-35"/>
       <use x="63.623046875" xlink:href="#BitstreamVeraSans-Roman-30"/>
      </g>
     </g>
    </g>
    <g id="ytick_3">
     <g id="line2d_17">
      <g>
       <use style="stroke:#000000;stroke-width:0.5;" x="25.2625" xlink:href="#md7965d1ba0" y="253.045098039"/>
      </g>
     </g>
     <g id="line2d_18">
      <g>
       <use style="stroke:#000000;stroke-width:0.5;" x="574.121691176" xlink:href="#md9a1c1a7cd" y="253.045098039"/>
      </g>
     </g>
     <g id="text_9">
      <!-- 100 -->
      <g transform="translate(0.4725 256.356348039)scale(0.12 -0.12)">
       <use xlink:href="#BitstreamVeraSans-Roman-31"/>
       <use x="63.623046875" xlink:href="#BitstreamVeraSans-Roman-30"/>
       <use x="127.24609375" xlink:href="#BitstreamVeraSans-Roman-30"/>
      </g>
     </g>
    </g>
    <g id="ytick_4">
     <g id="line2d_19">
      <g>
       <use style="stroke:#000000;stroke-width:0.5;" x="25.2625" xlink:href="#md7965d1ba0" y="171.417647059"/>
      </g>
     </g>
     <g id="line2d_20">
      <g>
       <use style="stroke:#000000;stroke-width:0.5;" x="574.121691176" xlink:href="#md9a1c1a7cd" y="171.417647059"/>
      </g>
     </g>
     <g id="text_10">
      <!-- 150 -->
      <g transform="translate(0.4725 174.728897059)scale(0.12 -0.12)">
       <use xlink:href="#BitstreamVeraSans-Roman-31"/>
       <use x="63.623046875" xlink:href="#BitstreamVeraSans-Roman-35"/>
       <use x="127.24609375" xlink:href="#BitstreamVeraSans-Roman-30"/>
      </g>
     </g>
    </g>
    <g id="ytick_5">
     <g id="line2d_21">
      <g>
       <use style="stroke:#000000;stroke-width:0.5;" x="25.2625" xlink:href="#md7965d1ba0" y="89.7901960784"/>
      </g>
     </g>
     <g id="line2d_22">
      <g>
       <use style="stroke:#000000;stroke-width:0.5;" x="574.121691176" xlink:href="#md9a1c1a7cd" y="89.7901960784"/>
      </g>
     </g>
     <g id="text_11">
      <!-- 200 -->
      <g transform="translate(0.03375 93.1014460784)scale(0.12 -0.12)">
       <use xlink:href="#BitstreamVeraSans-Roman-32"/>
       <use x="63.623046875" xlink:href="#BitstreamVeraSans-Roman-30"/>
       <use x="127.24609375" xlink:href="#BitstreamVeraSans-Roman-30"/>
      </g>
     </g>
    </g>
    <g id="ytick_6">
     <g id="line2d_23">
      <g>
       <use style="stroke:#000000;stroke-width:0.5;" x="25.2625" xlink:href="#md7965d1ba0" y="8.16274509804"/>
      </g>
     </g>
     <g id="line2d_24">
      <g>
       <use style="stroke:#000000;stroke-width:0.5;" x="574.121691176" xlink:href="#md9a1c1a7cd" y="8.16274509804"/>
      </g>
     </g>
     <g id="text_12">
      <!-- 250 -->
      <g transform="translate(0.03375 11.473995098)scale(0.12 -0.12)">
       <use xlink:href="#BitstreamVeraSans-Roman-32"/>
       <use x="63.623046875" xlink:href="#BitstreamVeraSans-Roman-35"/>
       <use x="127.24609375" xlink:href="#BitstreamVeraSans-Roman-30"/>
      </g>
     </g>
    </g>
   </g>
  </g>
 </g>
 <defs>
  <clipPath id="pf7cb0f9780">
   <rect height="416.3" width="548.859191176" x="25.2625" y="0.0"/>
  </clipPath>
 </defs>
</svg>
